<svg viewBox="0 0 128 128" xmlns="http://www.w3.org/2000/svg"><path d="m26 5-21 33h118l-21-33z" fill="#a6a6a6"/><path d="m5 123h118v-85h-118z" fill="#b5b5b5"/><path d="m50 37v26l6-6 8 8 8-8 6 6v-26l-6-32h-17z" fill="#cecece"/><g fill="#4d4d4d"><path d="m25.45 78.53h9.86q2.92 0 4.7.79 1.8.79 2.97 2.27 1.17 1.48 1.7 3.44.53 1.96.53 4.16 0 3.44-.79 5.35-.78 1.89-2.17 3.18-1.39 1.27-2.99 1.7-2.18.58-3.96.58h-9.86zm6.64 4.86v11.73h1.63q2.08 0 2.96-.45.88-.47 1.38-1.61.5-1.16.5-3.74 0-3.41-1.11-4.67-1.11-1.26-3.69-1.26z"/><path d="m48.96 78.53h6.65v21.47h-6.65z"/><path d="m58.24 78.53h6.94l4.83 15.45 4.76-15.45h6.74l-7.96 21.47h-7.19z"/><path d="m82.22 78.53h7.31l3.81 6.61 3.69-6.61h7.24l-6.68 10.4 7.31 11.07h-7.46l-4.23-6.9-4.25 6.9h-7.41l7.41-11.19z"/></g></svg>