<svg viewBox="0 0 128 128" xmlns="http://www.w3.org/2000/svg"><path d="m26 5-21 33h118l-21-33z" fill="#a6a6a6"/><path d="m5 123h118v-85h-118z" fill="#b5b5b5"/><path d="m50 37v26l6-6 8 8 8-8 6 6v-26l-6-32h-17z" fill="#cecece"/><g fill="#4d4d4d"><path d="m10.1 76.39h8.54q2.53 0 4.08.69 1.56.69 2.58 1.97 1.02 1.28 1.47 2.98.46 1.7.46 3.61 0 2.98-.69 4.63-.67 1.64-1.88 2.75-1.2 1.1-2.59 1.47-1.89.51-3.42.51h-8.54zm5.75 4.21v10.17h1.41q1.8 0 2.56-.39.76-.41 1.19-1.4.43-1 .43-3.24 0-2.96-.96-4.05-.96-1.09-3.2-1.09z"/><path d="m27.52 76.39h6.02l4.19 13.39 4.13-13.39h5.84l-6.91 18.61h-6.23z"/><path d="m49.66 95v-18.61h9.58q2.67 0 4.08.46 1.41.46 2.27 1.7.86 1.23.86 3.01 0 1.55-.66 2.68-.66 1.12-1.82 1.82-.74.44-2.02.74 1.03.34 1.5.69.32.23.91.98.61.75.81 1.16l2.8 5.37h-6.5l-3.07-5.69q-.58-1.1-1.04-1.43-.62-.43-1.41-.43h-.51v7.55zm5.78-11.07h2.42q.39 0 1.52-.25.57-.11.93-.58.37-.47.37-1.08 0-.9-.57-1.38-.57-.48-2.15-.48h-2.53z"/><path d="m68.48 86.21h7.52v4h-7.52z"/><path d="m78.4 76.39h7.57l2.92 11.32 2.91-11.32h7.54v18.61h-4.7v-14.19l-3.64 14.19h-4.25l-3.64-14.19v14.19h-4.71z"/><path d="m102 88.84 5.48-.34q.18 1.33.72 2.03.89 1.13 2.54 1.13 1.23 0 1.89-.57.67-.58.67-1.35 0-.72-.63-1.29-.63-.57-2.95-1.08-3.78-.85-5.4-2.26-1.63-1.41-1.63-3.59 0-1.43.83-2.7.84-1.28 2.5-2.01 1.68-.74 4.58-.74 3.57 0 5.43 1.33 1.88 1.32 2.23 4.21l-5.42.32q-.22-1.26-.91-1.83-.69-.57-1.9-.57-1 0-1.51.43-.51.42-.51 1.03 0 .44.42.8.41.37 1.93.69 3.77.81 5.4 1.65 1.64.83 2.37 2.06.75 1.23.75 2.75 0 1.79-.99 3.3-.99 1.51-2.77 2.3-1.78.77-4.48.77-4.75 0-6.58-1.83-1.83-1.83-2.07-4.65z"/></g></svg>