<svg viewBox="0 0 128 128" xmlns="http://www.w3.org/2000/svg"><path d="m26 5-21 33h118l-21-33z" fill="#a6a6a6"/><path d="m5 123h118v-85h-118z" fill="#b5b5b5"/><path d="m50 37v26l6-6 8 8 8-8 6 6v-26l-6-32h-17z" fill="#cecece"/><g fill="#4d4d4d"><path d="m23.09 75.8h22.53v5.81h-14.11v4.32h13.08v5.55h-13.08v5.36h14.51v6.16h-22.93z"/><path d="m47.86 75.8h8.79l6.12 19.58 6.03-19.58h8.54l-10.09 27.2h-9.11z"/><path d="m77.75 89.42q0-6.66 3.71-10.37 3.71-3.71 10.33-3.71 6.79 0 10.46 3.66 3.67 3.64 3.67 10.21 0 4.77-1.61 7.83-1.6 3.04-4.64 4.75-3.02 1.69-7.55 1.69-4.6 0-7.63-1.47-3.01-1.47-4.88-4.64-1.87-3.17-1.87-7.94zm8.41.04q0 4.12 1.52 5.92 1.54 1.8 4.17 1.8 2.71 0 4.19-1.76 1.48-1.76 1.48-6.33 0-3.84-1.56-5.6-1.54-1.78-4.19-1.78-2.54 0-4.08 1.8-1.54 1.8-1.54 5.96z"/></g></svg>