<svg viewBox="0 0 128 128" xmlns="http://www.w3.org/2000/svg"><path d="m26 5-21 33h118l-21-33z" fill="#a6a6a6"/><path d="m5 123h118v-85h-118z" fill="#b5b5b5"/><path d="m50 37v26l6-6 8 8 8-8 6 6v-26l-6-32h-17z" fill="#cecece"/><g fill="#4d4d4d"><path d="m26.7 75.8h20.78v5.84h-12.34v4.75h10.54v5.49h-10.54v11.12h-8.44z"/><path d="m63.77 97.92h-13.77v-6.22l13.77-16.37h6.59v16.72h3.41v5.86h-3.42v5.09h-6.59zm0-5.86v-8.55l-7.27 8.55z"/><path d="m74.66 75.8h8.79l6.12 19.58 6.03-19.58h8.54l-10.09 27.2h-9.11z"/></g></svg>