<svg viewBox="0 0 128 128" xmlns="http://www.w3.org/2000/svg"><path d="m26 5-21 33h118l-21-33z" fill="#a6a6a6"/><path d="m5 123h118v-85h-118z" fill="#b5b5b5"/><path d="m50 37v26l6-6 8 8 8-8 6 6v-26l-6-32h-17z" fill="#cecece"/><g fill="#4d4d4d"><path d="m20.3 78.53h8.73l3.37 13.07 3.35-13.07h8.7v21.47h-5.42v-16.38l-4.2 16.38h-4.91l-4.19-16.38v16.38h-5.43z"/><path d="m65.18 100h-17.9q.31-2.65 1.86-4.98 1.57-2.34 5.86-5.52 2.62-1.95 3.35-2.96.73-1.01.73-1.92 0-.98-.73-1.67-.72-.7-1.82-.7-1.14 0-1.88.72-.72.72-.97 2.53l-5.98-.48q.35-2.52 1.29-3.93.94-1.42 2.64-2.17 1.71-.76 4.73-.76 3.15 0 4.89.72 1.76.72 2.75 2.21 1.01 1.48 1.01 3.33 0 1.96-1.16 3.75-1.14 1.79-4.17 3.93-1.8 1.25-2.42 1.74-.6.5-1.42 1.3h9.32z"/><path d="m67.19 78.53h20.17v5.3h-6.77v16.17h-6.64v-16.17h-6.77z"/><path d="m89.2 92.9 6.32-.4q.21 1.54.83 2.34 1.03 1.3 2.93 1.3 1.42 0 2.18-.66.78-.67.78-1.55 0-.83-.73-1.49-.73-.66-3.4-1.25-4.37-.98-6.23-2.61-1.88-1.63-1.88-4.15 0-1.66.95-3.12.97-1.48 2.89-2.31 1.93-.85 5.29-.85 4.12 0 6.27 1.54 2.17 1.52 2.58 4.86l-6.25.37q-.25-1.45-1.05-2.11-.79-.66-2.2-.66-1.16 0-1.74.5-.59.48-.59 1.19 0 .51.48.92.47.42 2.23.79 4.35.94 6.23 1.9 1.89.95 2.74 2.37.86 1.42.86 3.18 0 2.07-1.14 3.81-1.14 1.74-3.19 2.65-2.05.89-5.17.89-5.48 0-7.59-2.11-2.11-2.11-2.39-5.36z"/></g></svg>