<svg viewBox="0 0 128 128" xmlns="http://www.w3.org/2000/svg"><path d="m26 5-21 33h118l-21-33z" fill="#a6a6a6"/><path d="m5 123h118v-85h-118z" fill="#b5b5b5"/><path d="m50 37v26l6-6 8 8 8-8 6 6v-26l-6-32h-17z" fill="#cecece"/><g fill="#4d4d4d"><path d="m21.31 75.8h11.06l4.27 16.55 4.25-16.55h11.01v27.2h-6.86v-20.74l-5.33 20.74h-6.22l-5.3-20.74v20.74h-6.88z"/><path d="m75.37 91.89 7.37 2.23q-.74 3.1-2.34 5.18-1.6 2.08-3.97 3.14-2.36 1.06-6.01 1.06-4.43 0-7.25-1.28-2.8-1.3-4.84-4.55-2.04-3.25-2.04-8.31 0-6.75 3.58-10.37 3.6-3.64 10.17-3.64 5.14 0 8.07 2.08 2.95 2.08 4.38 6.38l-7.42 1.65q-.4-1.26-.83-1.83-.7-.97-1.72-1.49-1.02-.51-2.29-.51-2.86 0-4.38 2.3-1.15 1.71-1.15 5.36 0 4.53 1.37 6.22 1.37 1.67 3.86 1.67 2.41 0 3.64-1.35 1.24-1.35 1.8-3.93z"/><path d="m86.86 75.8h20.78v5.84h-12.34v4.75h10.54v5.49h-10.54v11.12h-8.44z"/></g></svg>