<svg viewBox="0 0 128 128" xmlns="http://www.w3.org/2000/svg"><path d="m26 5-21 33h118l-21-33z" fill="#a6a6a6"/><path d="m5 123h118v-85h-118z" fill="#b5b5b5"/><path d="m50 37v26l6-6 8 8 8-8 6 6v-26l-6-32h-17z" fill="#cecece"/><g fill="#4d4d4d"><path d="m18.15 75.8h11.06l4.27 16.55 4.25-16.55h11.02v27.2h-6.87v-20.74l-5.32 20.74h-6.22l-5.3-20.74v20.74h-6.88z"/><path d="m54.15 75.8h8.41v10.28l8.81-10.28h11.17l-9.91 10.26 10.35 16.94h-10.35l-5.74-11.19-4.34 4.55v6.64h-8.41z"/><path d="m83.07 75.8h8.79l6.12 19.58 6.03-19.58h8.54l-10.09 27.2h-9.11z"/></g></svg>