<svg viewBox="0 0 128 128" xmlns="http://www.w3.org/2000/svg"><path d="m26 5-21 33h118l-21-33z" fill="#a6a6a6"/><path d="m5 123h118v-85h-118z" fill="#b5b5b5"/><path d="m50 37v26l6-6 8 8 8-8 6 6v-26l-6-32h-17z" fill="#cecece"/><g fill="#4d4d4d"><path d="m22.36 75.8h11.06l4.27 16.55 4.25-16.55h11.02v27.2h-6.87v-20.74l-5.32 20.74h-6.22l-5.3-20.74v20.74h-6.88z"/><path d="m58.29 75.8h13.97q4.56 0 6.83 2.17 2.28 2.17 2.28 6.18 0 4.12-2.49 6.44-2.47 2.32-7.55 2.32h-4.6v10.09h-8.44zm8.44 11.6h2.06q2.43 0 3.41-.83.98-.85.98-2.17 0-1.28-.85-2.17-.85-.89-3.21-.89h-2.39z"/><path d="m97.53 97.92h-13.77v-6.22l13.77-16.37h6.59v16.72h3.41v5.86h-3.41v5.09h-6.59zm0-5.86v-8.55l-7.27 8.55z"/></g></svg>