<svg viewBox="0 0 128 128" xmlns="http://www.w3.org/2000/svg"><path d="m26 5-21 33h118l-21-33z" fill="#a6a6a6"/><path d="m5 123h118v-85h-118z" fill="#b5b5b5"/><path d="m50 37v26l6-6 8 8 8-8 6 6v-26l-6-32h-17z" fill="#cecece"/><g fill="#4d4d4d"><path d="m17.81 78.53h8.73l3.37 13.07 3.35-13.07h8.7v21.47h-5.42v-16.38l-4.2 16.38h-4.91l-4.19-16.38v16.38h-5.43z"/><path d="m46.17 78.53h11.03q3.6 0 5.39 1.71 1.8 1.71 1.8 4.88 0 3.25-1.96 5.08-1.95 1.83-5.96 1.83h-3.64v7.97h-6.67zm6.67 9.16h1.63q1.92 0 2.7-.66.78-.67.78-1.71 0-1.01-.67-1.71-.67-.7-2.53-.7h-1.89z"/><path d="m67.85 78.53h17.78v4.58h-11.13v3.41h10.32v4.38h-10.32v4.23h11.45v4.87h-18.1z"/><path d="m100.32 92.22v-4.47h10.25v9.16q-2.94 2.01-5.21 2.74-2.26.72-5.36.72-3.82 0-6.24-1.3-2.4-1.3-3.74-3.88-1.32-2.58-1.32-5.92 0-3.52 1.45-6.11 1.45-2.61 4.25-3.96 2.18-1.04 5.87-1.04 3.56 0 5.32.64 1.77.64 2.93 2.01 1.17 1.35 1.76 3.43l-6.4 1.14q-.4-1.22-1.35-1.86-.94-.64-2.4-.64-2.18 0-3.49 1.52-1.29 1.51-1.29 4.79 0 3.49 1.3 4.98 1.32 1.49 3.66 1.49 1.11 0 2.12-.32 1.01-.32 2.31-1.1v-2.02z"/></g></svg>