<svg viewBox="0 0 128 128" xmlns="http://www.w3.org/2000/svg"><path d="m26 5-21 33h118l-21-33z" fill="#a6a6a6"/><path d="m5 123h118v-85h-118z" fill="#b5b5b5"/><path d="m50 37v26l6-6 8 8 8-8 6 6v-26l-6-32h-17z" fill="#cecece"/><g fill="#4d4d4d"><path d="m21.31 75.8h11.06l4.27 16.55 4.25-16.55h11.01v27.2h-6.86v-20.74l-5.33 20.74h-6.22l-5.3-20.74v20.74h-6.88z"/><path d="m55.39 75.8h9.26l4.82 8.37 4.68-8.37h9.17l-8.47 13.17 9.26 14.03h-9.44l-5.36-8.74-5.38 8.74h-9.39l9.39-14.18z"/><path d="m86.86 75.8h20.78v5.84h-12.34v4.75h10.54v5.49h-10.54v11.12h-8.44z"/></g></svg>