<svg viewBox="0 0 128 128" xmlns="http://www.w3.org/2000/svg"><path d="m26 5-21 33h118l-21-33z" fill="#a6a6a6"/><path d="m5 123h118v-85h-118z" fill="#b5b5b5"/><path d="m50 37v26l6-6 8 8 8-8 6 6v-26l-6-32h-17z" fill="#cecece"/><g fill="#4d4d4d"><path d="m18.24 89.42q0-6.66 3.71-10.37 3.71-3.71 10.33-3.71 6.79 0 10.46 3.66 3.67 3.64 3.67 10.21 0 4.77-1.61 7.83-1.6 3.04-4.64 4.75-3.02 1.69-7.55 1.69-4.6 0-7.63-1.47-3.01-1.47-4.88-4.64-1.87-3.17-1.87-7.94zm8.41.04q0 4.12 1.52 5.92 1.54 1.8 4.17 1.8 2.71 0 4.19-1.76 1.48-1.76 1.48-6.33 0-3.84-1.56-5.6-1.54-1.78-4.19-1.78-2.54 0-4.08 1.8-1.54 1.8-1.54 5.96z"/><path d="m64.63 93.15v-5.66h12.99v11.6q-3.73 2.54-6.61 3.47-2.86.91-6.79.91-4.84 0-7.9-1.65-3.04-1.65-4.73-4.92-1.67-3.27-1.67-7.5 0-4.45 1.84-7.74 1.84-3.3 5.38-5.01 2.76-1.32 7.44-1.32 4.51 0 6.74.82 2.25.82 3.71 2.54 1.48 1.71 2.23 4.34l-8.11 1.45q-.5-1.54-1.71-2.36-1.19-.82-3.04-.82-2.76 0-4.42 1.93-1.63 1.91-1.63 6.07 0 4.42 1.65 6.31 1.67 1.89 4.64 1.89 1.41 0 2.69-.41 1.28-.41 2.93-1.39v-2.56z"/><path d="m96.29 93.15v-5.66h12.99v11.6q-3.73 2.54-6.61 3.47-2.86.91-6.79.91-4.84 0-7.9-1.65-3.04-1.65-4.73-4.92-1.67-3.27-1.67-7.5 0-4.45 1.84-7.74 1.84-3.3 5.38-5.01 2.76-1.32 7.44-1.32 4.51 0 6.74.82 2.25.82 3.71 2.54 1.48 1.71 2.23 4.34l-8.11 1.45q-.5-1.54-1.71-2.36-1.19-.82-3.04-.82-2.76 0-4.42 1.93-1.63 1.91-1.63 6.07 0 4.42 1.65 6.31 1.67 1.89 4.64 1.89 1.41 0 2.69-.41 1.28-.41 2.93-1.39v-2.56z"/></g></svg>