<svg viewBox="0 0 128 128" xmlns="http://www.w3.org/2000/svg"><path d="m26 5-21 33h118l-21-33z" fill="#a6a6a6"/><path d="m5 123h118v-85h-118z" fill="#b5b5b5"/><path d="m50 37v26l6-6 8 8 8-8 6 6v-26l-6-32h-17z" fill="#cecece"/><g fill="#4d4d4d"><path d="m36.7 72.94h15.44q5.04 0 7.55 2.4 2.52 2.4 2.52 6.83 0 4.55-2.75 7.12-2.73 2.56-8.35 2.56h-5.07v11.15h-9.33zm9.33 12.82h2.28q2.69 0 3.77-.92 1.09-.94 1.09-2.4 0-1.42-.94-2.4-.94-.98-3.55-.98h-2.65z"/><path d="m65.46 93.05 8.83-.55q.29 2.15 1.17 3.28 1.44 1.83 4.1 1.83 1.99 0 3.06-.92 1.09-.94 1.09-2.17 0-1.17-1.03-2.09-1.03-.92-4.76-1.74-6.11-1.37-8.72-3.65-2.63-2.28-2.63-5.8 0-2.32 1.33-4.37 1.35-2.07 4.04-3.24 2.71-1.19 7.4-1.19 5.76 0 8.78 2.15 3.04 2.13 3.61 6.81l-8.76.51q-.33-2.04-1.46-2.97-1.1-.92-3.07-.92-1.62 0-2.44.7-.82.68-.82 1.66 0 .72.68 1.29.66.59 3.12 1.11 6.09 1.31 8.72 2.67 2.65 1.33 3.83 3.32 1.21 1.99 1.21 4.45 0 2.89-1.6 5.33-1.6 2.44-4.47 3.71-2.87 1.25-7.24 1.25-7.67 0-10.62-2.95-2.95-2.95-3.34-7.51z"/></g></svg>