<svg viewBox="0 0 128 128" xmlns="http://www.w3.org/2000/svg"><path d="m26 5-21 33h118l-21-33z" fill="#a6a6a6"/><path d="m5 123h118v-85h-118z" fill="#b5b5b5"/><path d="m50 37v26l6-6 8 8 8-8 6 6v-26l-6-32h-17z" fill="#cecece"/><g fill="#4d4d4d"><path d="m17.13 100v-21.47h11.06q3.08 0 4.7.53 1.63.53 2.62 1.96 1 1.42 1 3.47 0 1.79-.76 3.09-.76 1.29-2.09 2.09-.85.51-2.33.85 1.19.4 1.73.79.37.26 1.05 1.13.7.86.94 1.33l3.2 6.23h-7.5l-3.55-6.56q-.67-1.28-1.2-1.66-.72-.5-1.62-.5h-.59v8.72zm6.67-12.77h2.8q.45 0 1.76-.29.66-.13 1.07-.67.42-.54.42-1.25 0-1.04-.66-1.6-.66-.56-2.48-.56h-2.92z"/><path d="m40.3 78.53h8.73l3.37 13.07 3.35-13.07h8.7v21.47h-5.42v-16.38l-4.2 16.38h-4.91l-4.19-16.38v16.38h-5.43z"/><path d="m66.56 78.53h6.94l4.83 15.45 4.76-15.45h6.74l-7.96 21.47h-7.19z"/><path d="m92.04 78.53h12.42q3.11 0 4.76 1.54 1.67 1.54 1.67 3.81 0 1.9-1.19 3.27-.79.91-2.31 1.44 2.31.56 3.4 1.92 1.1 1.35 1.1 3.4 0 1.67-.78 3-.78 1.33-2.12 2.11-.83.48-2.52.7-2.25.28-2.98.28h-11.45zm6.69 8.42h2.89q1.55 0 2.15-.53.62-.54.62-1.55 0-.94-.62-1.46-.6-.53-2.11-.53h-2.93zm0 8.44h3.38q1.71 0 2.42-.6.7-.62.7-1.64 0-.95-.7-1.52-.69-.59-2.43-.59h-3.37z"/></g></svg>