<svg viewBox="0 0 128 128" xmlns="http://www.w3.org/2000/svg"><path d="m26 5-21 33h118l-21-33z" fill="#a6a6a6"/><path d="m5 123h118v-85h-118z" fill="#b5b5b5"/><path d="m50 37v26l6-6 8 8 8-8 6 6v-26l-6-32h-17z" fill="#cecece"/><g fill="#4d4d4d"><path d="m19.36 75.8h8.79l6.12 19.58 6.03-19.58h8.54l-10.09 27.2h-9.11z"/><path d="m49.25 89.42q0-6.66 3.71-10.37 3.71-3.71 10.33-3.71 6.79 0 10.46 3.66 3.67 3.64 3.67 10.21 0 4.77-1.61 7.83-1.6 3.04-4.64 4.75-3.02 1.69-7.55 1.69-4.6 0-7.63-1.47-3.01-1.47-4.88-4.64-1.87-3.17-1.87-7.94zm8.41.04q0 4.12 1.52 5.92 1.54 1.8 4.17 1.8 2.71 0 4.19-1.76 1.48-1.76 1.48-6.33 0-3.84-1.56-5.6-1.54-1.78-4.19-1.78-2.54 0-4.08 1.8-1.54 1.8-1.54 5.96z"/><path d="m81.98 75.8h15.73q3.93 0 6.03 1.95 2.12 1.95 2.12 4.82 0 2.41-1.5 4.14-1 1.15-2.93 1.82 2.93.71 4.3 2.43 1.39 1.71 1.39 4.3 0 2.12-.98 3.8-.98 1.69-2.69 2.67-1.06.61-3.19.89-2.84.38-3.77.38h-14.51zm8.48 10.67h3.66q1.97 0 2.73-.67.78-.69.78-1.97 0-1.19-.78-1.86-.76-.67-2.67-.67h-3.71zm0 10.69h4.29q2.17 0 3.06-.76.89-.78.89-2.08 0-1.21-.89-1.93-.87-.74-3.08-.74h-4.27z"/></g></svg>