<svg viewBox="0 0 128 128" xmlns="http://www.w3.org/2000/svg"><path d="m26 5-21 33h118l-21-33z" fill="#a6a6a6"/><path d="m5 123h118v-85h-118z" fill="#b5b5b5"/><path d="m50 37v26l6-6 8 8 8-8 6 6v-26l-6-32h-17z" fill="#cecece"/><g fill="#4d4d4d"><path d="m12.33 78.53h6.3l2.27 12 3.31-12h6.28l3.33 12 2.27-12h6.27l-4.73 21.47h-6.51l-3.76-13.52-3.75 13.52h-6.5z"/><path d="m44.52 78.53h17.78v4.58h-11.12v3.41h10.32v4.38h-10.32v4.23h11.45v4.87h-18.11z"/><path d="m66.22 78.53h12.42q3.11 0 4.76 1.54 1.67 1.54 1.67 3.81 0 1.9-1.19 3.27-.79.91-2.31 1.44 2.31.56 3.4 1.92 1.1 1.35 1.1 3.4 0 1.67-.78 3-.78 1.33-2.12 2.11-.83.48-2.52.7-2.24.28-2.98.28h-11.45zm6.69 8.42h2.89q1.55 0 2.15-.53.62-.54.62-1.55 0-.94-.62-1.46-.6-.53-2.11-.53h-2.93zm0 8.44h3.38q1.71 0 2.42-.6.7-.62.7-1.64 0-.95-.7-1.52-.69-.59-2.43-.59h-3.37z"/><path d="m89.47 78.53h8.73l3.37 13.07 3.35-13.07h8.7v21.47h-5.42v-16.38l-4.2 16.38h-4.91l-4.19-16.38v16.38h-5.43z"/></g></svg>