<svg viewBox="0 0 128 128" xmlns="http://www.w3.org/2000/svg"><path d="m26 5-21 33h118l-21-33z" fill="#a6a6a6"/><path d="m5 123h118v-85h-118z" fill="#b5b5b5"/><path d="m50 37v26l6-6 8 8 8-8 6 6v-26l-6-32h-17z" fill="#cecece"/><g fill="#4d4d4d"><path d="m16.48 75.8h7.98l2.88 15.2 4.19-15.2h7.96l4.21 15.2 2.88-15.2h7.94l-5.99 27.2h-8.24l-4.77-17.13-4.75 17.13h-8.24z"/><path d="m55.37 75.8h25.55v6.72h-8.57v20.48h-8.41v-20.48h-8.57z"/><path d="m82.04 75.8h8.79l6.12 19.58 6.03-19.58h8.54l-10.1 27.2h-9.11z"/></g></svg>