<svg viewBox="0 0 126 84" xmlns="http://www.w3.org/2000/svg"><rect fill="#202020" height="75.2" ry="5.7" stroke="#202020" stroke-width=".8" width="115" x="5.4" y="4.4"/><path d="m76.24 11.42c-2.25 0-4.12 1.67-4.12 3.63v18.91c0 1.96 3.33 3.92 3.33 3.92-.39 2.94-1.96 3.92-.49 6.08.88.98 15.48-6.47 15.48-6.47h16.17c2.25 0 4.12-1.57 4.12-3.53v-18.91c0-1.96-1.86-3.63-4.12-3.63zm0 2.45h30.38c.78 0 1.37.49 1.37 1.18v18.91c0 .69-.59 1.18-1.37 1.18h-16.95l-13.13 6.08 1.96-4.51c-1.27-.69-2.94-2.16-3.63-2.74v-18.91c0-.69.69-1.18 1.47-1.18zm14.41 2.16v3.14h-6.08v3.04h8.82a15.68 15.68 0 0 1 -1.18 1.86l-.78.88-1.96-1.96-2.25 1.96 1.96 2.06c-1.27.98-2.94 1.47-4.61 1.47v3.14c2.94 0 5.19-1.08 7.06-2.55a10.78 10.78 0 0 0 6.27 2.55v-3.14c-1.27 0-2.74-.69-4.12-1.57l.78-.98c.88-1.18 1.57-2.45 2.16-3.72h3.04v-3.14h-6.08v-3.04z" fill="#fff" stroke-width=".98"/><path d="m25.1 24c-2.07 0-3.73.57-5 1.7-1.2 1.07-1.8 2.5-1.8 4.3 0 1.47.43 2.63 1.3 3.5s2.23 1.53 4.1 2l1.5.3c1.33.33 2.27.77 2.8 1.3s.8 1.3.8 2.3c0 1.07-.4 1.93-1.2 2.6s-1.87 1-3.2 1c-1 0-1.93-.17-2.8-.5-1-.33-2-.83-3-1.5v2.8c.93.47 1.87.8 2.8 1 1 .2 2 .3 3 .3 2.27 0 4-.5 5.2-1.5 1.2-1.07 1.8-2.53 1.8-4.4 0-1.73-.43-3.07-1.3-4s-2.27-1.63-4.2-2.1l-1.4-.3c-1.4-.33-2.33-.77-2.8-1.3-.53-.4-.8-1.07-.8-2 0-1 .4-1.8 1.2-2.4.73-.6 1.77-.9 3.1-.9.8 0 1.63.13 2.5.4s1.7.67 2.5 1.2v-2.7l-2.7-.8c-.87-.2-1.67-.3-2.4-.3zm10.2.3v12.6c0 2.07.13 3.53.4 4.4.2.87.63 1.6 1.3 2.2.6.53 1.3.93 2.1 1.2.73.27 1.6.4 2.6.4.93 0 1.8-.13 2.6-.4.73-.27 1.43-.67 2.1-1.2.6-.6 1.03-1.33 1.3-2.2s.4-2.33.4-4.4v-12.6h-2.8v13.8l-.1 2c0 .47-.07.8-.2 1-.33.53-.77.94-1.3 1.2-.53.33-1.2.5-2 .5s-1.47-.17-2-.5c-.6-.27-1.03-.64-1.3-1.1l-.3-1-.1-2.2v-13.7zm17.1 0v20.4h6c2.4 0 4.2-.47 5.4-1.4 1.27-.93 1.9-2.33 1.9-4.2 0-1.47-.4-2.67-1.2-3.6-.73-.93-1.77-1.5-3.1-1.7 1.2-.2 2.07-.63 2.6-1.3.6-.8.9-1.8.9-3 0-1.67-.53-2.97-1.6-3.9-1.13-.87-2.77-1.3-4.9-1.3zm2.8 2.3h3.2c1.33 0 2.27.2 2.8.6.67.47 1 1.23 1 2.3 0 1.13-.3 1.93-.9 2.4-.6.53-1.57.8-2.9.8h-3.2zm3.2 8.3c1.6 0 2.73.33 3.4 1 .73.6 1.1 1.57 1.1 2.9 0 1.27-.33 2.2-1 2.8-.73.53-1.9.8-3.5.8h-3.2v-7.4zm-18.5 17.7c-2.07 0-3.6.8-4.6 2.4-1 1.53-1.5 3.93-1.5 7.2 0 3.13.5 5.47 1.5 7 1 1.6 2.53 2.4 4.6 2.4s3.6-.8 4.6-2.4c1-1.53 1.5-3.9 1.5-7.1v-.1c0-3.13-.5-5.47-1.5-7-1.07-1.6-2.6-2.4-4.6-2.4zm31.6 0c-2.27 0-4.07.83-5.4 2.5s-2 4-2 7 .67 5.33 2 7c1.27 1.67 3.1 2.5 5.5 2.5.67 0 1.33-.1 2-.3.67-.13 1.33-.37 2-.7v-2.6c-.67.53-1.33.93-2 1.2s-1.37.4-2.1.4c-1.6 0-2.8-.63-3.6-1.9s-1.2-3.13-1.2-5.6.4-4.33 1.2-5.6 2.03-1.9 3.7-1.9c.67 0 1.33.13 2 .4s1.33.67 2 1.2v-2.6c-.67-.33-1.33-.57-2-.7-.67-.2-1.37-.3-2.1-.3zm-51.4.4.1 18.2h2.5v-8.7h7.5v-2.1h-7.5v-5.4h8.3v-2zm29 0v18.2h2.5v-7.7h2.3c.87 0 1.53.2 2 .6.47.33 1.03 1.17 1.7 2.5l2.2 4.6h2.7l-2.5-5c-.67-1.33-1.23-2.2-1.7-2.6-.4-.53-.94-.87-1.6-1 1.13-.2 2.03-.67 2.7-1.4s1-1.7 1-2.9c0-1.73-.53-3.07-1.6-4-1.07-.87-2.6-1.3-4.6-1.3zm30.9 0v18.2h11v-2.1h-8.6v-6.6h8v-2.1h-8v-5.4h8.3v-2zm14.2 0v18.2h3.7c2.8 0 4.87-.73 6.2-2.2s2-3.73 2-6.8c0-3.2-.67-5.53-2-7s-3.4-2.2-6.2-2.2zm-54.3 1.6c1.27 0 2.17.6 2.7 1.8.53 1.13.8 3.03.8 5.7s-.27 4.57-.8 5.7c-.53 1.2-1.43 1.8-2.7 1.8s-2.17-.6-2.7-1.8c-.53-1.13-.8-3.03-.8-5.7s.27-4.57.8-5.7c.53-1.2 1.43-1.8 2.7-1.8zm11.8.4h2.5c1.13 0 2.03.27 2.7.8.6.6.9 1.4.9 2.4 0 1.13-.27 1.97-.8 2.5-.6.53-1.5.8-2.7.8h-2.6zm45.1 0h1.2c2 0 3.4.5 4.2 1.5.87 1.07 1.3 2.93 1.3 5.6s-.43 4.5-1.3 5.5c-.87 1.07-2.3 1.6-4.3 1.6h-1.1z" fill="#d3d3d3"/></svg>