<svg viewBox="0 0 126 84" xmlns="http://www.w3.org/2000/svg"><rect fill="#202020" height="75.2" ry="5.7" stroke="#202020" width="115.2" x="5.4" y="4.4"/><path d="m28.6 32.5v2.8q-1.3-.8-2.6-1.2-1.2-.4-2.5-.4-2 0-3 .9-1.2.9-1.2 2.4 0 1.4.7 2 .8.8 2.8 1.3l1.5.3q2.8.7 4.1 2.1 1.3 1.4 1.3 4 0 2.8-1.8 4.4-1.8 1.5-5.2 1.5-1.4 0-2.9-.3-1.4-.3-2.9-1v-2.9q1.6 1 3 1.5 1.4.4 2.8.4 2 0 3.2-.9 1.2-1 1.2-2.6 0-1.5-.8-2.3-.8-.9-2.8-1.3l-1.5-.2q-2.8-.7-4-2-1.4-1.3-1.4-3.5 0-2.7 1.9-4.3 1.8-1.7 4.9-1.7 1.1 0 2.4.3 1.3.2 2.8.8zm9 17.5q3.4 0 4.8-1.8 1.4-1.7 1.4-6.2t-1.4-6.2q-1.3-1.8-4.8-1.8h-1.4v16zm0-18.2q4.7 0 6.9 2.5t2.2 7.7q0 5.2-2.2 7.7t-6.9 2.5h-4.1v-20.4zm12.7 0h2.8v8.2h7.6v-8.3h2.7v20.4h-2.7v-9.7h-7.7v9.7h-2.8z" fill="#d3d3d3"/><path d="m106.7 20-7.7 7.8a9 9 0 0 1 4.6 5.2l8.6-8.8c1.4-1.5-3.2-6.6-5.6-4.2zm-16.8 6.6h-.4c-5.6 0-10.6 4.9-12 8.7-.6 1-.7 2.3.2 3 1.8 1 2-2 2.5-3 4.6-10 19.6-7.4 20.5 3.7.4 3.2-.8 6.5-3.2 8.7-1.8 1.9-3.6 3.6-4.8 6-1.6 3.7-3.6 7.8-8 4.9-1.6-.9-2 1.5-.4 2.1a6 6 0 0 0 7.9-1.5c1.2-1.7 1.6-3.7 3-5.3 2.2-3.2 5.9-5.3 7-9.2.8-1.8 1-3.8.9-5.7a13 13 0 0 0 -13.2-12.4zm0 4h-.6a9 9 0 0 0 -7.6 5.4c-.1 1.1 1.7 1.7 2 .6a7 7 0 0 1 10-2.7c3 1.8 4.3 5.5 3 8.8-.1.8-1.4 1.8-.6 2.7 1 .7 2-.5 2.2-1.4a9.6 9.6 0 0 0 -1.1-10 9.5 9.5 0 0 0 -7.3-3.3zm-9.7 16.5c-3.8 3.6-7.5 7.4-10.3 10.2-2.5 2.6 1.8 7.4 4 5.6a339 339 0 0 0 11.8-12.3l-5.5-3.6z" fill="#fff"/></svg>