<svg viewBox="0 0 126 84" xmlns="http://www.w3.org/2000/svg"><rect fill="#171717" height="74" ry="5.43" stroke="#000" stroke-width="1.5" width="116" x="4.98" y="4.98"/><path d="m27.4 23.4c-.99 0-1.78.8-1.78 1.78v.71c0 .99.8 1.78 1.78 1.78h9.15c.99 0 1.78-.8 1.78-1.78v-.71c0-.99-.8-1.78-1.78-1.78zm.03 4.91c-.99 0-1.78.8-1.78 1.78v.71c0 .99.8 1.78 1.78 1.78h9.15c.99 0 1.78-.8 1.78-1.78v-.71c0-.99-.8-1.78-1.78-1.78zm-.06 4.99c-.99 0-1.78.8-1.78 1.78v.71c0 .99.8 1.78 1.78 1.78h9.15c.99 0 1.78-.8 1.78-1.78v-.71c0-.99-.8-1.78-1.78-1.78zm-14.3 0c-.99 0-1.78.8-1.78 1.78v.71c0 .99.8 1.78 1.78 1.78h9.15c.99 0 1.78-.8 1.78-1.78v-.71c0-.99-.8-1.78-1.78-1.78zm27.7 4.96c-.99 0-1.78.8-1.78 1.78v.71c0 .99.8 1.78 1.78 1.78h9.15c.99 0 1.78-.8 1.78-1.78v-.71c0-.99-.8-1.78-1.78-1.78zm-27.7.04c-.99 0-1.78.8-1.78 1.78v.71c0 .99.8 1.78 1.78 1.78h9.15c.99 0 1.78-.8 1.78-1.78v-.71c0-.99-.8-1.78-1.78-1.78zm14.1.06c-.99 0-1.78.8-1.78 1.78v.71c0 .99.8 1.78 1.78 1.78h9.15c.99 0 1.78-.8 1.78-1.78v-.71c0-.99-.8-1.78-1.78-1.78zm13.5 4.89c-.99 0-1.78.8-1.78 1.78v.71c0 .99.8 1.78 1.78 1.78h9.15c.99 0 1.78-.8 1.78-1.78v-.71c0-.99-.8-1.78-1.78-1.78zm-27.7.04c-.99 0-1.78.8-1.78 1.78v.71c0 .99.8 1.78 1.78 1.78h9.15c.99 0 1.78-.8 1.78-1.78v-.71c0-.99-.8-1.78-1.78-1.78zm14.1.06c-.99 0-1.78.8-1.78 1.78v.71c0 .99.8 1.78 1.78 1.78h9.15c.99 0 1.78-.8 1.78-1.78v-.71c0-.99-.8-1.78-1.78-1.78zm13.6 4.81c-.99 0-1.78.8-1.78 1.78v.71c0 .99.8 1.78 1.78 1.78h9.15c.99 0 1.78-.8 1.78-1.78v-.71c0-.99-.8-1.78-1.78-1.78zm-27.7.04c-.99 0-1.78.8-1.78 1.78v.71c0 .99.8 1.78 1.78 1.78h9.15c.99 0 1.78-.8 1.78-1.78v-.71c0-.99-.8-1.78-1.78-1.78zm14.1.06c-.99 0-1.78.8-1.78 1.78v.71c0 .99.8 1.78 1.78 1.78h9.15c.99 0 1.78-.8 1.78-1.78v-.71c0-.99-.8-1.78-1.78-1.78zm13.5 4.89c-.99 0-1.78.8-1.78 1.78v.71c0 .99.8 1.78 1.78 1.78h9.15c.99 0 1.78-.8 1.78-1.78v-.71c0-.99-.8-1.78-1.78-1.78zm-27.7.04c-.99 0-1.78.8-1.78 1.78v.71c0 .99.8 1.78 1.78 1.78h9.15c.99 0 1.78-.8 1.78-1.78v-.71c0-.99-.8-1.78-1.78-1.78zm14.1.06c-.99 0-1.78.8-1.78 1.78v.71c0 .99.8 1.78 1.78 1.78h9.15c.99 0 1.78-.8 1.78-1.78v-.71c0-.99-.8-1.78-1.78-1.78z" fill="#d8d8d8"/><path d="m78.2 28.3v28.6h6.89c5.2 0 8.97-2.66 8.97-8.39 0-3.97-1.85-6.04-5-6.78v-.15c2.85-.92 4.12-3.58 4.12-6.2 0-5.35-3.62-7.08-8.59-7.08zm-21.2 0 5.66 28.6h7.16l5.66-28.6h-5.78l-1.85 13.9c-.46 3.27-.85 6.31-1.42 9.55h-.19c-.5-3.23-.92-6.28-1.35-9.55l-1.92-13.9zm40.3.03v28.6h5.7v-10.8h1.54l3.81 10.8 6.01-.03-4.7-11.9c2.39-1.35 3.97-3.97 3.97-8.01 0-6.54-3.89-8.66-8.82-8.66zm-13.4 4.32h.77c1.89 0 2.89.89 2.89 3.54 0 2.62-.96 3.81-3 3.81h-.66zm19.1.15h1.27c2.35 0 3.77 1.04 3.77 4.12s-1.42 4.66-3.77 4.66h-1.27zm-19.1 11.3h.96c2.43 0 3.66 1.27 3.66 4.08 0 2.93-1.27 4.35-3.77 4.35h-.85z" fill="#e1e1e1"/></svg>