<svg viewBox="0 0 126 84" xmlns="http://www.w3.org/2000/svg"><rect fill="#171717" height="74.05" ry="5.43" stroke="#000" stroke-width="1.5" width="116.05" x="4.98" y="4.98"/><g stroke-width=".57"><path d="m55.6 41.89a20.29 20.29 0 0 1 -20.29 20.29 20.29 20.29 0 0 1 -20.29-20.29 20.29 20.29 0 0 1 20.29-20.29 20.29 20.29 0 0 1 20.29 20.29z" fill="#d8d8d8"/><path d="m54.12 41.89a18.81 18.81 0 0 1 -18.81 18.81 18.81 18.81 0 0 1 -18.81-18.81 18.81 18.81 0 0 1 18.81-18.81 18.81 18.81 0 0 1 18.81 18.81z" fill="#191919"/><path d="m49.76 41.88a14.25 14.25 0 0 1 -14.25 14.25 14.25 14.25 0 0 1 -14.25-14.25 14.25 14.25 0 0 1 14.25-14.25 14.25 14.25 0 0 1 14.25 14.25z" fill="#9d9d9d"/><path d="m40.95 42.17a5.7 5.7 0 0 1 -5.7 5.7 5.7 5.7 0 0 1 -5.7-5.7 5.7 5.7 0 0 1 5.7-5.7 5.7 5.7 0 0 1 5.7 5.7z" fill="#262626"/></g><path d="m93.41 29.5c-.82 0-1.63.05-2.43.26-3.44.97-6.21 5.23-6.19 9.93.02 2.01-.08 4.03.09 6.03.46 4.6 3.57 8.34 7.05 8.71 1.97.1 3.95.02 5.92.05 1.69.09 3.44-.18 4.92-1.34 2.47-1.77 4.09-5.38 4.03-9.1-.03-1.86.05-3.73-.08-5.58-.35-3.81-2.48-7.13-5.21-8.37-1.81-.88-3.75-.51-5.63-.59-.81.03-1.63-.01-2.45-.01zm-24.06.02v4.52h3.09v20.45h3.44v-24.96zm29.75 4.54c2.34-.01 4.32 2.86 4.23 5.91-.01 1.58.02 3.16-.02 4.73-.08 2.69-1.78 5.06-3.82 5.24-2.19.09-4.38.02-6.57.04-2.18.25-4.33-1.91-4.64-4.78-.14-1.79-.04-3.59-.07-5.39-.03-2.93 1.84-5.59 4.05-5.74 2.28-.04 4.55-.01 6.83-.02zm1.44 1.61c-.31-.03-.63.05-.91.26-2.72 2.37-5.43 4.77-8.14 7.15-.75.76-1.83 1.23-2.04 2.59-.3 1.72 1.23 3.32 2.42 2.49 3.08-2.71 6.16-5.43 9.25-8.15.93-.57 1.35-2.22.73-3.35-.27-.57-.78-.94-1.3-.99zm-19.92 14.31c-.68.08-1.32.74-1.5 1.63-.29 1.15.29 2.46 1.16 2.78 1.04.46 2.22-.75 2.18-2.17 0-.94-.5-1.81-1.16-2.12-.22-.11-.45-.15-.68-.12z" fill="#e1e1e1"/></svg>