<svg viewBox="0 0 126 84" xmlns="http://www.w3.org/2000/svg"><rect fill="#171717" height="74.05" ry="5.43" stroke="#000" stroke-width="1.5" width="116.05" x="4.98" y="4.98"/><g stroke-width=".57"><path d="m55.6 41.89a20.29 20.29 0 0 1 -20.29 20.29 20.29 20.29 0 0 1 -20.29-20.29 20.29 20.29 0 0 1 20.29-20.29 20.29 20.29 0 0 1 20.29 20.29z" fill="#d8d8d8"/><path d="m54.12 41.89a18.81 18.81 0 0 1 -18.81 18.81 18.81 18.81 0 0 1 -18.81-18.81 18.81 18.81 0 0 1 18.81-18.81 18.81 18.81 0 0 1 18.81 18.81z" fill="#191919"/><path d="m49.76 41.88a14.25 14.25 0 0 1 -14.25 14.25 14.25 14.25 0 0 1 -14.25-14.25 14.25 14.25 0 0 1 14.25-14.25 14.25 14.25 0 0 1 14.25 14.25z" fill="#9d9d9d"/><path d="m40.95 42.17a5.7 5.7 0 0 1 -5.7 5.7 5.7 5.7 0 0 1 -5.7-5.7 5.7 5.7 0 0 1 5.7-5.7 5.7 5.7 0 0 1 5.7 5.7z" fill="#262626"/></g><path d="m97.76 29.5c-.78 0-1.56.05-2.33.26-3.3.97-5.94 5.23-5.93 9.92.02 2.01-.07 4.03.09 6.03.44 4.6 3.42 8.34 6.75 8.71 1.89.1 3.77.02 5.66.05 1.62.09 3.29-.18 4.71-1.34 2.36-1.77 3.91-5.38 3.86-9.09-.03-1.86.05-3.73-.08-5.57-.33-3.81-2.37-7.12-4.99-8.37-1.73-.88-3.59-.51-5.39-.59-.78.03-1.56-.01-2.34-.01zm-32.2.04v4.52h2.96v20.44h3.29v-24.96zm9.16 0v4.52h2.96v20.44h3.29v-24.96zm28.48 4.52c2.24-.01 4.14 2.86 4.05 5.91-.01 1.58.02 3.16-.02 4.73-.08 2.68-1.7 5.06-3.66 5.24-2.09.09-4.19.02-6.28.04-2.08.25-4.14-1.91-4.45-4.78-.13-1.79-.04-3.59-.07-5.39-.03-2.92 1.76-5.59 3.88-5.73 2.18-.04 4.36-.01 6.54-.02zm1.38 1.61c-.3-.03-.61.05-.87.26-2.6 2.37-5.19 4.77-7.79 7.15-.71.76-1.76 1.23-1.95 2.59-.29 1.72 1.17 3.32 2.31 2.49 2.95-2.71 5.9-5.43 8.85-8.15.89-.57 1.3-2.22.7-3.34-.26-.57-.75-.94-1.25-.99zm-19.05 14.32c-.83.05-1.54 1.1-1.53 2.24-.02 1.12.65 2.14 1.45 2.24.93.17 1.83-.96 1.81-2.24 0-1.24-.83-2.33-1.73-2.24z" fill="#e1e1e1"/></svg>