<svg viewBox="0 0 126 84" xmlns="http://www.w3.org/2000/svg"><rect fill="#171717" height="74.05" ry="5.43" stroke="#000" stroke-width="1.5" width="116.05" x="4.98" y="4.98"/><g stroke-width=".57"><path d="m55.6 41.89a20.29 20.29 0 0 1 -20.29 20.29 20.29 20.29 0 0 1 -20.29-20.29 20.29 20.29 0 0 1 20.29-20.29 20.29 20.29 0 0 1 20.29 20.29z" fill="#d8d8d8"/><path d="m54.12 41.89a18.81 18.81 0 0 1 -18.81 18.81 18.81 18.81 0 0 1 -18.81-18.81 18.81 18.81 0 0 1 18.81-18.81 18.81 18.81 0 0 1 18.81 18.81z" fill="#191919"/><path d="m49.76 41.88a14.25 14.25 0 0 1 -14.25 14.25 14.25 14.25 0 0 1 -14.25-14.25 14.25 14.25 0 0 1 14.25-14.25 14.25 14.25 0 0 1 14.25 14.25z" fill="#9d9d9d"/><path d="m40.95 42.17a5.7 5.7 0 0 1 -5.7 5.7 5.7 5.7 0 0 1 -5.7-5.7 5.7 5.7 0 0 1 5.7-5.7 5.7 5.7 0 0 1 5.7 5.7z" fill="#262626"/></g><path d="m96.84 29.5v4.42h3.47v19.94h3.86v-24.36zm-28.36.64v4.42h3.47v19.94h3.86v-24.36zm10.73 0v4.42h3.47v19.94h3.86v-24.36zm14.99 19.3c-.89-.07-1.78.67-1.98 1.69-.27 1.11.37 2.34 1.33 2.63 1.16.44 2.48-.73 2.44-2.12 0-.96-.62-1.85-1.41-2.12-.13-.05-.25-.07-.38-.08z" fill="#e1e1e1" stroke-width="1.01"/></svg>