<svg viewBox="0 0 126 84" xmlns="http://www.w3.org/2000/svg"><rect fill="#171717" height="74.05" ry="5.43" stroke="#000" stroke-width="1.5" width="116.05" x="4.98" y="4.98"/><g stroke-width=".57"><path d="m55.6 41.89a20.29 20.29 0 0 1 -20.29 20.29 20.29 20.29 0 0 1 -20.29-20.29 20.29 20.29 0 0 1 20.29-20.29 20.29 20.29 0 0 1 20.29 20.29z" fill="#d8d8d8"/><path d="m54.12 41.89a18.81 18.81 0 0 1 -18.81 18.81 18.81 18.81 0 0 1 -18.81-18.81 18.81 18.81 0 0 1 18.81-18.81 18.81 18.81 0 0 1 18.81 18.81z" fill="#191919"/><path d="m49.76 41.88a14.25 14.25 0 0 1 -14.25 14.25 14.25 14.25 0 0 1 -14.25-14.25 14.25 14.25 0 0 1 14.25-14.25 14.25 14.25 0 0 1 14.25 14.25z" fill="#9d9d9d"/><path d="m40.95 42.17a5.7 5.7 0 0 1 -5.7 5.7 5.7 5.7 0 0 1 -5.7-5.7 5.7 5.7 0 0 1 5.7-5.7 5.7 5.7 0 0 1 5.7 5.7z" fill="#262626"/></g><path d="m99.55 29.5c-.79 0-1.57.05-2.34.26-3.32.97-5.98 5.23-5.97 9.92.02 2.01-.07 4.03.09 6.03 0 4.61 3.68 8.71 6.79 8.71 2.6.08 4.01.05 6.3.04 4.38 0 7.04-4.42 7.04-9.39-.03-1.86.05-4.77-.08-6.62 0-4.34-3.19-8.94-6.59-8.96-1.54 0-3.53.01-5.23-.01zm-31.61.02v4.52h9.4c.73.08 1.58-.26 2.17.47.52.85.28 2.03.33 3.04.09.93-.23 2.08-1.02 2.14-1.69.06-3.39.01-5.09.03-1.28.05-2.58-.13-3.84.17-1.96.52-3.31 3.09-3.43 5.73-.03 2.96 0 5.92-.01 8.88h16.73c0-1.52 0-3.03-.01-4.55h-13.42v-3.09c-.04-.99.09-2.37.96-2.54 1.65-.09 3.31-.02 4.97-.04 1.26-.04 2.53.11 3.78-.13 1.92-.42 3.56-2.7 3.7-5.39.02-1.53.13-3.08-.14-4.58-.44-2.54-2.13-4.56-4.06-4.64-3.67-.04-7.34-.01-11.01-.02zm36.11 4.54c2.24.25 4.16 2.86 4.08 5.91-.01 1.58.02 3.16-.02 4.73-.08 2.68-1.72 5.06-3.68 5.24-2.11.09-3.24.02-5.35.04-2.09.25-4.17-1.91-4.47-4.78-.13-1.79-.04-3.59-.07-5.39-.03-2.92 1.77-5.59 3.91-5.73 2.19-.04 3.42-.27 5.6-.02zm.29 2.28c-3.01 2.95-4.28 4.25-8.08 8.06-1.09 1.13 1.43 4.34 2.34 3.26 3.34-3.5 5.14-5.33 7.9-8.15 1.01-1.21-1.03-4.43-2.16-3.17zm-17.19 13.65c-.71.11-1.33.95-1.43 1.93-.15 1.16.5 2.34 1.34 2.53.96.28 1.95-.89 1.93-2.23 0-1.14-.7-2.15-1.52-2.23-.1-.02-.21-.02-.31 0z" fill="#e1e1e1"/></svg>