<svg viewBox="0 0 126 84" xmlns="http://www.w3.org/2000/svg"><rect fill="#171717" height="74.05" ry="5.43" stroke="#000" stroke-width="1.5" width="116.05" x="4.98" y="4.98"/><g stroke-width=".57"><path d="m55.6 41.89a20.29 20.29 0 0 1 -20.29 20.29 20.29 20.29 0 0 1 -20.29-20.29 20.29 20.29 0 0 1 20.29-20.29 20.29 20.29 0 0 1 20.29 20.29z" fill="#d8d8d8"/><path d="m54.12 41.89a18.81 18.81 0 0 1 -18.81 18.81 18.81 18.81 0 0 1 -18.81-18.81 18.81 18.81 0 0 1 18.81-18.81 18.81 18.81 0 0 1 18.81 18.81z" fill="#191919"/><path d="m49.76 41.88a14.25 14.25 0 0 1 -14.25 14.25 14.25 14.25 0 0 1 -14.25-14.25 14.25 14.25 0 0 1 14.25-14.25 14.25 14.25 0 0 1 14.25 14.25z" fill="#9d9d9d"/><path d="m40.95 42.17a5.7 5.7 0 0 1 -5.7 5.7 5.7 5.7 0 0 1 -5.7-5.7 5.7 5.7 0 0 1 5.7-5.7 5.7 5.7 0 0 1 5.7 5.7z" fill="#262626"/></g><path d="m94.97 29.5v4.42h3.47v19.94h3.86v-24.36zm-19.7.61c-2.14 0-4.28.01-6.41 0v4.41h10.97c.84.08 1.82-.25 2.51.46.6.84.32 1.99.39 2.99.1.9-.27 2.02-1.18 2.08-2.09.06-4.18.01-6.27.03-1.45.06-2.92-.16-4.34.22-2.19.6-3.65 3.05-3.8 5.55-.04 2.89-.01 5.77-.02 8.66h19.46v-4.45h-15.63v-3.02c-.05-.96.11-2.3 1.12-2.47 2.04-.09 4.08-.02 6.13-.04 1.43-.05 2.87.14 4.28-.18 2.21-.5 4.01-2.8 4.09-5.41 0-1.48.14-3-.22-4.45-.56-2.4-2.49-4.27-4.67-4.36-2.14-.02-4.27-.02-6.41-.02zm16.82 19.33c-.96.04-1.77 1.06-1.8 2.15-.06 1.14.81 2.2 1.79 2.26 1.05.1 2.07-.99 2.04-2.2.01-1.21-.98-2.28-2.03-2.2z" fill="#e1e1e1" stroke-width="1.01"/></svg>