<svg viewBox="0 0 126 84" xmlns="http://www.w3.org/2000/svg"><rect fill="#171717" height="74.05" ry="5.43" stroke="#000" stroke-width="1.5" width="116.05" x="4.98" y="4.98"/><g stroke-width=".57"><path d="m55.6 41.89a20.29 20.29 0 0 1 -20.29 20.29 20.29 20.29 0 0 1 -20.29-20.29 20.29 20.29 0 0 1 20.29-20.29 20.29 20.29 0 0 1 20.29 20.29z" fill="#d8d8d8"/><path d="m54.12 41.89a18.81 18.81 0 0 1 -18.81 18.81 18.81 18.81 0 0 1 -18.81-18.81 18.81 18.81 0 0 1 18.81-18.81 18.81 18.81 0 0 1 18.81 18.81z" fill="#191919"/><path d="m49.76 41.88a14.25 14.25 0 0 1 -14.25 14.25 14.25 14.25 0 0 1 -14.25-14.25 14.25 14.25 0 0 1 14.25-14.25 14.25 14.25 0 0 1 14.25 14.25z" fill="#9d9d9d"/><path d="m40.95 42.17a5.7 5.7 0 0 1 -5.7 5.7 5.7 5.7 0 0 1 -5.7-5.7 5.7 5.7 0 0 1 5.7-5.7 5.7 5.7 0 0 1 5.7 5.7z" fill="#262626"/></g><path d="m97.7 29.5c-.79 0-1.58.05-2.36.26-3.33.96-6.01 5.23-6 9.92.02 2.01-.08 4.03.09 6.03.45 4.6 3.46 8.34 6.83 8.71 1.91.1 3.82.02 5.73.05 1.64.09 3.33-.18 4.76-1.34 2.39-1.77 3.96-5.37 3.9-9.09-.03-1.86.05-3.72-.08-5.57-.33-3.81-2.4-7.12-5.04-8.36-1.75-.88-3.63-.51-5.45-.59-.79.03-1.58-.01-2.37-.01zm-32.04.05v4.52h10.35c.65-.1 1.46.21 1.57 1.23.1 1.47.02 2.96.05 4.44h-11.96v4.56h11.97v3.58c.11 1-.36 2.14-1.17 2.09-3.6.02-7.21 0-10.81.01v4.52h8.2c1.29-.06 2.61.18 3.87-.29 1.95-.68 3.35-3.34 3.24-6.06 0-2.97.01-5.93.01-8.9-.04-1.68.12-3.39-.17-5.03-.43-2.55-2.14-4.55-4.07-4.64-3.69-.04-7.38-.01-11.07-.02zm37.54 4.51c2.26-.01 4.19 2.86 4.1 5.91-.01 1.58.02 3.15-.02 4.73-.08 2.68-1.72 5.06-3.7 5.24-2.12.09-4.24.02-6.36.04-2.11.25-4.19-1.9-4.5-4.78-.13-1.79-.04-3.59-.07-5.38-.03-2.92 1.78-5.58 3.93-5.73 2.2-.04 4.41-.01 6.61-.02zm1.4 1.6c-.3-.03-.61.05-.88.26-2.63 2.37-5.25 4.76-7.88 7.14-.72.76-1.78 1.23-1.98 2.59-.29 1.72 1.19 3.32 2.34 2.49 2.99-2.71 5.97-5.43 8.95-8.14.9-.57 1.31-2.22.71-3.34-.27-.57-.76-.94-1.26-.99zm-19.27 14.31c-.78.06-1.46.95-1.54 2-.1 1.1.48 2.2 1.27 2.45.98.35 2.06-.83 2.02-2.21.01-1.23-.85-2.34-1.75-2.24z" fill="#e1e1e1"/></svg>