<svg viewBox="0 0 126 84" xmlns="http://www.w3.org/2000/svg"><rect fill="#171717" height="74.05" ry="5.43" stroke="#000" stroke-width="1.5" width="116.05" x="4.98" y="4.98"/><g stroke-width=".57"><path d="m55.6 41.89a20.29 20.29 0 0 1 -20.29 20.29 20.29 20.29 0 0 1 -20.29-20.29 20.29 20.29 0 0 1 20.29-20.29 20.29 20.29 0 0 1 20.29 20.29z" fill="#d8d8d8"/><path d="m54.12 41.89a18.81 18.81 0 0 1 -18.81 18.81 18.81 18.81 0 0 1 -18.81-18.81 18.81 18.81 0 0 1 18.81-18.81 18.81 18.81 0 0 1 18.81 18.81z" fill="#191919"/><path d="m49.76 41.88a14.25 14.25 0 0 1 -14.25 14.25 14.25 14.25 0 0 1 -14.25-14.25 14.25 14.25 0 0 1 14.25-14.25 14.25 14.25 0 0 1 14.25 14.25z" fill="#9d9d9d"/><path d="m40.95 42.17a5.7 5.7 0 0 1 -5.7 5.7 5.7 5.7 0 0 1 -5.7-5.7 5.7 5.7 0 0 1 5.7-5.7 5.7 5.7 0 0 1 5.7 5.7z" fill="#262626"/></g><path d="m95.9 29.5v4.41h3.47v19.93h3.86v-24.34zm-21.01.66c-2.13 0-4.27.01-6.4 0v4.41h11.99c.75-.09 1.69.21 1.82 1.2.11 1.44.03 2.89.06 4.33h-13.87v4.44h13.86v3.5c.13.97-.41 2.07-1.35 2.03-4.17.02-8.34 0-12.51.01v4.41h9.56c1.47-.06 2.97.18 4.4-.29 2.25-.66 3.87-3.26 3.75-5.92v-8.81c-.05-1.65.16-3.33-.24-4.94-.54-2.41-2.49-4.27-4.66-4.35-2.13-.02-4.27-.02-6.4-.02zm18.08 19.28c-.97.07-1.76 1.12-1.74 2.23-.02 1.07.75 2.02 1.66 2.14 1.09.2 2.19-.92 2.16-2.18 0-1.23-1.01-2.32-2.08-2.18z" fill="#e1e1e1" stroke-width="1.01"/></svg>