<svg viewBox="0 0 126 84" xmlns="http://www.w3.org/2000/svg"><rect fill="#171717" height="74.05" ry="5.43" stroke="#000" stroke-width="1.5" width="116.05" x="4.98" y="4.98"/><g stroke-width=".57"><path d="m55.6 41.89a20.29 20.29 0 0 1 -20.29 20.29 20.29 20.29 0 0 1 -20.29-20.29 20.29 20.29 0 0 1 20.29-20.29 20.29 20.29 0 0 1 20.29 20.29z" fill="#d8d8d8"/><path d="m54.12 41.89a18.81 18.81 0 0 1 -18.81 18.81 18.81 18.81 0 0 1 -18.81-18.81 18.81 18.81 0 0 1 18.81-18.81 18.81 18.81 0 0 1 18.81 18.81z" fill="#191919"/><path d="m49.76 41.88a14.25 14.25 0 0 1 -14.25 14.25 14.25 14.25 0 0 1 -14.25-14.25 14.25 14.25 0 0 1 14.25-14.25 14.25 14.25 0 0 1 14.25 14.25z" fill="#9d9d9d"/><path d="m40.95 42.17a5.7 5.7 0 0 1 -5.7 5.7 5.7 5.7 0 0 1 -5.7-5.7 5.7 5.7 0 0 1 5.7-5.7 5.7 5.7 0 0 1 5.7 5.7z" fill="#262626"/></g><path d="m97.75 29.5c-.76 0-1.52.05-2.27.26-3.21.97-5.79 5.23-5.78 9.92.02 2.01-.07 4.03.08 6.03.43 4.6 3.33 8.34 6.58 8.71 1.84.1 3.68.02 5.52.05 1.58.09 3.2-.18 4.58-1.34 2.3-1.77 3.81-5.38 3.76-9.09-.03-1.86.05-3.73-.08-5.57-.32-3.81-2.31-7.12-4.86-8.37-1.69-.88-3.5-.51-5.25-.59-.76.03-1.52-.01-2.28-.01zm-32.53.04v12.48c0 .31.04.61.13.89.08.27.19.51.33.73.14.2.32.36.51.48.2.12.41.18.64.18h11.36v10.2h3.22v-24.96h-3.22v10.2h-9.77v-10.2zm37.83 4.52c2.18-.01 4.03 2.86 3.95 5.91-.01 1.58.02 3.16-.02 4.73-.08 2.68-1.66 5.06-3.56 5.24-2.04.09-4.08.02-6.12.04-2.03.25-4.04-1.91-4.33-4.78-.13-1.79-.04-3.59-.06-5.39-.03-2.92 1.71-5.59 3.78-5.73 2.12-.04 4.24-.01 6.37-.02zm1.35 1.61c-.29-.03-.59.05-.85.26-2.53 2.37-5.06 4.77-7.59 7.15-.7.76-1.71 1.23-1.9 2.59-.28 1.72 1.14 3.32 2.25 2.49 2.88-2.71 5.75-5.43 8.62-8.15.86-.57 1.27-2.22.68-3.34-.26-.57-.73-.94-1.22-.99zm-18.56 14.32c-.81.05-1.49 1.1-1.49 2.24-.02 1.12.63 2.14 1.41 2.24.9.17 1.78-.96 1.76-2.24 0-1.24-.81-2.33-1.69-2.24z" fill="#e1e1e1"/></svg>