<svg viewBox="0 0 126 84" xmlns="http://www.w3.org/2000/svg"><rect fill="#171717" height="74.05" ry="5.43" stroke="#000" stroke-width="1.5" width="116.05" x="4.98" y="4.98"/><g stroke-width=".57"><path d="m55.6 41.89a20.29 20.29 0 0 1 -20.29 20.29 20.29 20.29 0 0 1 -20.29-20.29 20.29 20.29 0 0 1 20.29-20.29 20.29 20.29 0 0 1 20.29 20.29z" fill="#d8d8d8"/><path d="m54.12 41.89a18.81 18.81 0 0 1 -18.81 18.81 18.81 18.81 0 0 1 -18.81-18.81 18.81 18.81 0 0 1 18.81-18.81 18.81 18.81 0 0 1 18.81 18.81z" fill="#191919"/><path d="m49.76 41.88a14.25 14.25 0 0 1 -14.25 14.25 14.25 14.25 0 0 1 -14.25-14.25 14.25 14.25 0 0 1 14.25-14.25 14.25 14.25 0 0 1 14.25 14.25z" fill="#9d9d9d"/><path d="m40.95 42.17a5.7 5.7 0 0 1 -5.7 5.7 5.7 5.7 0 0 1 -5.7-5.7 5.7 5.7 0 0 1 5.7-5.7 5.7 5.7 0 0 1 5.7 5.7z" fill="#262626"/></g><path d="m94.62 29.5v4.42h3.47v19.94h3.86v-24.36zm-27.82.62v12.18c0 .3.05.6.15.87.09.28.23.51.4.72.18.2.38.35.62.48.23.12.49.17.76.17h13.67v9.96h3.87l-.01-24.38h-3.87v9.96h-11.75v-9.96zm24.89 19.33c-.97.07-1.76 1.12-1.74 2.23-.02 1.07.75 2.02 1.66 2.14 1.09.2 2.19-.92 2.16-2.18 0-1.23-1.01-2.32-2.09-2.19z" fill="#e1e1e1" stroke-width="1.01"/></svg>