<svg viewBox="0 0 126 84" xmlns="http://www.w3.org/2000/svg"><rect fill="#171717" height="74.05" ry="5.43" stroke="#000" stroke-width="1.5" width="116.05" x="4.98" y="4.98"/><g stroke-width=".57"><path d="m55.6 41.89a20.29 20.29 0 0 1 -20.29 20.29 20.29 20.29 0 0 1 -20.29-20.29 20.29 20.29 0 0 1 20.29-20.29 20.29 20.29 0 0 1 20.29 20.29z" fill="#d8d8d8"/><path d="m54.12 41.89a18.81 18.81 0 0 1 -18.81 18.81 18.81 18.81 0 0 1 -18.81-18.81 18.81 18.81 0 0 1 18.81-18.81 18.81 18.81 0 0 1 18.81 18.81z" fill="#191919"/><path d="m49.76 41.88a14.25 14.25 0 0 1 -14.25 14.25 14.25 14.25 0 0 1 -14.25-14.25 14.25 14.25 0 0 1 14.25-14.25 14.25 14.25 0 0 1 14.25 14.25z" fill="#9d9d9d"/><path d="m40.95 42.17a5.7 5.7 0 0 1 -5.7 5.7 5.7 5.7 0 0 1 -5.7-5.7 5.7 5.7 0 0 1 5.7-5.7 5.7 5.7 0 0 1 5.7 5.7z" fill="#262626"/></g><path d="m98.04 29.5c-.78 0-1.55.05-2.31.26-3.27.96-5.9 5.23-5.88 9.92.02 2.01-.07 4.03.08 6.03.44 4.6 3.39 8.34 6.7 8.71 1.87.1 3.75.02 5.62.05 1.6.09 3.26-.18 4.67-1.34 2.34-1.77 3.88-5.37 3.83-9.09-.03-1.86.05-3.72-.08-5.57-.33-3.81-2.36-7.12-4.95-8.36-1.72-.88-3.56-.51-5.35-.59-.77.03-1.55-.01-2.33-.01zm-32.29.01v3.56c.03 1.94-.06 3.89.06 5.82.24 2.73 1.88 5.19 3.9 5.34 2.22.09 4.44.02 6.65.04.73.08 1.54-.23 2.18.36.62.79.36 2.05.42 3.08.1 1.01-.31 2.22-1.13 2.24-4.03.02-8.05 0-12.08.01v4.52h9.3c1.26-.05 2.53.13 3.78-.17 2.03-.56 3.41-3.39 3.4-6.19-.02-1.34.1-2.72-.17-4.02-.49-2.47-2.21-4.21-4.02-4.37-2.44-.05-4.87-.01-7.31-.02-.66.08-1.53-.12-1.67-1.21-.1-1.49-.02-2.99-.05-4.48h11.74v-4.52zm37.69 4.55c2.22-.01 4.11 2.86 4.02 5.91-.01 1.58.02 3.15-.02 4.73-.08 2.68-1.69 5.06-3.63 5.24-2.08.09-4.16.02-6.23.04-2.07.25-4.11-1.9-4.41-4.78-.13-1.79-.04-3.59-.07-5.38-.03-2.92 1.75-5.58 3.85-5.73 2.16-.04 4.32-.01 6.48-.02zm1.37 1.6c-.3-.03-.6.05-.87.26-2.58 2.37-5.15 4.76-7.73 7.14-.71.76-1.74 1.23-1.94 2.59-.29 1.72 1.16 3.32 2.29 2.49 2.93-2.71 5.85-5.43 8.78-8.14.88-.57 1.29-2.22.7-3.34-.26-.57-.74-.94-1.24-.99zm-18.91 14.31c-.83.05-1.52 1.09-1.52 2.24-.02 1.12.64 2.14 1.44 2.24.92.17 1.81-.96 1.79-2.24 0-1.24-.82-2.33-1.72-2.24z" fill="#e1e1e1"/></svg>