<svg viewBox="0 0 126 84" xmlns="http://www.w3.org/2000/svg"><rect fill="#171717" height="74.05" ry="5.43" stroke="#000" stroke-width="1.5" width="116.05" x="4.98" y="4.98"/><g stroke-width=".57"><path d="m55.6 41.89a20.29 20.29 0 0 1 -20.29 20.29 20.29 20.29 0 0 1 -20.29-20.29 20.29 20.29 0 0 1 20.29-20.29 20.29 20.29 0 0 1 20.29 20.29z" fill="#d8d8d8"/><path d="m54.12 41.89a18.81 18.81 0 0 1 -18.81 18.81 18.81 18.81 0 0 1 -18.81-18.81 18.81 18.81 0 0 1 18.81-18.81 18.81 18.81 0 0 1 18.81 18.81z" fill="#191919"/><path d="m49.76 41.88a14.25 14.25 0 0 1 -14.25 14.25 14.25 14.25 0 0 1 -14.25-14.25 14.25 14.25 0 0 1 14.25-14.25 14.25 14.25 0 0 1 14.25 14.25z" fill="#9d9d9d"/><path d="m40.95 42.17a5.7 5.7 0 0 1 -5.7 5.7 5.7 5.7 0 0 1 -5.7-5.7 5.7 5.7 0 0 1 5.7-5.7 5.7 5.7 0 0 1 5.7 5.7z" fill="#262626"/></g><path d="m94.01 29.5v4.41h3.47v19.94h3.86v-24.35zm-27.52.64v4.55c.04 1.66-.11 3.35.13 5 .4 2.58 2.39 4.78 4.71 4.84 2.57.05 5.14.01 7.71.02.85.07 1.79-.22 2.55.35.73.77.42 2 .49 3 .12.98-.37 2.15-1.33 2.17-4.75.02-9.5 0-14.26.01v4.41h11.09c1.45-.05 2.91.13 4.35-.17 2.41-.54 4.02-3.3 4.02-6.03-.04-1.36.1-2.76-.27-4.08-.63-2.34-2.62-3.93-4.71-4.1-2.9-.05-5.8-.01-8.69-.02-.76.08-1.74-.15-1.9-1.17-.12-1.45-.03-2.92-.06-4.37h13.86v-4.41zm24.84 19.29c-.14-.01-.28 0-.42.04-.94.17-1.65 1.24-1.57 2.33.04 1.03.8 1.91 1.68 2.01 1.09.18 2.16-.92 2.13-2.18 0-1.13-.86-2.14-1.83-2.2z" fill="#e1e1e1" stroke-width="1.01"/></svg>