<svg viewBox="0 0 126 84" xmlns="http://www.w3.org/2000/svg"><rect fill="#171717" height="74.05" ry="5.43" stroke="#000" stroke-width="1.5" width="116.05" x="4.98" y="4.98"/><g stroke-width=".57"><path d="m55.6 41.89a20.29 20.29 0 0 1 -20.29 20.29 20.29 20.29 0 0 1 -20.29-20.29 20.29 20.29 0 0 1 20.29-20.29 20.29 20.29 0 0 1 20.29 20.29z" fill="#d8d8d8"/><path d="m54.12 41.89a18.81 18.81 0 0 1 -18.81 18.81 18.81 18.81 0 0 1 -18.81-18.81 18.81 18.81 0 0 1 18.81-18.81 18.81 18.81 0 0 1 18.81 18.81z" fill="#191919"/><path d="m49.76 41.88a14.25 14.25 0 0 1 -14.25 14.25 14.25 14.25 0 0 1 -14.25-14.25 14.25 14.25 0 0 1 14.25-14.25 14.25 14.25 0 0 1 14.25 14.25z" fill="#9d9d9d"/><path d="m40.95 42.17a5.7 5.7 0 0 1 -5.7 5.7 5.7 5.7 0 0 1 -5.7-5.7 5.7 5.7 0 0 1 5.7-5.7 5.7 5.7 0 0 1 5.7 5.7z" fill="#262626"/></g><path d="m98.41 29.5c-.74 0-1.49.05-2.22.26-3.13.97-5.65 5.23-5.64 9.92.02 2.01-.07 4.03.08 6.03.42 4.6 3.25 8.34 6.42 8.71 1.79.1 3.59.02 5.39.05 1.54.09 3.13-.18 4.48-1.34 2.25-1.77 3.72-5.38 3.67-9.09-.03-1.86.05-3.73-.08-5.58-.31-3.81-2.26-7.13-4.74-8.37-1.65-.88-3.41-.51-5.13-.59-.74.03-1.49-.01-2.23-.01zm-26.81 0c-.77.02-1.53.14-2.27.53-1.93.94-3.43 3.47-3.67 6.42-.13 2.06-.04 4.13-.07 6.19.05 2.27-.2 4.65.41 6.81.69 2.75 2.58 4.48 4.5 4.99 1.77.1 3.55.02 5.33.05 1.36-.04 2.72.1 4.08-.11 1.87-.42 3.24-2.92 3.41-5.58.03-1.44.08-2.89-.08-4.32-.37-2.65-2.11-4.57-3.93-4.74-3.53-.05-7.06-.01-10.59-.02 0-.68 0-1.36.01-2.03-.01-1.96 1.2-3.53 2.5-3.64 3.3-.05 6.61-.01 9.91-.02v-4.52h-7.23c-.77.04-1.54-.03-2.31-.01zm31.99 4.56c2.13-.01 3.94 2.86 3.86 5.91-.01 1.58.02 3.16-.02 4.73-.08 2.69-1.62 5.06-3.48 5.24-1.99.09-3.99.02-5.98.04-1.98.25-3.94-1.91-4.23-4.78-.13-1.79-.04-3.59-.06-5.39-.03-2.92 1.67-5.59 3.69-5.73 2.07-.04 4.14-.01 6.22-.02zm1.32 1.61c-.29-.03-.58.05-.83.26-2.47 2.37-4.94 4.77-7.41 7.15-.68.76-1.67 1.23-1.86 2.59-.27 1.72 1.12 3.32 2.2 2.49 2.81-2.71 5.61-5.43 8.42-8.15.84-.57 1.24-2.22.67-3.35-.25-.57-.71-.94-1.19-.99zm-26.15 8.61c.37.01.73.08 1.05.37.6.78.34 2.04.4 3.07.1 1.02-.3 2.25-1.09 2.26-2.32.02-4.65 0-6.97.01-.97.06-2.05-.03-2.73-1.18-.85-1.18-.68-2.96-.69-4.51h8.93c.36.04.74-.02 1.11-.01zm8.04 5.71c-.79.05-1.46 1.1-1.45 2.24-.02 1.12.62 2.14 1.38 2.24.88.17 1.74-.96 1.72-2.24 0-1.24-.79-2.33-1.65-2.24z" fill="#e1e1e1"/></svg>