<svg viewBox="0 0 126 84" xmlns="http://www.w3.org/2000/svg"><rect fill="#171717" height="74.05" ry="5.43" stroke="#000" stroke-width="1.5" width="116.05" x="4.98" y="4.98"/><g stroke-width=".57"><path d="m55.6 41.89a20.29 20.29 0 0 1 -20.29 20.29 20.29 20.29 0 0 1 -20.29-20.29 20.29 20.29 0 0 1 20.29-20.29 20.29 20.29 0 0 1 20.29 20.29z" fill="#d8d8d8"/><path d="m54.12 41.89a18.81 18.81 0 0 1 -18.81 18.81 18.81 18.81 0 0 1 -18.81-18.81 18.81 18.81 0 0 1 18.81-18.81 18.81 18.81 0 0 1 18.81 18.81z" fill="#191919"/><path d="m49.76 41.88a14.25 14.25 0 0 1 -14.25 14.25 14.25 14.25 0 0 1 -14.25-14.25 14.25 14.25 0 0 1 14.25-14.25 14.25 14.25 0 0 1 14.25 14.25z" fill="#9d9d9d"/><path d="m40.95 42.17a5.7 5.7 0 0 1 -5.7 5.7 5.7 5.7 0 0 1 -5.7-5.7 5.7 5.7 0 0 1 5.7-5.7 5.7 5.7 0 0 1 5.7 5.7z" fill="#262626"/></g><path d="m96.48 29.5v4.42h3.48v19.97h3.87v-24.39zm-20.64.58c-.97.03-1.93.16-2.85.6-2.29.95-4.03 3.4-4.32 6.18-.15 2.06-.05 4.13-.08 6.19.06 2.08-.21 4.23.41 6.23.81 2.85 3.24 4.78 5.78 5.13 1.65.14 3.31.04 4.96.07 1.44-.05 2.89.13 4.31-.17 2.26-.51 3.85-2.99 4.01-5.56 0-1.52.14-3.09-.24-4.57-.63-2.35-2.64-3.93-4.73-4.1-3.55-.05-7.1-.01-10.66-.02.01-.8-.03-1.6.03-2.39.14-1.77 1.57-3.04 3.05-3.15 3.28-.05 6.56-.01 9.84-.02v-4.41h-6.59c-.96.04-1.95-.03-2.92 0zm6.64 14.43c.44.01.87.08 1.25.36.73.75.43 1.95.49 2.94.1.93-.26 2.08-1.18 2.22-2.2.07-4.4.01-6.6.03-1.17.08-2.47-.14-3.24-1.27-.95-1.17-.73-2.82-.75-4.27h8.72c.43.04.88-.02 1.32-.01zm11.32 4.95c-.14-.01-.28 0-.42.04-.94.17-1.66 1.24-1.57 2.33.04 1.03.8 1.92 1.69 2.02 1.09.18 2.16-.92 2.14-2.19 0-1.14-.86-2.15-1.83-2.2z" fill="#e1e1e1" stroke-width="1.02"/></svg>