<svg viewBox="0 0 126 84" xmlns="http://www.w3.org/2000/svg"><rect fill="#171717" height="74.05" ry="5.43" stroke="#000" stroke-width="1.5" width="116.05" x="4.98" y="4.98"/><g stroke-width=".57"><path d="m55.6 41.89a20.29 20.29 0 0 1 -20.29 20.29 20.29 20.29 0 0 1 -20.29-20.29 20.29 20.29 0 0 1 20.29-20.29 20.29 20.29 0 0 1 20.29 20.29z" fill="#d8d8d8"/><path d="m54.12 41.89a18.81 18.81 0 0 1 -18.81 18.81 18.81 18.81 0 0 1 -18.81-18.81 18.81 18.81 0 0 1 18.81-18.81 18.81 18.81 0 0 1 18.81 18.81z" fill="#191919"/><path d="m49.76 41.88a14.25 14.25 0 0 1 -14.25 14.25 14.25 14.25 0 0 1 -14.25-14.25 14.25 14.25 0 0 1 14.25-14.25 14.25 14.25 0 0 1 14.25 14.25z" fill="#9d9d9d"/><path d="m40.95 42.17a5.7 5.7 0 0 1 -5.7 5.7 5.7 5.7 0 0 1 -5.7-5.7 5.7 5.7 0 0 1 5.7-5.7 5.7 5.7 0 0 1 5.7 5.7z" fill="#262626"/></g><path d="m97 29.5c-.83 0-1.66.05-2.48.26-3.51.97-6.33 5.23-6.32 9.93.02 2.01-.08 4.03.09 6.03.47 4.6 3.64 8.34 7.19 8.71 2.01.1 4.02.02 6.03.05 1.72.09 3.5-.18 5.01-1.34 2.52-1.77 4.17-5.38 4.11-9.1-.03-1.86.05-3.73-.09-5.58-.35-3.81-2.53-7.13-5.31-8.37-1.84-.88-3.82-.51-5.74-.59-.83.03-1.66-.01-2.5-.01zm-31.36.02v4.52h11.31l-9.16 20.45h4.05l9.69-21.55c.15-.37.23-.74.23-1.13 0-.41-.08-.79-.23-1.15v.01c-.16-.37-.37-.65-.65-.84-.27-.21-.56-.32-.88-.32zm37.16 4.54c2.38-.01 4.41 2.86 4.32 5.91-.01 1.58.02 3.16-.02 4.73-.09 2.69-1.81 5.06-3.9 5.24-2.23.09-4.46.02-6.69.04-2.22.25-4.41-1.91-4.74-4.78-.14-1.79-.04-3.59-.07-5.39-.03-2.93 1.87-5.59 4.13-5.73 2.32-.04 4.64-.01 6.96-.02zm1.47 1.61c-.32-.03-.64.05-.93.26-2.77 2.37-5.53 4.77-8.29 7.15-.76.76-1.87 1.23-2.08 2.59-.31 1.72 1.25 3.32 2.46 2.49 3.15-2.71 6.28-5.44 9.43-8.15.94-.57 1.38-2.22.74-3.35-.28-.57-.8-.94-1.33-.99zm-20.29 14.32c-.89.05-1.64 1.1-1.63 2.24-.03 1.12.69 2.14 1.55 2.24.99.17 1.95-.96 1.92-2.24 0-1.24-.88-2.33-1.84-2.24z" fill="#e1e1e1"/></svg>