<svg viewBox="0 0 126 84" xmlns="http://www.w3.org/2000/svg"><rect fill="#171717" height="74.05" ry="5.43" stroke="#000" stroke-width="1.5" width="116.05" x="4.98" y="4.98"/><g stroke-width=".57"><path d="m55.6 41.89a20.29 20.29 0 0 1 -20.29 20.29 20.29 20.29 0 0 1 -20.29-20.29 20.29 20.29 0 0 1 20.29-20.29 20.29 20.29 0 0 1 20.29 20.29z" fill="#d8d8d8"/><path d="m54.12 41.89a18.81 18.81 0 0 1 -18.81 18.81 18.81 18.81 0 0 1 -18.81-18.81 18.81 18.81 0 0 1 18.81-18.81 18.81 18.81 0 0 1 18.81 18.81z" fill="#191919"/><path d="m49.76 41.88a14.25 14.25 0 0 1 -14.25 14.25 14.25 14.25 0 0 1 -14.25-14.25 14.25 14.25 0 0 1 14.25-14.25 14.25 14.25 0 0 1 14.25 14.25z" fill="#9d9d9d"/><path d="m40.95 42.17a5.7 5.7 0 0 1 -5.7 5.7 5.7 5.7 0 0 1 -5.7-5.7 5.7 5.7 0 0 1 5.7-5.7 5.7 5.7 0 0 1 5.7 5.7z" fill="#262626"/></g><path d="m97.39 29.5c-.77 0-1.54.05-2.3.26-3.25.96-5.86 5.23-5.85 9.92.02 2.01-.07 4.03.08 6.03.44 4.6 3.37 8.34 6.66 8.71 1.86.1 3.72.02 5.59.05 1.6.09 3.24-.18 4.64-1.34 2.33-1.77 3.86-5.37 3.81-9.09-.03-1.86.05-3.72-.08-5.57-.33-3.81-2.34-7.12-4.92-8.36-1.71-.88-3.54-.51-5.32-.59-.77.03-1.54-.01-2.31-.01zm-24.55.02c-1.01 0-2.02.01-3.03 0-1.7-.17-3.48 1.04-4.23 3.24-.65 1.57-.56 3.41-.56 5.15.02.51.04 1.09.13 1.61.37 2.66 2.18 4.58 4.07 4.75 2.98.05 5.96.01 8.94.02-.01.82.02 1.65-.03 2.47-.1 1.83-1.34 3.08-2.58 3.19-2.74.04-5.48.01-8.23.02v4.52h5.51c1.74-.07 3.57.3 5.2-.8 1.78-1.05 3.08-3.45 3.32-6.12.13-2.06.04-4.14.07-6.2-.05-2.02.15-4.08-.25-6.04-.62-3.29-2.93-5.55-5.31-5.77-1.01-.03-2.02-.03-3.03-.03zm-3.13 4.52c.18-.01.36 0 .52.01 1.87.02 3.74-.05 5.6.04 1.35.17 2.4 1.95 2.32 3.83 0 .61.01 1.21.01 1.82h-8.42c-.78.19-1.58-.66-1.48-1.82.04-.97-.1-1.99.14-2.92.23-.76.77-.93 1.3-.96zm33.05.02c2.21-.01 4.08 2.86 4 5.91-.01 1.58.02 3.15-.02 4.73-.08 2.68-1.68 5.06-3.61 5.24-2.06.09-4.13.02-6.2.04-2.05.25-4.09-1.9-4.39-4.78-.13-1.79-.04-3.59-.06-5.38-.03-2.92 1.74-5.58 3.83-5.73 2.15-.04 4.3-.01 6.45-.02zm1.36 1.61c-.3-.03-.6.05-.86.26-2.57 2.37-5.12 4.76-7.68 7.14-.7.76-1.73 1.23-1.93 2.59-.29 1.72 1.16 3.32 2.28 2.49 2.91-2.71 5.82-5.43 8.73-8.14.87-.57 1.28-2.22.69-3.34-.26-.57-.74-.94-1.23-.99zm-18.79 14.31c-.82.05-1.51 1.09-1.51 2.24-.02 1.12.64 2.14 1.43 2.24.91.17 1.8-.96 1.78-2.24 0-1.24-.82-2.33-1.71-2.24z" fill="#e1e1e1"/></svg>