<svg viewBox="0 0 126 84" xmlns="http://www.w3.org/2000/svg"><rect fill="#171717" height="74.05" ry="5.43" stroke="#000" stroke-width="1.5" width="116.05" x="4.98" y="4.98"/><g stroke-width=".57"><path d="m55.6 41.89a20.29 20.29 0 0 1 -20.29 20.29 20.29 20.29 0 0 1 -20.29-20.29 20.29 20.29 0 0 1 20.29-20.29 20.29 20.29 0 0 1 20.29 20.29z" fill="#d8d8d8"/><path d="m54.12 41.89a18.81 18.81 0 0 1 -18.81 18.81 18.81 18.81 0 0 1 -18.81-18.81 18.81 18.81 0 0 1 18.81-18.81 18.81 18.81 0 0 1 18.81 18.81z" fill="#191919"/><path d="m49.76 41.88a14.25 14.25 0 0 1 -14.25 14.25 14.25 14.25 0 0 1 -14.25-14.25 14.25 14.25 0 0 1 14.25-14.25 14.25 14.25 0 0 1 14.25 14.25z" fill="#9d9d9d"/><path d="m40.95 42.17a5.7 5.7 0 0 1 -5.7 5.7 5.7 5.7 0 0 1 -5.7-5.7 5.7 5.7 0 0 1 5.7-5.7 5.7 5.7 0 0 1 5.7 5.7z" fill="#262626"/></g><path d="m95.89 29.5v4.41h3.47v19.94h3.86v-24.35zm-18.84.63c-1.19 0-2.38.01-3.57 0-2.04-.17-4.18 1-5.08 3.17-.77 1.54-.67 3.33-.66 5.03.02.51.04 1.07.15 1.58.43 2.61 2.59 4.45 4.83 4.62 3.54.05 7.08.01 10.61.02-.01.8.03 1.61-.03 2.4-.12 1.78-1.58 3-3.05 3.11-3.26.05-6.51.01-9.77.02v4.41h6.77c2.06-.05 4.24.28 6.14-.89 2.07-1.07 3.51-3.45 3.76-6.03.13-2 .04-4.01.07-6.01-.06-2.08.21-4.23-.43-6.22-.86-2.99-3.49-4.98-6.17-5.18-1.19-.03-2.38-.03-3.57-.03zm-3.64 4.42c.21 0 .42.01.61.01 2.18.02 4.37-.05 6.55.04 1.6.17 2.84 1.91 2.76 3.73v1.77h-10.18c-.95.14-1.72-.84-1.58-1.91.06-.95-.16-1.98.23-2.85.34-.69.97-.78 1.6-.79zm19.81 14.89c-.14-.01-.28 0-.42.04-.94.17-1.65 1.24-1.57 2.33.04 1.03.8 1.91 1.68 2.01 1.09.18 2.16-.92 2.13-2.18 0-1.14-.86-2.14-1.83-2.2z" fill="#e1e1e1" stroke-width="1.01"/></svg>