<svg height="224" viewBox="0 0 224 224" width="224" xmlns="http://www.w3.org/2000/svg"><path d="m27.2 12.8h169.6c7.95 0 14.4 6.45 14.4 14.4v169.6c0 7.95-6.45 14.4-14.4 14.4h-169.6c-7.95 0-14.4-6.45-14.4-14.4v-169.6c0-7.95 6.45-14.4 14.4-14.4zm0 0" fill="#171717"/><g fill="#e1e1e1"><path d="m54.88 117.33h37.97v-10.16h-11.86v-53.06h-9.31c-4 2.56-8.37 4.18-14.67 5.38v7.76h11.44v39.95h-13.57zm0 0"/><path d="m111.95 118.54c4.53 0 7.84-3.58 7.84-8.19 0-4.7-3.34-8.19-7.84-8.19-4.43 0-7.76 3.49-7.76 8.19 0 4.61 3.33 8.19 7.76 8.19zm0 0"/><path d="m149.41 118.54c11.68 0 22.11-8.11 22.11-22.19 0-13.74-8.88-20.06-19.47-20.06-2.9 0-5.04.59-7.6 1.79l1.2-13.39h22.96v-10.58h-33.78l-1.71 30.72 5.71 3.76c3.68-2.4 5.71-3.34 9.46-3.34 6.4 0 10.67 4.11 10.67 11.44 0 7.42-4.61 11.6-11.17 11.6-5.9 0-10.33-2.9-13.92-6.4l-5.82 8.03c4.7 4.69 11.36 8.62 21.34 8.62zm0 0"/></g><g fill="#d8d8d8"><path d="m37.52 184.27h8.08v-18.81c0-4.26-.72-10.5-1.15-14.77h.24l3.6 10.59 6.99 18.91h5.17l6.94-18.91 3.65-10.59h.29c-.48 4.27-1.14 10.51-1.14 14.77v18.81h8.21v-45.04h-9.97l-7.47 21.09c-.96 2.8-1.76 5.79-2.75 8.64h-.29c-.91-2.85-1.76-5.84-2.75-8.64l-7.65-21.09h-9.97zm0 0"/><path d="m105.79 185.12c7.46 0 14.48-6.74 14.48-18.48 0-10.4-5.04-17.28-13.44-17.28-3.34 0-6.75 1.65-9.42 4.08l.24-5.47v-12.21h-8.93v48.51h6.99l.8-3.6h.24c2.74 2.85 6.02 4.42 9.06 4.42zm-2-7.36c-1.82 0-4-.67-6.14-2.56v-14.96c2.32-2.37 4.38-3.52 6.7-3.52 4.69 0 6.74 3.6 6.74 10.08 0 7.41-3.17 10.93-7.3 10.93zm0 0"/><path d="m127.87 197.33h8.93v-10.34l-.29-5.6c2.61 2.37 5.46 3.7 8.45 3.7 7.47 0 14.48-6.74 14.48-18.42 0-10.46-4.99-17.34-13.39-17.34-3.65 0-7.17 1.95-10.02 4.38h-.19l-.67-3.52h-7.3zm15.06-19.57c-1.81 0-4-.67-6.13-2.56v-14.96c2.32-2.37 4.37-3.52 6.69-3.52 4.7 0 6.75 3.6 6.75 10.08 0 7.41-3.17 10.93-7.31 10.93zm0 0"/><path d="m176.45 185.12c8.88 0 13.55-4.8 13.55-10.77 0-6.32-4.99-8.56-9.49-10.27-3.6-1.33-6.75-2.24-6.75-4.75 0-1.94 1.47-3.28 4.56-3.28 2.48 0 4.85 1.15 7.31 2.91l4-5.41c-2.8-2.14-6.64-4.19-11.55-4.19-7.79 0-12.72 4.32-12.72 10.4 0 5.7 4.8 8.32 9.12 9.97 3.6 1.39 7.12 2.56 7.12 5.12 0 2.14-1.52 3.6-4.93 3.6-3.18 0-6.08-1.33-9.12-3.7l-4.09 5.6c3.42 2.8 8.41 4.8 12.97 4.8zm0 0"/></g></svg>