<svg height="224" viewBox="0 0 224 224" width="224" xmlns="http://www.w3.org/2000/svg"><path d="m27.2 12.8h169.6c7.95 0 14.4 6.45 14.4 14.4v169.6c0 7.95-6.45 14.4-14.4 14.4h-169.6c-7.95 0-14.4-6.45-14.4-14.4v-169.6c0-7.95 6.45-14.4 14.4-14.4zm0 0" fill="#171717"/><g fill="#e1e1e1"><path d="m43.6 117.33h37.97v-10.16h-11.86v-53.06h-9.31c-4 2.56-8.37 4.18-14.67 5.38v7.76h11.44v39.95h-13.57zm0 0"/><path d="m113.15 86.45c5.46 0 9.04 3.5 9.04 10.94 0 7.76-3.92 11.68-8.62 11.68-5.28 0-9.54-4.43-10.74-15.95 2.9-4.77 6.9-6.67 10.32-6.67zm.69 32.09c10.75 0 19.79-8.19 19.79-21.18 0-13.49-7.52-19.79-18.08-19.79-4.11 0-9.55 2.56-12.96 6.83.5-15.86 6.48-21.33 13.73-21.33 3.68 0 7.52 2.05 9.73 4.61l6.67-7.52c-3.84-3.92-9.39-7.17-17.15-7.17-12.72 0-24.4 10.08-24.4 33.62 0 22.27 10.67 31.93 22.7 31.93zm0 0"/><path d="m162.29 118.54c12.88 0 21.34-11.26 21.34-33.02s-8.46-32.51-21.34-32.51-21.41 10.67-21.41 32.51c0 21.76 8.53 33.02 21.41 33.02zm0-9.82c-5.46 0-9.54-5.47-9.54-23.2 0-17.65 4.1-22.77 9.54-22.77 5.47 0 9.47 5.12 9.47 22.77 0 17.76-4 23.2-9.47 23.2zm0 0"/></g><g fill="#d8d8d8"><path d="m44.38 184.27h8.82v-8.64l4.8-5.47 8.27 14.11h9.68l-12.78-20 11.68-14.06h-9.78l-11.61 14.64h-.23v-29.12h-8.83zm0 0"/><path d="m98.24 185.12c7.47 0 14.48-6.74 14.48-18.48 0-10.4-5.04-17.28-13.44-17.28-3.33 0-6.74 1.65-9.41 4.08l.24-5.47v-12.21h-8.94v48.51h6.99l.8-3.6h.24c2.75 2.85 6.03 4.42 9.07 4.42zm-2-7.36c-1.81 0-4-.67-6.13-2.56v-14.96c2.32-2.37 4.37-3.52 6.69-3.52 4.69 0 6.75 3.6 6.75 10.08 0 7.41-3.17 10.93-7.31 10.93zm0 0"/><path d="m120.29 197.33h8.94v-10.34l-.3-5.6c2.62 2.37 5.47 3.7 8.46 3.7 7.46 0 14.48-6.74 14.48-18.42 0-10.46-4.99-17.34-13.39-17.34-3.65 0-7.17 1.95-10.03 4.38h-.18l-.67-3.52h-7.31zm15.07-19.57c-1.81 0-4-.67-6.13-2.56v-14.96c2.32-2.37 4.37-3.52 6.69-3.52 4.69 0 6.75 3.6 6.75 10.08 0 7.41-3.18 10.93-7.31 10.93zm0 0"/><path d="m168.88 185.12c8.88 0 13.55-4.8 13.55-10.77 0-6.32-4.99-8.56-9.5-10.27-3.6-1.33-6.74-2.24-6.74-4.75 0-1.94 1.46-3.28 4.56-3.28 2.48 0 4.85 1.15 7.3 2.91l4-5.41c-2.8-2.14-6.64-4.19-11.54-4.19-7.79 0-12.72 4.32-12.72 10.4 0 5.7 4.8 8.32 9.12 9.97 3.6 1.39 7.12 2.56 7.12 5.12 0 2.14-1.52 3.6-4.94 3.6-3.17 0-6.08-1.33-9.12-3.7l-4.08 5.6c3.42 2.8 8.4 4.8 12.96 4.8zm0 0"/></g></svg>