<svg height="224" viewBox="0 0 224 224" width="224" xmlns="http://www.w3.org/2000/svg"><path d="m27.2 12.8h169.6c7.95 0 14.4 6.45 14.4 14.4v169.6c0 7.95-6.45 14.4-14.4 14.4h-169.6c-7.95 0-14.4-6.45-14.4-14.4v-169.6c0-7.95 6.45-14.4 14.4-14.4zm0 0" fill="#171717"/><g fill="#e1e1e1"><path d="m60 118.54c12.03 0 22.19-6.75 22.19-18.35 0-8.27-5.47-13.58-12.54-15.52v-.43c6.67-2.64 10.51-7.6 10.51-14.43 0-10.74-8.27-16.8-20.48-16.8-7.41 0-13.49 2.99-18.93 7.76l6.4 7.68c3.76-3.49 7.41-5.54 11.94-5.54 5.39 0 8.46 2.9 8.46 7.84 0 5.63-3.76 9.65-15.36 9.65v8.96c13.73 0 17.41 3.92 17.41 10.08 0 5.71-4.35 8.88-10.75 8.88-5.7 0-10.31-2.83-14.08-6.48l-5.89 7.95c4.43 5.04 11.17 8.8 21.17 8.8zm0 0"/><path d="m90.54 117.33h42.31v-10.58h-13.65c-2.99 0-7.17.34-10.32.69 11.52-11.25 20.99-23.55 20.99-34.99 0-11.78-7.95-19.46-19.9-19.46-8.61 0-14.24 3.33-20.05 9.55l6.83 6.82c3.25-3.49 6.98-6.48 11.6-6.48 6.05 0 9.46 3.84 9.46 10.24 0 9.73-10.16 21.6-27.3 36.96zm0 0"/><path d="m162.29 118.54c12.88 0 21.34-11.26 21.34-33.02s-8.46-32.51-21.34-32.51-21.41 10.67-21.41 32.51c0 21.76 8.53 33.02 21.41 33.02zm0-9.82c-5.46 0-9.54-5.47-9.54-23.2 0-17.65 4.1-22.77 9.54-22.77 5.47 0 9.47 5.12 9.47 22.77 0 17.76-4 23.2-9.47 23.2zm0 0"/></g><g fill="#d8d8d8"><path d="m44.38 184.27h8.82v-8.64l4.8-5.47 8.27 14.11h9.68l-12.78-20 11.68-14.06h-9.78l-11.61 14.64h-.23v-29.12h-8.83zm0 0"/><path d="m98.24 185.12c7.47 0 14.48-6.74 14.48-18.48 0-10.4-5.04-17.28-13.44-17.28-3.33 0-6.74 1.65-9.41 4.08l.24-5.47v-12.21h-8.94v48.51h6.99l.8-3.6h.24c2.75 2.85 6.03 4.42 9.07 4.42zm-2-7.36c-1.81 0-4-.67-6.13-2.56v-14.96c2.32-2.37 4.37-3.52 6.69-3.52 4.69 0 6.75 3.6 6.75 10.08 0 7.41-3.17 10.93-7.31 10.93zm0 0"/><path d="m120.29 197.33h8.94v-10.34l-.3-5.6c2.62 2.37 5.47 3.7 8.46 3.7 7.46 0 14.48-6.74 14.48-18.42 0-10.46-4.99-17.34-13.39-17.34-3.65 0-7.17 1.95-10.03 4.38h-.18l-.67-3.52h-7.31zm15.07-19.57c-1.81 0-4-.67-6.13-2.56v-14.96c2.32-2.37 4.37-3.52 6.69-3.52 4.69 0 6.75 3.6 6.75 10.08 0 7.41-3.18 10.93-7.31 10.93zm0 0"/><path d="m168.88 185.12c8.88 0 13.55-4.8 13.55-10.77 0-6.32-4.99-8.56-9.5-10.27-3.6-1.33-6.74-2.24-6.74-4.75 0-1.94 1.46-3.28 4.56-3.28 2.48 0 4.85 1.15 7.3 2.91l4-5.41c-2.8-2.14-6.64-4.19-11.54-4.19-7.79 0-12.72 4.32-12.72 10.4 0 5.7 4.8 8.32 9.12 9.97 3.6 1.39 7.12 2.56 7.12 5.12 0 2.14-1.52 3.6-4.94 3.6-3.17 0-6.08-1.33-9.12-3.7l-4.08 5.6c3.42 2.8 8.4 4.8 12.96 4.8zm0 0"/></g></svg>