<svg height="224" viewBox="0 0 224 224" width="224" xmlns="http://www.w3.org/2000/svg"><path d="m27.2 12.8h169.6c7.95 0 14.4 6.45 14.4 14.4v169.6c0 7.95-6.45 14.4-14.4 14.4h-169.6c-7.95 0-14.4-6.45-14.4-14.4v-169.6c0-7.95 6.45-14.4 14.4-14.4zm0 0" fill="#171717"/><path d="m79.87 118.77c14.05 0 26.58-9.76 26.58-26.69 0-16.53-10.66-24.13-23.41-24.13-3.49 0-6.05.72-9.15 2.16l1.44-16.11h27.63v-12.72h-40.67l-2.05 36.96 6.88 4.51c4.43-2.88 6.88-4 11.39-4 7.7 0 12.82 4.93 12.82 13.76 0 8.93-5.54 13.97-13.44 13.97-7.09 0-12.43-3.49-16.74-7.71l-6.99 9.66c5.65 5.65 13.65 10.37 25.68 10.37zm0 0" fill="#e1e1e1"/><path d="m143.63 80.16c6.56 0 10.88 4.22 10.88 13.15 0 9.33-4.72 14.05-10.38 14.05-6.37 0-11.49-5.33-12.93-19.2 3.49-5.76 8.32-8 12.43-8zm.82 38.61c12.94 0 23.82-9.86 23.82-25.46 0-16.22-9.04-23.82-21.76-23.82-4.94 0-11.5 3.1-15.6 8.22.61-19.1 7.81-25.68 16.53-25.68 4.43 0 9.04 2.45 11.71 5.54l8-9.03c-4.61-4.73-11.31-8.62-20.64-8.62-15.31 0-29.36 12.11-29.36 40.46 0 26.79 12.82 38.39 27.3 38.39zm0 0" fill="#e1e1e1"/><g fill="#d8d8d8"><path d="m44.38 184.27h8.82v-8.64l4.8-5.47 8.27 14.11h9.68l-12.78-20 11.68-14.06h-9.78l-11.61 14.64h-.23v-29.12h-8.83zm0 0"/><path d="m98.24 185.12c7.47 0 14.48-6.74 14.48-18.48 0-10.4-5.04-17.28-13.44-17.28-3.33 0-6.74 1.65-9.41 4.08l.24-5.47v-12.21h-8.94v48.51h6.99l.8-3.6h.24c2.75 2.85 6.03 4.42 9.07 4.42zm-2-7.36c-1.81 0-4-.67-6.13-2.56v-14.96c2.32-2.37 4.37-3.52 6.69-3.52 4.69 0 6.75 3.6 6.75 10.08 0 7.41-3.17 10.93-7.31 10.93zm0 0"/><path d="m120.29 197.33h8.94v-10.34l-.3-5.6c2.62 2.37 5.47 3.7 8.46 3.7 7.46 0 14.48-6.74 14.48-18.42 0-10.46-4.99-17.34-13.39-17.34-3.65 0-7.17 1.95-10.03 4.38h-.18l-.67-3.52h-7.31zm15.07-19.57c-1.81 0-4-.67-6.13-2.56v-14.96c2.32-2.37 4.37-3.52 6.69-3.52 4.69 0 6.75 3.6 6.75 10.08 0 7.41-3.18 10.93-7.31 10.93zm0 0"/><path d="m168.88 185.12c8.88 0 13.55-4.8 13.55-10.77 0-6.32-4.99-8.56-9.5-10.27-3.6-1.33-6.74-2.24-6.74-4.75 0-1.94 1.46-3.28 4.56-3.28 2.48 0 4.85 1.15 7.3 2.91l4-5.41c-2.8-2.14-6.64-4.19-11.54-4.19-7.79 0-12.72 4.32-12.72 10.4 0 5.7 4.8 8.32 9.12 9.97 3.6 1.39 7.12 2.56 7.12 5.12 0 2.14-1.52 3.6-4.94 3.6-3.17 0-6.08-1.33-9.12-3.7l-4.08 5.6c3.42 2.8 8.4 4.8 12.96 4.8zm0 0"/></g></svg>