<svg viewBox="0 0 128 128" xmlns="http://www.w3.org/2000/svg"><g fill-rule="evenodd" stroke-width="0"><path d="m45.9 29.8-9 10.8 52 21.4 8.6-11.8z" fill="#4b4b4b"/><path d="m97.4 50.4-6.7 36.6-5.6 4.3 3.7-29.2z" fill="#010101"/><path d="m88.8 62-3.7 29.3-46.8-19-1.3-31.6z" fill="#1f1f1f"/><path d="m32.7 43.2 50 14-19.2 27.8-52.5-16.5z" fill="#858585"/><path d="m63.5 85 8 39.2-47.3-18.2-13.2-37.5z" fill="#6f6f6f"/><path d="m82.7 57.2 6.2 39-17.4 28-8-39.2z" fill="#5e5e5e"/><path d="m76.7 30.8-15-1.6 3.2 14.2 15.9 1.3z" fill="#858585"/><path d="m64.9 43.4-6.4 9.8 14.7.1 7.6-8.6-16-1.3" fill="#6f6f6f"/><path d="m61.7 29.2-6 9.9 2.8 14 6.4-9.7z" fill="#5e5e5e"/><g fill="#4b4b4b"><path d="m114.5 25.5-5.3-.6 1.5-5.4 5.4.7z" fill="#9b9b9b"/><path d="m116.8 28.4 1.6-5-2.3-3.2-1.6 5.3z" fill="#535353"/><path d="m116.8 28.4-5.1-1-2.5-2.5 5.3.6z" fill="#656565"/><path d="m98 40 7.4 3-5.7 5.3-7.6-2.4z" fill="#000"/><path d="m96.1 33.2-5.4 6 1.3 6.8 6-5.9z" fill="#0e0e0e" fill-opacity=".79"/><path d="m96.1 33.2 7 2.5 2.2 7.3-7.3-3z" fill="#595959"/><path d="m78.3 27.6 13.3-4.1 12.9 5.2-12.7 2.6z" fill="#242424"/><path d="m91.6 6.2v17.3l12.9 5.2v-15.3z" fill="#000"/><path d="m78.3 11.5 13.3-5.3v17.3l-13.3 4.1z" fill="#4e4e4e"/></g></g></svg>