<svg viewBox="0 0 128 128" xmlns="http://www.w3.org/2000/svg" xmlns:xlink="http://www.w3.org/1999/xlink"><linearGradient id="a" gradientUnits="userSpaceOnUse" x1="684.21" x2="684.21" y1="1223.5" y2="805.64"><stop offset="0" stop-color="#585858"/><stop offset="1" stop-color="#666"/></linearGradient><linearGradient id="b" gradientUnits="userSpaceOnUse" x1="437.47" x2="966.57" y1="1142.16" y2="1142.16"><stop offset="0" stop-color="#d5d5d5"/><stop offset="1" stop-color="#fdfdfd"/></linearGradient><g fill-rule="evenodd" transform="matrix(.21 0 0 .21 -81.9 -138.2)"><rect fill="url(#a)" height="559.78" rx="132.23" width="559.78" x="413.2" y="681.2"/><path d="m658.8 1046c-66.4.9-131.7 47-136.9 126-5.2-1-38.8-15-82.3 17v.8c24 32 62.4 52.7 105.7 52.7h295.3a132 132 0 0 0 129.6-105.7l-.5-1.2a108.6 108.6 0 0 0 -182-3.8 134.5 134.5 0 0 0 -129-85.8z" fill="url(#b)"/><g fill="#fff"><path d="m791.5 955.3c-105.2 50.1-170.5 8.2-212.3-17.2-2.6-1.6-7 .3-3.2 4.7 14 16.9 59.6 57.6 119.2 57.6s95-32.5 99.5-38.2c4.4-5.6 1.3-8.7-3.2-6.9zm29.6-16.3c-2.8-3.7-17.2-4.4-26.2-3.2-9 1-22.7 6.6-21.5 9.9.6 1.2 1.9.7 8 .1 6.3-.6 23.8-2.8 27.4 2 3.7 4.7-5.6 27.5-7.2 31.2-1.7 3.7.6 4.7 3.6 2.2 3-2.4 8.5-8.8 12.2-17.8 3.6-9 5.8-21.6 3.7-24.4z" fill-rule="nonzero"/><path d="m720.8 853.1c0 13.2.3 24.1-6.3 35.8-5.4 9.5-13.9 15.3-23.4 15.3-13 0-20.5-9.8-20.5-24.4 0-28.8 25.8-34 50.2-34zm34 82.2a7 7 0 0 1 -8 .9c-11.2-9.3-13.2-13.7-19.3-22.5-18.5 18.8-31.6 24.5-55.6 24.5-28.4 0-50.5-17.5-50.5-52.6 0-27.3 14.8-46 36-55.1 18.3-8 43.8-9.5 63.4-11.7v-4.4c0-8 .6-17.5-4.1-24.4-4.1-6.2-12-8.8-19-8.8-12.8 0-24.3 6.6-27 20.3-.6 3-2.9 6-6 6.1l-32.6-3.5c-2.8-.6-5.8-2.8-5-7 7.5-39.7 43.3-51.7 75.4-51.7 16.4 0 37.8 4.4 50.8 16.8 16.4 15.4 14.8 35.8 14.8 58v52.6c0 15.8 6.6 22.7 12.7 31.3 2.2 3 2.7 6.7 0 9-7 5.7-19.2 16.4-26 22.3"/></g></g></svg>