<svg viewBox="0 0 128 128" xmlns="http://www.w3.org/2000/svg"><rect fill="#5e5e5e" height="118" rx="15" width="118" x="5" y="5"/><path d="m113.7 83.3c1.3 1.7 1 4-.5 5.2-1.7 1.3-4.2 1-5.5-.5l-8.7-11.2-8.5 11c-1.2 1.7-3.7 1.7-5.5.5-1.7-1.3-2-3.5-.7-5.3l10-13-10-13a4.2 4.2 0 0 1 .7-5.4 4.2 4.2 0 0 1 5.5.7l8.5 11.3 8.7-10.8c1.3-1.7 3.5-2 5.5-.7 1.8 1.2 1.8 3.7.5 5.5l-9.7 12.7zm-45.4-1.5c-6.5 0-11.7-5-11.7-11.5 0-6.2 5.2-11.5 11.7-11.5s11.7 5.3 11.7 11.5a11.8 11.8 0 0 1 -11.7 11.5zm-34.5 0c-6.5 0-11.7-5-11.7-11.5 0-6.2 5.2-11.5 11.7-11.5s11.8 5.3 11.8 11.5c0 6.5-5.3 11.5-11.8 11.5zm34.5-30.5c-7.3 0-13.7 4-17 10-3.2-6-9.7-10-17.2-10-4.5 0-8.5 1.5-11.7 3.8v-16.1c0-2-1.8-3.8-3.8-3.8-2.2 0-4 1.8-4 3.8v31.5a19.1 19.1 0 0 0 19.2 18.7c7.5 0 14-4.3 17.3-10.3 3.2 6 9.7 10.3 17 10.3 10.7 0 19.4-8.5 19.4-19.2a18.8 18.8 0 0 0 -19.2-18.8z" fill="#fff"/></svg>