<svg viewBox="0 0 128 128" xmlns="http://www.w3.org/2000/svg"><path d="m117.4 57.7c.8-14.8-11-29.9-30.8-22.7-16.3-28.4-51-11.7-48.4 14.1a26.5 26.5 0 0 0 -27.2 26.2c0 14 13.2 27 24.5 26.8 13.2-.1 31.7.2 31.7.2" fill="none" stroke="#4b4b4b" stroke-linecap="round" stroke-linejoin="round" stroke-width="11.61"/><path d="m48.8 59.5 17.7-16 16.8 16.2" fill="none" stroke="#8c8c8c" stroke-linecap="round" stroke-linejoin="round" stroke-width="6.5"/><path d="m86.7 115.4c0-9-.8-6.6 2.8-18s4.2-15 2.4-16c-1.8-1.1-2.2-.3-4.1-1-2-.8-1-2-3.2-2.7-2.1-.7-3.5.9-5.2.5s-2.5-1.8-4.5-2c-2 0-3 .6-4.5 2.4s-1.5-19.3-1.5-19.3.2-4-2.8-3.9-3.3 2-3.2 3.3c0 1.2-.2 24-.4 26-.2 1.9-.3 5.3-2 4.8-1.9-.5-8.6-8.2-12-4.6-3.6 3.6 3.4 5 5.7 7.4 2.2 2.5 10.6 12.5 12.6 14.1s.7 9.1.7 9.1z" fill="#fff" fill-rule="evenodd"/></svg>