<svg viewBox="0 0 128 128" xmlns="http://www.w3.org/2000/svg"><g stroke-width="0"><circle cx="64.02" cy="63.95" fill="#3e3e3e" r="59"/><g fill-rule="evenodd"><path d="m57.2 31.5c.1 10.3.1 20.6.4 30.9-10.5-9.8-30.8-4.8-32.4 15.4 0 19.1 15.3 22 21.5 21.7 6.3-.3 11.4-5.3 11.4-5.3v4.3h14v-67zm-8.2 38.5a9 9.1 0 0 1 9.1 9.1 9 9.1 0 0 1 -9 9.1 9 9.1 0 0 1 -9.1-9 9 9.1 0 0 1 9-9.2z" fill="#fff"/><path d="m89.2 30.9c0 10.3 0 20.7.3 31-10.5-9.8-30.7-4.8-32.4 15.4 0 19.1 15.3 22 21.6 21.7 6.2-.3 11.3-5.3 11.3-5.3v4.2h14v-67zm-8.2 38.6a9 9.1 0 0 1 9 9.1 9 9.1 0 0 1 -9 9.1 9 9.1 0 0 1 -9.1-9.1 9 9.1 0 0 1 9-9.1z" fill="#bababa"/></g></g></svg>