<svg viewBox="0 0 128 128" xmlns="http://www.w3.org/2000/svg"><g stroke-width="0"><rect fill="#7b7b7b" height="118" rx="5" width="118" x="5" y="5"/><path d="m71.71 25.64-.12 7.31h3.93v3.35h8.64v-3.33h3.4v-7.33zm28.7 9.6-2.1 2.45 1.37 1.51-1.95 2.19 1.54 1.45 2.17-2.16 2.03 1.74 2.24-2.53zm-25.72 3.7c-3.46.03-9.27.24-15.71 1.27 3.62.97 2.83 4.36.88 4.39-1.83.02-13.84-3.93-26.7 6.24 3.08-.55 16.33-1.24 16.7 12-.73-1.16-11.12-17.75-32.12-.81 15.78-1.35 20.42 6 23.14 14.57 2.73 8.57 11.04 14.43 22.1 16.24 0 0-8.82.63-15.47-3.6 0 0 5.5 8.54 23.66 9.49 18.15.95 27.77-6.82 34.17-16.99s7-42.85-27.35-42.74c0 0-1.22-.06-3.3-.05zm.72 4.84.32 49.84h-9.56l-1.6-1.76v-24.54h-10.38l-.56-2.11zm5.28.19h9.56l1.6 1.75v24.54h10.37l.57 2.12-21.78 21.42zm-67.24 20.66c-1.5.01-3.07.08-4.7.22 0 0 20.44 2.49 28.84 13.17-.83-7.66-9.59-13.47-24.14-13.39z" fill="#fff" fill-rule="evenodd"/></g></svg>