<svg viewBox="0 0 128 128" xmlns="http://www.w3.org/2000/svg" xmlns:xlink="http://www.w3.org/1999/xlink"><linearGradient id="a" gradientUnits="userSpaceOnUse" x1=".5" x2="80.5" y1="22" y2="22"><stop offset="0" stop-color="#828282"/><stop offset="1" stop-color="#9d9d9d"/></linearGradient><g stroke-width="1.65" transform="translate(-24.9 70)"><path clip-rule="evenodd" d="m111.2 32.1c-10 0-19.2-4.1-25.8-10.5h-24.7a2.8 2.8 0 0 1 -2.8-2.8v-1.8c0-1.6 1.3-2.8 2.8-2.8h22.7c1.6 0 2.8-1.3 2.8-2.8v-1.4c0-1.7-1.3-2.8-2.8-2.8h-35.2a2.8 2.8 0 0 1 -2.8-2.8v-1.8c0-1.6 1.3-2.8 2.8-2.8h27c1.6 0 2.8-1.3 2.8-2.8v-1.6c0-1.7-1.4-2.8-2.8-2.8h-16.8a2.8 2.8 0 0 1 -2.8-2.8v-1.8c0-1.7 1.4-2.8 2.8-2.8h29.8c1.6 0 2.8-1.4 2.8-2.8v-1.7c0-1.6-1.4-2.8-2.8-2.8h-15.2a2.8 2.8 0 0 1 -2.8-2.8v-1.6c0-1.7 1.3-2.8 2.8-2.8h13a36.9 36.9 0 0 1 62 26.2 36.3 36.3 0 0 1 -36.7 35.1zm-48-55h-8.8a2.8 2.8 0 0 1 -2.8-2.8v-1.7c0-1.6 1.3-2.8 2.8-2.8h8.7c1.7 0 2.8 1.4 2.8 2.8v1.7c0 1.5-1.1 2.8-2.8 2.8zm-16.2 14.9h-14.2a2.8 2.8 0 0 1 -2.8-2.8v-1.8c0-1.7 1.3-2.8 2.8-2.8h14.2c1.7 0 2.8 1.3 2.8 2.8v1.8c0 1.6-1.1 2.8-2.8 2.8z" fill="url(#a)" fill-rule="evenodd"/><path d="m108.7-1.5h15.1l1.5-7h-15.1l1-4.6c.1-.8.4-1.4.8-1.8.5-.3 1-.5 2-.5h17.7l1.5-6.9h-23.9c-1.8 0-3.3.5-4.2 1.3-1 .9-1.7 2.2-2.2 4.2l-6.2 29.3h8.9z" fill="#fff"/></g></svg>