<svg viewBox="0 0 128 128" xmlns="http://www.w3.org/2000/svg"><g stroke-width="1.35"><path d="m14 101.7 5.1 9c1.1 2 2.7 3.4 4.5 4.5l18.6-32.2h-37.2c0 2.1.5 4.2 1.6 6z" fill="#555"/><path d="m64 45.2-18.6-32.2c-1.8 1-3.4 2.6-4.4 4.5l-34.4 59.4a12.2 12.2 0 0 0 -1.6 6.1h37.2z" fill="#6d6d6d"/><path d="m104.4 115.2c1.8-1.1 3.4-2.6 4.5-4.5l2.1-3.7 10.4-18c1-1.8 1.6-3.9 1.6-6h-37.2l8 15.6z" fill="#737373"/><path d="m64 45.2 18.6-32.2c-1.8-1-4-1.6-6.1-1.6h-25c-2.2 0-4.3.6-6 1.6z" fill="#525252"/><path d="m85.8 83h-43.6l-18.6 32.2c1.8 1 3.9 1.6 6 1.6h68.7c2.2 0 4.3-.6 6.1-1.6z" fill="#767676"/><path d="m104.2 47.2-17.2-29.7c-1-2-2.6-3.4-4.4-4.5l-18.6 32.2 21.8 37.8h37.2c0-2-.5-4.2-1.6-6z" fill="#b9b9b9"/></g></svg>