<svg height="128" viewBox="0 0 128 128" width="128" xmlns="http://www.w3.org/2000/svg"><g stroke-width="1.45"><path d="m48.49 98.08-5.87 5.83c-5.09 5.05-13.37 5.05-18.42 0-2.45-2.42-3.78-5.66-3.78-9.08s1.35-6.64 3.78-9.08l21.61-21.46c4.48-4.44 12.91-10.98 19-4.89 2.81 2.8 7.37 2.78 10.16-.04 2.8-2.81 2.78-7.37-.04-10.16-10.44-10.35-25.81-8.44-39.3 4.89l-21.61 21.46c-5.19 5.15-8.03 11.99-8.03 19.29s2.86 14.12 8.03 19.29c5.34 5.29 12.34 7.93 19.29 7.93 7 0 14.02-2.64 19.29-7.95l5.87-5.83c2.81-2.8 2.83-7.35.03-10.16s-7.35-2.83-10.16-.03z" fill="#4e4e4e"/><path d="m114.75 18.75c-11.21-11.12-26.83-11.73-37.27-1.44l-7.32 7.26c-2.81 2.8-2.84 7.35-.04 10.16s7.35 2.83 10.16.04l7.31-7.26c5.38-5.34 12.41-3.13 16.97 1.44 2.45 2.42 3.8 5.66 3.8 9.08s-1.35 6.66-3.78 9.08l-23.06 22.91c-10.54 10.45-15.52 5.55-17.55 3.45-2.81-2.8-7.77-2.36-10.16.04s-2.78 7.37.04 10.16c4.84 4.8 10.37 7.18 16.1 7.18 7.09 0 14.65-3.57 21.75-10.64l23.06-22.91c5.18-5.15 8.03-11.99 8.03-19.29 0-7.28-2.86-14.12-8.05-19.29z" fill="#6c6c6c"/></g></svg>