<svg viewBox="-6.89 -3.7 128 128" xmlns="http://www.w3.org/2000/svg"><path d="m77.38 28.31a42 42 0 0 0 -21.48 6c-.55.34-1.08.72-1.6 1.1 2.02-.67 4.13-1.02 6.26-1.05 3.73-.02 6.67 2.62 6.7 5.72s-2.92 5.67-6.59 5.67c-9.28-.09-18.93-4.82-29.2-4.1-16.06 0-20.94 8.3-20.94 8.3l1.36-1.04a11.63 11.63 0 0 1 4.7-2.34c3.74-.72 5.73 4.27 2.52 6.33-6.11 3.74-15.94 2.2-20.89 15.9a9.11 9.11 0 0 1 2.9-3.53 24.2 24.2 0 0 1 10.97-4.05c7.74-.53 19.93-1 24.26 5.6 1.44 2.35 1.46 5.57-1.34 6.9a14.46 14.46 0 0 1 -6.58 1.13h-.08c5.8.77 11.5 2.21 16.98 4.3 9.38 4.08 18.12 9.58 28.08 12.12a38.56 38.56 0 0 0 23.22-.84c10.3-4.1 18.18-13.02 19.55-24.21.94-24.96-16.84-37.67-38.8-37.9zm11.06 20.96a12.85 12.85 0 0 1 0 25.7 43.38 43.38 0 0 1 -18.85-5.06c-12.21-5.92-17.2-8.03-17.2-8.38 0-.36 7.32 2.5 19.6-4.21 7.11-3.9 9.81-8.04 16.37-8.04z" fill="#606060"/></svg>