<svg viewBox="0 0 128 128" xmlns="http://www.w3.org/2000/svg"><g fill-rule="evenodd" stroke-width="0"><path d="m50 5.6s30.3 9.4 39.2 55c3.9-2.4 2.6-10.6 2.6-10.6s9.8 9.9 10 32.5c.2 22.5-16.4 41-37.5 41.1a41 41 0 0 1 -39.3-36.6c-1-17.8 7-32.2 10.6-36.2-1.2 8.7.2 10.2.2 10.2 16-11.2 21.5-34.2 14.2-55.4z" fill="#535353"/><path d="m68.2 55.5s-6.7 19 8.6 31.3c4.5-1.6 2.6-14.5 2.6-14.5s12 12.3 11.6 29c-.4 16.6-15.3 22.2-27 22.3-10.4 0-24.2-4.6-26.6-20.7a32.3 32.3 0 0 1 9-25.7c-1.6 10.5 4.4 12 4.4 12s-3.8-17.7 17.4-33.8z" fill="#afafaf"/></g></svg>