<svg viewBox="0 0 128 128" xmlns="http://www.w3.org/2000/svg"><g stroke-width=".11"><path d="m73.75 73.08 23.39-22.36a35.41 35.41 0 0 0 -63.88-10.67c.36 0 40.48 33.03 40.48 33.03z" fill="#515151"/><path d="m48.51 44.26a28.18 28.18 0 0 0 -14.88-4.21l-.36.01a28.31 28.31 0 0 0 -22.88 44.51l35.05-4.39 26.86-21.67z" fill="#5f5f5f"/><path d="m97.14 50.72a22.94 22.94 0 0 0 -10.67 1.83l-14.18 5.96 15.62 19.31 27.94 6.79a23.01 23.01 0 0 0 -18.7-33.88z" fill="#747474"/><path d="m10.39 84.56c5.28 7.61 13.97 12.14 23.23 12.13h61.96c8.47 0 16.25-4.64 20.26-12.1l-43.56-26.07z" fill="#898989"/></g></svg>