<svg viewBox="0 0 128 128" xmlns="http://www.w3.org/2000/svg"><path d="m123.66 81.27a19 19 0 0 0 -7-14.7 16 16 0 0 1 -8.3 7.6 15.8 15.8 0 0 0 -9.2-29.8c2.2 4.8 3.4 10 3.4 15.7v1a37.9 37.9 0 0 0 -75.8-.1v-1c0-5.5 1.3-10.8 3.4-15.6a28 28 0 0 0 3.6 55.9h71.3a19 19 0 0 0 18.6-19" fill="#8e8e8e"/><g fill="#fff"><path d="m64.36 88.77a26.6 26.6 0 1 1 0-53.1 26.6 26.6 0 0 1 0 53.1m0-57a30.5 30.5 0 1 0 0 61 30.5 30.5 0 0 0 0-61"/><path d="m69.06 61.97h-8.4v-6.6h8.4a3.3 3.3 0 1 1 0 6.6m-12.6-14.6c-2.4 0-4.3 2-4.3 4.3v23.1a4.3 4.3 0 0 0 8.6 0v-5h8.3a11.3 11.3 0 1 0 0-22.5"/></g></svg>