<svg viewBox="0 0 128 128" xmlns="http://www.w3.org/2000/svg"><g fill="#a1a1a1"><g stroke-width="23.1"><path d="m10.73 13.37s94.71-6.93 106.26 0 2.31 103.95 2.31 103.95h-108.57z"/><path d="m10.73 8.75c-2.31 0-4.62 0-4.62 4.62v103.95l2.31 4.62h110.88l4.62-4.62v-90.09c0-11.55-6.93-18.48-23.1-18.48zm0 4.62h92.4c16.17 0 16.17 13.86 16.17 23.1v80.85h-108.57z" fill="#000"/></g><g fill="#000" fill-rule="evenodd"><path d="m31.4 69s0-16.3-.2-23.8c0-11 4.7-17 11.2-17h23v9.8l-15.7-.2c-6 .3-9.4 4.7-9.3 12.6l.2 18.6z"/><path d="m67.7 90h14.6s3.1-.7 3.3-5l.1-25.2c.1-3.7-1-5.8-4.2-5.8h-12.3c-4 0-7 4.4-7 8.8.1 4.5 2.3 8.3 5.7 8.5 3.3.1 6.3.5 6.3.5l3.2 8.2h-12.6c-2.3 0-11.9-.8-12.2-16.2-.2-15.4 9.3-17.5 16-17.7s26.1-.2 26.1-.2l.7 39.5c0 2.5-1.3 13.8-12.6 13.9-11.2.1-15.2-.1-15.2-.1z"/></g></g></svg>