<svg viewBox="0 0 128 128" xmlns="http://www.w3.org/2000/svg"><path d="m11.7 13h104.7v103.3h-104.7z" fill="#fff" stroke-linecap="round" stroke-linejoin="round" stroke-miterlimit="10" stroke-width="15.69"/><path d="m8.6 5.3c-1.6.6-2.6 1.7-3.4 3.7-.2.5-.2 9.7-.2 55.4v54.8l.5 1a6 6 0 0 0 2.7 2.6l.8.4h54.6c60.2.1 55.4.2 57-.9a6 6 0 0 0 2.1-2.8c.4-1.3.4-109.5 0-110.6-.8-2-2-3.2-4-3.8l-54.9-.1h-54.1l-1 .3m76.4 11.4c.2.2.2 4.4 0 4.5h-44v-4.5c.2-.3 43.7-.4 44 0m0 7.3c.2.2.2 6.6 0 7h-44v-7c.1-.3 43.7-.3 44 0m0 12.1c.2.3.3 9.1 0 9.5 0 .1-4.6.2-22 .1h-22v-9.4l.1-.3h21.8l22 .1m.2 14.7v14.4l-1.6 1.4a4891 4891 0 0 1 -19.9 17c-.3.3-1 .4-1 .2-4.7-4.2-9.5-8.1-14.6-12.5l-6.4-5.5-.7-.6v-7.2l.1-7.3c.3-.3 44-.1 44 .1m14.8 13.3v3.5l-1.2 1.1c-11.2 10.3-23.2 21-32.8 30-3.1 2.8-2.5 2.6-4.4 1l-26.3-24-7.8-7-.5-.6v-3.4c0-2.6 0-3.4.2-3.4l8 7c9.8 8.3 18.4 17.6 27.6 25.1l.5.4.7-.6 33.9-30.9 2-1.6.1 3.5m-78.5 37.5.2 5h85.6l.1-9.6h.4c.2-.1 1.2-.2 2.3-.1h2v14.5h-95.2v-14.5l2.5-.1h2.1l.1 4.8" fill="#aaa" fill-rule="evenodd" stroke-width=".39"/></svg>