<svg viewBox="0 0 128 128" xmlns="http://www.w3.org/2000/svg"><g fill-rule="evenodd" stroke-width="0"><path d="m11.6 55.1h-2.7l-.9 1.6c-3.7 7-8.5 36.5 14.8 54.9 25.4 18.4 57.4 14.6 74.9-11.6 1.7-2.7 4.8-8.1 8.2-14-.5.9-1 1.9-1.6 2.7l-1.4.5c-7.3 1-10.6 1-20.2-2.5-12.9 20-29.9 21-45.8 11-13.3-8.5-12.8-25.3-8-38l.5-1.3c-5.6-1.9-11.4-3.4-17.8-3.4zm23 5.6a23.5 23.5 0 0 0 20.4 35.5c8.6 0 16.5-4.7 20.6-12.1l-2.3-1c-11.4-4.6-23.9-15.7-38.6-22.4z" fill="#4b4b4b"/><path d="m36.2 5s-22.3 40.7-27.3 50.2c7.3-.4 14.1 1 20.5 3.3 7.2-16.2 31.1-32.9 6.8-53.5zm18.5 44.1a23.6 23.5 0 0 0 -20 11.6c14.5 6.7 27 17.8 38.4 22.3l2.3 1a23.6 23.5 0 0 0 3-11.4 23.6 23.5 0 0 0 -23.5-23.6 23.6 23.5 0 0 0 -.2 0zm57.8 4.4c-5.9 0-13.4 2.8-19.8 13.5-3 5-4.9 10.5-7 14.7l-3 5.1a33.1 33.1 0 0 0 21.6 2c7.8-13.5 18.4-32.7 18.4-32.7s-4.3-2.6-10.2-2.6z" fill="#7f7f7f"/></g></svg>