<svg viewBox="0 0 128 128" xmlns="http://www.w3.org/2000/svg"><g fill-rule="evenodd" stroke-width="0"><path d="m31.7 54.7.4 28.8c.2 9 8.2 40.2 43.5 40.4a44 44 0 0 0 46-44.2c0-5.3.3-34.7.2-38.6-.2-4-5.3-6.9-8.8-6.9s-9.2 1.6-9.2 6.5l.7 37.8c.3 7.7-6.2 27.3-26 27.4-19.7.2-28.7-15.6-29-23.4-.5-3.8-.6-38-.6-39.6 0-5.4-2.4-8.4-8.9-8.4-6.3 0-8.5 4-8.5 7.8z" fill="#666"/><path d="m25.4 18.8-18 18.7c-2 2-2.7 6.3.4 9.5 2.9 3.1 8.2 3 10.1 1.1 2-1.8 23.6-23.6 23.6-23.6l-10.8-8.8z" fill="#404040"/><path d="m41.3 5.9c4.9-.2 8.7 4.6 8.7 4.6l25 25.5c1.8 1.8 3 7.5.3 10.6-2.7 3-7.8 4.6-11.7 1.2s-22.9-23.8-22.9-23.8-7.9-7.8-15.3-5.2c5.1-5.6 8.7-9.1 8.7-9.1s2.8-3.9 7.1-3.8z" fill="#666"/></g></svg>