<svg viewBox="0 0 128 128" xmlns="http://www.w3.org/2000/svg"><g stroke-width=".3"><path d="m8 61c-.3 1.8 0 36.2.7 41 .6 4.6-.7 12 53.3 13.5s59.7-6.4 56.8-13.5c-3-7.1-6.2-19.7-6.2-19.7s8.3-15.3 7-20.7c-1.3-5.6-50.5-14.2-68.4-11.6-17.8 3-42.2 5.6-43.2 11z" fill="#a2a2a2" fill-rule="evenodd" stroke="#000"/><path d="m9 20.2s-3.8 38.5-.6 38c3.2-.4 35.6-7.7 58.7-7.7s47.4 6.8 47.4 6.8 6.6 2.8 6.5-7.4c-.2-10.2.3-28.6-4.5-29.9-4.7-1.3-35.2-8.2-48.4-8.6s-59 8.8-59 8.8z" fill="#d5d5d5" fill-rule="evenodd" stroke="#000"/><path d="m5 20.3v88.2c24.28 18.06 90 10.98 115.1 3.4 3.5-1.2 3.1-4.4 2.3-7.6-7.11-27.28 1.74-44.7.24-70.84.48-25.46-19.56-23.06-60.66-24.65-27.4.44-56.79 5.08-56.98 11.48zm56.3-1.7c.4 3.7 0 9 0 12.5.3 5.9-2.2 4.8-7.1 5.1-6.6.2-6.4.7-6.5 2.4l-.2 8.5c-1.85 3.55-9.8 4.45-10.1.6l-.4-30.4c7-.9 10.7-1.3 16.7-1.7 2.77-.33 7.04.16 7.6 3zm15.3-.6c2.8.1 3.2.3 6.8.5 6.63.64 6.67.83 6.54 5.24.05 2.17-.11 4.1-2.14 3.86-3.46-.08-11.92-3.15-11.7 2 0 3.5-.6 7.9-.3 11.4 1.2.9 2.8 1 3.2-.1 1.28-3.9-1.5-11.64 2-11.7 2.6.1 6.7.9 8.5 1.3.3 5.6 0 10.9 0 16.4-.07 3.15-8.08 2.41-11.2 2.26-4.12-.28-12.63.23-12.61-4.26v-18.4c-3.73-.23-3.2-1.17-3.2-4.57-.28-3.11.24-4.09 3-4.43.01-3.57 2.07-2.96 5.3-2.8 5.71.19 5.84.76 5.8 3.3zm-41.9 1.2c.8 9-.5 18-.3 26.4-.94 6.62-4.67 6.84-10.38 7.92-7.54 1.46-13.21 3.44-13.02-4.32 0-8.3-.3-16.8-.4-25 2.76-1.31 10.57-4.58 10.7-2.1.63 3.87-1.46 23.37 1.63 22.94 2.24-7.34.86-17.05 1.07-24.04 1.45-2.62 10.4-3.39 10.7-1.8zm70.89 1.4c7.19 1.76 10.81 2.19 10.61 6.8-.2 7.4.4 15.8.2 22.6-.14 6.38-2 5.18-12.22 3.94-9.6-1.29-12.13-1.8-12.18-7.54l.1-25.5c-.1-3.56 9.13-1.34 13.49-.3zm-57.69 6.4c0 3.6 2.2 3 3 .6.66-4.23-3.01-4.48-3-.6zm55.2 17.3c3.85 2.55 2.63-12.82 2.2-14.6-4.17-3.3-2.17 12.85-2.2 14.6zm-29.1 8.2c6 .5 7.3 7.1 6.6 12-.1 14.4.1 28.9-.5 43.3-1 6.4-8.6 5.5-13.4 5.7-5.6-.4-12 1-17.2-1.7-3.8-3.4-1.8-9.2-2.4-13.8 0-13.5-.5-27 .1-40.6 1.8-5.7 8.5-5.1 13.3-5zm25.5 7.3c.7 2.1 1.4 10.1 3.3 4.2 3.8-6.7 3-6.4 8.4-5.2 4.3.9 5.8 1.3 3.2 6.2-1.9 5.6-4.9 11.1-5.6 16.9 2.5 7.8 5.3 15.6 8.1 23.3-4.46 2.23-9.32 3.52-14.3 3.8-1.9-1.6-1.9-10.5-4.2-8.5-2.3 4.3-1.2 11.4-8.5 11.4-3.6.4-7.8 1.3-5.5-3.9 2.1-8.2 4.6-16.3 7-24.5 2.01-7.72-9.41-26.28-6.6-29.9 5.86.43 14.44 1.16 14.7 6.2zm-59.6-5.3c3 1.6 3.5 4.5 3.5 7.6l-.1 15.8c-2.27 4.72-1.58 8.74.1 13.2.1 5.4-.1 9.7-.3 14.8 0 3.8-2 6.4-6.3 5.6-6.9-.5-13.6-2.2-20.3-3.6-6.7-1.3-4.9-3-5.3-12 0-11.8-.4-23.6-.1-35.4 4.4-2.3 9.8-3 14.7-4.3 4.6-.8 9.3-2.3 14-1.6zm22.5 13.5c-.52 7.7-1.81 24.9.3 30.4 4.1 1.5 3-2.8 3-5 0-8.5.1-16.9-.3-25.3-1-.4-2-.3-3-.1zm-35 1.7c-4-.4-2.98 4.78-2.2 6.7 4.02 3.21 4.5-5.72 2.3-6.7zm-2 19c-.55 2.61-.52 5.31.1 7.9 4.8 2.4 2.8-4.3 3.2-7 .3-1.6-2.4-1.2-3.2-.9z"/></g></svg>