<svg viewBox="0 0 128 128" xmlns="http://www.w3.org/2000/svg" xmlns:xlink="http://www.w3.org/1999/xlink"><linearGradient id="a" gradientUnits="userSpaceOnUse" x1="68.5" x2="65.9" y1="82.5" y2="1"><stop offset="0" stop-color="#9c9c9c"/><stop offset="1" stop-color="#dbdbdb"/></linearGradient><path d="m68.6 14.6c-2-.1-3 .2-3.1 2.9-2.8.3-3.3 1.3-3 4.4 0 3.4-.5 4.4 3.2 4.6v18.4c0 4.5 8.5 4 12.6 4.3 7.1.2 11.2.9 11.2-2.3 0-5.5.3-10.8 0-16.4-1.8-.4-5.9-1.2-8.5-1.3-3.5 0-.7 7.8-2 11.7-.4 1.1-2 1-3.2.1-.3-3.5.3-7.9.3-11.4-.2-5.2 8.2-2 11.7-2 2 .2 2.2-1.7 2.1-3.9.2-4.4.1-4.6-6.5-5.2-3.6-.2-4-.4-6.8-.5 0-2.5 0-3.1-5.8-3.3zm-13.8 1h-1.1c-6 .4-9.7.8-16.7 1.7l.4 30.4c.3 3.8 8.2 3 10.1-.6l.2-8.5c.1-1.7-.1-2.2 6.5-2.4 4.9-.3 7.4.8 7.1-5.1 0-3.5.4-8.8 0-12.5-.5-2.5-3.8-3.2-6.5-3zm-23.2 2.8c-2.9 0-6.7 1-7.6 2.6-.2 7 1.2 16.7-1 24-3.2.5-1-19-1.7-22.9-.1-2.5-8 .8-10.7 2.1.1 8.2.4 16.7.4 25-.2 7.8 5.5 5.8 13 4.3 5.7-1 9.5-1.3 10.4-7.9-.2-8.4 1.1-17.4.3-26.4-.1-.6-1.4-.9-3.1-.8zm64.4.6c-2.3-.1-4 .3-4 1.9v25.5c0 5.7 2.6 6.2 12.2 7.5 10.2 1.3 12 2.5 12.2-3.9.2-6.8-.4-15.2-.2-22.6.2-4.6-3.4-5-10.6-6.8-2.6-.6-6.6-1.5-9.6-1.6zm-46.5 5.3c.9 0 1.6 1.2 1.3 3.3-.8 2.4-3 3-3-.6 0-2 1-2.8 1.7-2.7zm54.7 5c.3 0 .6 0 1 .4.4 1.8 1.6 17.2-2.2 14.6 0-1.6-1.6-15 1.2-15zm-47.7 23c-4 0-8 .8-9.4 5.1-.6 13.6-.1 27.1-.1 40.6.6 4.6-1.4 10.4 2.4 13.8 5.2 2.7 11.6 1.3 17.2 1.7 4.8-.2 12.4.7 13.4-5.7.6-14.4.4-28.9.5-43.3.7-4.9-.6-11.5-6.6-12-5.7.1-12-.2-17.4-.2zm28.2 1.3c-2.8 3.6 8.6 22.2 6.6 29.9-2.4 8.2-4.9 16.3-7 24.5-2.3 5.2 1.9 4.3 5.5 3.9 7.3 0 6.2-7.1 8.5-11.4 2.3-2 2.3 6.9 4.2 8.5 5-.3 9.8-1.6 14.3-3.8-2.8-7.7-5.6-15.5-8.1-23.3.7-5.8 3.7-11.3 5.6-16.9 2.6-4.9 1.1-5.3-3.2-6.2-5.4-1.2-4.6-1.5-8.4 5.2-1.9 5.9-2.6-2.1-3.3-4.2-.3-5-8.8-5.8-14.7-6.2zm-46.8.8a84 84 0 0 0 -26.9 6.1c-.3 11.8.1 23.6.1 35.4.4 9-1.4 10.7 5.3 12 6.7 1.4 13.4 3.1 20.3 3.6 4.3.8 6.3-1.8 6.3-5.6.2-5.1.4-9.4.3-14.8-1.7-4.5-2.4-8.5-.1-13.2l.1-15.8c-.7-4.6-1.5-8-5.4-7.7zm26.1 13.4c2.7 0 2.2 16.2 2.3 23s.2 8.8-3.5 7.6c-.8-3.4-2.7-30.2 1.2-30.6zm-37.2 1.9h.7c2.2 1 1.7 10-2.3 6.7-.7-1.8-1.7-6.5 1.5-6.7zm.2 18.7c1 0 2 .2 1.8 1.2-.4 2.7 1.6 9.4-3.2 7a18 18 0 0 1 -.1-7.9h.1z" fill="url(#a)" stroke="#0a0a0a" stroke-width=".6"/></svg>