<svg viewBox="0 0 126 84" xmlns="http://www.w3.org/2000/svg"><rect fill="#121212" height="75.14" ry="6.44" stroke="#121212" stroke-linecap="round" stroke-linejoin="round" stroke-width=".68" width="94.98" x="26.67" y="4.42"/><path d="m38.19 32.96-1.82 42.96-2.4-15.4-1.54 15.4-1.92-27.06-1.85 27.06c-.31-1.47-.92-3.96-.92-3.96l.03 7.44 87.06.02s1.46.15 3.08-.67 2.66-2.57 2.66-2.57l-65.97-.25-2.01-3.97-1.73 3.97-1.73-12.82-1.54 12.82-2.2-22.68-2.02 22.68-1.44-32.55-1.82 32.55z" fill="#5e5e5e" stroke-width=".97"/><path d="m34.12 4.56c-5.36 0-12.01-.05-15.75-.07-13.94-.08-13.96-.08-13.85 15.96.08 13.76-.13 27.73.05 41.18-.08 17.95-.12 17.9 15.26 17.89 3.36 0 9.58-.11 14.28-.11h.06v-74.85z" fill="#d8d8d8" stroke="#121212" stroke-width=".97"/><path d="m-19.3 12.7c-3.73 0-6.28 2.98-6.29 6.67-.01 3.7 2.79 6.67 6.29 6.67s6.23-2.54 6.23-6.67c0-3.76-2.5-6.67-6.23-6.67zm3.54 6.67c0 1.89-1.06 4.41-3.54 4.41s-3.56-2.58-3.61-4.41 1.04-4.23 3.61-4.23 3.54 2.34 3.54 4.23zm-13.3-6.43h-2.6v12.9h2.6zm-6.23 6.57c.17-2.69-1.17-6.12-4.33-6.47-2.15-.18-4.31-.06-6.47-.1v12.9c2.4-.09 4.84.22 7.2-.27 2.67-.74 3.66-3.64 3.6-6.05zm-2.69-.11c0 2.72-.75 4.17-3.57 4.26-.64.03-1.94.13-1.94-.5v-8.04c1.8.06 4.28-.4 5.1 1.6.37.84.4 1.77.41 2.67zm-12.3-6.45h-2.6c-.05 3.11.11 6.22-.12 9.32-.58 2.62-5.43 1.77-4.93-.97-.05-2.78-.01-5.57-.02-8.35h-2.6c.08 3.38-.2 6.78.26 10.1.59 2.61 3.73 3.26 6.1 2.91 2.78-.06 4.2-2.81 3.9-5.21.03-2.61.01-5.23.01-7.84zm-13.1 12.9-5.16-12.9h-2.75l-5.02 12.9h2.76l1.06-2.93h5.15l1.12 2.93zm-4.79-5.1h-3.51l1.74-4.78z" fill="#1a1a1a" transform="matrix(0 -.95 .99 0 1.85 -.66)"/><path d="m81.43 9.16c-5.23.44-10.78.99-15.11 4.15-4.26 2.75-6.27 7.77-6 12.59.29 9.72 7.05 17.88 14.43 23.92 2.23 2.96 5.92 1.99 9.19 2.12 3.17.37-1.46-1.8-2.16-2.82-6.5-5.53-12.91-12.51-13.63-21.21-.43-4.54 1.31-9.54 5.58-11.93 6.1-3.71 13.76-3.21 20.61-2.28 6.12 1.03 12.09 2.84 17.85 5.06 1.2-3.43-2.89-3.5-5.23-4.55-7.63-2.59-15.6-4.41-23.69-4.84-.61-.09-1.22-.19-1.84-.21zm11.52 8.98c-5.82-.16-12.63 1.68-15.38 7.08-2.76 6.15.23 13.11 4.39 17.95 2.82 3.38 6.27 6.23 9.92 8.76 1.56-.16 5.35.31 5.41-.27-5.21-3.66-10.31-8.01-13.04-13.74-2.17-4.43-1.08-10.23 3.07-13.25 4.73-3.44 11.14-3.07 16.7-2.28 2.65.14 6.13 1.79 8.18 1.49.53-1.91-.8-2.57-2.63-2.86-5.36-1.69-10.97-2.86-16.63-2.88zm9.94 7.7c-5.04-.26-11.01 2.21-12.17 7.35-.81 5.32 3.01 9.95 6.68 13.49 2.13 1.99 4.49 3.75 7.01 5.26 2.45-.33 6.27.66 7.89-.47 0-8.1.01-16.2.01-24.3-3.04-.94-6.24-1.33-9.42-1.33zm1.95 30.19c-4.2-.21-7.96 3.18-8.09 7.2-.53 4.01 1.4 9.19 6.11 9.81 3.96.97 8.41-1.41 9.1-5.4-2.43-1.32-2.57.65-3.77 2.32-2.87 2.84-8.53.9-8.9-3.05-.78-3.29 0-8.12 4.1-8.88 3.12-1.25 5.18 2.09 6.6 3.2 3.46.01-.11-3.88-1.73-4.5-1.06-.51-2.25-.72-3.43-.71zm-36.85.28c-2.21 5.53-4.42 11.07-6.63 16.6 1.12-.12 2.81.54 2.84-1.08l1.49-3.95h7.23l2.01 5.03c.87-.21 3.38.63 2.23-.89l-6.7-15.71zm17.05 0c-2.21 5.53-4.42 11.07-6.63 16.6 1.12-.12 2.81.54 2.84-1.08l1.49-3.95h7.23l2.01 5.03c.86-.21 3.37.63 2.22-.89-2.23-5.23-4.46-10.47-6.7-15.71zm-15.87 1.74c.86 2.73 2.01 5.36 3.03 8.04h-5.86c.98-2.67 2.24-5.26 2.83-8.04zm17.05 0c.86 2.73 2.01 5.36 3.03 8.04h-5.86c.98-2.67 2.24-5.26 2.83-8.04z" fill="#c9c9c9" fill-rule="evenodd" stroke-width=".86"/></svg>