<svg viewBox="0 0 126 84" xmlns="http://www.w3.org/2000/svg"><rect fill="#121212" height="75.14" ry="6.44" stroke="#121212" stroke-linecap="round" stroke-linejoin="round" stroke-width=".68" width="94.98" x="26.67" y="4.42"/><path d="m38.19 32.96-1.82 42.96-2.4-15.4-1.54 15.4-1.92-27.06-1.85 27.06c-.31-1.47-.92-3.96-.92-3.96l.03 7.44 87.06.02s1.46.15 3.08-.67 2.66-2.57 2.66-2.57l-65.97-.25-2.01-3.97-1.73 3.97-1.73-12.82-1.54 12.82-2.2-22.68-2.02 22.68-1.44-32.55-1.82 32.55z" fill="#5e5e5e" stroke-width=".97"/><path d="m34.12 4.56c-5.36 0-12.01-.05-15.75-.07-13.94-.08-13.96-.08-13.85 15.96.08 13.76-.13 27.73.05 41.18-.08 17.95-.12 17.9 15.26 17.89 3.36 0 9.58-.11 14.28-.11h.06v-74.85z" fill="#d8d8d8" stroke="#121212" stroke-width=".97"/><path d="m-19.3 12.7c-3.73 0-6.28 2.98-6.29 6.67-.01 3.7 2.79 6.67 6.29 6.67s6.23-2.54 6.23-6.67c0-3.76-2.5-6.67-6.23-6.67zm3.54 6.67c0 1.89-1.06 4.41-3.54 4.41s-3.56-2.58-3.61-4.41 1.04-4.23 3.61-4.23 3.54 2.34 3.54 4.23zm-13.3-6.43h-2.6v12.9h2.6zm-6.23 6.57c.17-2.69-1.17-6.12-4.33-6.47-2.15-.18-4.31-.06-6.47-.1v12.9c2.4-.09 4.84.22 7.2-.27 2.67-.74 3.66-3.64 3.6-6.05zm-2.69-.11c0 2.72-.75 4.17-3.57 4.26-.64.03-1.94.13-1.94-.5v-8.04c1.8.06 4.28-.4 5.1 1.6.37.84.4 1.77.41 2.67zm-12.3-6.45h-2.6c-.05 3.11.11 6.22-.12 9.32-.58 2.62-5.43 1.77-4.93-.97-.05-2.78-.01-5.57-.02-8.35h-2.6c.08 3.38-.2 6.78.26 10.1.59 2.61 3.73 3.26 6.1 2.91 2.78-.06 4.2-2.81 3.9-5.21.03-2.61.01-5.23.01-7.84zm-13.1 12.9-5.16-12.9h-2.75l-5.02 12.9h2.76l1.06-2.93h5.15l1.12 2.93zm-4.79-5.1h-3.51l1.74-4.78z" fill="#1a1a1a" transform="matrix(0 -.95 .99 0 1.85 -.66)"/><path d="m98.33 9.4c-1.63.08-3.37.56-5.2 1.42-1.84.87-3.35 1.97-4.55 3.28-2.39 2.6-3.73 5.77-3.73 8.74 0 .41.03.8.08 1.17 3.71.29 7.13-1.55 9.96-4.72 2.34-2.67 3.52-5.56 3.52-8.65 0-.41-.02-.82-.07-1.24zm-1.06 14.64c-1.84-.02-4.03.41-6.55 1.28-3.05 1.08-4.86 1.62-5.39 1.62-.71 0-2.33-.46-4.86-1.37s-4.57-1.37-6.13-1.37c-2.84.05-5.48.75-7.92 2.15-2.44 1.39-4.39 3.29-5.86 5.69-1.87 2.99-2.8 6.57-2.8 10.71 0 3.62.69 7.35 2.07 11.21 1.29 3.57 2.93 6.7 4.93 9.4 1.86 2.53 3.42 4.31 4.66 5.36 1.95 1.74 3.9 2.57 5.85 2.49 1.29-.04 2.97-.47 5.06-1.28s4.04-1.21 5.86-1.21c1.73 0 3.63.4 5.69 1.21s3.82 1.21 5.29 1.21c2.04-.05 3.95-.85 5.73-2.42 1.15-.96 2.64-2.68 4.46-5.17 1.33-1.83 2.49-3.81 3.46-5.97.4-.92.78-1.87 1.14-2.86-1.65-.66-3.13-1.6-4.46-2.81-2.93-2.61-4.42-5.89-4.46-9.83-.02-1.72.26-3.31.8-4.77h-.93v13.59h-2.68v-13.61h-2.55v-1.99h2.55v-1.08c0-1.73.42-3 1.26-3.78.84-.8 2.17-1.2 4-1.2h2.52v2.13h-2.55c-.96 0-1.62.19-2 .56-.37.37-.55 1.04-.55 2v1.38h1.89c1.2-1.97 3.01-3.66 5.43-5.07-2.7-3.69-6.77-5.74-12.18-6.16-.25-.02-.51-.03-.77-.03zm7.53 11.27c-.38.63-.7 1.3-.96 1.99h3.45v-2zm-23.66-6.07h2.66v3.24h-2.66zm13.91 0h2.52v2.13h-2.55c-.96 0-1.62.19-2 .56-.37.37-.55 1.04-.55 2v1.38h4.39v1.99h-4.39v13.59h-2.68v-13.6h-2.55v-1.99h2.55v-1.08c0-1.73.42-3 1.26-3.78.84-.8 2.17-1.2 4-1.2zm-26.41 5.69c2.35 0 4.1.58 5.26 1.75s1.74 2.94 1.74 5.31v8.89h-2.66v-2.36c-.61.95-1.37 1.65-2.27 2.1-.91.45-2.02.67-3.33.67-1.66 0-2.98-.45-3.97-1.34-.97-.9-1.46-2.1-1.46-3.6 0-1.75.61-3.07 1.82-3.96 1.23-.89 3.05-1.34 5.47-1.34h3.74v-.25c0-1.18-.41-2.09-1.22-2.73-.8-.65-1.93-.97-3.39-.97-.93 0-1.83.11-2.71.32s-1.72.53-2.53.96v-2.36c.97-.36 1.92-.63 2.84-.81.92-.19 1.81-.28 2.68-.28zm12.49.38h2.66v15.58h-2.66zm-10.81 7.75c-2.15 0-3.64.24-4.47.71s-1.24 1.28-1.24 2.42c0 .91.31 1.63.93 2.17.63.53 1.48.79 2.55.79 1.48 0 2.66-.5 3.55-1.5.9-1.01 1.35-2.35 1.35-4.02v-.57zm16.77 10.98c.59 0 1.16.06 1.72.18.56.11 1.1.28 1.62.52v1.71c-.54-.28-1.08-.5-1.62-.64-.54-.15-1.08-.22-1.63-.22-1.23 0-2.51.14-3.2.89-.71.69.88 1.34.82 1.83-.06.4-1.58.11-1.67.39-.15.5 1.65.65 1.65 1.28 0 .72-1.3.67-1.29 1.24.01.49 1.38.35 1.29.77.05.46-1.19.84-.94 1.12.44.5 2.54 1.05 3.33 1.05.55 0 1.1-.07 1.63-.21.54-.15 1.09-.36 1.62-.65v1.69c-.53.24-1.08.42-1.66.54-.57.12-1.17.18-1.81.18-1.74 0-3.76-1.37-4.78-2.42-.21-.3 1.21-.56.98-1.14-.18-.46-1.43-.59-1.41-.94.04-.72 1.2-.51 1.2-1.37 0-.75-1.59-.35-1.42-.97.11-.39 2.19-.52 2.21-.92.01-.21-2.69-.6-1.53-1.81 1.04-1.04 3.07-2.11 4.88-2.11z" fill="#c9c9c9" stroke-width=".39"/></svg>