<svg viewBox="0 0 126 84" xmlns="http://www.w3.org/2000/svg"><rect fill="#121212" height="75.14" ry="6.44" stroke="#121212" stroke-linecap="round" stroke-linejoin="round" stroke-width=".68" width="94.98" x="26.67" y="4.42"/><path d="m38.19 32.96-1.82 42.96-2.4-15.4-1.54 15.4-1.92-27.06-1.85 27.06c-.31-1.47-.92-3.96-.92-3.96l.03 7.44 87.06.02s1.46.15 3.08-.67 2.66-2.57 2.66-2.57l-65.97-.25-2.01-3.97-1.73 3.97-1.73-12.82-1.54 12.82-2.2-22.68-2.02 22.68-1.44-32.55-1.82 32.55z" fill="#5e5e5e" stroke-width=".97"/><path d="m96.25 7.88c-1.68.08-3.46.57-5.34 1.45-1.89.9-3.45 2.02-4.67 3.37-2.45 2.67-3.83 5.93-3.83 8.98 0 .42.03.82.08 1.2 3.81.3 7.32-1.59 10.23-4.85 2.41-2.74 3.61-5.71 3.61-8.88 0-.42-.02-.85-.07-1.27zm-1.09 15.03c-1.89-.02-4.14.42-6.73 1.32-3.14 1.11-4.99 1.66-5.53 1.66-.73 0-2.4-.47-4.99-1.41-2.6-.93-4.7-1.41-6.29-1.41-2.92.05-5.63.78-8.14 2.21s-4.51 3.38-6.02 5.85c-1.92 3.07-2.87 6.74-2.87 11 0 3.71.71 7.55 2.13 11.51 1.32 3.67 3.01 6.88 5.06 9.66 1.91 2.6 3.51 4.43 4.79 5.5 2 1.79 4 2.64 6.01 2.55 1.32-.04 3.05-.48 5.2-1.31 2.14-.83 4.15-1.24 6.01-1.24 1.78 0 3.73.41 5.85 1.24 2.11.83 3.93 1.25 5.43 1.25 2.1-.05 4.05-.87 5.88-2.49 1.18-.98 2.71-2.75 4.58-5.31 1.37-1.88 2.55-3.92 3.55-6.14.41-.94.8-1.92 1.17-2.94-1.69-.68-3.21-1.64-4.58-2.88-.51-.45-.97-.92-1.39-1.41v12.35h-2.75v-13.97h-2.62v-2.04h2.62v-1.11c0-.15.01-.29.01-.43-.29-1.1-.44-2.27-.45-3.49-.05-5.2 2.41-9.25 7.38-12.15-2.78-3.79-6.95-5.9-12.51-6.33-.26-.02-.52-.03-.79-.03zm6.37 22c.5 1.92 1.41 3.65 2.74 5.19v-1.6h4.51v-2.04h-4.51v-1.41c0-.99.19-1.68.56-2.06.39-.38 1.07-.57 2.05-.57h2.62v-2.19h-2.59c-1.87 0-3.24.41-4.1 1.23-.79.74-1.21 1.9-1.28 3.46zm-19.61-4.68h2.74v3.33h-2.74zm14.29 0h2.59v2.19h-2.62c-.98 0-1.67.19-2.05.57s-.56 1.07-.56 2.06v1.41h4.51v2.04h-4.52v13.96h-2.75v-13.96h-2.62v-2.04h2.62v-1.11c0-1.78.43-3.08 1.29-3.89.86-.82 2.23-1.23 4.1-1.23zm-27.12 5.84c2.41 0 4.21.6 5.4 1.8s1.78 3.02 1.78 5.46v9.13h-2.74v-2.43c-.62.97-1.4 1.69-2.33 2.16-.93.46-2.07.69-3.42.69-1.71 0-3.06-.46-4.07-1.37-1-.92-1.5-2.16-1.5-3.7 0-1.8.62-3.16 1.87-4.07 1.26-.91 3.13-1.37 5.62-1.37h3.84v-.26c0-1.21-.42-2.14-1.25-2.8-.82-.67-1.98-1-3.48-1-.95 0-1.88.11-2.78.33s-1.77.55-2.6.99v-2.43c1-.37 1.97-.65 2.91-.83.94-.19 1.86-.29 2.75-.29zm12.83.39h2.74v16h-2.74zm-11.11 7.96c-2.21 0-3.74.24-4.59.73s-1.28 1.31-1.28 2.49c0 .93.32 1.68.95 2.23.64.54 1.52.81 2.62.81 1.52 0 2.73-.51 3.64-1.54.92-1.04 1.38-2.41 1.38-4.13v-.59z" fill="#c9c9c9" stroke-width=".4"/><path d="m34.12 4.56c-5.36 0-12.01-.05-15.75-.07-13.94-.08-13.96-.08-13.85 15.96.08 13.76-.13 27.73.05 41.18-.08 17.95-.12 17.9 15.26 17.89 3.36 0 9.58-.11 14.28-.11h.06v-74.85z" fill="#d8d8d8" stroke="#121212" stroke-width=".97"/><path d="m-19.3 12.7c-3.73 0-6.28 2.98-6.29 6.67-.01 3.7 2.79 6.67 6.29 6.67s6.23-2.54 6.23-6.67c0-3.76-2.5-6.67-6.23-6.67zm3.54 6.67c0 1.89-1.06 4.41-3.54 4.41s-3.56-2.58-3.61-4.41 1.04-4.23 3.61-4.23 3.54 2.34 3.54 4.23zm-13.3-6.43h-2.6v12.9h2.6zm-6.23 6.57c.17-2.69-1.17-6.12-4.33-6.47-2.15-.18-4.31-.06-6.47-.1v12.9c2.4-.09 4.84.22 7.2-.27 2.67-.74 3.66-3.64 3.6-6.05zm-2.69-.11c0 2.72-.75 4.17-3.57 4.26-.64.03-1.94.13-1.94-.5v-8.04c1.8.06 4.28-.4 5.1 1.6.37.84.4 1.77.41 2.67zm-12.3-6.45h-2.6c-.05 3.11.11 6.22-.12 9.32-.58 2.62-5.43 1.77-4.93-.97-.05-2.78-.01-5.57-.02-8.35h-2.6c.08 3.38-.2 6.78.26 10.1.59 2.61 3.73 3.26 6.1 2.91 2.78-.06 4.2-2.81 3.9-5.21.03-2.61.01-5.23.01-7.84zm-13.1 12.9-5.16-12.9h-2.75l-5.02 12.9h2.76l1.06-2.93h5.15l1.12 2.93zm-4.79-5.1h-3.51l1.74-4.78z" fill="#1a1a1a" transform="matrix(0 -.95 .99 0 1.85 -.66)"/></svg>