<svg viewBox="0 0 126 84" xmlns="http://www.w3.org/2000/svg"><rect fill="#121212" height="75.14" ry="6.44" stroke="#121212" stroke-linecap="round" stroke-linejoin="round" stroke-width=".68" width="94.98" x="26.67" y="4.42"/><path d="m38.19 32.96-1.82 42.96-2.4-15.4-1.54 15.4-1.92-27.06-1.85 27.06c-.31-1.47-.92-3.96-.92-3.96l.03 7.44 87.06.02s1.46.15 3.08-.67 2.66-2.57 2.66-2.57l-65.97-.25-2.01-3.97-1.73 3.97-1.73-12.82-1.54 12.82-2.2-22.68-2.02 22.68-1.44-32.55-1.82 32.55z" fill="#5e5e5e" stroke-width=".97"/><path d="m34.12 4.56c-5.36 0-12.01-.05-15.75-.07-13.94-.08-13.96-.08-13.85 15.96.08 13.76-.13 27.73.05 41.18-.08 17.95-.12 17.9 15.26 17.89 3.36 0 9.58-.11 14.28-.11h.06v-74.85z" fill="#d8d8d8" stroke="#121212" stroke-width=".97"/><path d="m-19.3 12.7c-3.73 0-6.28 2.98-6.29 6.67-.01 3.7 2.79 6.67 6.29 6.67s6.23-2.54 6.23-6.67c0-3.76-2.5-6.67-6.23-6.67zm3.54 6.67c0 1.89-1.06 4.41-3.54 4.41s-3.56-2.58-3.61-4.41 1.04-4.23 3.61-4.23 3.54 2.34 3.54 4.23zm-13.3-6.43h-2.6v12.9h2.6zm-6.23 6.57c.17-2.69-1.17-6.12-4.33-6.47-2.15-.18-4.31-.06-6.47-.1v12.9c2.4-.09 4.84.22 7.2-.27 2.67-.74 3.66-3.64 3.6-6.05zm-2.69-.11c0 2.72-.75 4.17-3.57 4.26-.64.03-1.94.13-1.94-.5v-8.04c1.8.06 4.28-.4 5.1 1.6.37.84.4 1.77.41 2.67zm-12.3-6.45h-2.6c-.05 3.11.11 6.22-.12 9.32-.58 2.62-5.43 1.77-4.93-.97-.05-2.78-.01-5.57-.02-8.35h-2.6c.08 3.38-.2 6.78.26 10.1.59 2.61 3.73 3.26 6.1 2.91 2.78-.06 4.2-2.81 3.9-5.21.03-2.61.01-5.23.01-7.84zm-13.1 12.9-5.16-12.9h-2.75l-5.02 12.9h2.76l1.06-2.93h5.15l1.12 2.93zm-4.79-5.1h-3.51l1.74-4.78z" fill="#1a1a1a" transform="matrix(0 -.95 .99 0 1.85 -.66)"/><path d="m95.54 10.61c-1.57.08-3.24.53-5 1.36-1.77.84-3.22 1.89-4.37 3.15-2.29 2.49-3.59 5.55-3.59 8.4 0 .39.03.77.07 1.12 3.56.28 6.85-1.48 9.57-4.54 2.25-2.57 3.38-5.34 3.38-8.31 0-.39-.02-.79-.06-1.19zm-1.02 14.06c-1.77-.02-3.87.39-6.3 1.23-2.94 1.03-4.67 1.55-5.18 1.55-.68 0-2.24-.44-4.67-1.32-2.43-.87-4.39-1.32-5.89-1.32-2.73.04-5.27.73-7.61 2.06-2.35 1.34-4.22 3.16-5.63 5.47-1.79 2.88-2.69 6.31-2.69 10.29 0 3.47.66 7.06 1.99 10.77 1.24 3.43 2.82 6.44 4.74 9.04 1.79 2.43 3.28 4.15 4.48 5.15 1.87 1.67 3.75 2.47 5.63 2.39 1.24-.04 2.85-.45 4.86-1.23 2-.78 3.88-1.16 5.63-1.16 1.67 0 3.49.38 5.47 1.16s3.67 1.17 5.08 1.17c1.96-.04 3.79-.82 5.5-2.33 1.1-.92 2.53-2.58 4.28-4.97 1.28-1.76 2.39-3.67 3.32-5.74.39-.88.75-1.8 1.09-2.75-.75-.3-1.46-.66-2.13-1.08v1.28c-.61.27-1.25.48-1.91.62-.65.14-1.35.21-2.09.21-2.01 0-3.61-.61-4.79-1.82s-1.78-2.85-1.78-4.91c0-2.09.6-3.74 1.79-4.94.65-.65 1.44-1.12 2.35-1.42 0-.03 0-.05 0-.08-.05-4.86 2.26-8.66 6.91-11.36-2.6-3.55-6.51-5.52-11.71-5.92-.24-.02-.49-.03-.74-.03zm5.54 17.39c.01.7.07 1.38.18 2.04.68-.42 1.51-.63 2.5-.63.64 0 1.26.08 1.88.25.63.16 1.25.4 1.87.73v-1.97c-.6-.27-1.23-.47-1.87-.6-.64-.14-1.3-.21-1.98-.21-.95 0-1.81.13-2.58.38zm.18 2.04c-.3.19-.58.41-.82.67-.79.86-1.18 2.08-1.18 3.64 0 1.57.39 2.78 1.18 3.65.79.86 1.89 1.29 3.31 1.29.64 0 1.26-.08 1.88-.24.43-.11.85-.27 1.28-.46-.54-.37-1.06-.78-1.55-1.23-2.27-2.02-3.64-4.47-4.11-7.33zm5.66 8.57c.19.13.39.26.59.39v-.67c-.2.1-.4.2-.59.29zm-30.77-15.67h2.19v17.82h-2.19zm-10.29 4.69c1.93 0 3.37.48 4.33 1.44.95.96 1.43 2.42 1.43 4.38v7.32h-2.19v-1.95c-.5.78-1.12 1.36-1.87 1.73s-1.66.55-2.74.55c-1.37 0-2.46-.37-3.27-1.1-.8-.74-1.2-1.73-1.2-2.97 0-1.44.5-2.53 1.5-3.26 1.01-.73 2.51-1.1 4.51-1.1h3.08v-.21c0-.97-.33-1.72-1-2.25-.66-.53-1.59-.8-2.79-.8-.76 0-1.51.09-2.23.26-.72.18-1.42.44-2.09.79v-1.95c.8-.3 1.58-.52 2.34-.66.76-.15 1.49-.23 2.21-.23zm21.75 0c1.93 0 3.37.48 4.33 1.44.95.96 1.43 2.42 1.43 4.38v7.32h-2.19v-1.95c-.5.78-1.12 1.36-1.87 1.73s-1.66.55-2.74.55c-1.37 0-2.46-.37-3.27-1.1-.8-.74-1.2-1.73-1.2-2.97 0-1.44.5-2.53 1.5-3.26 1.01-.73 2.51-1.1 4.51-1.1h3.06v-.21c0-.97-.33-1.72-1-2.25-.66-.53-1.59-.8-2.79-.8-.76 0-1.51.09-2.23.26-.72.18-1.42.44-2.09.79v-1.95c.8-.3 1.58-.52 2.34-.66.76-.15 1.49-.23 2.21-.23zm-20.37 6.69c-1.77 0-3 .19-3.68.58s-1.03 1.05-1.03 1.99c0 .75.25 1.34.76 1.79.52.44 1.22.65 2.1.65 1.22 0 2.19-.41 2.92-1.24.74-.83 1.11-1.94 1.11-3.31v-.47zm21.75 0c-1.77 0-3 .19-3.68.58s-1.03 1.05-1.03 1.99c0 .75.25 1.34.76 1.79.52.44 1.22.65 2.1.65 1.22 0 2.19-.41 2.92-1.24.74-.83 1.11-1.94 1.11-3.31v-.47z" fill="#c9c9c9" stroke-width=".37"/></svg>