<svg viewBox="0 0 126 84" xmlns="http://www.w3.org/2000/svg"><rect fill="#121212" height="75.14" ry="6.44" stroke="#121212" stroke-linecap="round" stroke-linejoin="round" stroke-width=".68" width="94.98" x="26.67" y="4.42"/><path d="m38.19 32.96-1.82 42.96-2.4-15.4-1.54 15.4-1.92-27.06-1.85 27.06c-.31-1.47-.92-3.96-.92-3.96l.03 7.44 87.06.02s1.46.15 3.08-.67 2.66-2.57 2.66-2.57l-65.97-.25-2.01-3.97-1.73 3.97-1.73-12.82-1.54 12.82-2.2-22.68-2.02 22.68-1.44-32.55-1.82 32.55z" fill="#5e5e5e" stroke-width=".97"/><path d="m34.12 4.56c-5.36 0-12.01-.05-15.75-.07-13.94-.08-13.96-.08-13.85 15.96.08 13.76-.13 27.73.05 41.18-.08 17.95-.12 17.9 15.26 17.89 3.36 0 9.58-.11 14.28-.11h.06v-74.85z" fill="#d8d8d8" stroke="#121212" stroke-width=".97"/><path d="m-19.3 12.7c-3.73 0-6.28 2.98-6.29 6.67-.01 3.7 2.79 6.67 6.29 6.67s6.23-2.54 6.23-6.67c0-3.76-2.5-6.67-6.23-6.67zm3.54 6.67c0 1.89-1.06 4.41-3.54 4.41s-3.56-2.58-3.61-4.41 1.04-4.23 3.61-4.23 3.54 2.34 3.54 4.23zm-13.3-6.43h-2.6v12.9h2.6zm-6.23 6.57c.17-2.69-1.17-6.12-4.33-6.47-2.15-.18-4.31-.06-6.47-.1v12.9c2.4-.09 4.84.22 7.2-.27 2.67-.74 3.66-3.64 3.6-6.05zm-2.69-.11c0 2.72-.75 4.17-3.57 4.26-.64.03-1.94.13-1.94-.5v-8.04c1.8.06 4.28-.4 5.1 1.6.37.84.4 1.77.41 2.67zm-12.3-6.45h-2.6c-.05 3.11.11 6.22-.12 9.32-.58 2.62-5.43 1.77-4.93-.97-.05-2.78-.01-5.57-.02-8.35h-2.6c.08 3.38-.2 6.78.26 10.1.59 2.61 3.73 3.26 6.1 2.91 2.78-.06 4.2-2.81 3.9-5.21.03-2.61.01-5.23.01-7.84zm-13.1 12.9-5.16-12.9h-2.75l-5.02 12.9h2.76l1.06-2.93h5.15l1.12 2.93zm-4.79-5.1h-3.51l1.74-4.78z" fill="#1a1a1a" transform="matrix(0 -.95 .99 0 1.85 -.66)"/><g fill="#c9c9c9" stroke-width="14.74" transform="matrix(.99 0 0 .95 .36 1.93)"><path d="m74.02 20.2c-3.11 0-2.77.81-2.87 1.66-.03.28-.06.98-.06 1.69s.03 1.41.06 1.69c.1.85-.24 1.66 2.87 1.66s2.77-.81 2.87-1.66c.02-.16.03-.47.04-.84h-1.67c0 .19-.01.34-.02.4-.05.42 0 .63-1.22.63-1.23 0-1.18-.2-1.22-.63-.02-.14-.03-.89-.03-1.25 0-.35.02-1.11.03-1.25.05-.42 0-.63 1.22-.63 1.23 0 1.18.2 1.22.63.01.06.01.23.02.43h1.68c-.01-.38-.03-.7-.05-.86-.1-.85.24-1.66-2.87-1.66zm6.76 0c-3.11 0-2.77.81-2.87 1.66-.03.28-.06.98-.06 1.69s.03 1.41.06 1.69c.1.85-.24 1.66 2.87 1.66s2.77-.81 2.87-1.66c.03-.28.05-.98.06-1.69 0-.71-.03-1.41-.06-1.69-.1-.85.24-1.66-2.87-1.66zm28.28 0c-3.11 0-2.77.81-2.87 1.66-.03.28-.06.98-.06 1.69s.03 1.41.06 1.69c.1.85-.24 1.66 2.87 1.66s2.77-.81 2.87-1.66c.02-.16.03-.47.04-.84h-1.67c0 .19-.01.34-.02.4-.05.42 0 .63-1.22.63-1.23 0-1.18-.2-1.23-.63-.02-.14-.03-.89-.03-1.25 0-.35.01-1.11.03-1.25.05-.42 0-.63 1.23-.63s1.18.2 1.22.63c.01.06.01.23.02.43h1.68c-.01-.38-.03-.7-.05-.86-.1-.85.24-1.66-2.87-1.66zm-7.45.15-1.87 6.42h1.63l.39-1.32h2.15l.39 1.32h1.63l-1.88-6.42zm-16.9.01v6.41h1.63v-4.78l1.63 4.78h1.66l1.62-4.78v4.78h1.63v-6.41l-2.45.01-1.63 4.78-1.63-4.78zm27.63 0v1.63h1.53v4.78h1.63v-4.78h1.53v-1.63zm-18.11 0v6.41h1.64v-1.46h.99c3.11 0 2.8-.81 2.88-1.66.01-.15.01-.61.01-.81 0-.25 0-.71-.01-.81-.12-.85.23-1.66-2.88-1.66zm-13.45 1.32c1.23 0 1.18.2 1.22.63.02.14.03.9.03 1.25s-.01 1.11-.03 1.25c-.05.42 0 .63-1.22.63-1.23 0-1.18-.2-1.22-.63-.02-.14-.03-.89-.03-1.25 0-.35.01-1.11.03-1.25.05-.42 0-.63 1.22-.63zm22.06.11.76 2.61h-1.53zm-5.98.05c1.23 0 1.19.2 1.24.63.01.14.01.02.01.37s.01.24-.01.38c-.05.42-.01.63-1.24.63l-.99.01v-2z"/><path d="m63.57 54.11c-3.11 0-2.77.81-2.87 1.66-.03.28-.06.98-.06 1.69s.03 1.41.06 1.69c.1.85-.24 1.66 2.87 1.66s2.77-.81 2.87-1.66c.02-.16.03-.47.04-.84v-1.03h-2.91v1.03h1.24c0 .19-.01.34-.02.4-.05.42 0 .63-1.22.63-1.23 0-1.18-.2-1.23-.63-.02-.14-.03-.89-.03-1.25 0-.35.01-1.11.03-1.25.05-.42 0-.63 1.23-.63s1.18.2 1.22.63c.01.06.01.02.02.22h1.68c-.01-.38-.03-.49-.05-.66-.1-.85.24-1.66-2.87-1.66zm50.61 0c-3.11 0-2.77.81-2.87 1.66-.03.28-.06.98-.06 1.69s.03 1.41.06 1.69c.1.85-.24 1.66 2.87 1.66s2.77-.81 2.87-1.66c.03-.28.06-.98.06-1.69s-.03-1.41-.06-1.69c-.1-.85.24-1.66-2.87-1.66zm-37.63.09-1.88 6.42h1.64l.39-1.33h2.14l.39 1.33h1.63l-1.88-6.42zm13.63 0-1.88 6.42h1.64l.39-1.33h2.14l.39 1.33h1.63l-1.88-6.42zm-32.2.07v6.41h1.63v-6.41zm9.56 0v6.41h1.63v-6.41zm2.51 0v1.63h1.53v4.78h1.63v-4.78h1.53v-1.63zm11.71 0v6.42h4.22v-1.63h-2.59v-4.79zm13.18 0v3.19c0 .71.03 1.41.06 1.69.1.85-.24 1.66 2.87 1.66s2.77-.81 2.87-1.66c.03-.28.05-.98.06-1.69v-3.19h-1.67v3.19c0 .35-.01 1.11-.03 1.25-.05.42 0 .63-1.23.63s-1.18-.2-1.22-.63c-.02-.14-.03-.89-.03-1.25v-3.19zm13.7 0v6.41h1.63v-6.41zm-57.48 0v6.41h2.85c3.11 0 2.77-.81 2.87-1.66.03-.28.05-.89.06-1.6 0-.71-.03-1.2-.06-1.48-.1-.85.24-1.67-2.87-1.67h-.89zm50.71 0v6.41h2.85c3.11 0 2.77-.81 2.87-1.66.03-.28.05-.89.06-1.6 0-.71-.03-1.2-.06-1.48-.1-.85.24-1.67-2.87-1.67h-.89zm12.32 1.32c1.23 0 1.18.2 1.22.63.02.14.03.89.03 1.25 0 .35-.01 1.11-.03 1.25-.05.42 0 .63-1.22.63-1.23 0-1.18-.2-1.22-.63-.02-.14-.03-.89-.03-1.25 0-.35.02-1.11.03-1.25.05-.42 0-.63 1.22-.63zm-36.4.05.76 2.61h-1.53zm13.63 0 .76 2.61h-1.53zm-38.61.11h.3l.91.01c1.23 0 1.18.2 1.22.63.02.14.03.69.03 1.04s-.01 1.02-.03 1.16c-.05.42 0 .63-1.22.63l-1.21.01zm50.71 0h.3l.91.01c1.23 0 1.18.2 1.22.63.02.14.03.69.03 1.04s-.02 1.02-.03 1.16c-.05.42 0 .63-1.22.63l-1.21.01z"/><path d="m62.65 20.34c-.77 0-1.39.62-1.39 1.39l.01 6.24c0 .32-.26.58-.58.58l-5.85-.01c-2.26 0-4.09 1.83-4.09 4.09v15.58c0 2.26 1.83 4.09 4.09 4.09h10.19 2.56c.77 0 1.39-.62 1.39-1.39v-29.18c0-.77-.62-1.39-1.39-1.39zm.58 1.4h3.76c.32 0 .58.26.58.58l.04 28c0 .32-.26.58-.58.58h-1.96l-10.23-.01c-1.48 0-2.68-1.2-2.68-2.68v-15.58c0-1.48 1.2-2.68 2.68-2.68l6.4-.01c.77 0 1.39-.62 1.39-1.39l.02-6.23c0-.32.26-.58.58-.58zm32.63 6.8-10.98.01c-2.26 0-4.09 1.83-4.09 4.09v7.03c0 2.26 1.83 4.09 4.09 4.09l5.54-.01c.51 0 .92.41.92.92s-.41.92-.92.92h-8.24c-.77 0-1.39.62-1.39 1.39v3.9c0 .77.62 1.39 1.39 1.39h11.82c2.26 0 4.09-1.83 4.09-4.09l.02-7.04c0-2.26-1.83-4.09-4.09-4.09l-5.65.02c-.51 0-.92-.42-.92-.93s.41-.92.92-.92h4.08 3.42c.77 0 1.39-.62 1.39-1.39l.01-3.9c0-.77-.62-1.39-1.39-1.39zm8.21.01c-2.26 0-4.09 1.83-4.09 4.09v15.58c0 2.26 1.83 4.09 4.09 4.09h8.86c2.26 0 4.09-1.83 4.09-4.09v-4.88c0-.77-.62-1.39-1.39-1.39h-4.52c-.77 0-1.39.62-1.39 1.39l.02 2.64c0 .84-.39 1.53-1.24 1.53-.84 0-1.24-.68-1.24-1.53v-10.89c0-.84.39-1.53 1.24-1.53.84 0 1.24.68 1.24 1.53l-.02 2.64c0 .77.62 1.39 1.39 1.39h2.1 2.41c.77 0 1.39-.62 1.39-1.39v-5.1c0-2.26-1.83-4.09-4.09-4.09zm-31.76.01c-.77 0-1.39.62-1.39 1.39v20.94c0 .77.62 1.39 1.39 1.39h2.48 2.46c.77 0 1.39-.62 1.39-1.39v-20.94c0-.77-.62-1.39-1.39-1.39zm22.96 1.34c.32 0 .58.26.58.58v2.79c0 .32-.26.58-.58.58h-2.8l-4.13-.01c-1.27 0-2.3 1.03-2.3 2.3s1.03 2.3 2.3 2.3l5.65.02c1.48 0 2.68 1.2 2.68 2.68l-.02 7.04c0 1.48-1.2 2.68-2.68 2.68l-11.22.02c-.32 0-.58-.26-.58-.58v-2.73c0-.32.26-.58.58-.58l7.65-.03c1.27 0 2.3-1.03 2.3-2.3s-1.03-2.3-2.3-2.3l-5.54-.02c-1.48 0-2.68-1.2-2.68-2.68v-7.03c0-1.48 1.2-2.68 2.68-2.68zm8.79.05h8.86c1.48 0 2.68 1.2 2.68 2.68l.01 4.5c0 .32-.26.58-.58.58h-1.77-1.57c-.32 0-.58-.26-.58-.58l.02-2.04c0-1.61-1.01-2.92-2.63-2.92-1.61 0-2.63 1.31-2.63 2.92v10.88c0 1.61 1.02 2.92 2.63 2.92s2.63-1.31 2.63-2.92l-.02-2.04c0-.32.26-.58.58-.58h3.34c.32 0 .58.26.58.58l-.01 4.28c0 1.48-1.2 2.68-2.68 2.68h-8.86c-1.48 0-2.68-1.2-2.68-2.68v-15.58c0-1.48 1.2-2.68 2.68-2.68zm-31.18.01h3.76c.32 0 .58.26.58.58l.04 19.77c0 .32-.26.58-.58.58h-1.9-1.92c-.32 0-.58-.26-.58-.58l.03-19.77c0-.32.26-.58.58-.58zm-13.17 2.21c-1.61 0-2.92 1.31-2.92 2.92v10.88c0 1.61 1.31 2.92 2.92 2.92s2.92-1.31 2.92-2.92v-.75-10.13c0-1.61-1.31-2.92-2.92-2.92zm0 1.39c.84 0 1.53.68 1.53 1.53v10.08.8c0 .84-.68 1.53-1.53 1.53-.84 0-1.53-.68-1.53-1.53v-10.88c0-.84.69-1.53 1.53-1.53z"/></g></svg>