<svg viewBox="0 0 126 84" xmlns="http://www.w3.org/2000/svg"><rect fill="#121212" height="75.14" ry="6.44" stroke="#121212" stroke-linecap="round" stroke-linejoin="round" stroke-width=".68" width="94.98" x="26.67" y="4.42"/><path d="m38.19 32.96-1.82 42.96-2.4-15.4-1.54 15.4-1.92-27.06-1.85 27.06c-.31-1.47-.92-3.96-.92-3.96l.03 7.44 87.06.02s1.46.15 3.08-.67 2.66-2.57 2.66-2.57l-65.97-.25-2.01-3.97-1.73 3.97-1.73-12.82-1.54 12.82-2.2-22.68-2.02 22.68-1.44-32.55-1.82 32.55z" fill="#5e5e5e" stroke-width=".97"/><path d="m34.12 4.56c-5.36 0-12.01-.05-15.75-.07-13.94-.08-13.96-.08-13.85 15.96.08 13.76-.13 27.73.05 41.18-.08 17.95-.12 17.9 15.26 17.89 3.36 0 9.58-.11 14.28-.11h.06v-74.85z" fill="#d8d8d8" stroke="#121212" stroke-width=".97"/><path d="m-19.3 12.7c-3.73 0-6.28 2.98-6.29 6.67-.01 3.7 2.79 6.67 6.29 6.67s6.23-2.54 6.23-6.67c0-3.76-2.5-6.67-6.23-6.67zm3.54 6.67c0 1.89-1.06 4.41-3.54 4.41s-3.56-2.58-3.61-4.41 1.04-4.23 3.61-4.23 3.54 2.34 3.54 4.23zm-13.3-6.43h-2.6v12.9h2.6zm-6.23 6.57c.17-2.69-1.17-6.12-4.33-6.47-2.15-.18-4.31-.06-6.47-.1v12.9c2.4-.09 4.84.22 7.2-.27 2.67-.74 3.66-3.64 3.6-6.05zm-2.69-.11c0 2.72-.75 4.17-3.57 4.26-.64.03-1.94.13-1.94-.5v-8.04c1.8.06 4.28-.4 5.1 1.6.37.84.4 1.77.41 2.67zm-12.3-6.45h-2.6c-.05 3.11.11 6.22-.12 9.32-.58 2.62-5.43 1.77-4.93-.97-.05-2.78-.01-5.57-.02-8.35h-2.6c.08 3.38-.2 6.78.26 10.1.59 2.61 3.73 3.26 6.1 2.91 2.78-.06 4.2-2.81 3.9-5.21.03-2.61.01-5.23.01-7.84zm-13.1 12.9-5.16-12.9h-2.75l-5.02 12.9h2.76l1.06-2.93h5.15l1.12 2.93zm-4.79-5.1h-3.51l1.74-4.78z" fill="#1a1a1a" transform="matrix(0 -.95 .99 0 1.85 -.66)"/><g fill="#c9c9c9" transform="matrix(.99 0 0 .95 .36 1.93)"><path d="m65.33 20.66c-2.39 0-4.12.34-5.45 1.22-1.39.92-2.04 2.47-2.04 4.89v5.25c0 2.42.68 4.06 2.03 4.88 1.09.78 2.87 1.15 5.46 1.15 2.56 0 4.39-.38 5.44-1.13 1.35-.86 2.06-2.55 2.06-4.89v-5.25c0-2.3-.69-3.95-2.05-4.89-1.12-.8-3-1.22-5.44-1.22zm-25.18.6v15.67h8.79c4.33 0 5.95-1.69 5.95-6.23v-3.44c0-4.31-1.83-5.99-6.52-5.99zm35.5 0v15.9h10.92v-2.64h-7.09v-13.26zm12.88 0v15.9h8.08c2.48 0 3.52-.46 4-.76.82-.51 1.88-1.65 1.88-3.46 0-2.14-.79-4.28-4.6-4.19 3.02-.26 3.68-1.64 3.68-3.63 0-1.75-.8-2.64-1.67-3.14-.73-.43-1.59-.72-3.4-.72zm14.59 0c.66 1.24 5.24 10.21 5.24 10.21v5.92h3.77c0-.8 0-5.9 0-5.9s4.77-9 5.44-10.24h-3.33l-3.88 7.3-3.75-7.3zm-37.78 2.02c2.82 0 3.82.62 3.82 3.51v4.99c0 2.96-1 3.63-3.82 3.63s-3.82-.67-3.82-3.63v-4.99c0-2.89 1-3.51 3.82-3.51zm27.04.26h3.79c1.27 0 2.08.95 2.08 2.25 0 1.99-1.04 2.04-3.99 2.14v1.84c2.64-.01 4.75-.16 4.75 2.39 0 1.28-.87 2.69-3.15 2.69h-3.48v-.01-11.29zm-48.52.02h4.54c1.28 0 2.82.69 2.82 3.24v4.27c0 2.74-1.53 3.45-2.82 3.44h-4.54z" stroke-width=".58"/><path d="m61.9 49.26c-.87 0-1.59.27-2.12.8s-.8 1.29-.8 2.28v3.38c0 .99.27 1.75.83 2.28.53.49 1.29.76 2.24.76h1.02c.46 0 .91-.08 1.29-.19.23-.08.46-.15.65-.27l.08.27h1.37v-5.09h-4.18v1.48h2.43v2.13c-.08.04-.23.04-.34.08-.3.08-.72.08-1.18.08h-1.29c-.42 0-.72-.11-.91-.34-.23-.27-.3-.65-.3-1.1v-3.49c0-.46.11-.8.3-1.06.19-.23.49-.38.91-.38h4.44v-1.12l-.11-.12c-.11-.08-.27-.15-.42-.23-.15-.04-.27-.08-.42-.11-.15-.04-.3-.04-.42-.04h-.37zm21.32.11-3.26 9.26h1.71l.83-2.43h3.34l.87 2.43h1.78l-3.37-9.25zm-37.56.08v9.18h4.02c.49 0 .91-.04 1.29-.15s.72-.3 1.02-.53c.27-.27.49-.57.65-.99.15-.38.19-.83.19-1.4v-3.11c0-1.06-.27-1.82-.84-2.31-.53-.42-1.29-.68-2.28-.68zm9.3 0v9.18h1.71v-9.18zm13.89 0v9.18h1.71v-9.18zm3.45 0v1.48h2.96v7.7h1.67v-7.7h2.96v-1.48zm17.76 0v9.18h6.49v-1.44h-4.82v-7.74zm10.66 0v9.22h6.49v-1.59h-4.44v-2.28h3.22v-1.59h-3.22v-2.16h4.44v-1.59zm8.01 0 2.54 4.4-2.88 4.82h1.97l1.86-3.34 1.86 3.34h2.2l-2.77-4.74 2.62-4.48h-1.93l-1.63 3.04-1.63-3.04zm-61.39 1.48h.04 2.24c.53 0 .95.11 1.18.38s.34.68.34 1.29v2.96c0 .61-.11 1.06-.34 1.29-.19.23-.61.34-1.18.34h-2.28zm36.8.49 1.14 3.3h-2.28z" stroke-width=".38"/></g></svg>