<svg viewBox="0 0 126 84" xmlns="http://www.w3.org/2000/svg"><rect fill="#121212" height="75.14" ry="6.44" stroke="#121212" stroke-linecap="round" stroke-linejoin="round" stroke-width=".68" width="94.98" x="26.67" y="4.42"/><path d="m38.19 32.96-1.82 42.96-2.4-15.4-1.54 15.4-1.92-27.06-1.85 27.06c-.31-1.47-.92-3.96-.92-3.96l.03 7.44 87.06.02s1.46.15 3.08-.67 2.66-2.57 2.66-2.57l-65.97-.25-2.01-3.97-1.73 3.97-1.73-12.82-1.54 12.82-2.2-22.68-2.02 22.68-1.44-32.55-1.82 32.55z" fill="#5e5e5e" stroke-width=".97"/><path d="m34.12 4.56c-5.36 0-12.01-.05-15.75-.07-13.94-.08-13.96-.08-13.85 15.96.08 13.76-.13 27.73.05 41.18-.08 17.95-.12 17.9 15.26 17.89 3.36 0 9.58-.11 14.28-.11h.06v-74.85z" fill="#d8d8d8" stroke="#121212" stroke-width=".97"/><path d="m-19.3 12.7c-3.73 0-6.28 2.98-6.29 6.67-.01 3.7 2.79 6.67 6.29 6.67s6.23-2.54 6.23-6.67c0-3.76-2.5-6.67-6.23-6.67zm3.54 6.67c0 1.89-1.06 4.41-3.54 4.41s-3.56-2.58-3.61-4.41 1.04-4.23 3.61-4.23 3.54 2.34 3.54 4.23zm-13.3-6.43h-2.6v12.9h2.6zm-6.23 6.57c.17-2.69-1.17-6.12-4.33-6.47-2.15-.18-4.31-.06-6.47-.1v12.9c2.4-.09 4.84.22 7.2-.27 2.67-.74 3.66-3.64 3.6-6.05zm-2.69-.11c0 2.72-.75 4.17-3.57 4.26-.64.03-1.94.13-1.94-.5v-8.04c1.8.06 4.28-.4 5.1 1.6.37.84.4 1.77.41 2.67zm-12.3-6.45h-2.6c-.05 3.11.11 6.22-.12 9.32-.58 2.62-5.43 1.77-4.93-.97-.05-2.78-.01-5.57-.02-8.35h-2.6c.08 3.38-.2 6.78.26 10.1.59 2.61 3.73 3.26 6.1 2.91 2.78-.06 4.2-2.81 3.9-5.21.03-2.61.01-5.23.01-7.84zm-13.1 12.9-5.16-12.9h-2.75l-5.02 12.9h2.76l1.06-2.93h5.15l1.12 2.93zm-4.79-5.1h-3.51l1.74-4.78z" fill="#1a1a1a" transform="matrix(0 -.95 .99 0 1.85 -.66)"/><path d="m66.47 18.78c-2.37 0-4.09.33-5.41 1.17-1.38.88-2.03 2.36-2.03 4.66v5.01c0 2.31.67 3.87 2.01 4.65 1.08.74 2.84 1.1 5.42 1.1 2.54 0 4.36-.36 5.4-1.08 1.34-.82 2.04-2.43 2.04-4.67v-5.01c0-2.19-.69-3.76-2.04-4.67-1.11-.76-2.98-1.16-5.4-1.16zm-24.99.58v14.94h8.73c4.3 0 5.9-1.61 5.9-5.94v-3.28c0-4.11-1.82-5.71-6.48-5.71zm35.24 0v15.16h10.84v-2.52h-7.03v-12.64zm12.79 0v15.16h8.02c2.47 0 3.49-.43 3.97-.73.81-.49 1.87-1.57 1.87-3.3 0-2.04-.79-4.08-4.56-4 3-.25 3.66-1.57 3.66-3.46 0-1.67-.79-2.52-1.66-3-.72-.41-1.58-.68-3.38-.68zm14.48 0c.65 1.18 5.21 9.74 5.21 9.74v5.64h3.74c0-.77 0-5.62 0-5.62s4.73-8.58 5.4-9.76h-3.3l-3.85 6.96-3.72-6.96zm-37.5 1.92c2.8 0 3.8.6 3.8 3.35v4.76c0 2.82-1 3.47-3.8 3.47s-3.79-.64-3.79-3.47v-4.76c0-2.75.99-3.35 3.79-3.35zm26.84.25h3.76c1.26 0 2.07.9 2.07 2.14 0 1.9-1.03 1.95-3.96 2.04v1.76c2.62-.01 4.71-.15 4.71 2.28 0 1.22-.87 2.57-3.13 2.57h-3.47v-.01-10.76zm-48.16.02h4.51c1.27 0 2.8.66 2.8 3.09v4.07c0 2.62-1.52 3.29-2.8 3.28h-4.53zm34.48 23.9c-2.19 0-3.79.3-5.01 1.08-1.28.82-1.88 2.18-1.88 4.32v4.64c0 2.2.62 3.59 1.87 4.3 1 .69 2.63 1.02 5.02 1.02 2.35 0 4.03-.34 5-1 1.05-.64 1.66-1.8 1.84-3.38h-3.4c-.28 1.65-1.27 2.06-3.43 2.06-2.59 0-3.52-.6-3.52-3.21v-4.41c0-2.76.92-3.1 3.52-3.1 2.27 0 3.26.42 3.47 2.23h3.37c-.16-1.59-.78-2.76-1.84-3.47-1.03-.71-3.34-1.08-5-1.08zm27.69.2-6.75 9.5v2.51h6.37v3.01h2.89v-3.01h1.93v-2.52h-1.93v-9.49zm-46.92.28-5.45 14.78h3.02l1.28-3.77h5.95l1.28 3.77h3.47l-5.52-14.78zm1.76 1.97h.07l.2.87 1.94 5.72h-4.32l1.9-5.72zm44.78 2.13v5.11h-3.58zm-15.87 1.19v2.44h5v-2.44z" fill="#c9c9c9" stroke-width=".56"/></svg>