<svg viewBox="0 0 126 84" xmlns="http://www.w3.org/2000/svg"><rect fill="#121212" height="75.1" ry="6.44" stroke="#121212" stroke-linecap="round" stroke-linejoin="round" stroke-width=".68" width="95" x="26.7" y="4.42"/><path d="m38.2 33-1.82 43-2.4-15.4-1.54 15.4-1.92-27.1-1.85 27.1c-.31-1.47-.92-3.96-.92-3.96l.03 7.44 87.1.02s1.46.15 3.08-.67 2.66-2.57 2.66-2.57l-66-.26-2.01-3.96-1.73 3.96-1.73-12.8-1.54 12.8-2.21-22.7-2.02 22.7-1.44-32.5-1.82 32.5z" fill="#5e5e5e" stroke-width=".97"/><path d="m34.1 4.56c-5.36 0-12-.05-15.7-.08-13.9-.08-14-.08-13.9 16 .08 13.8-.13 27.7.05 41.2-.08 18-.12 17.9 15.3 17.9 3.36 0 9.58-.11 14.3-.11h.06v-74.9z" fill="#d8d8d8" stroke="#121212" stroke-width=".97"/><path d="m-19.3 12.7c-3.73 0-6.28 2.98-6.29 6.67-.01 3.7 2.79 6.67 6.29 6.67s6.23-2.54 6.23-6.67c0-3.76-2.5-6.67-6.23-6.67zm3.54 6.67c0 1.89-1.06 4.41-3.54 4.41s-3.56-2.58-3.61-4.41 1.04-4.23 3.61-4.23 3.54 2.34 3.54 4.23zm-13.3-6.43h-2.6v12.9h2.6zm-6.23 6.57c.17-2.69-1.17-6.12-4.33-6.47-2.15-.18-4.31-.06-6.47-.1v12.9c2.4-.09 4.84.22 7.2-.27 2.67-.74 3.66-3.64 3.6-6.05zm-2.69-.11c0 2.72-.75 4.17-3.57 4.26-.64.03-1.94.13-1.94-.5v-8.04c1.8.06 4.28-.4 5.1 1.6.37.84.4 1.77.41 2.67zm-12.3-6.45h-2.6c-.05 3.11.11 6.22-.12 9.32-.58 2.62-5.43 1.77-4.93-.97-.05-2.78-.01-5.57-.02-8.35h-2.6c.08 3.38-.2 6.78.26 10.1.59 2.61 3.73 3.26 6.1 2.91 2.78-.06 4.2-2.81 3.9-5.21.03-2.61.01-5.23.01-7.84zm-13.1 12.9-5.16-12.9h-2.75l-5.02 12.9h2.76l1.06-2.93h5.15l1.12 2.93zm-4.79-5.1h-3.51l1.74-4.78z" fill="#1a1a1a" transform="matrix(0 -.95 .99 0 1.85 -.66)"/><path d="m82 26.6c-4.98 0-8.76 1.5-8.76 5.29 0 7.47 16 7.33 16 15.1 0 .71-.04 1.04-.09 1.44-.04.39.41.54.56.09.26-.77.44-1.92.44-3.69 0-8.07-12.6-8.23-12.6-13.3 0-2.17 1.93-2.92 4.23-2.92 2.89 0 5.16 1.89 6.46 4 .27.33.57.29.57-.2v-4.37c-1.01-.44-3.87-1.36-6.85-1.36zm-33.5.67c.71 7.27.54 20.8 0 27.6h6.66c8.45 0 13.5-4.5 13.5-13.9 0-11.3-6-13.7-13.6-13.7zm44.8 0c.71 7.27.54 20.8 0 27.6h6.66c8.45 0 13.5-4.5 13.5-13.9 0-11.3-6-13.7-13.6-13.7zm-36.9 1.97c4.39 0 6.68 3.86 6.68 11.2 0 8.31-2.26 12.5-6.68 12.5-1.64 0-2.16-.78-2.23-2.41-.23-5.37-.23-12.9 0-18.9.07-1.83.81-2.39 2.23-2.39zm44.8 0c4.39 0 6.68 3.86 6.68 11.2 0 8.31-2.26 12.5-6.68 12.5-1.64 0-2.17-.78-2.24-2.41-.23-5.37-.23-12.9 0-18.9.07-1.83.81-2.39 2.24-2.39zm-29.5 3.3c-.13-.01-.27.1-.33.32-.06.21-.21 1.21-.21 1.84 0 8.44 12.2 8.51 12.2 14.4 0 2.68-1.44 4.44-4.54 4.44-2.87 0-5.47-2.39-7.02-5.3-.23-.43-.53-.42-.53.05v5.62c1.48.6 4.02 1.47 8.23 1.47 5.94 0 8.34-2.54 8.33-6.98 0-7.39-15.9-7.1-15.9-15.5 0-.23-.12-.35-.25-.36z" fill="#c8c8c8"/></svg>