<svg viewBox="0 0 126 84" xmlns="http://www.w3.org/2000/svg"><rect fill="#121212" height="75.14" ry="6.44" stroke="#121212" stroke-linecap="round" stroke-linejoin="round" stroke-width=".68" width="94.98" x="26.67" y="4.42"/><path d="m38.19 32.96-1.82 42.96-2.4-15.4-1.54 15.4-1.92-27.06-1.85 27.06c-.31-1.47-.92-3.96-.92-3.96l.03 7.44 87.06.02s1.46.15 3.08-.67 2.66-2.57 2.66-2.57l-65.97-.25-2.01-3.97-1.73 3.97-1.73-12.82-1.54 12.82-2.2-22.68-2.02 22.68-1.44-32.55-1.82 32.55z" fill="#5e5e5e" stroke-width=".97"/><path d="m34.12 4.56c-5.36 0-12.01-.05-15.75-.07-13.94-.08-13.96-.08-13.85 15.96.08 13.76-.13 27.73.05 41.18-.08 17.95-.12 17.9 15.26 17.89 3.36 0 9.58-.11 14.28-.11h.06v-74.85z" fill="#d8d8d8" stroke="#121212" stroke-width=".97"/><path d="m-19.3 12.7c-3.73 0-6.28 2.98-6.29 6.67-.01 3.7 2.79 6.67 6.29 6.67s6.23-2.54 6.23-6.67c0-3.76-2.5-6.67-6.23-6.67zm3.54 6.67c0 1.89-1.06 4.41-3.54 4.41s-3.56-2.58-3.61-4.41 1.04-4.23 3.61-4.23 3.54 2.34 3.54 4.23zm-13.3-6.43h-2.6v12.9h2.6zm-6.23 6.57c.17-2.69-1.17-6.12-4.33-6.47-2.15-.18-4.31-.06-6.47-.1v12.9c2.4-.09 4.84.22 7.2-.27 2.67-.74 3.66-3.64 3.6-6.05zm-2.69-.11c0 2.72-.75 4.17-3.57 4.26-.64.03-1.94.13-1.94-.5v-8.04c1.8.06 4.28-.4 5.1 1.6.37.84.4 1.77.41 2.67zm-12.3-6.45h-2.6c-.05 3.11.11 6.22-.12 9.32-.58 2.62-5.43 1.77-4.93-.97-.05-2.78-.01-5.57-.02-8.35h-2.6c.08 3.38-.2 6.78.26 10.1.59 2.61 3.73 3.26 6.1 2.91 2.78-.06 4.2-2.81 3.9-5.21.03-2.61.01-5.23.01-7.84zm-13.1 12.9-5.16-12.9h-2.75l-5.02 12.9h2.76l1.06-2.93h5.15l1.12 2.93zm-4.79-5.1h-3.51l1.74-4.78z" fill="#1a1a1a" transform="matrix(0 -.95 .99 0 1.85 -.66)"/><path d="m74.69 19.81-10.97.03v9.06l.02.49c-4.41-.57-6.97-.34-6.97-.34-5.79.3-9.57 4-9.46 8.51.12 4.82 4.67 8.36 10.12 8.36 0 0 2.55.07 7.74-.07 0 0 4.18-.08 9.54-.08v-13.57l5.38-.01-.02 6.75s.04 1.92.37 2.7c0 0 1.15 4.16 6.94 4.34h.22s9.02.16 17.7.07h.13c2.41-.04 3.26-.1 3.26-.1 1.78-.11 2.87-.52 2.87-.52 1.7-.57 3.11-2.22 3.11-4.04 0-1.14-.48-2.18-1.26-2.94l-.03-.03-3.83-3.6-.06-.06c-.26-.25-.42-.66-.42-1.04 0-.78.6-1.35 1.39-1.48h.03c1.02-.19 3.57.04 3.57.04l.2.01.08-2.32c-9.55-2.12-14.83-.31-15.86.31l-.08.04c-1.12.62-1.9 1.8-1.9 3.13 0 .69.2 1.33.55 1.88l.02.03c.18.28.63.92 1.5 1.69l2.76 2.55.02.02c.44.43.73.97.73 1.6 0 .83-.49 1.57-1.3 1.94 0 0-.58.33-2.47.34h-.08-2.53c-.92 0-1.41-.04-1.41-.04-1.48-.12-2.15-.72-2.15-.72-1.17-.91-1.32-2.3-1.32-2.3-.1-.58-.09-2.96-.09-3.21v-5.02s1.74-.01 3.82.05l.04-2.7-3.84.01-.01-7.73-10.65 4.5v3.23h-5.4zm-12.46 12.1c.78-.01 1.5.07 1.5.07l-.02 11.27s-1.32.2-2.27.09c0 0-1.69-.12-2.57-1.28 0 0-1.32-1.47-1.38-4.28v-.25c.03-2.62 1.3-4.18 1.3-4.18 1.01-1.32 2.65-1.4 2.65-1.4.25-.03.52-.04.78-.04zm17.65 18.17c-1.37 0-2.36.69-2.36 2.08 0 1.45.93 1.92 2.12 2.63.79.46 1.5.77 1.5 1.81 0 .83-.38 1.34-1.32 1.34-1.13 0-1.37-.7-1.37-1.62v-.09h-1.05v.09c0 1.62.68 2.41 2.42 2.41 1.43 0 2.37-.73 2.37-2.2 0-1.48-.81-1.85-1.83-2.47-.89-.55-1.79-.84-1.79-1.94 0-.77.47-1.25 1.27-1.25 1.01 0 1.24.53 1.24 1.31v.2h1.03v-.28c0-1.41-.81-2.01-2.24-2.01zm34.85.16v3.07c-.3-.45-.67-.68-1.36-.68-1.6 0-1.84 1.52-1.84 2.94s.13 3.09 1.87 3.09c.66 0 1.06-.24 1.41-.77l.01.67h.92c-.01-.28-.05-.82-.05-1.1v-7.22zm-67.12 0v8.32h2.12c.99 0 1.65-.23 2.08-.64.72-.65.84-1.83.84-3.66 0-1.99-.13-2.94-.97-3.54-.44-.31-1.06-.48-1.96-.48zm25.07 0v8.32h.94v-8.33zm-18.71.11v.99h1.04v-.99zm7.86 0v.99h1.04v-.99zm-13.21.66h1.06c.57 0 1.11.11 1.42.5.42.53.48 1.52.48 2.84 0 1.69-.12 2.69-.73 3.13-.26.18-.67.29-1.04.29h-1.19zm16.91.27-.95.4v1.07h-.9v.67h.9v3.75c0 1.01.23 1.43 1.37 1.43.23 0 .47-.02.69-.05v-.72c-.16.02-.3.05-.43.05-.51 0-.68-.16-.68-.82v-3.65h1.08v-.67h-1.08zm43.15 1.35c-.77 0-1.3.44-1.57.92v-.79h-.93c.03.42.05.84.05 1.26v4.54h.95v-3.49c0-.78.33-1.75 1.22-1.75.95 0 .93.83.93 1.53v3.71h.95v-4.12c0-1.1-.38-1.81-1.59-1.81zm-50.63 0c-1.64 0-1.83 1.61-1.83 3.08 0 1.29.13 2.77 1.82 2.77.62 0 1.03-.18 1.4-.68v.79c0 .93-.13 1.61-1.14 1.61-.72 0-.93-.44-.93-1.06h-1.02c.02 1.17.66 1.68 1.89 1.68 1.5 0 2.16-.6 2.16-2.03v-5.08c0-.32.03-.66.03-.97h-.95v.68c-.3-.55-.7-.79-1.44-.79zm39.35 0c-1.93 0-2.15 1.4-2.15 3.07 0 1.78.19 2.98 2.09 2.98 1.82 0 2.12-1.15 2.12-3.06 0-1.76-.14-2.99-2.05-2.99zm-28.02 0c-1.07 0-1.99.4-1.99 1.53v.06h.95v-.06c0-.58.46-.87 1.01-.87.94 0 .94.76.94 1.45v.25c-1.53.01-3.11.13-3.11 1.96 0 .96.48 1.72 1.56 1.72.75 0 1.2-.28 1.61-.86l.01.76h.92c-.05-.63-.06-1.24-.06-1.86v-2.14c0-1.3-.39-1.93-1.83-1.93zm21.96.01c-.68 0-1.21.3-1.53.88v-.76h-.93c.02.25.03.79.03 1.06v4.74h.96v-3.59c0-.85.42-1.47 1.37-1.47.07 0 .13.01.2.02v-.88zm3.36 0c-.68 0-1.21.3-1.53.88v-.76h-.93c.02.25.03.79.03 1.06v4.74h.96v-3.59c0-.85.42-1.47 1.37-1.47.07 0 .13.01.2.02v-.88zm-40.67.11v5.8h.94v-5.8zm7.86 0v5.8h.94v-5.8zm21.51 0v4.11c0 1.07.43 1.8 1.61 1.8.69 0 1.18-.3 1.52-.84l.01.74h.95c-.03-.43-.05-.84-.05-1.28v-4.52h-.96v3.52c0 .78-.17 1.69-1.19 1.69-.95 0-.96-.83-.96-1.51v-3.7zm17.3 0v4.11c0 1.07.43 1.8 1.61 1.8.69 0 1.18-.3 1.52-.84l.01.74h.95c-.04-.43-.05-.84-.05-1.28v-4.52h-.96v3.52c0 .78-.16 1.69-1.19 1.69-.95 0-.96-.83-.96-1.51v-3.7zm-3.32.53c1.14 0 1.09 1.2 1.09 2.07v.88c0 .79-.07 1.77-1.12 1.77-1.12 0-1.13-1.02-1.13-1.81v-.83c0-.81-.03-2.09 1.16-2.09zm16.24.01c1.06 0 1.14 1.13 1.14 2.42 0 1.08-.05 2.26-1.18 2.26-.95 0-1.09-1.11-1.09-2.38 0-1.03.06-2.3 1.13-2.3zm-55.31.01c1.09 0 1.15 1.2 1.15 2.17 0 .88.03 2.38-1.21 2.38-1.04 0-1.07-1.19-1.07-2.14 0-1.05.02-2.41 1.13-2.41zm11.73 2.31h.24v.69c0 .75-.25 1.67-1.25 1.67-.67 0-.89-.55-.89-1.12 0-1.07.95-1.24 1.89-1.24z" fill="#c9c9c9" stroke-width=".08"/></svg>