<svg viewBox="0 0 126 84" xmlns="http://www.w3.org/2000/svg"><rect fill="#121212" height="75.14" ry="6.44" stroke="#121212" stroke-linecap="round" stroke-linejoin="round" stroke-width=".68" width="94.98" x="26.67" y="4.42"/><path d="m38.19 32.96-1.82 42.96-2.4-15.4-1.54 15.4-1.92-27.06-1.85 27.06c-.31-1.47-.92-3.96-.92-3.96l.03 7.44 87.06.02s1.46.15 3.08-.67 2.66-2.57 2.66-2.57l-65.97-.25-2.01-3.97-1.73 3.97-1.73-12.82-1.54 12.82-2.2-22.68-2.02 22.68-1.44-32.55-1.82 32.55z" fill="#5e5e5e" stroke-width=".97"/><path d="m34.12 4.56c-5.36 0-12.01-.05-15.75-.07-13.94-.08-13.96-.08-13.85 15.96.08 13.76-.13 27.73.05 41.18-.08 17.95-.12 17.9 15.26 17.89 3.36 0 9.58-.11 14.28-.11h.06v-74.85z" fill="#d8d8d8" stroke="#121212" stroke-width=".97"/><path d="m-19.3 12.7c-3.73 0-6.28 2.98-6.29 6.67-.01 3.7 2.79 6.67 6.29 6.67s6.23-2.54 6.23-6.67c0-3.76-2.5-6.67-6.23-6.67zm3.54 6.67c0 1.89-1.06 4.41-3.54 4.41s-3.56-2.58-3.61-4.41 1.04-4.23 3.61-4.23 3.54 2.34 3.54 4.23zm-13.3-6.43h-2.6v12.9h2.6zm-6.23 6.57c.17-2.69-1.17-6.12-4.33-6.47-2.15-.18-4.31-.06-6.47-.1v12.9c2.4-.09 4.84.22 7.2-.27 2.67-.74 3.66-3.64 3.6-6.05zm-2.69-.11c0 2.72-.75 4.17-3.57 4.26-.64.03-1.94.13-1.94-.5v-8.04c1.8.06 4.28-.4 5.1 1.6.37.84.4 1.77.41 2.67zm-12.3-6.45h-2.6c-.05 3.11.11 6.22-.12 9.32-.58 2.62-5.43 1.77-4.93-.97-.05-2.78-.01-5.57-.02-8.35h-2.6c.08 3.38-.2 6.78.26 10.1.59 2.61 3.73 3.26 6.1 2.91 2.78-.06 4.2-2.81 3.9-5.21.03-2.61.01-5.23.01-7.84zm-13.1 12.9-5.16-12.9h-2.75l-5.02 12.9h2.76l1.06-2.93h5.15l1.12 2.93zm-4.79-5.1h-3.51l1.74-4.78z" fill="#1a1a1a" transform="matrix(0 -.95 .99 0 1.85 -.66)"/><g fill="#c9c9c9" transform="matrix(.99 0 0 .95 .36 1.93)"><path d="m72.05 8.98-11.75.03-.01 10.1.02.55c-4.72-.64-7.46-.38-7.46-.38-6.19.33-10.25 4.45-10.13 9.48.13 5.37 5 9.32 10.83 9.32 0 0 2.73.08 8.29-.07 0 0 4.47-.09 10.21-.09v-15.12l5.75-.01-.01 7.52s.04 2.13.39 3c0 0 1.23 4.63 7.42 4.83l.24.01s9.66.18 18.95.07h.14c2.57-.05 3.48-.12 3.48-.12 1.91-.12 3.07-.58 3.07-.58 1.82-.63 3.33-2.48 3.33-4.5 0-1.28-.51-2.43-1.35-3.27l-.03-.04-4.1-4.01-.06-.07c-.28-.28-.46-.73-.46-1.15 0-.87.65-1.51 1.49-1.65l.03-.01c1.09-.21 3.82.05 3.82.05l.22.01.08-2.58c-10.23-2.36-15.88-.35-16.98.34l-.08.05c-1.21.69-2.04 2.01-2.04 3.49 0 .76.22 1.48.59 2.09l.02.03c.19.32.67 1.02 1.6 1.89l2.96 2.84.02.02c.46.47.77 1.07.77 1.77 0 .93-.52 1.75-1.39 2.16 0 0-.62.37-2.64.38h-2.76c-.98.03-1.51-.03-1.51-.03-1.58-.13-2.31-.8-2.31-.8-1.25-1.01-1.41-2.56-1.41-2.56-.1-.64-.08-3.29-.08-3.57v-5.6s1.86-.01 4.09.06l.04-3.01-4.12.01-.01-8.61-11.41 5.02v3.6h-5.75zm-13.34 13.48c.84-.01 1.61.09 1.61.09l-.02 12.56s-1.41.23-2.43.1c0 0-1.8-.14-2.75-1.44 0 0-1.41-1.64-1.48-4.77v-.28c.03-2.92 1.39-4.65 1.39-4.65 1.09-1.48 2.84-1.56 2.84-1.56.27-.03.55-.05.83-.05z" stroke-width=".12"/><path d="m51.07 47.73v18.17h8.54v-1.73h-6.41v-6.78h5.9v-1.68h-5.9v-6.23h6.23v-1.73zm25.13 5.23c-1.33 0-2.41.6-3.14 1.78v-1.51h-1.96c.07.71.1 2.24.1 2.94v14.55h1.99v-6.06c.73 1.03 1.63 1.43 2.89 1.43 3.72 0 3.87-3.64 3.87-6.76 0-3.06-.25-6.38-3.74-6.38zm16.83 0c-4.32 0-4.5 3.72-4.5 7.11 0 3.32.48 6.11 4.35 6.11 3.09 0 4.15-1.66 4.25-4.25h-1.96c-.05 1.48-.4 2.79-2.29 2.79-2.13 0-2.31-1.93-2.31-4.02v-.86h6.64v-.58c0-3.06-.1-6.3-4.17-6.3zm9.85 0c-2.14 0-3.77 1.03-3.77 3.29 0 2.19 1.48 2.81 3.21 3.74 1.46.78 2.29 1.23 2.29 2.77 0 1.23-.65 1.96-1.91 1.96-1.31 0-1.76-.78-1.86-1.99-.03-.2-.03-.48-.03-.7h-1.98c0 .33 0 .65.02.88.18 2.16 1.43 3.24 3.79 3.24 2.44 0 3.97-1.18 3.97-3.72 0-2.14-1.43-2.94-3.02-3.8-1.43-.78-2.51-1.3-2.51-2.56 0-1.03.66-1.73 1.69-1.73 1.21 0 1.61.65 1.73 1.56.02.25.05.53.05.8h1.98c0-.35-.02-.7-.08-1-.3-1.91-1.41-2.74-3.59-2.74zm9.24 0c-2.13 0-3.77 1.03-3.77 3.29 0 2.19 1.48 2.81 3.21 3.74 1.46.78 2.29 1.23 2.29 2.77 0 1.23-.65 1.96-1.91 1.96-1.3 0-1.76-.78-1.86-1.99-.02-.2-.02-.48-.02-.7h-1.99c0 .33 0 .65.03.88.17 2.16 1.43 3.24 3.79 3.24 2.44 0 3.97-1.18 3.97-3.72 0-2.14-1.44-2.94-3.02-3.8-1.43-.78-2.51-1.3-2.51-2.56 0-1.03.65-1.73 1.69-1.73 1.2 0 1.61.65 1.73 1.56.03.25.05.53.05.8h1.98c0-.35-.02-.7-.07-1-.3-1.91-1.41-2.74-3.6-2.74zm-24.62.02c-1.43 0-2.54.65-3.22 1.91v-1.66h-1.96c.05.55.08 1.73.08 2.31v10.36h2.01v-7.84c0-1.86.88-3.22 2.86-3.22.15 0 .28.02.43.05v-1.91zm-26.68.25 3.06 5.96-3.54 6.71h2.11l2.49-5.3 2.44 5.3h2.31l-3.52-6.73 3.17-5.93h-2.09l-2.08 4.6-2.01-4.6zm32.18 1.16c1.51 0 2.01 1.18 2.14 2.49.05.55.05 1.08.05 1.61h-4.63c0-.58.05-1.11.1-1.63.18-1.41.75-2.46 2.34-2.46zm-17.38.07c2.26 0 2.29 2.77 2.29 4.85 0 1.93.08 5.3-2.29 5.3-2.49 0-2.49-2.69-2.49-4.93 0-2.64.33-5.23 2.49-5.23z" stroke-width=".19"/></g></svg>