<svg viewBox="0 0 126 84" xmlns="http://www.w3.org/2000/svg"><rect fill="#121212" height="75.14" ry="6.44" stroke="#121212" stroke-linecap="round" stroke-linejoin="round" stroke-width=".68" width="94.98" x="26.67" y="4.42"/><path d="m38.19 32.96-1.82 42.96-2.4-15.4-1.54 15.4-1.92-27.06-1.85 27.06c-.31-1.47-.92-3.96-.92-3.96l.03 7.44 87.06.02s1.46.15 3.08-.67 2.66-2.57 2.66-2.57l-65.97-.25-2.01-3.97-1.73 3.97-1.73-12.82-1.54 12.82-2.2-22.68-2.02 22.68-1.44-32.55-1.82 32.55z" fill="#5e5e5e" stroke-width=".97"/><path d="m34.12 4.56c-5.36 0-12.01-.05-15.75-.07-13.94-.08-13.96-.08-13.85 15.96.08 13.76-.13 27.73.05 41.18-.08 17.95-.12 17.9 15.26 17.89 3.36 0 9.58-.11 14.28-.11h.06v-74.85z" fill="#d8d8d8" stroke="#121212" stroke-width=".97"/><path d="m-19.3 12.7c-3.73 0-6.28 2.98-6.29 6.67-.01 3.7 2.79 6.67 6.29 6.67s6.23-2.54 6.23-6.67c0-3.76-2.5-6.67-6.23-6.67zm3.54 6.67c0 1.89-1.06 4.41-3.54 4.41s-3.56-2.58-3.61-4.41 1.04-4.23 3.61-4.23 3.54 2.34 3.54 4.23zm-13.3-6.43h-2.6v12.9h2.6zm-6.23 6.57c.17-2.69-1.17-6.12-4.33-6.47-2.15-.18-4.31-.06-6.47-.1v12.9c2.4-.09 4.84.22 7.2-.27 2.67-.74 3.66-3.64 3.6-6.05zm-2.69-.11c0 2.72-.75 4.17-3.57 4.26-.64.03-1.94.13-1.94-.5v-8.04c1.8.06 4.28-.4 5.1 1.6.37.84.4 1.77.41 2.67zm-12.3-6.45h-2.6c-.05 3.11.11 6.22-.12 9.32-.58 2.62-5.43 1.77-4.93-.97-.05-2.78-.01-5.57-.02-8.35h-2.6c.08 3.38-.2 6.78.26 10.1.59 2.61 3.73 3.26 6.1 2.91 2.78-.06 4.2-2.81 3.9-5.21.03-2.61.01-5.23.01-7.84zm-13.1 12.9-5.16-12.9h-2.75l-5.02 12.9h2.76l1.06-2.93h5.15l1.12 2.93zm-4.79-5.1h-3.51l1.74-4.78z" fill="#1a1a1a" transform="matrix(0 -.95 .99 0 1.85 -.66)"/><path d="m80.98 27.67.13.16c.07.09 1.07 1.29 2.22 2.68l2.09 2.52.99.3c4.8 1.43 11.35 2.14 17.12 1.85 1.51-.08 2.49-.16 3.86-.33.96-.12 2.77-.41 3.05-.49.09-.03 5.35-6.26 5.57-6.61.04-.06-1.4-.08-7.11-.08h-7.16l-1.58 1.9c-.87 1.05-1.61 1.9-1.65 1.88-.04-.01-.78-.87-1.64-1.91l-1.57-1.89h-7.16zm-21.79 2.27-6.28.1v5.65.3c-2.57-.4-4.06-.2-4.06-.2-3.28.2-5.49 2.48-5.42 5.35.07 2.97 2.71 5.15 5.85 5.15 0 0 1.43.1 4.42 0 0 0 2.43-.1 5.49-.1v-8.42h3.07v4.16s.07 1.19.21 1.68c0 0 .71 2.67 3.99 2.77h.14s5.21.1 10.2 0h.07 1.85c1-.1 1.64-.4 1.64-.4 1-.3 1.78-1.38 1.78-2.47 0-.79-.29-1.39-.71-1.88l-2.21-2.28h-.07c-.14-.2-.21-.4-.21-.69 0-.5.36-.79.79-.89.64-.1 2.07 0 2.07 0h.14l.07-1.39c-5.56-1.39-8.56-.2-9.13.2h-.07c-.64.4-1.07 1.09-1.07 1.98 0 .4.07.79.29 1.09v.1c.14.1.36.5.85.99l1.64 1.58v.1c.21.2.43.59.43.99 0 .49-.29.99-.79 1.19 0 0-.29.2-1.42.2h-1.5-.79c-.85-.1-1.28-.5-1.28-.5-.64-.59-.71-1.39-.71-1.39-.07-.4-.07-1.88-.07-2.08v-3.07h2.21v-1.68h-2.21v-4.85l-6.13 2.87v1.98h-3.07zm50.25 5.63c-.02 0-.05 0-.08.01-.21.07-2.75.54-3.69.68-1.11.16-3.01.36-4.46.47-1.62.12-6.25.1-7.9-.03-1.85-.15-3.87-.41-5.17-.67l-.23-.05.42.51c.78.94.63.85 1.66 1.06 2.34.48 5.09.81 8.4 1 .84.05 5.73-.02 6.62-.09.51-.04 1.23-.11 1.61-.15l.68-.07 1.08-1.29c.59-.71 1.08-1.32 1.09-1.35 0-.02-.01-.02-.03-.03zm-57.2 1.95c.37 0 .68.04.68.04v7.03s-.78.2-1.35.1c0 0-.93-.1-1.43-.79 0 0-.78-.89-.86-2.67v-.2c.07-1.58.78-2.57.78-2.57.57-.79 1.5-.89 1.5-.89.21-.04.46-.05.68-.04zm53.92 2.07c-.01-.01-.4.04-.87.11-4 .56-8.93.67-12.89.28-1.29-.12-1.26-.12-1.16.03.07.1.03.18-.3.57-.21.24-.38.45-.37.45.01.01.57.1 1.25.21 1.97.32 3.98.53 6.11.65 1.52.09 6.11.03 7.62-.09.72-.06 1.35-.12 1.4-.14.1-.03.06-.08-.77-1.09l-.4-.49.21-.24c.12-.13.2-.25.2-.25zm1.62 3.11c-.14 0-.4.04-.89.12-5.17.88-11.45.99-16.46.29-.49-.07-1.02-.14-1.17-.16l-.28-.04-.39.48-.39.48.6.15c2.38.57 5.87 1.06 8.87 1.24 1.36.08 5.18.08 6.54.01 1.7-.1 5.19-.49 5.3-.59.02-.02-1.4-1.76-1.57-1.91-.03-.03-.07-.04-.16-.04zm2.49 2.83-.49.12c-.79.19-2.75.55-3.75.7-2.73.39-4.5.53-7.52.57-4.2.06-7.31-.2-10.59-.87-.62-.13-1.18-.23-1.24-.24-.07 0-1.06 1.13-2.53 2.9-1.33 1.6-2.58 3.09-2.76 3.31l-.34.4h7.09 7.09l1.61-1.95c.89-1.07 1.64-1.96 1.68-1.97s.81.87 1.71 1.95l1.64 1.97h7.06c6.83 0 7.06 0 6.97-.12-.05-.07-1.34-1.62-2.86-3.45z" fill="#c9c9c9" stroke-width=".07"/></svg>