<svg viewBox="0 0 126 84" xmlns="http://www.w3.org/2000/svg"><rect fill="#121212" height="75.14" ry="6.44" stroke="#121212" stroke-linecap="round" stroke-linejoin="round" stroke-width=".68" width="94.98" x="26.67" y="4.42"/><path d="m38.19 32.96-1.82 42.96-2.4-15.4-1.54 15.4-1.92-27.06-1.85 27.06c-.31-1.47-.92-3.96-.92-3.96l.03 7.44 87.06.02s1.46.15 3.08-.67 2.66-2.57 2.66-2.57l-65.97-.25-2.01-3.97-1.73 3.97-1.73-12.82-1.54 12.82-2.2-22.68-2.02 22.68-1.44-32.55-1.82 32.55z" fill="#5e5e5e" stroke-width=".97"/><path d="m34.12 4.56c-5.36 0-12.01-.05-15.75-.07-13.94-.08-13.96-.08-13.85 15.96.08 13.76-.13 27.73.05 41.18-.08 17.95-.12 17.9 15.26 17.89 3.36 0 9.58-.11 14.28-.11h.06v-74.85z" fill="#d8d8d8" stroke="#121212" stroke-width=".97"/><path d="m-19.3 12.7c-3.73 0-6.28 2.98-6.29 6.67-.01 3.7 2.79 6.67 6.29 6.67s6.23-2.54 6.23-6.67c0-3.76-2.5-6.67-6.23-6.67zm3.54 6.67c0 1.89-1.06 4.41-3.54 4.41s-3.56-2.58-3.61-4.41 1.04-4.23 3.61-4.23 3.54 2.34 3.54 4.23zm-13.3-6.43h-2.6v12.9h2.6zm-6.23 6.57c.17-2.69-1.17-6.12-4.33-6.47-2.15-.18-4.31-.06-6.47-.1v12.9c2.4-.09 4.84.22 7.2-.27 2.67-.74 3.66-3.64 3.6-6.05zm-2.69-.11c0 2.72-.75 4.17-3.57 4.26-.64.03-1.94.13-1.94-.5v-8.04c1.8.06 4.28-.4 5.1 1.6.37.84.4 1.77.41 2.67zm-12.3-6.45h-2.6c-.05 3.11.11 6.22-.12 9.32-.58 2.62-5.43 1.77-4.93-.97-.05-2.78-.01-5.57-.02-8.35h-2.6c.08 3.38-.2 6.78.26 10.1.59 2.61 3.73 3.26 6.1 2.91 2.78-.06 4.2-2.81 3.9-5.21.03-2.61.01-5.23.01-7.84zm-13.1 12.9-5.16-12.9h-2.75l-5.02 12.9h2.76l1.06-2.93h5.15l1.12 2.93zm-4.79-5.1h-3.51l1.74-4.78z" fill="#1a1a1a" transform="matrix(0 -.95 .99 0 1.85 -.66)"/><g fill="#c9c9c9" transform="matrix(.99 0 0 .95 .36 1.93)"><path d="m59.22 37.26c-3.53 0-6.27.06-6.27.06-3.41.09-5.09.04-5.09.04-3.58 0-6.57-2.43-6.65-5.72-.08-3.09 2.41-5.62 6.22-5.82 0 0 1.68-.16 4.58.23l-.01-.33v-6.2l7.21-.02v6.68h3.53v-2.21l7-3.08v5.29h2.53l-.02 1.85c-1.36-.06-2.5-.06-2.5-.06v3.44c0 .17-.01 1.8.05 2.2 0 0 .1.95.86 1.57 0 0 .44.41 1.41.49 0 0 .33.03.93.03h1.66.05c1.25 0 1.62-.23 1.62-.23.53-.25.85-.76.85-1.33 0-.43-.19-.8-.48-1.09l.01-.01-1.81-1.75c-.57-.53-.87-.97-.99-1.16l-.01-.02c-.23-.37-.36-.81-.36-1.28 0-.92.51-1.72 1.25-2.15l.05-.03c.67-.42 4.14-1.65 10.42-.21l-.05 1.59-.13-.01s-1.68-.16-2.35-.03h-.01c-.52.09-.92.48-.92 1.02 0 .26.11.54.27.71l.04.05 2.52 2.46.02.02c.51.51.83 1.22.83 2.01 0 1.25-.93 2.38-2.04 2.77 0 0-.71.28-1.89.35 0 0-.55.04-2.13.07h-.09c-5.71.06-11.64-.05-11.64-.05h-.14c-3.8-.12-4.57-2.97-4.57-2.97-.21-.53-.24-1.84-.24-1.84l.01-4.62h-3.53v9.28zm-11.3-5.48c.04 1.92.91 2.93.91 2.93.58.8 1.69.88 1.69.88.62.08 1.49-.06 1.49-.06l.01-7.71s-.84-.1-1.5-.02c0 0-1.08.05-1.74.96 0 0-.84 1.06-.85 2.86z" stroke-width=".08"/><path d="m106.04 25.79v11.57h5.44s.94-.01 1.68-.07c0 0 .99-.06 1.8-.33 0 0 1.36-.4 2.15-1.37 0 0 .78-.89 1.06-2.12 0 0 .21-.84.21-1.84v-.11c0-1-.21-1.84-.21-1.84-.28-1.23-1.06-2.12-1.06-2.12-.79-.97-2.15-1.37-2.15-1.37-.81-.27-1.8-.33-1.8-.33-.73-.06-1.68-.07-1.68-.07zm-13.94 0v4.66h-5.83v1.84h5.83v5.07h4.85v-5.07h2.15v5.07h4.85l-.01-11.56h-4.84v4.66h-2.15v-4.66zm18.78 1.89h.39s.45 0 .67.04c0 0 .32.04.58.25 0 0 .26.17.43.56 0 0 .24.51.33 1.66 0 0 .05.49.05 1.34v.08c0 .84-.05 1.34-.05 1.34-.09 1.15-.33 1.66-.33 1.66-.17.38-.43.56-.43.56-.26.21-.58.24-.58.24-.23.05-.67.05-.67.05h-.39z" stroke-width=".08"/><path d="m103.95 61.06v4.77c-.44-.7-1-1.06-2.03-1.06-2.39 0-2.75 2.36-2.75 4.57 0 2.2.2 4.78 2.79 4.78.98 0 1.57-.38 2.11-1.2l.02 1.03h1.37c-.02-.43-.08-1.26-.07-1.7v-11.19zm-30.5-18.92v12.9h1.38v-11.78l3.32 11.77h1.69l3.32-11.77v11.77h1.48v-12.89h-2.5l-3.08 11.36-3.11-11.36zm11.24 18.92-3.78 12.9h1.52l.91-3.26h4.48l.91 3.26h1.56l-3.72-12.9zm22.83.18v1.53h1.55v-1.53zm-21.94 1.25 1.88 7.01h-3.74zm17.63-18.73-1.41.62v1.66h-1.34v1.03h1.34v5.81c0 1.57.34 2.23 2.03 2.23.34 0 .7-.04 1.04-.09v-1.09c-.24.04-.45.07-.65.07-.76 0-1.02-.25-1.02-1.27v-5.65h1.6v-1.03h-1.6zm-13.38 2.08c-1.59 0-2.96.63-2.96 2.38v.09h1.41v-.09c0-.89.67-1.36 1.5-1.36 1.39 0 1.39 1.18 1.39 2.24v.39c-2.28.02-4.64.2-4.64 3.03 0 1.48.72 2.66 2.32 2.66 1.12 0 1.78-.43 2.41-1.34l.02 1.18h1.37c-.08-.96-.09-1.91-.09-2.87v-3.32c0-2.01-.59-3-2.73-3zm7.22 0c-1.51 0-2.67.73-2.67 2.34 0 1.56 1.05 2 2.28 2.66 1.04.55 1.63.88 1.63 1.96 0 .88-.47 1.4-1.36 1.4-.93 0-1.25-.55-1.32-1.41-.02-.15-.02-.34-.02-.5h-1.4c0 .23 0 .46.02.62.12 1.53 1.02 2.3 2.69 2.3 1.73 0 2.82-.84 2.82-2.64 0-1.52-1.02-2.08-2.14-2.69-1.01-.55-1.78-.92-1.78-1.82 0-.73.46-1.23 1.19-1.23.85 0 1.14.46 1.23 1.1.01.18.03.37.03.57h1.41c0-.25-.02-.5-.05-.72-.22-1.35-1-1.94-2.56-1.94zm17.01 18.92c-2.87 0-3.21 2.18-3.21 4.76 0 2.76.28 4.62 3.1 4.62 2.71 0 3.16-1.78 3.16-4.74 0-2.73-.21-4.64-3.05-4.64zm-5.04-18.92c-3.07 0-3.19 2.64-3.19 5.05 0 2.35.34 4.33 3.09 4.33 2.19 0 2.94-1.18 3.01-3.01h-1.39c-.03 1.05-.28 1.98-1.62 1.98-1.52 0-1.64-1.37-1.64-2.86v-.61h4.71v-.41c0-2.18-.08-4.48-2.97-4.48zm8.37.02c-1.02 0-1.81.46-2.28 1.36v-1.18h-1.4c.04.39.06 1.23.06 1.64v7.35h1.42v-5.57c0-1.32.62-2.28 2.04-2.28.1 0 .2.02.3.03v-1.34zm-26.1 19.11v6.36c0 1.66.65 2.79 2.41 2.79 1.02 0 1.75-.46 2.27-1.3l.02 1.14h1.41c-.05-.66-.07-1.3-.07-1.98v-7.01h-1.43v5.46c0 1.21-.25 2.62-1.76 2.62-1.41 0-1.43-1.28-1.43-2.34v-5.74zm16.31 0v8.99h1.41v-8.99zm6.44.82c1.7 0 1.62 1.85 1.62 3.21v1.37c0 1.23-.1 2.75-1.67 2.75-1.66 0-1.68-1.59-1.68-2.8v-1.28c0-1.25-.05-3.25 1.73-3.25zm-5.02-18.92c1.07 0 1.43.84 1.52 1.76.04.39.03.77.03 1.14h-3.28c0-.41.03-.78.07-1.16.12-1 .53-1.75 1.66-1.75zm-6.72 18.94c1.59 0 1.71 1.75 1.71 3.74 0 1.68-.07 3.52-1.77 3.52-1.41 0-1.62-1.71-1.62-3.7 0-1.6.09-3.57 1.67-3.57zm-11.49-15.32h.36v1.07c0 1.16-.38 2.59-1.86 2.59-1 0-1.32-.86-1.32-1.74 0-1.66 1.41-1.92 2.82-1.92z" stroke-width=".13"/></g></svg>