<svg viewBox="0 0 126 84" xmlns="http://www.w3.org/2000/svg"><rect fill="#121212" height="75.14" ry="6.44" stroke="#121212" stroke-linecap="round" stroke-linejoin="round" stroke-width=".68" width="94.98" x="26.67" y="4.42"/><path d="m38.19 32.96-1.82 42.96-2.4-15.4-1.54 15.4-1.92-27.06-1.85 27.06c-.31-1.47-.92-3.96-.92-3.96l.03 7.44 87.06.02s1.46.15 3.08-.67 2.66-2.57 2.66-2.57l-65.97-.25-2.01-3.97-1.73 3.97-1.73-12.82-1.54 12.82-2.2-22.68-2.02 22.68-1.44-32.55-1.82 32.55z" fill="#5e5e5e" stroke-width=".97"/><path d="m34.12 4.56c-5.36 0-12.01-.05-15.75-.07-13.94-.08-13.96-.08-13.85 15.96.08 13.76-.13 27.73.05 41.18-.08 17.95-.12 17.9 15.26 17.89 3.36 0 9.58-.11 14.28-.11h.06v-74.85z" fill="#d8d8d8" stroke="#121212" stroke-width=".97"/><path d="m-19.3 12.7c-3.73 0-6.28 2.98-6.29 6.67-.01 3.7 2.79 6.67 6.29 6.67s6.23-2.54 6.23-6.67c0-3.76-2.5-6.67-6.23-6.67zm3.54 6.67c0 1.89-1.06 4.41-3.54 4.41s-3.56-2.58-3.61-4.41 1.04-4.23 3.61-4.23 3.54 2.34 3.54 4.23zm-13.3-6.43h-2.6v12.9h2.6zm-6.23 6.57c.17-2.69-1.17-6.12-4.33-6.47-2.15-.18-4.31-.06-6.47-.1v12.9c2.4-.09 4.84.22 7.2-.27 2.67-.74 3.66-3.64 3.6-6.05zm-2.69-.11c0 2.72-.75 4.17-3.57 4.26-.64.03-1.94.13-1.94-.5v-8.04c1.8.06 4.28-.4 5.1 1.6.37.84.4 1.77.41 2.67zm-12.3-6.45h-2.6c-.05 3.11.11 6.22-.12 9.32-.58 2.62-5.43 1.77-4.93-.97-.05-2.78-.01-5.57-.02-8.35h-2.6c.08 3.38-.2 6.78.26 10.1.59 2.61 3.73 3.26 6.1 2.91 2.78-.06 4.2-2.81 3.9-5.21.03-2.61.01-5.23.01-7.84zm-13.1 12.9-5.16-12.9h-2.75l-5.02 12.9h2.76l1.06-2.93h5.15l1.12 2.93zm-4.79-5.1h-3.51l1.74-4.78z" fill="#1a1a1a" transform="matrix(0 -.95 .99 0 1.85 -.66)"/><path d="m71.88 10.5-11.66.03-.01 9.63.02.52c-4.69-.61-7.4-.36-7.4-.36-6.15.31-10.18 4.24-10.05 9.04.13 5.12 4.97 8.89 10.75 8.89 0 0 2.71.07 8.22-.07 0 0 4.44-.08 10.14-.08v-14.43l5.71-.01-.01 7.17s.04 2.03.39 2.86c0 0 1.22 4.42 7.37 4.61l.24.01s9.59.17 18.81.07h.14c2.56-.05 3.45-.11 3.45-.11 1.9-.11 3.05-.55 3.05-.55 1.8-.6 3.3-2.36 3.3-4.29 0-1.22-.51-2.32-1.34-3.12l-.03-.04-4.07-3.82-.06-.06c-.28-.27-.46-.7-.46-1.1 0-.83.65-1.44 1.48-1.58l.03-.01c1.09-.2 3.79.05 3.79.05l.21.01.08-2.46c-10.13-2.25-15.74-.34-16.83.32l-.08.05c-1.2.66-2.02 1.91-2.02 3.33 0 .73.21 1.41.58 2l.02.03c.19.3.67.97 1.59 1.81l2.94 2.71.02.02c.46.45.77 1.02.77 1.69 0 .88-.52 1.67-1.38 2.06 0 0-.61.35-2.62.36h-2.78c-.98.01-1.5-.05-1.5-.05-1.57-.13-2.29-.76-2.29-.76-1.24-.97-1.4-2.44-1.4-2.44-.1-.61-.09-3.14-.09-3.4v-5.34s1.85-.01 4.06.06l.04-2.87-4.09.01-.01-8.21-11.32 4.78v3.43h-5.7zm35.9 36.4c-3.84 0-6.58 1.93-6.58 5.8 0 4.05 2.61 5.36 5.9 7.31 2.22 1.29 4.18 2.15 4.18 5.04 0 2.31-1.07 3.74-3.68 3.74-3.13 0-3.79-1.94-3.79-4.52v-.25h-2.94v.25c0 4.52 1.9 6.71 6.73 6.71 3.99 0 6.63-2.03 6.63-6.13 0-4.14-2.27-5.17-5.11-6.89-2.47-1.55-4.97-2.35-4.97-5.42 0-2.15 1.3-3.46 3.54-3.46 2.79 0 3.47 1.48 3.47 3.66v.54h2.87v-.77c0-3.94-2.28-5.62-6.24-5.62zm-20.57.45v23.18h11.35v-2.21h-8.5v-8.66h7.84v-2.14h-7.84v-7.97h8.27v-2.2zm-28.58-24c.83-.01 1.6.08 1.6.08l-.02 11.97s-1.4.22-2.41.1c0 0-1.79-.13-2.73-1.37 0 0-1.4-1.56-1.47-4.55v-.26c.03-2.78 1.38-4.44 1.38-4.44 1.08-1.41 2.82-1.49 2.82-1.49.27-.03.55-.05.83-.05z" fill="#c9c9c9" stroke-width=".12"/></svg>