<svg viewBox="0 0 126 84" xmlns="http://www.w3.org/2000/svg"><rect fill="#121212" height="75.14" ry="6.44" stroke="#121212" stroke-linecap="round" stroke-linejoin="round" stroke-width=".68" width="94.98" x="26.67" y="4.42"/><path d="m38.19 32.96-1.82 42.96-2.4-15.4-1.54 15.4-1.92-27.06-1.85 27.06c-.31-1.47-.92-3.96-.92-3.96l.03 7.44 87.06.02s1.46.15 3.08-.67 2.66-2.57 2.66-2.57l-65.97-.25-2.01-3.97-1.73 3.97-1.73-12.82-1.54 12.82-2.2-22.68-2.02 22.68-1.44-32.55-1.82 32.55z" fill="#5e5e5e" stroke-width=".97"/><path d="m34.12 4.56c-5.36 0-12.01-.05-15.75-.07-13.94-.08-13.96-.08-13.85 15.96.08 13.76-.13 27.73.05 41.18-.08 17.95-.12 17.9 15.26 17.89 3.36 0 9.58-.11 14.28-.11h.06v-74.85z" fill="#d8d8d8" stroke="#121212" stroke-width=".97"/><path d="m-19.3 12.7c-3.73 0-6.28 2.98-6.29 6.67-.01 3.7 2.79 6.67 6.29 6.67s6.23-2.54 6.23-6.67c0-3.76-2.5-6.67-6.23-6.67zm3.54 6.67c0 1.89-1.06 4.41-3.54 4.41s-3.56-2.58-3.61-4.41 1.04-4.23 3.61-4.23 3.54 2.34 3.54 4.23zm-13.3-6.43h-2.6v12.9h2.6zm-6.23 6.57c.17-2.69-1.17-6.12-4.33-6.47-2.15-.18-4.31-.06-6.47-.1v12.9c2.4-.09 4.84.22 7.2-.27 2.67-.74 3.66-3.64 3.6-6.05zm-2.69-.11c0 2.72-.75 4.17-3.57 4.26-.64.03-1.94.13-1.94-.5v-8.04c1.8.06 4.28-.4 5.1 1.6.37.84.4 1.77.41 2.67zm-12.3-6.45h-2.6c-.05 3.11.11 6.22-.12 9.32-.58 2.62-5.43 1.77-4.93-.97-.05-2.78-.01-5.57-.02-8.35h-2.6c.08 3.38-.2 6.78.26 10.1.59 2.61 3.73 3.26 6.1 2.91 2.78-.06 4.2-2.81 3.9-5.21.03-2.61.01-5.23.01-7.84zm-13.1 12.9-5.16-12.9h-2.75l-5.02 12.9h2.76l1.06-2.93h5.15l1.12 2.93zm-4.79-5.1h-3.51l1.74-4.78z" fill="#1a1a1a" transform="matrix(0 -.95 .99 0 1.85 -.66)"/><g fill="#c9c9c9" transform="matrix(.99 0 0 .95 .36 1.93)"><path d="m72.54 7.68-11.05.03v9.5l.02.51c-4.44-.6-7.02-.36-7.02-.36-5.83.31-9.65 4.19-9.53 8.93.12 5.05 4.71 8.77 10.2 8.77 0 0 2.57.07 7.8-.07 0 0 4.21-.08 9.61-.08v-14.23l5.42-.01-.02 7.08s.04 2.01.37 2.83c0 0 1.16 4.36 6.99 4.55h.22s9.09.17 17.84.07h.13c2.43-.05 3.28-.11 3.28-.11 1.8-.11 2.89-.55 2.89-.55 1.71-.6 3.13-2.33 3.13-4.24 0-1.2-.49-2.29-1.27-3.08l-.03-.03-3.86-3.78-.06-.06c-.26-.27-.43-.69-.43-1.09 0-.82.61-1.42 1.4-1.55h.03c1.03-.2 3.6.04 3.6.04l.2.02.08-2.44c-9.64-2.21-14.96-.32-15.99.33l-.08.04c-1.13.65-1.91 1.89-1.91 3.28 0 .72.2 1.4.55 1.97l.02.03c.18.3.63.96 1.51 1.78l2.79 2.67.02.02c.44.45.73 1.01.73 1.67 0 .87-.49 1.65-1.31 2.03 0 0-.58.35-2.48.36h-.08-2.55c-.93 0-1.42-.05-1.42-.05-1.49-.13-2.17-.75-2.17-.75-1.17-.96-1.32-2.41-1.32-2.41-.1-.61-.09-3.1-.09-3.36v-5.27s1.75-.01 3.85.06l.04-2.83-3.87.01-.01-8.11-10.73 4.72v3.39h-5.45zm-12.56 12.68c.79-.01 1.51.08 1.51.08l-.02 11.82s-1.33.21-2.29.09c0 0-1.7-.13-2.59-1.34 0 0-1.33-1.54-1.39-4.49v-.26c.03-2.74 1.31-4.38 1.31-4.38 1.01-1.39 2.67-1.46 2.67-1.46.25-.03.52-.04.79-.05zm17.78 19.05c-1.38 0-2.38.72-2.38 2.18 0 1.52.94 2.02 2.13 2.75.8.48 1.51.81 1.51 1.89 0 .87-.39 1.41-1.33 1.41-1.13 0-1.38-.74-1.38-1.7v-.1h-1.06v.1c0 1.7.69 2.52 2.44 2.52 1.44 0 2.39-.76 2.39-2.31s-.82-1.94-1.84-2.59c-.89-.57-1.8-.88-1.8-2.04 0-.81.47-1.31 1.28-1.31 1.01 0 1.25.55 1.25 1.38v.21h1.04v-.28c0-1.48-.82-2.11-2.26-2.11zm35.11.17v3.22c-.3-.47-.67-.71-1.37-.71-1.62 0-1.86 1.59-1.86 3.09 0 1.48.13 3.24 1.88 3.24.66 0 1.06-.26 1.42-.81l.01.7h.93c-.01-.29-.05-.86-.05-1.15v-7.58zm-67.62 0v8.72h2.14c1 0 1.67-.24 2.1-.67.73-.69.85-1.92.85-3.84 0-2.09-.13-3.09-.98-3.72-.44-.32-1.06-.5-1.97-.5zm25.26 0v8.72h.95v-8.72zm-18.84.12v1.04h1.05v-1.04zm7.92 0v1.04h1.05v-1.04zm-13.31.69h1.06c.58 0 1.12.12 1.43.53.42.56.48 1.59.48 2.98 0 1.77-.12 2.82-.74 3.28-.26.19-.67.3-1.05.3h-1.2zm17.04.29-.95.42v1.12h-.91v.7h.91v3.93c0 1.06.23 1.5 1.38 1.5.23 0 .47-.02.7-.05v-.75c-.16.03-.3.05-.44.05-.52 0-.69-.17-.69-.86v-3.82h1.09v-.7h-1.09zm43.47 1.41c-.77 0-1.31.46-1.58.96v-.83h-.94c.03.44.05.88.05 1.33v4.76h.96v-3.66c0-.82.34-1.83 1.23-1.83.95 0 .94.87.94 1.6v3.89h.95v-4.32c0-1.15-.39-1.89-1.6-1.89zm-51.01 0c-1.65 0-1.85 1.69-1.85 3.23 0 1.35.13 2.91 1.84 2.91.63 0 1.04-.19 1.41-.71v.83c0 .98-.13 1.69-1.15 1.69-.72 0-.94-.46-.94-1.11h-1.02c.02 1.23.67 1.76 1.91 1.76 1.51 0 2.17-.63 2.17-2.12v-5.33c0-.34.03-.69.03-1.01h-.96v.71c-.31-.59-.72-.84-1.46-.84zm39.64 0c-1.94 0-2.17 1.47-2.17 3.22 0 1.87.19 3.12 2.1 3.12 1.83 0 2.13-1.2 2.13-3.21 0-1.84-.14-3.13-2.06-3.13zm-28.23 0c-1.08 0-2 .42-2 1.6v.06h.95v-.06c0-.61.46-.92 1.01-.92.94 0 .94.79.94 1.52v.27c-1.55.01-3.14.13-3.14 2.05 0 1 .48 1.8 1.57 1.8.76 0 1.21-.29 1.63-.91l.01.8h.93c-.05-.65-.06-1.29-.06-1.94v-2.24c0-1.36-.39-2.03-1.84-2.03zm22.13.01c-.69 0-1.22.31-1.55.92v-.8h-.94c.02.27.03.83.03 1.11v4.97h.96v-3.77c0-.89.42-1.54 1.38-1.54.07 0 .13.01.2.02v-.92zm3.38 0c-.69 0-1.22.31-1.55.92v-.8h-.94c.02.27.03.83.03 1.11v4.97h.96v-3.77c0-.89.42-1.54 1.38-1.54.07 0 .13.01.2.02v-.9zm-40.98.13v6.08h.95v-6.08zm7.91 0v6.08h.95v-6.08zm21.67 0v4.31c0 1.12.44 1.89 1.63 1.89.69 0 1.19-.32 1.53-.88l.01.77h.95c-.03-.46-.04-.89-.04-1.35v-4.74h-.96v3.69c0 .82-.17 1.77-1.2 1.77-.96 0-.96-.87-.96-1.58v-3.88zm17.43 0v4.31c0 1.12.43 1.89 1.63 1.89.69 0 1.18-.32 1.53-.88l.01.77h.95c-.04-.45-.05-.88-.05-1.34v-4.74h-.97v3.69c0 .82-.17 1.77-1.2 1.77-.95 0-.96-.87-.96-1.58v-3.88zm-3.35.56c1.15 0 1.1 1.26 1.1 2.17v.93c0 .83-.07 1.86-1.13 1.86-1.13 0-1.14-1.07-1.14-1.89v-.89c0-.84-.03-2.19 1.17-2.19zm16.37.01c1.07 0 1.15 1.18 1.15 2.54 0 1.13-.05 2.38-1.19 2.38-.95 0-1.1-1.16-1.1-2.5 0-1.08.06-2.41 1.14-2.41zm-55.71 0c1.1 0 1.16 1.26 1.16 2.27 0 .92.03 2.5-1.22 2.5-1.05 0-1.08-1.25-1.08-2.24 0-1.1.02-2.53 1.14-2.53zm11.81 2.43h.24v.73c0 .78-.25 1.75-1.26 1.75-.68 0-.89-.58-.89-1.17 0-1.12.96-1.3 1.91-1.3z" stroke-width=".09"/><path d="m91.36 55.4-5.54 17.77h1.54l5.52-17.77zm-21.22.12c-3.35 0-4.28 2.44-4.28 5.45 0 2.86.54 5.32 3.64 5.32 1.37 0 2.2-.53 2.89-1.43 0 4.12-.17 6.8-2.34 6.8-1.61 0-1.99-1.05-1.99-2.51h-1.97c0 2.72 1.21 4 3.88 4 3.94 0 4.3-3.19 4.3-8.4v-2.13c0-3.78-.21-7.1-4.14-7.1zm10.77.21c-4.03 0-4.41 3.74-4.41 6.99v3.28c0 3.6.31 7.12 4.24 7.12 3.57 0 4.21-2.77 4.21-5.75 0-2.86-.74-5.11-3.6-5.11-1.42 0-2.28.57-2.96 1.61v-1.09c0-2.7.19-5.57 2.44-5.57 1.52 0 1.96 1.05 1.96 2.4h1.94c0-2.58-1.12-3.88-3.83-3.88zm17.26 0c-2.41 0-4.02 1.16-4.25 3.6-.02.26-.05.54-.05.83h1.94c0-.39.02-.76.09-1.09.21-1.06.85-1.82 2.18-1.82 1.37 0 2.11.85 2.11 2.18 0 1.01-.33 2.22-.95 3.17l-5.51 8.52v1.72h8.44v-1.51h-6.39l4.61-7c.74-1.14 1.81-2.89 1.81-4.73 0-2.56-1.35-3.86-4.03-3.86zm10.56.29-4.71 10.88v1.85h5.51v4.09h1.84v-4.09h1.82v-1.49h-1.82v-11.24zm-38.6.99c1.94 0 2.23 1.92 2.23 3.73 0 1.85-.17 4.07-2.39 4.07-1.9 0-2.14-1.82-2.14-3.85 0-1.9.24-3.95 2.3-3.95zm39.42.71v9.53h-3.99zm-28.74 6.04c1.96 0 2.2 1.89 2.2 3.69 0 1.78-.09 4.22-2.22 4.22-2.06 0-2.34-2.02-2.34-3.95 0-1.78.28-3.95 2.37-3.95z" stroke-width=".17"/></g></svg>