<svg viewBox="0 0 126 84" xmlns="http://www.w3.org/2000/svg"><rect fill="#121212" height="75.14" ry="6.44" stroke="#121212" stroke-linecap="round" stroke-linejoin="round" stroke-width=".68" width="94.98" x="26.67" y="4.42"/><path d="m38.19 32.96-1.82 42.96-2.4-15.4-1.54 15.4-1.92-27.06-1.85 27.06c-.31-1.47-.92-3.96-.92-3.96l.03 7.44 87.06.02s1.46.15 3.08-.67 2.66-2.57 2.66-2.57l-65.97-.25-2.01-3.97-1.73 3.97-1.73-12.82-1.54 12.82-2.2-22.68-2.02 22.68-1.44-32.55-1.82 32.55z" fill="#5e5e5e" stroke-width=".97"/><path d="m34.12 4.56c-5.36 0-12.01-.05-15.75-.07-13.94-.08-13.96-.08-13.85 15.96.08 13.76-.13 27.73.05 41.18-.08 17.95-.12 17.9 15.26 17.89 3.36 0 9.58-.11 14.28-.11h.06v-74.85z" fill="#d8d8d8" stroke="#121212" stroke-width=".97"/><path d="m-19.3 12.7c-3.73 0-6.28 2.98-6.29 6.67-.01 3.7 2.79 6.67 6.29 6.67s6.23-2.54 6.23-6.67c0-3.76-2.5-6.67-6.23-6.67zm3.54 6.67c0 1.89-1.06 4.41-3.54 4.41s-3.56-2.58-3.61-4.41 1.04-4.23 3.61-4.23 3.54 2.34 3.54 4.23zm-13.3-6.43h-2.6v12.9h2.6zm-6.23 6.57c.17-2.69-1.17-6.12-4.33-6.47-2.15-.18-4.31-.06-6.47-.1v12.9c2.4-.09 4.84.22 7.2-.27 2.67-.74 3.66-3.64 3.6-6.05zm-2.69-.11c0 2.72-.75 4.17-3.57 4.26-.64.03-1.94.13-1.94-.5v-8.04c1.8.06 4.28-.4 5.1 1.6.37.84.4 1.77.41 2.67zm-12.3-6.45h-2.6c-.05 3.11.11 6.22-.12 9.32-.58 2.62-5.43 1.77-4.93-.97-.05-2.78-.01-5.57-.02-8.35h-2.6c.08 3.38-.2 6.78.26 10.1.59 2.61 3.73 3.26 6.1 2.91 2.78-.06 4.2-2.81 3.9-5.21.03-2.61.01-5.23.01-7.84zm-13.1 12.9-5.16-12.9h-2.75l-5.02 12.9h2.76l1.06-2.93h5.15l1.12 2.93zm-4.79-5.1h-3.51l1.74-4.78z" fill="#1a1a1a" transform="matrix(0 -.95 .99 0 1.85 -.66)"/><g fill="#c9c9c9" transform="matrix(.99 0 0 .95 .36 1.93)"><path d="m93.2 40.01c-1.9.26-3.91.29-5.78.94-3.54 1-6.95 3.46-8.15 7.05-1.55 4.9-.17 10.3 2.48 14.51 2.41 3.9 5.85 7.3 9.48 10.06h5.79c-3.6-2.74-7.02-6.02-9.54-9.8-2.57-3.85-4.05-8.76-2.53-13.31 1.23-3.75 5.19-5.74 8.86-6.33 4.73-.63 9.53-.04 14.13 1.19 2.93.78 5.94 1.76 8.74 2.91 0-1.05 0-1.99 0-1.99s-1.52-.62-2.24-.9c-5.66-2.11-11.57-3.7-17.61-4.18-1.23.09-2.39-.48-3.62-.16zm7.82 6.8c-3.7.15-7.74 1.66-9.59 5.05-1.6 3.22-.96 7.15.63 10.26 2.18 4.27 5.88 7.67 9.72 10.44 1.12.01 3.65-.02 4.27 0-3.24-2.23-6.51-5.23-8.71-8.53-1.78-2.71-2.73-6.28-1.19-9.33 1.12-2.72 3.91-4.4 6.72-4.83 3.79-.65 7.64-.04 11.3.87.77.23 2.52.64 2.52.64v-1.76s-2.43-.85-3.52-1.17c-3.95-1.13-8.02-1.89-12.15-1.65zm7.84 5.86c-3.39.08-7.2 2.03-7.93 5.59-.53 3.16 1.24 6.09 3.16 8.43 1.93 2.3 4.33 4.29 6.87 5.88h5.79l.01-18.91c-2.52-.81-5.26-1.1-7.9-.99z" fill-rule="evenodd"/><g stroke-width=".2"><path d="m40.63 28.66v-13.85h1.83v5.69h7.2v-5.69h1.83v13.85h-1.82v-6.53h-7.2v6.53z"/><path d="m55.81 28.66v-13.85h10.02v1.64h-8.18v4.24h7.66v1.62h-7.67v4.72h8.51v1.64z"/><path d="m69.02 24.5v-1.71h5.23v1.71z"/><path d="m76.05 28.66 5.32-13.86h1.98l5.67 13.86h-2.09l-1.62-4.19h-5.79l-1.52 4.2zm4-5.69h4.7l-1.45-3.84q-.66-1.75-.98-2.87-.26 1.33-.75 2.65z"/><path d="m90.18 28.66 5.32-13.85h1.98l5.67 13.86h-2.09l-1.61-4.2h-5.79l-1.52 4.2zm4-5.69h4.7l-1.45-3.84q-.66-1.75-.98-2.87-.26 1.33-.75 2.65z"/><path d="m114.52 23.8 1.83.46q-.58 2.26-2.08 3.45-1.49 1.18-3.66 1.18-2.24 0-3.65-.91-1.4-.92-2.14-2.65-.73-1.73-.73-3.71 0-2.16.82-3.77.83-1.62 2.35-2.45 1.53-.84 3.36-.84 2.08 0 3.5 1.06 1.42 1.06 1.98 2.98l-1.81.43q-.48-1.51-1.4-2.2-.92-.69-2.31-.69-1.6 0-2.67.77-1.07.77-1.5 2.06-.43 1.29-.43 2.66 0 1.77.51 3.09.52 1.31 1.61 1.97 1.09.65 2.35.65 1.54 0 2.61-.89 1.07-.89 1.45-2.64z"/></g></g></svg>