<svg viewBox="0 0 126 84" xmlns="http://www.w3.org/2000/svg"><rect fill="#121212" height="75.14" ry="6.44" stroke="#121212" stroke-linecap="round" stroke-linejoin="round" stroke-width=".68" width="94.98" x="26.67" y="4.42"/><path d="m38.19 32.96-1.82 42.96-2.4-15.4-1.54 15.4-1.92-27.06-1.85 27.06c-.31-1.47-.92-3.96-.92-3.96l.03 7.44 87.06.02s1.46.15 3.08-.67 2.66-2.57 2.66-2.57l-65.97-.25-2.01-3.97-1.73 3.97-1.73-12.82-1.54 12.82-2.2-22.68-2.02 22.68-1.44-32.55-1.82 32.55z" fill="#5e5e5e" stroke-width=".97"/><path d="m34.12 4.56c-5.36 0-12.01-.05-15.75-.07-13.94-.08-13.96-.08-13.85 15.96.08 13.76-.13 27.73.05 41.18-.08 17.95-.12 17.9 15.26 17.89 3.36 0 9.58-.11 14.28-.11h.06v-74.85z" fill="#d8d8d8" stroke="#121212" stroke-width=".97"/><g stroke-width="0" transform="matrix(.99 0 0 .95 .36 1.93)"><path d="m-19.3 12.7c-3.73 0-6.28 2.98-6.29 6.67-.01 3.7 2.79 6.67 6.29 6.67s6.23-2.54 6.23-6.67c0-3.76-2.5-6.67-6.23-6.67zm3.54 6.67c0 1.89-1.06 4.41-3.54 4.41s-3.56-2.58-3.61-4.41 1.04-4.23 3.61-4.23 3.54 2.34 3.54 4.23zm-13.3-6.43h-2.6v12.9h2.6zm-6.23 6.57c.17-2.69-1.17-6.12-4.33-6.47-2.15-.18-4.31-.06-6.47-.1v12.9c2.4-.09 4.84.22 7.2-.27 2.67-.74 3.66-3.64 3.6-6.05zm-2.69-.11c0 2.72-.75 4.17-3.57 4.26-.64.03-1.94.13-1.94-.5v-8.04c1.8.06 4.28-.4 5.1 1.6.37.84.4 1.77.41 2.67zm-12.3-6.45h-2.6c-.05 3.11.11 6.22-.12 9.32-.58 2.62-5.43 1.77-4.93-.97-.05-2.78-.01-5.57-.02-8.35h-2.6c.08 3.38-.2 6.78.26 10.1.59 2.61 3.73 3.26 6.1 2.91 2.78-.06 4.2-2.81 3.9-5.21.03-2.61.01-5.23.01-7.84zm-13.1 12.9-5.16-12.9h-2.75l-5.02 12.9h2.76l1.06-2.93h5.15l1.12 2.93zm-4.79-5.1h-3.51l1.74-4.78z" fill="#1a1a1a" transform="matrix(0 -.95 .99 0 1.85 -.66)"/><g fill="#c9c9c9"><path d="m47.23 33.86h4.42v10.79h6.9v3.53h-11.32z"/><path d="m62.55 33.86h7.35q2.4 0 3.59 1.14 1.2 1.14 1.2 3.25 0 2.17-1.31 3.39-1.3 1.22-3.97 1.22h-2.42v5.31h-4.44zm4.44 6.1h1.08q1.28 0 1.8-.44.52-.45.52-1.14 0-.67-.45-1.14-.45-.47-1.69-.47h-1.26z"/><path d="m88.55 42.33 3.88 1.17q-.39 1.63-1.23 2.72-.84 1.09-2.09 1.65-1.24.56-3.16.56-2.33 0-3.82-.67-1.47-.68-2.55-2.39-1.07-1.71-1.07-4.38 0-3.55 1.88-5.46 1.89-1.91 5.35-1.91 2.71 0 4.25 1.09 1.55 1.09 2.3 3.36l-3.91.87q-.21-.65-.43-.96-.37-.51-.91-.78-.54-.27-1.2-.27-1.5 0-2.3 1.21-.61.9-.61 2.82 0 2.38.72 3.27.72.88 2.03.88 1.27 0 1.91-.71.65-.71.95-2.07z"/><path d="m96.52 33.86h5.82l2.25 8.71 2.24-8.71h5.8v14.32h-3.61v-10.92l-2.8 10.92h-3.27l-2.79-10.92v10.92h-3.62z"/></g></g></svg>