<svg viewBox="0 0 126 84" xmlns="http://www.w3.org/2000/svg"><rect fill="#121212" height="75.14" ry="6.44" stroke="#121212" stroke-linecap="round" stroke-linejoin="round" stroke-width=".68" width="94.98" x="26.67" y="4.42"/><path d="m38.19 32.96-1.82 42.96-2.4-15.4-1.54 15.4-1.92-27.06-1.85 27.06c-.31-1.47-.92-3.96-.92-3.96l.03 7.44 87.06.02s1.46.15 3.08-.67 2.66-2.57 2.66-2.57l-65.97-.25-2.01-3.97-1.73 3.97-1.73-12.82-1.54 12.82-2.2-22.68-2.02 22.68-1.44-32.55-1.82 32.55z" fill="#5e5e5e" stroke-width=".97"/><path d="m34.12 4.56c-5.36 0-12.01-.05-15.75-.07-13.94-.08-13.96-.08-13.85 15.96.08 13.76-.13 27.73.05 41.18-.08 17.95-.12 17.9 15.26 17.89 3.36 0 9.58-.11 14.28-.11h.06v-74.85z" fill="#d8d8d8" stroke="#121212" stroke-width=".97"/><path d="m-19.3 12.7c-3.73 0-6.28 2.98-6.29 6.67-.01 3.7 2.79 6.67 6.29 6.67s6.23-2.54 6.23-6.67c0-3.76-2.5-6.67-6.23-6.67zm3.54 6.67c0 1.89-1.06 4.41-3.54 4.41s-3.56-2.58-3.61-4.41 1.04-4.23 3.61-4.23 3.54 2.34 3.54 4.23zm-13.3-6.43h-2.6v12.9h2.6zm-6.23 6.57c.17-2.69-1.17-6.12-4.33-6.47-2.15-.18-4.31-.06-6.47-.1v12.9c2.4-.09 4.84.22 7.2-.27 2.67-.74 3.66-3.64 3.6-6.05zm-2.69-.11c0 2.72-.75 4.17-3.57 4.26-.64.03-1.94.13-1.94-.5v-8.04c1.8.06 4.28-.4 5.1 1.6.37.84.4 1.77.41 2.67zm-12.3-6.45h-2.6c-.05 3.11.11 6.22-.12 9.32-.58 2.62-5.43 1.77-4.93-.97-.05-2.78-.01-5.57-.02-8.35h-2.6c.08 3.38-.2 6.78.26 10.1.59 2.61 3.73 3.26 6.1 2.91 2.78-.06 4.2-2.81 3.9-5.21.03-2.61.01-5.23.01-7.84zm-13.1 12.9-5.16-12.9h-2.75l-5.02 12.9h2.76l1.06-2.93h5.15l1.12 2.93zm-4.79-5.1h-3.51l1.74-4.78z" fill="#1a1a1a" transform="matrix(0 -.95 .99 0 1.85 -.66)"/><path d="m59.49 57.46c-.73-.03-1.62-.09-1.97-.14-2.61-.34-5.32-1.46-7.37-3.05-.32-.25-.97-.84-1.45-1.31-2.14-2.13-3.51-4.91-3.86-7.83-.12-.97-.06-3.34.11-4.33.53-3.16 1.93-6.2 3.97-8.65 3.65-4.38 9.7-7.42 15.96-8.02 5.55-.53 10.64 1.54 13.32 5.42.72 1.04 1.55 2.77 1.46 3.05s-.32.16-.46-.24c-.47-1.37-1.45-2.88-2.59-3.96-1.43-1.37-3.69-2.46-5.93-2.88-2.77-.52-5.58-.31-8.83.63-3.7 1.07-6.73 2.77-9.19 5.13-2.62 2.52-4.22 5.47-4.91 9.04-.19 1-.2 3.73 0 4.59.48 2.14 1.46 3.85 3.05 5.32 1.67 1.55 3.84 2.61 6.32 3.09 1.02.2 3.56.28 4.72.15 3.24-.37 5.88-1.55 7.75-3.47 1.01-1.03 1.5-1.86 2.5-4.2.34-.78.94-2.14 1.35-3.03 1.64-3.58 1.63-3.54 1.32-3.83-.15-.14-.22-.16-.54-.12-.62.07-1.15.52-1.58 1.36-.11.22-.92 1.94-1.79 3.81l-1.58 3.41h-2.85c-2.65 0-2.83-.01-2.83-.13 0-.07.79-1.82 1.75-3.89 1.47-3.17 1.75-3.82 1.75-4.1 0-.31-.02-.35-.21-.42-.53-.2-1.21.13-1.7.81-.16.22-1.04 2.02-1.96 4.01-.92 1.98-1.7 3.63-1.73 3.66s-1.3.07-2.82.08c-2.39.02-2.77.01-2.83-.08-.06-.1 1.07-2.6 4.34-9.61l.55-1.19 2.74.02c2.67.02 2.74.02 2.77.17.05.25.13.26.55.08.86-.37 1.69-.52 2.84-.52.89 0 1.15.02 1.6.16.61.19 1.15.5 1.36.81l.15.21.61-.28c2.07-.93 4.43-1.19 5.94-.64.55.2 1.19.77 1.37 1.21.2.5.17 1.29-.07 1.98-.47 1.32-3.52 7.69-4.45 9.28-2.23 3.83-4.73 6.09-8.13 7.38-1.43.54-3.51.95-5.22 1.03-1.69.08-1.99.08-3.28.03zm17.34-4.44c-.03-.04.59-1.44 1.37-3.12 2.7-5.82 3.15-6.78 4.66-10.05l1.52-3.28h2.98 2.98l.02.2c.03.25.05.25.56.02.82-.36 1.53-.49 2.64-.5 2.32-.01 3.68.66 4.11 2.01.68 2.16-1.38 6.11-4.09 7.84-1.56 1-3.01 1.44-4.95 1.53-1.07.05-1.58-.04-2.38-.41-.25-.12-.47-.21-.47-.2-.01.01-.58 1.24-1.28 2.75-.7 1.5-1.33 2.86-1.41 3.01l-.14.27h-3.03c-1.93 0-3.05-.03-3.08-.07zm11.7-7.54c.83-.33 1.87-1.83 2.81-4.04.47-1.09.67-1.9.63-2.52-.02-.39-.06-.52-.17-.6-.53-.37-1.65.34-2.51 1.61-.74 1.09-1.64 3-1.9 4.03-.16.63-.13 1.26.08 1.48.17.18.67.2 1.06.04zm11.57 2.11c-1.02-.13-1.58-.29-2.41-.67-.57-.26-.83-.44-1.28-.86-.31-.29-.55-.57-.54-.61.05-.13 2.87-2.13 3.01-2.12.07 0 .35.08.62.18.43.15.49.2.48.35-.11 1.01-.11 1.31-.02 1.52.23.53 1.04.75 2.03.56.92-.18 1.48-.48 2.23-1.21.96-.93 1.49-1.99 1.43-2.88-.04-.55-.23-.84-.69-1.06-.29-.14-.46-.15-1.63-.15-1.11 0-1.31-.02-1.35-.11-.04-.1.5-1.39.68-1.62.05-.06.34-.09.96-.09 1.02 0 1.53-.1 2.35-.48 1.16-.53 2.25-1.86 2.45-3.03.07-.41.07-.51-.05-.75-.19-.38-.58-.56-1.2-.56-.83 0-1.64.3-2.22.81-.39.35-.59.71-.64 1.19l-.04.36-.68.2c-.38.11-.72.19-.77.17-.11-.04-1.39-2.01-1.39-2.13 0-.11 1.08-.8 1.81-1.15 1.87-.9 4.56-1.37 6.85-1.2 2.51.18 3.88 1.01 3.99 2.43.15 1.81-1.49 3.58-4.12 4.46-.33.11-.64.23-.67.26-.04.03.15.16.41.3 1.52.78 1.96 2.11 1.24 3.69-.54 1.19-1.79 2.35-3.33 3.09-.7.34-2.12.81-2.93.96-1.44.28-3.16.34-4.57.15z" fill="#c9c9c9" stroke-width=".07"/></svg>