<svg viewBox="0 0 126 84" xmlns="http://www.w3.org/2000/svg"><rect fill="#121212" height="75.14" ry="6.44" stroke="#121212" stroke-linecap="round" stroke-linejoin="round" stroke-width=".68" width="94.98" x="26.67" y="4.42"/><path d="m38.19 32.96-1.82 42.96-2.4-15.4-1.54 15.4-1.92-27.06-1.85 27.06c-.31-1.47-.92-3.96-.92-3.96l.03 7.44 87.06.02s1.46.15 3.08-.67 2.66-2.57 2.66-2.57l-65.97-.25-2.01-3.97-1.73 3.97-1.73-12.82-1.54 12.82-2.2-22.68-2.02 22.68-1.44-32.55-1.82 32.55z" fill="#5e5e5e" stroke-width=".97"/><path d="m34.12 4.56c-5.36 0-12.01-.05-15.75-.07-13.94-.08-13.96-.08-13.85 15.96.08 13.76-.13 27.73.05 41.18-.08 17.95-.12 17.9 15.26 17.89 3.36 0 9.58-.11 14.28-.11h.06v-74.85z" fill="#d8d8d8" stroke="#121212" stroke-width=".97"/><path d="m-19.3 12.7c-3.73 0-6.28 2.98-6.29 6.67-.01 3.7 2.79 6.67 6.29 6.67s6.23-2.54 6.23-6.67c0-3.76-2.5-6.67-6.23-6.67zm3.54 6.67c0 1.89-1.06 4.41-3.54 4.41s-3.56-2.58-3.61-4.41 1.04-4.23 3.61-4.23 3.54 2.34 3.54 4.23zm-13.3-6.43h-2.6v12.9h2.6zm-6.23 6.57c.17-2.69-1.17-6.12-4.33-6.47-2.15-.18-4.31-.06-6.47-.1v12.9c2.4-.09 4.84.22 7.2-.27 2.67-.74 3.66-3.64 3.6-6.05zm-2.69-.11c0 2.72-.75 4.17-3.57 4.26-.64.03-1.94.13-1.94-.5v-8.04c1.8.06 4.28-.4 5.1 1.6.37.84.4 1.77.41 2.67zm-12.3-6.45h-2.6c-.05 3.11.11 6.22-.12 9.32-.58 2.62-5.43 1.77-4.93-.97-.05-2.78-.01-5.57-.02-8.35h-2.6c.08 3.38-.2 6.78.26 10.1.59 2.61 3.73 3.26 6.1 2.91 2.78-.06 4.2-2.81 3.9-5.21.03-2.61.01-5.23.01-7.84zm-13.1 12.9-5.16-12.9h-2.75l-5.02 12.9h2.76l1.06-2.93h5.15l1.12 2.93zm-4.79-5.1h-3.51l1.74-4.78z" fill="#1a1a1a" transform="matrix(0 -.95 .99 0 1.85 -.66)"/><path d="m63.95 23.66c-10.94 0-23.6 4.82-23.6 12.69 0 9.27 18.04 13.2 22.79 13.04 1.63-.05.68.97.29 1.6-1.25 2.03-2.68 4.6-3 5.1-.3.49-.06 1.33.64.96.93-.48 14.52-8.39 16.56-9.55 2.16-1.22 4.12-2.39 5.72-3.65.02-.02.08-.13-.09-.09-1.67.46-4.58.5-6.45.27-.17-.02-.36.06-.39.08-2.02 1.04-9.36 4.63-9.36 4.63-1.41.79-1.71.32-1.36-.2.18-.26.7-1.12 1.3-2.23.33-.62-.01-.7-.21-.71-11.46 0-20.45-4.08-20.45-8.97 0-5.73 9.9-9 17.72-9 5.85 0 10.12.78 13 2.22.2.1.24.08.42.03 1.13-.31 3.27-.75 6.25-.16.02 0 .38.02.19-.15-5.52-4.71-15.91-5.93-19.95-5.93zm44.96 3.48-4.25 15.15h5.68l4.25-15.15zm-11.19 3.85c-3.64 0-6.71.68-7.6 3.61h5.34c.31-.82 1.12-1.12 2.26-1.12.87 0 1.78.19 1.78.95 0 1.36-2.56 1.19-4.16 1.28-4.27.23-7.2 1.01-7.2 3.92 0 2.09 2.27 2.93 4.83 2.93 1.67 0 3.58-.45 4.59-1.33h.06c-.02.35-.22 1.06-.22 1.06h5.44l.38-1.35c.31-1.39 1.75-5.47 1.75-7.01 0-2.67-4.53-2.93-7.23-2.93zm-17.37.03c-3.71 0-8.95 1.66-8.95 6.71 0 2.68 2.13 4.87 7.42 4.87 6.44 0 7.56-2.75 7.94-3.48h-5.46c-.29.38-1 .78-2.25.78-1.78 0-2.33-.98-2.33-2.15h10.64c.26-.67.29-1.32.29-1.91 0-3.46-4-4.82-7.31-4.82zm-9.82.02c-1.47 0-3.33.82-4.34 1.99h-.06l.49-1.72h-5.51l-3.08 11h5.69l1.29-4.6c.66-2.31 1.86-3.07 4.28-3.07.41 0 .84.03 1.27.09l1.98-3.53c-.51-.13-1.06-.16-2.01-.16zm9.64 2.67c1.45 0 2.16.66 2.16 1.49 0 .11-.03.26-.06.36h-5.06c.42-1.17 1.44-1.85 2.96-1.85zm18.49 3.68c-.34 1.63-1.12 2.67-3.04 2.67-.92 0-1.81-.19-1.81-.95 0-.81.89-1.17 1.84-1.23 1.04-.06 2.1-.15 3.01-.49zm1.46 7.04v2.6c-.21-.22-.46-.38-.73-.49s-.58-.16-.91-.16c-.69 0-1.26.24-1.71.72s-.67 1.16-.67 2.06c0 .8.2 1.49.61 2.05s1 .84 1.77.84c.38 0 .73-.08 1.04-.23.23-.12.49-.35.78-.69v.8h2.03v-7.49zm3.59 0v1.42h2.16v-1.42zm-19.08 1.94c-.4 0-.78.03-1.13.09s-.62.14-.82.25c-.28.15-.49.32-.64.52s-.26.47-.34.82l2.07.21c.09-.23.2-.4.34-.48.18-.11.44-.16.8-.16.28 0 .47.05.58.15s.16.28.16.54c-.27.1-.52.19-.77.25-.24.06-.77.17-1.58.33-.68.13-1.14.33-1.39.59-.25.27-.38.6-.38 1.02 0 .44.17.81.52 1.11s.86.45 1.54.45c.51 0 .95-.07 1.33-.22.28-.11.56-.3.85-.56.02.16.05.27.07.35.02.07.08.18.16.32h2.03c-.11-.22-.19-.41-.22-.55-.03-.15-.05-.35-.05-.6v-2.4c0-.26-.05-.52-.16-.8s-.25-.5-.44-.65c-.26-.22-.59-.37-.98-.43-.39-.07-.91-.11-1.56-.11zm25.6 0c-.99 0-1.77.27-2.36.81-.58.53-.87 1.22-.87 2.04 0 .89.34 1.61 1.03 2.16.56.44 1.29.66 2.2.66 1.02 0 1.81-.27 2.39-.8s.87-1.22.87-2.05c0-.74-.23-1.37-.7-1.87-.58-.63-1.43-.95-2.56-.95zm-21.17.12v3.45c0 .71.17 1.24.51 1.58s.81.51 1.4.51c.45 0 .82-.08 1.13-.23s.61-.41.91-.77v.88h2.02v-5.41h-2.15v2.61c0 .49-.08.84-.25 1.03-.16.19-.37.29-.63.29-.24 0-.42-.07-.55-.21s-.2-.38-.2-.73v-2.98zm14.65 0v5.43h2.16v-5.43zm6.55 1.31c.3 0 .55.12.75.35s.3.58.3 1.05c0 .5-.1.87-.3 1.1s-.45.34-.77.34c-.31 0-.57-.12-.77-.35s-.3-.59-.3-1.07.1-.83.31-1.06.47-.35.78-.35zm-11.12.12c.29 0 .52.11.71.32s.28.52.28.95c0 .47-.09.81-.28 1.02-.18.21-.41.31-.69.31-.26 0-.48-.1-.65-.31s-.26-.53-.26-.98c0-.47.09-.81.26-1.01s.38-.3.63-.3zm-13.48 1.42v.33c0 .26-.04.47-.13.63s-.23.3-.44.41-.43.17-.67.17c-.23 0-.41-.05-.53-.15-.12-.11-.18-.24-.18-.4 0-.14.06-.27.18-.38s.4-.22.83-.33c.32-.08.63-.17.93-.27z" fill="#c9c9c9" stroke-width=".97"/></svg>