<svg viewBox="0 0 126 84" xmlns="http://www.w3.org/2000/svg"><rect fill="#121212" height="75.14" ry="6.44" stroke="#121212" stroke-linecap="round" stroke-linejoin="round" stroke-width=".68" width="94.98" x="26.67" y="4.42"/><path d="m38.19 32.96-1.82 42.96-2.4-15.4-1.54 15.4-1.92-27.06-1.85 27.06c-.31-1.47-.92-3.96-.92-3.96l.03 7.44 87.06.02s1.46.15 3.08-.67 2.66-2.57 2.66-2.57l-65.97-.25-2.01-3.97-1.73 3.97-1.73-12.82-1.54 12.82-2.2-22.68-2.02 22.68-1.44-32.55-1.82 32.55z" fill="#5e5e5e" stroke-width=".97"/><path d="m34.12 4.56c-5.36 0-12.01-.05-15.75-.07-13.94-.08-13.96-.08-13.85 15.96.08 13.76-.13 27.73.05 41.18-.08 17.95-.12 17.9 15.26 17.89 3.36 0 9.58-.11 14.28-.11h.06v-74.85z" fill="#d8d8d8" stroke="#121212" stroke-width=".97"/><path d="m-19.3 12.7c-3.73 0-6.28 2.98-6.29 6.67-.01 3.7 2.79 6.67 6.29 6.67s6.23-2.54 6.23-6.67c0-3.76-2.5-6.67-6.23-6.67zm3.54 6.67c0 1.89-1.06 4.41-3.54 4.41s-3.56-2.58-3.61-4.41 1.04-4.23 3.61-4.23 3.54 2.34 3.54 4.23zm-13.3-6.43h-2.6v12.9h2.6zm-6.23 6.57c.17-2.69-1.17-6.12-4.33-6.47-2.15-.18-4.31-.06-6.47-.1v12.9c2.4-.09 4.84.22 7.2-.27 2.67-.74 3.66-3.64 3.6-6.05zm-2.69-.11c0 2.72-.75 4.17-3.57 4.26-.64.03-1.94.13-1.94-.5v-8.04c1.8.06 4.28-.4 5.1 1.6.37.84.4 1.77.41 2.67zm-12.3-6.45h-2.6c-.05 3.11.11 6.22-.12 9.32-.58 2.62-5.43 1.77-4.93-.97-.05-2.78-.01-5.57-.02-8.35h-2.6c.08 3.38-.2 6.78.26 10.1.59 2.61 3.73 3.26 6.1 2.91 2.78-.06 4.2-2.81 3.9-5.21.03-2.61.01-5.23.01-7.84zm-13.1 12.9-5.16-12.9h-2.75l-5.02 12.9h2.76l1.06-2.93h5.15l1.12 2.93zm-4.79-5.1h-3.51l1.74-4.78z" fill="#1a1a1a" transform="matrix(0 -.95 .99 0 1.85 -.66)"/><path clip-rule="evenodd" d="m79.64 13.43c-4.33-.24-11.39 4.24-13.4 5.57-.47-.13-.97-.19-1.48-.19-2.26.03-4.18 1.43-4.93 3.38-.8.57-1.26 1.13-1.55 1.65-2.17 2.13-3.43 4.52-3.94 5.64-2.3-.37-4.78-.16-5 .73 0 0-1.02 2.64 2.9 3.07 1.84.21 3.38 1.9 4.22 3.38.21.37-.63.31-1.43.36-1.79.11-3.06.3-2.12 1.48 1.07 1.34 3.02 1.65 4.93 1.39 1.23-.16 1.65-.2 1.95-.25.24.14.57.29.94.43 2.84 1.59 8.09 1.73 12.4 1.29 1.22.45 4.89 1.73 7.56 1.7l3.28-.54s2.24-1.39.51-2.94c4.7-.39 6.03.66 7.88 1.39 2.46.96 8.02 2.59 8.93 2.9.97.33 4.99-.29 5.59-1.93.29-.8-1.08-6.53.64-8.4 1.74-1.89 6.39-9.46 5.03-10.34-2.48-1.6-10.88 1.61-12.79 2.54-.59.29-1.37.54-2.22.76-1.48-4-1.61-4.25-2.31-5.14-.79-1.01-4.34-2.57-4.34-2.57l-1.31-2.64s-4.91-2.44-9.95-2.72zm2.36 26.03c.01.01.01.01.02.02l-1.48.26c.41-.1.9-.19 1.45-.28z" fill="#c9c9c9" fill-rule="evenodd" stroke-width=".97"/><text style="font-size:18.09;font-family:Bitstream Vera Serif;letter-spacing:1.13072;word-spacing:0;fill:none;stroke:#000;stroke-width:0" transform="scale(1.02 .98)" x="54.66" y="20.55"><tspan stroke-width="0" x="48.6" y="63.85"><tspan fill="#c9c9c9" font-family="Arial" font-weight="bold" stroke="none" stroke-width="0">Vorbis</tspan></tspan></text></svg>