<svg viewBox="0 0 126 84" xmlns="http://www.w3.org/2000/svg"><rect fill="#121212" height="75.14" ry="6.44" stroke="#121212" stroke-linecap="round" stroke-linejoin="round" stroke-width=".68" width="94.98" x="26.67" y="4.42"/><path d="m38.19 32.96-1.82 42.96-2.4-15.4-1.54 15.4-1.92-27.06-1.85 27.06c-.31-1.47-.92-3.96-.92-3.96l.03 7.44 87.06.02s1.46.15 3.08-.67 2.66-2.57 2.66-2.57l-65.97-.25-2.01-3.97-1.73 3.97-1.73-12.82-1.54 12.82-2.2-22.68-2.02 22.68-1.44-32.55-1.82 32.55z" fill="#5e5e5e" stroke-width=".97"/><path d="m34.12 4.56c-5.36 0-12.01-.05-15.75-.07-13.94-.08-13.96-.08-13.85 15.96.08 13.76-.13 27.73.05 41.18-.08 17.95-.12 17.9 15.26 17.89 3.36 0 9.58-.11 14.28-.11h.06v-74.85z" fill="#d8d8d8" stroke="#121212" stroke-width=".97"/><path d="m-19.3 12.7c-3.73 0-6.28 2.98-6.29 6.67-.01 3.7 2.79 6.67 6.29 6.67s6.23-2.54 6.23-6.67c0-3.76-2.5-6.67-6.23-6.67zm3.54 6.67c0 1.89-1.06 4.41-3.54 4.41s-3.56-2.58-3.61-4.41 1.04-4.23 3.61-4.23 3.54 2.34 3.54 4.23zm-13.3-6.43h-2.6v12.9h2.6zm-6.23 6.57c.17-2.69-1.17-6.12-4.33-6.47-2.15-.18-4.31-.06-6.47-.1v12.9c2.4-.09 4.84.22 7.2-.27 2.67-.74 3.66-3.64 3.6-6.05zm-2.69-.11c0 2.72-.75 4.17-3.57 4.26-.64.03-1.94.13-1.94-.5v-8.04c1.8.06 4.28-.4 5.1 1.6.37.84.4 1.77.41 2.67zm-12.3-6.45h-2.6c-.05 3.11.11 6.22-.12 9.32-.58 2.62-5.43 1.77-4.93-.97-.05-2.78-.01-5.57-.02-8.35h-2.6c.08 3.38-.2 6.78.26 10.1.59 2.61 3.73 3.26 6.1 2.91 2.78-.06 4.2-2.81 3.9-5.21.03-2.61.01-5.23.01-7.84zm-13.1 12.9-5.16-12.9h-2.75l-5.02 12.9h2.76l1.06-2.93h5.15l1.12 2.93zm-4.79-5.1h-3.51l1.74-4.78z" fill="#1a1a1a" transform="matrix(0 -.95 .99 0 1.85 -.66)"/><path d="m44.35 20.52c.03.13 3.2 22.63 3.2 22.71 0 .02.36.04.81.04h.81l3.67-7.05c2.02-3.87 3.68-7.02 3.69-6.98.05.15 1.8 10.27 1.8 10.41 0 .08-.22.65-.48 1.26-.51 1.18-.56 1.29-1.69 3.88-.4.92-1.13 2.61-1.63 3.74-.5 1.14-1.08 2.48-1.3 2.98s-.88 2.01-1.46 3.35-1.19 2.73-1.35 3.09-.27.67-.25.69.75.07 1.61.12c.86.04 1.76.09 2 .1l.43.03.13-.28c.15-.33 1.54-3.56 1.9-4.39.98-2.32 1.5-3.44 1.58-3.42 7.46 1.63 13.8-2 14.45-8.29.36-3.48-2.06-5.59-6.81-5.94-1.18-.09-1.44-.12-1.41-.17.01-.03 1.81-3.6 3.99-7.93 2.19-4.34 3.99-7.93 4.01-7.98.04-.09-.16-.1-2.04-.1h-2.08l-3.16 6.47c-3.58 7.31-3.72 7.6-3.75 7.58-.01-.01-.45-3.11-.97-6.89-.53-3.78-.97-6.94-.99-7.02-.03-.14-.04-.14-.89-.12l-.86.02-3.59 7.01c-1.97 3.86-3.61 6.99-3.63 6.97s-.39-3.08-.81-6.8c-.43-3.72-.79-6.86-.81-6.98l-.04-.23h-2.05-2.05l.03.14m32.76-.04c-1.85.27-3.74.93-4.8 1.7-.11.08-.08.17.43 1.7l.55 1.62.2-.16c1.51-1.19 2.76-1.6 4.65-1.54 1.71.06 2.35.63 2.41 2.16.02.46.01.68-.04.68-.04 0-.25-.04-.47-.09-2.12-.46-5.13.19-7.27 1.56-3.96 2.53-4.45 7.5-.91 9.22 1.79.87 5.16.39 7.16-1.01l.42-.3.15.28c.48.91 1.43 1.33 3.15 1.4l.89.04.18-1 .18-1-.18-.12c-.92-.63-.93-.93-.11-5.36.68-3.69.78-4.55.67-5.55-.26-2.38-1.44-3.6-4-4.1-.59-.12-2.78-.21-3.26-.14m7.19.13c0 .06.96 3.9 2.14 8.54l2.14 8.43.67.02.67.02 5.35-8.47c2.94-4.66 5.36-8.51 5.37-8.55.02-.07-.34-.08-2-.08h-2.02l-2.98 5.09c-1.64 2.8-3.01 5.13-3.05 5.18-.05.07-.33-1.18-1.14-5.07l-1.08-5.17-2.04-.02c-1.91-.02-2.04-.01-2.04.09m-4.94 8.8c.33.05.61.11.63.12s-.11.77-.27 1.68l-.3 1.66-.36.32c-2.31 2.05-5.78 2.06-5.78.01 0-1.87 1.9-3.46 4.62-3.85.37-.05.91-.03 1.46.06m23.72 6.43c-.01.04-.97 5.23-2.12 11.52s-2.11 11.49-2.12 11.55c-.02.1.09.11 1.88.09l1.91-.02.52-2.8c.29-1.54.52-2.8.52-2.81.03-.05 2.37-1.98 2.43-2 .05-.02.72 1.34 1.86 3.79l1.78 3.82 2.06.02c1.14.01 2.06 0 2.06-.01 0-.02-1.08-2.31-2.4-5.1l-2.4-5.07 2.2-2.07c1.21-1.14 2.77-2.61 3.46-3.27l1.27-1.21h-2.3-2.3l-3.43 3.25c-1.89 1.79-3.44 3.25-3.44 3.24-.01-.01.51-2.88 1.15-6.37.64-3.5 1.18-6.42 1.19-6.5l.03-.14h-1.89c-1.46 0-1.9.02-1.92.08m-37.68 4.15c1.89.27 2.58.96 2.57 2.53-.02 2.8-2.01 4.76-5.29 5.18-.99.13-3.29-.04-3.51-.26-.01-.01.09-.28.23-.6s.84-1.95 1.55-3.62c.72-1.67 1.32-3.07 1.35-3.09.17-.18 2.18-.27 3.09-.14m11.48 1.89c-1.07.16-2.47.58-3.32.98-.6.29-1.24.68-1.24.76 0 .06.9 2.77 1.02 3.08.06.14.06.14.44-.17 1.18-.98 2.65-1.44 4.4-1.38 1.76.06 2.45.69 2.47 2.22.01.68.03.65-.54.53-2.09-.45-5.39.3-7.45 1.7-4.8 3.27-3.82 9.52 1.5 9.49 1.94-.01 3.58-.47 4.89-1.38l.49-.34.18.31c.53.9 1.44 1.29 3.13 1.36l.87.04.04-.21c.02-.11.11-.56.19-1l.15-.79-.14-.09c-.97-.62-.98-1.03-.18-5.34.91-4.92.94-5.95.19-7.44-.93-1.84-3.89-2.82-7.09-2.34m17.46-.05c-4.87.54-8.33 3.63-9.31 8.31-1.36 6.47 2.78 10.13 9.78 8.65 1.29-.27 3.49-1.15 3.49-1.39 0-.13-.89-3.03-.95-3.09-.03-.03-.29.1-.58.28-2.68 1.67-5.48 1.79-7.03.29-1.9-1.83-.96-6.72 1.69-8.77 1.92-1.49 5.27-1.51 6.75-.04l.29.29 1.03-1.11c.57-.61 1.12-1.2 1.22-1.31l.19-.2-.25-.21c-1.39-1.2-4.11-1.93-6.31-1.68m-14.89 8.94c.31.05.59.11.61.14.02.02-.09.78-.26 1.68l-.3 1.64-.39.35c-1.52 1.37-3.61 1.89-5.01 1.24-.87-.4-.96-1.75-.21-2.87 1.08-1.6 3.43-2.52 5.55-2.17" fill="#c9c9c9" fill-rule="evenodd" stroke-width=".97"/></svg>