<svg viewBox="0 0 126 84" xmlns="http://www.w3.org/2000/svg"><rect fill="#121212" height="75.14" ry="6.44" stroke="#121212" stroke-linecap="round" stroke-linejoin="round" stroke-width=".68" width="94.98" x="26.67" y="4.42"/><path d="m38.19 32.96-1.82 42.96-2.4-15.4-1.54 15.4-1.92-27.06-1.85 27.06c-.31-1.47-.92-3.96-.92-3.96l.03 7.44 87.06.02s1.46.15 3.08-.67 2.66-2.57 2.66-2.57l-65.97-.25-2.01-3.97-1.73 3.97-1.73-12.82-1.54 12.82-2.2-22.68-2.02 22.68-1.44-32.55-1.82 32.55z" fill="#5e5e5e" stroke-width=".97"/><path d="m34.12 4.56c-5.36 0-12.01-.05-15.75-.07-13.94-.08-13.96-.08-13.85 15.96.08 13.76-.13 27.73.05 41.18-.08 17.95-.12 17.9 15.26 17.89 3.36 0 9.58-.11 14.28-.11h.06v-74.85z" fill="#d8d8d8" stroke="#121212" stroke-width=".97"/><g stroke-width="0" transform="matrix(.99 0 0 .95 .36 1.93)"><path d="m-19.3 12.7c-3.73 0-6.28 2.98-6.29 6.67-.01 3.7 2.79 6.67 6.29 6.67s6.23-2.54 6.23-6.67c0-3.76-2.5-6.67-6.23-6.67zm3.54 6.67c0 1.89-1.06 4.41-3.54 4.41s-3.56-2.58-3.61-4.41 1.04-4.23 3.61-4.23 3.54 2.34 3.54 4.23zm-13.3-6.43h-2.6v12.9h2.6zm-6.23 6.57c.17-2.69-1.17-6.12-4.33-6.47-2.15-.18-4.31-.06-6.47-.1v12.9c2.4-.09 4.84.22 7.2-.27 2.67-.74 3.66-3.64 3.6-6.05zm-2.69-.11c0 2.72-.75 4.17-3.57 4.26-.64.03-1.94.13-1.94-.5v-8.04c1.8.06 4.28-.4 5.1 1.6.37.84.4 1.77.41 2.67zm-12.3-6.45h-2.6c-.05 3.11.11 6.22-.12 9.32-.58 2.62-5.43 1.77-4.93-.97-.05-2.78-.01-5.57-.02-8.35h-2.6c.08 3.38-.2 6.78.26 10.1.59 2.61 3.73 3.26 6.1 2.91 2.78-.06 4.2-2.81 3.9-5.21.03-2.61.01-5.23.01-7.84zm-13.1 12.9-5.16-12.9h-2.75l-5.02 12.9h2.76l1.06-2.93h5.15l1.12 2.93zm-4.79-5.1h-3.51l1.74-4.78z" fill="#1a1a1a" transform="matrix(0 -.95 .99 0 1.85 -.66)"/><g fill="#c9c9c9"><text font-family="'Arial Black'" font-size="24" letter-spacing="1" word-spacing="0" x="47.12" y="42.25"><tspan font-size="24" x="47.12" y="42.25">WMA</tspan></text><path d="m49.46 61.32v-12.3h1.63v10.86h6.06v1.45z"/><path d="m58.33 56.87q0-2.48 1.38-3.67 1.15-.99 2.8-.99 1.84 0 3.01 1.21 1.17 1.2 1.17 3.32 0 1.72-.52 2.71-.51.98-1.5 1.53-.98.55-2.15.55-1.87 0-3.03-1.2-1.15-1.2-1.15-3.46zm1.55 0q0 1.71.75 2.57.75.85 1.88.85 1.13 0 1.87-.86.75-.86.75-2.61 0-1.65-.76-2.5-.75-.86-1.86-.86-1.13 0-1.88.85-.75.85-.75 2.56z"/><path d="m67.85 58.66 1.49-.24q.13.9.7 1.38.58.48 1.61.48 1.04 0 1.54-.42.5-.43.5-1 0-.51-.45-.81-.31-.2-1.54-.51-1.66-.42-2.31-.72-.64-.31-.97-.85-.33-.55-.33-1.2 0-.6.27-1.1.28-.51.75-.85.35-.26.96-.44.61-.18 1.31-.18 1.05 0 1.84.3.8.3 1.18.82.38.51.52 1.38l-1.48.2q-.1-.69-.59-1.07-.48-.39-1.36-.39-1.04 0-1.49.34-.45.34-.45.81 0 .29.18.53.18.24.58.4.23.08 1.34.39 1.6.43 2.23.71.64.27 1 .79.36.52.36 1.29 0 .76-.45 1.43-.44.66-1.27 1.03-.83.36-1.88.36-1.74 0-2.65-.72-.91-.72-1.16-2.14z"/><path d="m76.45 58.66 1.49-.24q.13.9.7 1.38.58.48 1.61.48 1.04 0 1.54-.42.5-.43.5-1 0-.51-.45-.81-.31-.2-1.54-.51-1.66-.42-2.31-.72-.64-.31-.97-.85-.33-.55-.33-1.2 0-.6.27-1.1.28-.51.75-.85.35-.26.96-.44.61-.18 1.31-.18 1.05 0 1.84.3.8.3 1.18.82.38.51.52 1.38l-1.48.2q-.1-.68-.58-1.06-.48-.39-1.36-.39-1.04 0-1.49.34-.45.34-.45.81 0 .29.18.53.18.24.58.4.23.08 1.34.39 1.6.43 2.23.71.64.27 1 .79.36.52.36 1.29 0 .76-.45 1.43-.44.66-1.27 1.03-.83.36-1.88.36-1.74 0-2.65-.72-.91-.72-1.16-2.14z"/><path d="m85.62 61.32v-12.3h1.51v12.31z"/><path d="m95.58 58.45 1.56.19q-.37 1.37-1.37 2.12-1 .76-2.55.76-1.96 0-3.11-1.2-1.14-1.21-1.14-3.38 0-2.25 1.16-3.49 1.16-1.24 3.01-1.24 1.79 0 2.92 1.22 1.13 1.22 1.13 3.43 0 .13-.01.4h-6.65q.08 1.47.83 2.25.75.78 1.86.78.83 0 1.42-.44.59-.44.93-1.39zm-4.96-2.44h4.98q-.1-1.13-.57-1.69-.72-.87-1.87-.87-1.04 0-1.75.7-.71.7-.78 1.86z"/><path d="m98.43 58.66 1.49-.24q.13.9.7 1.38.58.48 1.61.48 1.04 0 1.54-.42.5-.43.5-1 0-.51-.45-.81-.31-.2-1.54-.51-1.66-.42-2.31-.72-.64-.31-.97-.85-.33-.55-.33-1.2 0-.6.27-1.1.28-.51.75-.85.35-.26.96-.44.61-.18 1.31-.18 1.05 0 1.84.3.8.3 1.18.82.38.51.52 1.38l-1.48.2q-.1-.69-.59-1.07-.48-.39-1.36-.39-1.04 0-1.49.34-.45.34-.45.81 0 .29.18.53.18.24.58.4.23.08 1.34.39 1.6.43 2.23.71.64.27 1 .79.36.52.36 1.29 0 .76-.45 1.43-.44.66-1.27 1.03-.83.36-1.88.36-1.74 0-2.65-.72-.91-.72-1.16-2.14z"/><path d="m107.03 58.66 1.49-.24q.13.9.7 1.38.58.48 1.61.48 1.04 0 1.54-.42.5-.43.5-1 0-.51-.45-.81-.31-.2-1.54-.51-1.66-.42-2.31-.72-.64-.31-.97-.85-.33-.55-.33-1.2 0-.6.27-1.1.28-.51.75-.85.35-.26.96-.44.61-.18 1.31-.18 1.05 0 1.84.3.8.3 1.18.82.38.51.52 1.38l-1.48.2q-.1-.69-.59-1.07-.48-.39-1.36-.39-1.04 0-1.49.34-.45.34-.45.81 0 .29.18.53.18.24.58.4.23.08 1.34.39 1.6.43 2.23.71.64.27 1 .79.36.52.36 1.29 0 .76-.45 1.43-.44.66-1.27 1.03-.83.36-1.88.36-1.74 0-2.65-.72-.91-.72-1.16-2.14z"/></g></g></svg>