<svg height="84" viewBox="0 0 126 84" width="126" xmlns="http://www.w3.org/2000/svg"><path d="m10.16 6.35c-.81 0-1.61.16-2.35.47-.75.31-1.42.76-1.99 1.33s-1.03 1.25-1.34 1.99c-.3.75-.46 1.55-.46 2.35v39.35h117.97v-39.35c0-.8-.16-1.6-.47-2.35-.31-.74-.76-1.42-1.33-1.99s-1.25-1.02-1.99-1.33c-.75-.31-1.55-.47-2.35-.47z" fill="#d0d0d0" stroke="#898989"/><path d="m4.01 52.84v18.67c0 3.39 2.75 6.14 6.14 6.14h105.69c3.4 0 6.14-2.75 6.14-6.14v-18.67z" fill="#4e4e4e" stroke="#3a3a3a"/><g fill="#e6e6e6"><path d="m27.66 59.61v2.16q-.84-.38-1.64-.57-.8-.19-1.51-.19-.94 0-1.39.26-.45.26-.45.81 0 .41.3.64.31.23 1.11.39l1.12.23q1.7.34 2.42 1.04.72.7.72 1.98 0 1.69-1 2.52-1 .82-3.06.82-.97 0-1.95-.18-.98-.18-1.96-.55v-2.22q.98.52 1.89.79.92.26 1.76.26.86 0 1.32-.29.46-.29.46-.82 0-.48-.31-.74-.31-.26-1.24-.46l-1.02-.23q-1.53-.33-2.24-1.05-.7-.72-.7-1.93 0-1.52.98-2.34.98-.82 2.83-.82.84 0 1.73.13.89.12 1.84.38z"/><path d="m35.3 61.01q-1.2 0-1.87.89-.66.89-.66 2.5 0 1.61.66 2.5.66.89 1.87.89 1.21 0 1.87-.89.66-.89.66-2.5 0-1.61-.66-2.5-.66-.89-1.87-.89zm0-1.91q2.46 0 3.86 1.41 1.39 1.41 1.39 3.89 0 2.47-1.39 3.88-1.39 1.41-3.86 1.41-2.45 0-3.86-1.41-1.39-1.41-1.39-3.88 0-2.48 1.39-3.89 1.4-1.41 3.86-1.41z"/><path d="m46.28 63.81q.83 0 1.18-.31.36-.31.36-1.01 0-.7-.36-1-.35-.3-1.18-.3h-1.11v2.62zm-1.11 1.82v3.86h-2.63v-10.21h4.02q2.02 0 2.95.68.94.68.94 2.14 0 1.01-.49 1.66-.49.65-1.47.96.54.12.96.56.43.43.87 1.31l1.43 2.9h-2.8l-1.24-2.54q-.38-.77-.77-1.05-.38-.28-1.03-.28z"/><path d="m53.32 59.28h7.1v1.99h-4.47v1.9h4.2v1.99h-4.2v2.34h4.62v1.99h-7.25z"/><path d="m62.88 59.28h2.94l3.71 7v-7h2.5v10.21h-2.94l-3.71-7v7h-2.5z"/><path d="m81.7 59.61v2.16q-.84-.38-1.64-.57-.8-.19-1.51-.19-.94 0-1.39.26-.45.26-.45.81 0 .41.3.64.31.23 1.11.39l1.12.23q1.7.34 2.42 1.04.72.7.72 1.98 0 1.69-1 2.52-1 .82-3.06.82-.97 0-1.95-.18-.98-.18-1.96-.55v-2.22q.98.52 1.89.79.92.26 1.76.26.86 0 1.32-.29.46-.29.46-.82 0-.48-.31-.74-.31-.26-1.24-.46l-1.02-.23q-1.53-.33-2.24-1.05-.7-.72-.7-1.93 0-1.52.98-2.34.98-.82 2.83-.82.84 0 1.73.13.89.12 1.84.38z"/><path d="m89.35 61.01q-1.2 0-1.87.89-.66.89-.66 2.5 0 1.61.66 2.5.66.89 1.87.89 1.21 0 1.87-.89.66-.89.66-2.5 0-1.61-.66-2.5-.66-.89-1.87-.89zm0-1.91q2.46 0 3.86 1.41 1.39 1.41 1.39 3.89 0 2.47-1.39 3.88-1.39 1.41-3.86 1.41-2.45 0-3.86-1.41-1.39-1.41-1.39-3.88 0-2.48 1.39-3.89 1.4-1.41 3.86-1.41z"/><path d="m96.58 59.28h2.94l3.71 7v-7h2.5v10.21h-2.94l-3.71-7v7h-2.5z"/></g><g fill="#323232"><path d="m30.37 16.51h12.14v5.52h-4.96v5.22h4.43v5.24h-4.43v11.58h-7.18z"/><path d="m54.82 16.51v22.07h4.36v5.5h-11.51v-27.56z"/><path d="m79.89 16.51-3.66 27.56h-10.88l-4.15-27.56h7.57q1.3 11.39 1.86 19.27.56-7.95 1.17-14.14l.49-5.13z"/><path d="m94.89 16.51v27.56h-6.87v-14.77q0-3.19-.16-3.84-.16-.65-.86-.98-.68-.35-3.08-.35h-.65v-3.22q4.99-1.07 7.57-4.4z"/></g></svg>