<svg viewBox="0 0 126 84" xmlns="http://www.w3.org/2000/svg"><path d="m10.16 6.35a6.09 6.09 0 0 0 -4.34 1.8 6.23 6.23 0 0 0 -1.34 1.99c-.3.75-.46 1.55-.46 2.35v39.35h117.97v-39.35a6.16 6.16 0 0 0 -6.14-6.14z" fill="#d0d0d0" stroke="#898989"/><path d="m4.01 52.84v18.67a6.14 6.14 0 0 0 6.14 6.14h105.69c3.4 0 6.14-2.75 6.14-6.14v-18.67z" fill="#4e4e4e" stroke="#3a3a3a"/><path d="m27.03 57.71h3.4l3.48 9.69 3.47-9.69h3.4l-4.86 13.13h-4.02zm13.36 9.73h3.16v3.4h-3.15zm17.06 2.68q-.93.48-1.95.73t-2.1.24q-3.28 0-5.2-1.83-1.92-1.83-1.92-4.97 0-3.15 1.92-4.98 1.92-1.83 5.2-1.83 1.1 0 2.1.24t1.95.73v2.72q-.94-.64-1.86-.94-.91-.3-1.92-.3-1.81 0-2.85 1.16t-1.04 3.2q0 2.03 1.04 3.19 1.04 1.16 2.85 1.16 1 0 1.92-.3.92-.3 1.86-.94zm2.99-2.68h3.16v3.4h-3.16zm6.65-9.73h9.13v2.56h-5.75v2.44h5.4v2.56h-5.4v3h5.94v2.57h-9.31zm12.48 9.73h3.16v3.4h-3.16zm18.45 2.42q-1.27.62-2.63.92-1.36.31-2.81.31-3.28 0-5.2-1.83-1.91-1.83-1.91-4.97 0-3.17 1.95-5t5.34-1.81q1.31 0 2.5.24 1.21.25 2.27.73v2.72q-1.1-.63-2.18-.93-1.08-.31-2.17-.31-2.03 0-3.12 1.13-1.1 1.13-1.1 3.23 0 2.08 1.06 3.22 1.05 1.13 3 1.13.52 0 .97-.06.46-.07.82-.21v-2.55h-2.07v-2.27h5.28z" fill="#e6e6e6"/><path d="m40.54 16.55v27.49h-6.95v-11.55h-2.54v11.55h-6.95v-27.5h6.95v9.84h2.54v-9.84zm7.22 21.88v5.61h-5.17v-5.6zm16.67.92v4.7h-15.1v-3.93c4.47-7.31 7.13-11.84 7.97-13.57.85-1.74 1.28-3.1 1.28-4.09 0-.74-.13-1.29-.39-1.65-.25-.39-.64-.58-1.16-.58s-.91.21-1.16.62c-.26.41-.39 1.22-.39 2.43v2.61h-6.14v-1c0-1.55.08-2.75.25-3.62.15-.9.54-1.78 1.16-2.64.63-.87 1.44-1.52 2.43-1.96 1-.44 2.19-.67 3.58-.67 2.73 0 4.8.68 6.19 2.03 1.4 1.35 2.1 3.07 2.1 5.14 0 1.57-.4 3.24-1.19 4.99-.77 1.76-3.09 5.48-6.96 11.17zm19.15-15.51h-6.87c0-1.28-.01-2.08-.04-2.41-.03-.34-.16-.62-.41-.86-.24-.22-.57-.33-.99-.33-.36 0-.65.11-.87.32-.23.21-.36.49-.39.84-.04.34-.06 1.02-.06 2.04v4.4c.36-.73.87-1.29 1.55-1.65.68-.38 1.51-.57 2.51-.57 1.26 0 2.37.34 3.33 1.01.97.68 1.58 1.5 1.84 2.46.26.97.39 2.25.39 3.86v2.17c0 1.93-.08 3.37-.23 4.3-.14.94-.54 1.81-1.19 2.61-.63.8-1.5 1.42-2.62 1.86-1.11.44-2.41.67-3.9.67-1.84 0-3.35-.26-4.54-.77s-2.1-1.24-2.72-2.17c-.64-.97-1.01-1.98-1.13-3.04-.1-1.04-.14-3.08-.14-6.12v-3.81c0-3.28.05-5.46.14-6.55.1-1.11.49-2.16 1.17-3.14.7-.99 1.64-1.72 2.83-2.2 1.2-.51 2.59-.76 4.15-.76 1.92 0 3.5.31 4.74.93 1.23.63 2.11 1.51 2.65 2.64s.81 2.56.8 4.28zm-6.87 8.58c0-.97-.11-1.63-.32-2s-.57-.55-1.06-.55c-.47 0-.82.18-1.04.54-.22.34-.33 1.01-.33 2.03v4.97c0 1.21.1 2 .3 2.38.22.37.57.55 1.06.55.29 0 .59-.14.91-.42.32-.29.48-1.07.48-2.35zm22.1-3.96c1.04.35 1.82.93 2.32 1.74.51.79.77 2.66.77 5.59 0 2.19-.25 3.89-.74 5.1-.5 1.2-1.37 2.12-2.59 2.75s-2.79.94-4.7.94c-2.17 0-3.88-.36-5.13-1.09-1.24-.73-2.05-1.63-2.45-2.68-.39-1.06-.58-2.9-.58-5.51v-2.17h6.87v4.45c0 1.19.07 1.95.2 2.28.14.32.46.48.94.48.53 0 .88-.2 1.06-.61.17-.41.26-1.47.26-3.19v-1.9c0-1.06-.12-1.84-.36-2.32s-.59-.8-1.06-.94c-.46-.16-1.36-.26-2.7-.29v-3.97c1.63 0 2.64-.06 3.03-.19.39-.12.66-.39.83-.81s.26-1.07.26-1.97v-1.54c0-.97-.1-1.6-.3-1.9-.19-.31-.5-.46-.93-.46-.47 0-.8.16-.99.49-.15.31-.23 1-.23 2.06v2.26h-6.87v-2.35c0-2.63.6-4.4 1.81-5.32 1.2-.93 3.11-1.39 5.72-1.39 3.29 0 5.51.64 6.67 1.91 1.16 1.29 1.74 3.06 1.74 5.33 0 1.55-.21 2.66-.62 3.35-.42.68-1.15 1.3-2.2 1.88z" fill="#323232" stroke-width="1.45"/></svg>