<svg viewBox="0 0 126 84" xmlns="http://www.w3.org/2000/svg"><path d="m10.16 6.35a6.09 6.09 0 0 0 -4.34 1.8 6.23 6.23 0 0 0 -1.34 1.99c-.3.75-.46 1.55-.46 2.35v39.35h117.97v-39.35a6.16 6.16 0 0 0 -6.14-6.14z" fill="#d0d0d0" stroke="#898989"/><path d="m4.01 52.84v18.67a6.14 6.14 0 0 0 6.14 6.14h105.69c3.4 0 6.14-2.75 6.14-6.14v-18.67z" fill="#4e4e4e" stroke="#3a3a3a"/><path d="m26.45 58.43h3.38v5h5v-5h3.38v13.13h-3.39v-5.57h-4.99v5.57h-3.38zm15.25 9.73h3.16v3.4h-3.16zm6.65-9.73h9.13v2.57h-5.75v2.44h5.41v2.56h-5.4v3h5.94v2.57h-9.33zm12.48 9.73h3.17v3.4h-3.17zm5.09-9.73h3.4l3.48 9.69 3.47-9.69h3.4l-4.86 13.13h-4.03zm13.36 9.73h3.16v3.4h-3.16zm17.06 2.67q-.93.49-1.94.73t-2.11.25q-3.28 0-5.2-1.83-1.91-1.83-1.91-4.97 0-3.15 1.91-4.98 1.92-1.83 5.2-1.83 1.1 0 2.1.24t1.95.73v2.72q-.94-.64-1.86-.94-.91-.3-1.92-.3-1.81 0-2.85 1.16t-1.04 3.19q0 2.03 1.04 3.19t2.85 1.16q1.01 0 1.92-.3.92-.3 1.86-.94z" fill="#e6e6e6"/><path d="m40.36 16.55v27.51h-6.95v-11.56h-2.55v11.56h-6.94v-27.52h6.94v9.85h2.55v-9.85zm7.22 21.9v5.61h-5.16v-5.61zm16.69.91v4.7h-15.11v-3.93c4.48-7.32 7.13-11.84 7.98-13.57.85-1.74 1.28-3.1 1.28-4.09 0-.74-.13-1.3-.39-1.65-.25-.39-.64-.58-1.16-.58s-.91.21-1.16.62c-.26.41-.39 1.22-.39 2.44v2.61h-6.15v-1.01c0-1.55.08-2.76.25-3.63.15-.9.54-1.78 1.16-2.64.63-.87 1.44-1.52 2.44-1.96s2.19-.67 3.58-.67c2.74 0 4.8.68 6.19 2.03 1.4 1.35 2.1 3.07 2.1 5.15 0 1.58-.4 3.24-1.19 4.99-.77 1.76-3.09 5.49-6.96 11.18zm19.15-15.52h-6.87c0-1.28-.01-2.08-.04-2.41-.03-.34-.16-.62-.41-.86-.24-.22-.57-.33-.99-.33-.36 0-.65.11-.87.32-.23.21-.36.49-.39.84-.04.34-.06 1.02-.06 2.04v4.39c.36-.73.87-1.29 1.55-1.65.68-.38 1.51-.57 2.51-.57 1.26 0 2.37.34 3.34 1.01.97.68 1.58 1.5 1.84 2.47s.39 2.25.39 3.86v2.17c0 1.93-.08 3.37-.23 4.31-.14.94-.54 1.81-1.19 2.61-.63.8-1.5 1.42-2.62 1.86-1.11.44-2.41.67-3.9.67-1.84 0-3.35-.26-4.54-.77s-2.1-1.24-2.73-2.17c-.64-.97-1.01-1.98-1.13-3.05-.1-1.04-.14-3.08-.14-6.12v-3.81c0-3.28.05-5.46.14-6.55.1-1.11.49-2.16 1.17-3.15.7-.99 1.64-1.72 2.83-2.2 1.2-.5 2.58-.75 4.15-.75 1.92 0 3.5.31 4.74.93 1.23.63 2.11 1.51 2.65 2.64s.81 2.56.8 4.28zm-6.87 8.58c0-.97-.11-1.63-.32-2s-.57-.55-1.06-.55c-.47 0-.82.18-1.04.54-.22.34-.33 1.01-.33 2.03v4.97c0 1.21.1 2 .3 2.38.22.37.58.55 1.06.55.29 0 .59-.14.91-.42.32-.29.48-1.07.48-2.35zm24.2-15.88v4.39h-8.51v4.67c1.06-1.26 2.43-1.89 4.1-1.89 1.89 0 3.33.53 4.29 1.6.97 1.06 1.45 3.1 1.45 6.1v3.92c0 1.95-.1 3.39-.29 4.31-.17.91-.57 1.75-1.17 2.54-.62.77-1.47 1.37-2.57 1.78-1.09.41-2.43.61-4 .61-1.77 0-3.33-.3-4.67-.91-1.35-.63-2.31-1.55-2.87-2.77-.57-1.23-.86-3.12-.86-5.68v-1.49h6.87v1.73c0 1.78.06 3.04.19 3.78.12.74.55 1.12 1.29 1.12.34 0 .61-.11.81-.32.21-.21.32-.44.33-.7.03-.25.05-1.33.07-3.25v-5.45c0-1.03-.11-1.74-.32-2.1-.21-.38-.57-.57-1.07-.57-.32 0-.58.1-.8.29-.21.19-.36.4-.44.62-.05.22-.07.73-.07 1.54h-6.8l.29-13.86z" fill="#323232" stroke-width="1.45"/></svg>