<svg viewBox="0 0 126 84" xmlns="http://www.w3.org/2000/svg"><path d="m10.16 6.35a6.09 6.09 0 0 0 -4.34 1.8 6.23 6.23 0 0 0 -1.34 1.99c-.3.75-.46 1.55-.46 2.35v39.35h117.97v-39.35a6.16 6.16 0 0 0 -6.14-6.14z" fill="#d0d0d0" stroke="#898989"/><path d="m4.01 52.84v18.67a6.14 6.14 0 0 0 6.14 6.14h105.69c3.4 0 6.14-2.75 6.14-6.14v-18.67z" fill="#4e4e4e" stroke="#3a3a3a"/><path d="m27.03 57.71h3.4l3.48 9.69 3.47-9.69h3.4l-4.86 13.13h-4.02zm13.36 9.73h3.16v3.4h-3.15zm17.06 2.68q-.93.48-1.95.73t-2.1.24q-3.28 0-5.2-1.83-1.92-1.83-1.92-4.97 0-3.15 1.92-4.98 1.92-1.83 5.2-1.83 1.1 0 2.1.24t1.95.73v2.72q-.94-.64-1.86-.94-.91-.3-1.92-.3-1.81 0-2.85 1.16t-1.04 3.2q0 2.03 1.04 3.19 1.04 1.16 2.85 1.16 1 0 1.92-.3.92-.3 1.86-.94zm2.99-2.68h3.16v3.4h-3.16zm6.65-9.73h9.13v2.56h-5.75v2.44h5.4v2.56h-5.4v3h5.94v2.57h-9.31zm12.48 9.73h3.16v3.4h-3.16zm18.45 2.42q-1.27.62-2.63.92-1.36.31-2.81.31-3.28 0-5.2-1.83-1.91-1.83-1.91-4.97 0-3.17 1.95-5t5.34-1.81q1.31 0 2.5.24 1.21.25 2.27.73v2.72q-1.1-.63-2.18-.93-1.08-.31-2.17-.31-2.03 0-3.12 1.13-1.1 1.13-1.1 3.23 0 2.08 1.06 3.22 1.05 1.13 3 1.13.52 0 .97-.06.46-.07.82-.21v-2.55h-2.07v-2.27h5.28z" fill="#e6e6e6"/><path d="m43.22 16.55v27.52h-6.97v-11.56h-2.55v11.56h-6.93v-27.52h6.95v9.84h2.55v-9.84zm7.21 21.91v5.61h-5.18v-5.61zm16.7.91v4.7h-15.11v-3.92c4.47-7.33 7.13-11.86 7.98-13.59.84-1.74 1.26-3.1 1.26-4.08 0-.75-.13-1.31-.39-1.67-.25-.38-.64-.57-1.16-.57s-.91.2-1.16.61-.38 1.22-.38 2.44v2.61h-6.17v-1c0-1.55.08-2.76.25-3.63.15-.9.54-1.78 1.16-2.64s1.43-1.51 2.44-1.96c1.01-.44 2.21-.67 3.6-.67 2.73 0 4.79.68 6.18 2.03 1.4 1.35 2.1 3.07 2.1 5.15 0 1.58-.4 3.24-1.19 4.99-.77 1.76-3.09 5.49-6.95 11.19zm19.16-15.51h-6.86c0-1.29-.02-2.09-.06-2.42-.02-.34-.15-.62-.41-.86-.24-.22-.57-.33-.99-.33-.35 0-.64.11-.87.32s-.36.49-.39.84c-.03.34-.04 1.03-.04 2.06v4.38c.35-.74.86-1.29 1.54-1.65.68-.37 1.52-.55 2.52-.55 1.26 0 2.37.34 3.34 1.02s1.57 1.49 1.81 2.44.37 2.23.39 3.86v2.18c0 1.93-.07 3.37-.22 4.31-.15.95-.54 1.82-1.19 2.61-.64.8-1.52 1.42-2.64 1.86-1.11.44-2.41.67-3.89.67-1.85 0-3.36-.26-4.54-.77-1.17-.53-2.08-1.26-2.73-2.2-.63-.96-1-1.98-1.12-3.04-.09-1.05-.14-3.09-.14-6.12v-3.8c0-3.28.04-5.46.13-6.56.1-1.11.49-2.16 1.19-3.15.69-.99 1.62-1.72 2.81-2.21 1.2-.5 2.58-.75 4.15-.75 1.93 0 3.52.31 4.74.94 1.23.63 2.11 1.5 2.65 2.63.54 1.12.81 2.55.8 4.28zm-6.86 8.57c0-.97-.11-1.63-.33-2s-.57-.55-1.04-.54c-.48 0-.84.17-1.06.52-.21.34-.32 1.02-.32 2.03v4.98c0 1.21.1 2 .29 2.38.22.37.58.55 1.06.55.29 0 .6-.14.93-.42.32-.29.48-1.07.48-2.35zm19.8-15.88v27.52h-6.89v-14.75c0-2.13-.05-3.41-.15-3.84-.1-.44-.38-.76-.86-.97-.45-.22-1.47-.33-3.05-.33h-.7v-3.22c3.33-.72 5.85-2.18 7.57-4.4z" fill="#323232" stroke-width="1.45"/></svg>