<svg viewBox="0 0 126 84" xmlns="http://www.w3.org/2000/svg"><path d="m10.16 6.35a6.09 6.09 0 0 0 -4.34 1.8 6.23 6.23 0 0 0 -1.34 1.99c-.3.75-.46 1.55-.46 2.35v39.35h117.97v-39.35a6.16 6.16 0 0 0 -6.14-6.14z" fill="#d0d0d0" stroke="#898989"/><path d="m4.01 52.84v18.67a6.14 6.14 0 0 0 6.14 6.14h105.69c3.4 0 6.14-2.75 6.14-6.14v-18.67z" fill="#4e4e4e" stroke="#3a3a3a"/><path d="m15.64 59.89h3.34l2.33 5.46 2.33-5.46h3.35v10.2h-2.5v-7.46l-2.34 5.5h-1.67l-2.35-5.5v7.46h-2.5zm13.93 0h4.36q1.95 0 2.99.87 1.05.86 1.05 2.46t-1.05 2.47q-1.04.86-2.99.86h-1.73v3.54h-2.63zm2.63 1.9v2.85h1.44q.77 0 1.19-.36.41-.38.41-1.06t-.41-1.06q-.42-.37-1.19-.37zm7.63-1.9h7.1v1.99h-4.47v1.9h4.2v1.99h-4.2v2.33h4.62v2h-7.25zm18.73 9.44q-.98.48-2.04.72t-2.19.24q-2.55 0-4.04-1.42-1.49-1.43-1.49-3.87 0-2.47 1.52-3.88t4.16-1.42q1.01 0 1.94.2.94.19 1.77.56v2.11q-.86-.48-1.7-.72-.85-.24-1.7-.24-1.57 0-2.42.88-.85.88-.85 2.51 0 1.62.82 2.5.82.88 2.33.88.41 0 .76-.04.36-.06.64-.17v-1.97h-1.6v-1.76h4.1zm1.79-4.26h4.3v1.99h-4.3zm10.21-3.02-2.88 4.28h2.88zm-.44-2.16h2.93v6.44h1.45v1.9h-1.45v1.86h-2.49v-1.86h-4.53v-2.25zm8.62 0h1.52l-3.6 11.5h-1.52zm9 8.34h-4.12l-.65 1.86h-2.63l3.78-10.2h3.14l3.78 10.2h-2.65zm-3.46-1.89h2.8l-1.4-4.06zm5.93-6.45h2.65l2.7 7.53 2.7-7.53h2.65l-3.78 10.2h-3.14zm20.15 9.64q-.72.38-1.51.57-.79.2-1.64.2-2.55 0-4.04-1.43-1.5-1.43-1.5-3.87 0-2.45 1.5-3.87 1.49-1.43 4.04-1.43.85 0 1.64.2.79.19 1.51.56v2.11q-.73-.5-1.44-.73-.71-.23-1.5-.23-1.4 0-2.21.9t-.81 2.5q0 1.57.8 2.47t2.22.9q.79 0 1.5-.23.7-.23 1.44-.73z" fill="#e6e6e6"/><path d="m40.54 16.54v27.5h-6.95v-11.55h-2.54v11.55h-6.95v-27.5h6.95v9.85h2.54v-9.85zm7.22 21.91v5.6h-5.18v-5.6zm16.69.91v4.68h-15.11v-3.92c4.48-7.32 7.13-11.85 7.98-13.59s1.28-3.09 1.28-4.06c0-.75-.13-1.31-.39-1.68-.25-.37-.64-.55-1.16-.55s-.91.2-1.17.61c-.25.41-.38 1.21-.38 2.42v2.61h-6.15v-.99c0-1.55.08-2.76.23-3.64.16-.9.56-1.78 1.17-2.64.62-.86 1.43-1.51 2.44-1.96 1-.44 2.19-.65 3.58-.65 2.74 0 4.8.68 6.19 2.03 1.4 1.35 2.1 3.06 2.1 5.13 0 1.58-.4 3.24-1.19 5-.77 1.75-3.09 5.47-6.96 11.17zm19.14-15.52h-6.86c0-1.28-.01-2.08-.04-2.41-.03-.35-.17-.64-.42-.87-.23-.22-.56-.33-.99-.33-.35 0-.64.11-.87.33s-.36.5-.38.83c-.04.34-.06 1.02-.06 2.06v4.38c.36-.73.87-1.28 1.55-1.64.68-.38 1.51-.57 2.51-.57 1.26 0 2.37.34 3.34 1.02s1.58 1.49 1.84 2.45.39 2.24.38 3.86v2.19c0 1.93-.07 3.37-.22 4.31s-.54 1.81-1.19 2.61c-.63.79-1.5 1.41-2.62 1.86-1.11.44-2.41.66-3.9.66-1.84 0-3.35-.26-4.54-.77s-2.1-1.24-2.73-2.19c-.64-.97-1.02-1.98-1.13-3.03-.1-1.05-.15-3.1-.15-6.13v-3.8c0-3.29.05-5.48.15-6.57.1-1.11.49-2.16 1.17-3.15.7-.99 1.64-1.72 2.83-2.2 1.2-.49 2.59-.74 4.15-.74 1.92 0 3.5.31 4.74.93s2.12 1.5 2.64 2.64c.53 1.13.8 2.56.8 4.28zm-6.86 8.58c0-.98-.11-1.65-.32-2.02s-.57-.55-1.06-.54c-.48 0-.84.17-1.06.52-.21.34-.32 1.02-.32 2.03v4.97c0 1.21.1 2 .3 2.38.22.38.58.57 1.06.57.29 0 .59-.15.91-.44s.48-1.07.48-2.33zm23.22-15.88v17.98h1.96v4.68h-1.96v4.84h-6.88v-4.83h-8.15v-4.68l5.93-17.98zm-6.88 17.98v-11.72l-3.02 11.72z" fill="#323232" stroke-width="1.45"/></svg>