<svg height="84" viewBox="0 0 126 84" width="126" xmlns="http://www.w3.org/2000/svg"><path d="m10.16 6.35c-.81 0-1.61.16-2.35.47-.75.31-1.42.76-1.99 1.33s-1.03 1.25-1.34 1.99c-.3.75-.46 1.55-.46 2.35v39.35h117.97v-39.35c0-.8-.16-1.6-.47-2.35-.31-.74-.76-1.42-1.33-1.99s-1.25-1.02-1.99-1.33c-.75-.31-1.55-.47-2.35-.47z" fill="#d0d0d0" stroke="#898989"/><path d="m4.01 52.84v18.67c0 3.39 2.75 6.14 6.14 6.14h105.69c3.4 0 6.14-2.75 6.14-6.14v-18.67z" fill="#4e4e4e" stroke="#3a3a3a"/><g fill="#e6e6e6"><path d="m41.53 61.13h3.15v9.84h-3.15zm0-3.83h3.15v2.57h-3.15z"/><path d="m57.6 64.98v5.99h-3.16v-.98-3.61q0-1.27-.06-1.76-.05-.48-.19-.71-.18-.31-.5-.47-.32-.18-.72-.18-.98 0-1.55.76-.56.76-.56 2.1v4.84h-3.15v-9.84h3.15v1.44q.71-.86 1.51-1.27.8-.41 1.77-.41 1.71 0 2.58 1.05.89 1.05.89 3.04z"/><path d="m63.95 58.33v2.79h3.24v2.25h-3.24v4.17q0 .69.27.93.27.24 1.08.24h1.62v2.25h-2.7q-1.86 0-2.65-.77-.77-.78-.77-2.65v-4.16h-1.56v-2.25h1.56v-2.79z"/><path d="m78.95 66.02v.9h-7.36q.11 1.11.8 1.66.69.55 1.92.55.99 0 2.03-.29 1.05-.3 2.14-.9v2.43q-1.12.42-2.23.63-1.12.22-2.23.22-2.67 0-4.16-1.35-1.48-1.36-1.48-3.81 0-2.41 1.45-3.79 1.46-1.38 4.01-1.38 2.32 0 3.71 1.4 1.4 1.4 1.4 3.74zm-3.23-1.05q0-.9-.53-1.44-.52-.55-1.36-.55-.91 0-1.49.52-.57.51-.71 1.48z"/><path d="m81.33 57.29h3.15v13.68h-3.15z"/></g><g fill="#323232"><path d="m32.39 15.36v28.51h-7.42v-28.51z"/><path d="m41.4 38.06v5.81h-5.37v-5.81z"/><path d="m60.18 39v4.87h-15.67v-4.07q6.96-11.38 8.27-14.07 1.33-2.72 1.33-4.22 0-1.16-.41-1.74-.39-.58-1.21-.58-.82 0-1.21.63-.39.63-.39 2.53v2.72h-6.39v-1.04q0-2.39.24-3.76.24-1.4 1.21-2.72.96-1.35 2.53-2.02 1.54-.7 3.71-.7 4.24 0 6.41 2.12 2.19 2.1 2.19 5.33 0 2.46-1.23 5.18-1.21 2.72-7.21 11.59z"/><path d="m81.53 22.92h-7.11q0-2-.05-2.51-.02-.53-.43-.89-.36-.36-1.01-.36-.55 0-.89.34-.36.34-.41.87-.05.53-.05 2.12v4.55q.55-1.16 1.61-1.71 1.06-.58 2.6-.58 1.95 0 3.45 1.06 1.49 1.06 1.9 2.53.41 1.47.41 4v2.27q0 2.99-.24 4.46-.24 1.47-1.23 2.72-.99 1.23-2.72 1.93-1.74.7-4.02.7-2.87 0-4.7-.8-1.83-.8-2.84-2.27-.99-1.49-1.16-3.13-.17-1.64-.17-6.36v-3.95q0-5.09.14-6.8.17-1.74 1.23-3.25 1.08-1.54 2.92-2.29 1.86-.77 4.29-.77 2.99 0 4.92.96 1.93.96 2.75 2.72.82 1.76.82 4.43zm-7.11 8.89q0-1.52-.34-2.07-.34-.55-1.08-.55-.75 0-1.08.55-.34.53-.34 2.1v5.13q0 1.88.31 2.46.34.58 1.08.58.46 0 .94-.43.48-.46.48-2.43z"/><path d="m98.86 27.72q1.61.55 2.41 1.81.8 1.23.8 5.81 0 3.4-.77 5.28-.77 1.86-2.68 2.84-1.9.96-4.87.96-3.37 0-5.33-1.13-1.93-1.16-2.53-2.77-.6-1.66-.6-5.74v-2.27h7.11v4.63q0 1.86.22 2.36.24.48.99.48.82 0 1.08-.63.27-.63.27-3.3v-1.95q0-1.64-.36-2.39-.36-.75-1.08-.99-.72-.24-2.8-.29v-4.15q2.53 0 3.13-.19.6-.19.87-.84.27-.65.27-2.05v-1.59q0-1.49-.31-1.98-.29-.48-.94-.48-.75 0-1.01.51-.27.48-.27 2.12v2.34h-7.11v-2.43q0-4.1 1.86-5.52 1.86-1.45 5.93-1.45 5.09 0 6.92 2 1.81 2 1.81 5.54 0 2.39-.65 3.47-.65 1.06-2.29 1.93z"/></g></svg>