<svg height="84" viewBox="0 0 126 84" width="126" xmlns="http://www.w3.org/2000/svg"><path d="m10.16 6.35c-.81 0-1.61.16-2.35.47-.75.31-1.42.76-1.99 1.33s-1.03 1.25-1.34 1.99c-.3.75-.46 1.55-.46 2.35v39.35h117.97v-39.35c0-.8-.16-1.6-.47-2.35-.31-.74-.76-1.42-1.33-1.99s-1.25-1.02-1.99-1.33c-.75-.31-1.55-.47-2.35-.47z" fill="#d0d0d0" stroke="#898989"/><path d="m4.01 52.84v18.67c0 3.39 2.75 6.14 6.14 6.14h105.69c3.4 0 6.14-2.75 6.14-6.14v-18.67z" fill="#4e4e4e" stroke="#3a3a3a"/><g fill="#e6e6e6"><path d="m25.89 59.31h3.02l3.09 8.61 3.09-8.61h3.02l-4.32 11.66h-3.59z"/><path d="m44.4 59.31h3.01v11.66h-3.01z"/><path d="m58.1 61.58v7.12h1.08q1.84 0 2.81-.91.98-.91.98-2.66 0-1.73-.97-2.64-.97-.91-2.82-.91zm-3.01-2.27h3.17q2.66 0 3.95.38 1.3.38 2.23 1.28.82.79 1.22 1.82.4 1.03.4 2.34 0 1.32-.4 2.36-.4 1.03-1.22 1.82-.94.91-2.25 1.29-1.31.38-3.94.38h-3.17z"/><path d="m73.12 59.31h8.12v2.27h-5.11v2.17h4.8v2.27h-4.8v2.67h5.28v2.27h-8.29z"/><path d="m94.11 61.27q-1.38 0-2.13 1.02-.76 1.02-.76 2.86 0 1.84.76 2.85.76 1.02 2.13 1.02 1.38 0 2.14-1.02.76-1.02.76-2.85 0-1.84-.76-2.86-.76-1.02-2.14-1.02zm0-2.18q2.81 0 4.41 1.61 1.59 1.61 1.59 4.45 0 2.83-1.59 4.44-1.59 1.61-4.41 1.61-2.8 0-4.41-1.61-1.59-1.61-1.59-4.44 0-2.84 1.59-4.45 1.6-1.61 4.41-1.61z"/></g><g fill="#323232" stroke-width=".42"><path d="m39.88 15.36v19.06q0 4.29-.1 5.52-.1 1.21-.82 2.19-.7.99-1.93 1.37-1.21.36-3.69.36h-3.71v-4.99q.67.05.96.05.8 0 1.25-.39.46-.39.53-.94.07-.55.07-2.19v-20.08z"/><path d="m44.25 15.36h7.47q3.04 0 4.65.48 1.64.48 2.46 1.37.82.89 1.11 2.19.29 1.28.29 3.95v2.48q0 2.72-.55 3.98-.55 1.25-2.07 1.93-1.49.67-3.93.67h-2v11.45h-7.42zm7.42 4.87v7.25q.31.02.55.02 1.01 0 1.4-.48.41-.51.41-2.1v-2.34q0-1.47-.46-1.9-.46-.43-1.9-.43z"/><path d="m63.86 15.36h12.36v5.71h-4.94v5.4h4.63v5.42h-4.63v6.27h5.45v5.71h-12.87z"/><path d="m97.39 25.84h-7.42v-2.58q0-2.46-.22-3.06-.22-.63-1.01-.63-.7 0-.94.53-.24.53-.24 2.72v13.69q0 1.93.24 2.53.24.6.99.6.82 0 1.08-.7.29-.7.29-2.68v-3.37h-1.49v-4.34h8.68v15.3h-4.68l-.7-2.05q-.75 1.33-1.93 2-1.16.65-2.72.65-1.86 0-3.49-.89-1.61-.92-2.46-2.27-.84-1.35-1.06-2.8-.22-1.47-.22-4.41v-8.48q0-4.1.43-5.93.43-1.86 2.53-3.37 2.1-1.54 5.4-1.54 3.25 0 5.4 1.35 2.14 1.35 2.8 3.18.65 1.83.65 5.33z"/></g></svg>