<svg height="84" viewBox="0 0 126 84" width="126" xmlns="http://www.w3.org/2000/svg"><path d="m10.16 6.35c-.81 0-1.61.16-2.35.47-.75.31-1.42.76-1.99 1.33s-1.03 1.25-1.34 1.99c-.3.75-.46 1.55-.46 2.35v39.35h117.97v-39.35c0-.8-.16-1.6-.47-2.35-.31-.74-.76-1.42-1.33-1.99s-1.25-1.02-1.99-1.33c-.75-.31-1.55-.47-2.35-.47z" fill="#d0d0d0" stroke="#898989"/><path d="m4.01 52.84v18.67c0 3.39 2.75 6.14 6.14 6.14h105.69c3.4 0 6.14-2.75 6.14-6.14v-18.67z" fill="#4e4e4e" stroke="#3a3a3a"/><g fill="#e6e6e6"><path d="m25.89 59.31h3.02l3.09 8.61 3.09-8.61h3.02l-4.32 11.66h-3.59z"/><path d="m44.4 59.31h3.01v11.66h-3.01z"/><path d="m58.1 61.58v7.12h1.08q1.84 0 2.81-.91.98-.91.98-2.66 0-1.73-.97-2.64-.97-.91-2.82-.91zm-3.01-2.27h3.17q2.66 0 3.95.38 1.3.38 2.23 1.28.82.79 1.22 1.82.4 1.03.4 2.34 0 1.32-.4 2.36-.4 1.03-1.22 1.82-.94.91-2.25 1.29-1.31.38-3.94.38h-3.17z"/><path d="m73.12 59.31h8.12v2.27h-5.11v2.17h4.8v2.27h-4.8v2.67h5.28v2.27h-8.29z"/><path d="m94.11 61.27q-1.38 0-2.13 1.02-.76 1.02-.76 2.86 0 1.84.76 2.85.76 1.02 2.13 1.02 1.38 0 2.14-1.02.76-1.02.76-2.85 0-1.84-.76-2.86-.76-1.02-2.14-1.02zm0-2.18q2.81 0 4.41 1.61 1.59 1.61 1.59 4.45 0 2.83-1.59 4.44-1.59 1.61-4.41 1.61-2.8 0-4.41-1.61-1.59-1.61-1.59-4.44 0-2.84 1.59-4.45 1.6-1.61 4.41-1.61z"/></g><g fill="#323232"><path d="m36.29 18.54v25.33h-5.76v-17.11l-2.29 17.11h-4.1l-2.41-16.73v16.73h-5.76v-25.33h8.53q.39 2.29.8 5.37l.92 6.46 1.49-11.83z"/><path d="m48.01 31.31v4.36h-8.31v-4.36z"/><path d="m59.45 18.54v16.94q0 3.81-.07 4.89-.07 1.08-.72 1.95-.63.87-1.71 1.23-1.11.31-3.3.31h-3.3v-4.43q.6.05.87.05.7 0 1.11-.34.41-.34.46-.84.07-.51.07-1.95v-17.83z"/><path d="m63.5 18.54h6.63q2.7 0 4.12.43 1.45.43 2.17 1.23.75.8.99 1.95.27 1.13.27 3.49v2.22q0 2.43-.51 3.54-.51 1.11-1.86 1.71-1.33.6-3.49.6h-1.76v10.15h-6.58zm6.58 4.34v6.46q.29.02.48.02.92 0 1.25-.43.36-.46.36-1.86v-2.12q0-1.3-.41-1.69-.41-.39-1.69-.39z"/><path d="m81.09 18.54h10.99v5.06h-4.39v4.8h4.12v4.82h-4.12v5.57h4.84v5.09h-11.42z"/><path d="m111.03 27.87h-6.58v-2.29q0-2.17-.19-2.72-.19-.55-.89-.55-.6 0-.82.46-.22.46-.22 2.41v12.17q0 1.71.22 2.27.22.53.87.53.72 0 .96-.6.27-.6.27-2.39v-3.04h-1.33v-3.83h7.71v13.59h-4.15l-.6-1.81q-.67 1.18-1.71 1.76-1.01.58-2.41.58-1.66 0-3.11-.8-1.45-.82-2.19-2-.75-1.18-.94-2.48-.19-1.33-.19-3.93v-7.54q0-3.64.39-5.28.39-1.64 2.24-3.01 1.86-1.37 4.8-1.37 2.89 0 4.8 1.18 1.9 1.18 2.48 2.84.58 1.64.58 4.75z"/></g></svg>