<svg viewBox="0 0 126 84" xmlns="http://www.w3.org/2000/svg"><path d="m10.16 6.35a6.09 6.09 0 0 0 -4.34 1.8 6.23 6.23 0 0 0 -1.34 1.99c-.3.75-.46 1.55-.46 2.35v39.35h117.97v-39.35a6.16 6.16 0 0 0 -6.14-6.14z" fill="#d0d0d0" stroke="#898989"/><path d="m4.01 52.84v18.67a6.14 6.14 0 0 0 6.14 6.14h105.69c3.4 0 6.14-2.75 6.14-6.14v-18.67z" fill="#4e4e4e" stroke="#3a3a3a"/><path d="m15.38 60.2h3.35l2.33 5.46 2.34-5.46h3.34v10.2h-2.49v-7.46l-2.35 5.5h-1.67l-2.35-5.5v7.46h-2.5zm13.94 0h4.36q1.95 0 3 .87 1.04.86 1.04 2.46t-1.05 2.47q-1.04.86-2.99.86h-1.73v3.54h-2.63zm2.63 1.9v2.86h1.45q.77 0 1.19-.37.41-.38.41-1.06 0-.69-.41-1.06t-1.19-.36zm7.63-1.9h7.1v1.99h-4.48v1.9h4.2v1.99h-4.2v2.33h4.62v2h-7.25zm18.73 9.45q-.98.47-2.04.71t-2.19.24q-2.55 0-4.04-1.42-1.49-1.43-1.49-3.87 0-2.47 1.52-3.88 1.52-1.43 4.16-1.43 1.01 0 1.94.2.94.19 1.77.56v2.12q-.86-.49-1.7-.73t-1.7-.24q-1.56 0-2.42.88-.85.88-.85 2.51 0 1.62.82 2.5.82.89 2.33.89.41 0 .76-.05.36-.06.64-.17v-1.97h-1.6v-1.76h4.1zm1.79-4.27h4.3v1.99h-4.3zm10.21-3.01-2.88 4.27h2.88zm-.44-2.17h2.93v6.44h1.46v1.9h-1.46v1.86h-2.5v-1.86h-4.5v-2.24zm8.63 0h1.5l-3.6 11.5h-1.5zm8.99 8.35h-4.12l-.64 1.85h-2.65l3.78-10.2h3.14l3.78 10.2h-2.65zm-3.46-1.9h2.8l-1.4-4.06zm15.2-6.13v2.16q-.84-.38-1.64-.57-.8-.19-1.5-.19-.95 0-1.4.26-.45.26-.45.8 0 .42.3.65.3.23 1.1.39l1.13.23q1.7.34 2.42 1.03.71.7.71 1.99 0 1.69-1 2.51-1 .82-3.06.82-.97 0-1.94-.18-.98-.19-1.96-.55v-2.22q.98.52 1.89.79.91.26 1.76.26.86 0 1.32-.3.46-.28.46-.81 0-.48-.32-.74-.3-.26-1.23-.46l-1.02-.23q-1.53-.33-2.24-1.05-.7-.71-.7-1.93 0-1.53.98-2.35.98-.82 2.83-.82.84 0 1.73.13.88.13 1.83.38zm2.98-.32h4.37q1.95 0 2.99.87 1.04.86 1.04 2.46t-1.04 2.47q-1.04.86-3 .86h-1.73v3.54h-2.63zm2.63 1.9v2.86h1.46q.76 0 1.18-.37.42-.38.42-1.06 0-.69-.42-1.06-.42-.36-1.18-.36z" fill="#e6e6e6"/><path d="m38.45 27.68q1.56.52 2.31 1.73.76 1.17.76 5.57 0 3.24-.73 5.05-.73 1.79-2.57 2.74-1.81.93-4.67.93-3.24 0-5.1-1.08-1.84-1.1-2.44-2.68-.56-1.58-.56-5.49v-2.16h6.8v4.45q0 1.77.22 2.25.22.48.95.48.78 0 1.04-.6t.26-3.18v-1.88q0-1.58-.37-2.31-.35-.71-1.04-.93-.69-.24-2.68-.28v-3.95q2.42 0 3-.19t.82-.8q.26-.65.26-1.97v-1.51q0-1.45-.3-1.9-.3-.45-.93-.45-.69 0-.97.5-.26.48-.26 2.03v2.25h-6.8v-2.33q0-3.91 1.79-5.27 1.77-1.38 5.68-1.38 4.88 0 6.61 1.9 1.73 1.9 1.73 5.29 0 2.31-.6 3.33-.65 1.02-2.2 1.86zm18.66-11.84v3.56h-7.02v-3.56zm0 4.92v22.4h-7.02v-22.4zm22.59 0-3.2 22.38h-8.9l-3.41-22.38h6.09l1.9 16.33q.22-1.79.73-8.77.3-3.89.69-7.56zm20.61 0-2.72 10.69 3.28 11.71h-6.61q-.97-4.43-1.49-7.62-.67 4-1.47 7.62h-5.7l2.94-11.71-2.94-10.69h5.7q1.38 6.85 1.47 7.78.99-5.72 1.49-7.78z" fill="#323232" stroke-width="2.16"/></svg>