<svg viewBox="0 0 126 84" xmlns="http://www.w3.org/2000/svg"><path d="m10.2 6.3a6 6 0 0 0 -4.4 1.8 6.2 6.2 0 0 0 -1.3 2c-.3.8-.5 1.6-.5 2.4v39.3h118v-39.3a6.2 6.2 0 0 0 -6.2-6.1z" fill="#d0d0d0" stroke="#898989"/><path d="m4 52.8v18.7a6.1 6.1 0 0 0 6.1 6.2h105.7c3.4 0 6.2-2.8 6.2-6.2v-18.7z" fill="#4e4e4e" stroke="#3a3a3a"/><path d="m26 58.4h3.3l3.5 9.7 3.5-9.7h3.4l-4.9 13.2h-4zm18.4 0h3.4v13.2h-3.4zm13 2.6v8h1.3q2 0 3.2-1 1-1 1-3t-1-3-3.2-1zm-3.3-2.6h3.6q3 0 4.4.5 1.5.4 2.5 1.4 1 .9 1.4 2 .4 1.2.4 2.7 0 1.5-.4 2.6-.4 1.2-1.4 2-1 1.1-2.5 1.5-1.5.5-4.4.5h-3.7zm18 0h9v2.6h-5.7v2.4h5.4v2.6h-5.4v3h6v2.6h-9.4zm21.2 2.3q-1.5 0-2.4 1t-.8 3.3q0 2 .8 3.2t2.4 1.2q1.6 0 2.4-1.2t.9-3.2q0-2-.8-3.2t-2.5-1.2zm0-2.5q3.2 0 5 1.8 1.8 1.8 1.8 5t-1.8 5q-1.8 1.8-5 1.8t-5-1.8q-1.7-1.8-1.7-5t1.8-5q1.8-1.8 5-1.8z" fill="#e6e6e6"/><g fill="#323232"><g stroke-width=".3"><path d="m69.5 34.2a6.8 6.8 0 0 1 -3 3c-1.2.5-2.8.8-4.6.8-2.7 0-4.6-.6-5.8-1.8a6.3 6.3 0 0 1 -1.7-4.4 7.8 7.8 0 0 1 3-6.2 7.6 7.6 0 0 1 2.7-1.5 12 12 0 0 1 3-.4c2.6 0 4.5.6 5.6 1.7a5.5 5.5 0 0 1 1.7 4l-.4 2.8h-10.4c.1 1.9 1 2.8 2.4 2.8a3 3 0 0 0 2.5-1.3zm-4.4-4.5.1-.8c0-.7-.2-1.2-.6-1.6a2.3 2.3 0 0 0 -1.5-.5 2.6 2.6 0 0 0 -1.8.7c-.6.5-1 1.2-1.2 2.2z"/><path d="m43.4 17.9c-1 0-1.8.2-2.6.5s-1.7 1-2.7 1.8a3.1 3.1 0 0 0 -1.4-1.7 4.3 4.3 0 0 0 -2.3-.6 7 7 0 0 0 -5 2.3l.4-2h-5l-2.8 13.7h5.3l1.4-6.6a5.3 5.3 0 0 1 1.3-2.8c.6-.5 1.2-.8 1.7-.8.7 0 1 .4 1 1v.7l-.5 2.7-1.3 5.8h5.3l1.3-6a7.5 7.5 0 0 1 1.2-3.2c.5-.6 1.2-1 2-1 .7 0 1 .4 1 1.1v.6l-.7 2.6-1.3 6-2.3 11h5.2l1.5-7a4.9 4.9 0 0 0 4.4 2.2c1.9 0 3.4-.9 4.7-2.6a10.2 10.2 0 0 0 1.8-6c0-1.8-.4-3.2-1.2-4.2s-2-1.6-3.6-1.6a6 6 0 0 0 -2.1.4 6.2 6.2 0 0 0 -1.6 1l.5-2.2.1-1.6a3 3 0 0 0 -1-2.4c-.5-.7-1.4-1-2.7-1zm33.3 5.8c-2 0-3.7.8-5 2.4a8.6 8.6 0 0 0 -1.4 2.5v.9c0 .5 0 1.4-.3 2.7h-.2a5.7 5.7 0 0 0 1.2 3.5 4.1 4.1 0 0 0 3.3 1.5 5.5 5.5 0 0 0 4.1-1.8l-.4 2.1c-.2.9-.5 1.6-1 2a2.1 2.1 0 0 1 -1.5.7c-1 0-1.5-.5-1.6-1.5l-5-.7v.7c0 1 .3 1.8 1 2.6a4.4 4.4 0 0 0 2.2 1.6c.8.2 2 .4 3.6.4 2.3 0 4-.4 5.1-1.3 1.2-.8 2-2.5 2.6-5.1l2.6-12.8h-4.9l-.4 1.9a5 5 0 0 0 -4.1-2.3zm-30.3 1.5-.1.1zm1.7 2c.5 0 .9.2 1.3.5s.5 1 .5 1.8c0 1.4-.3 2.6-.8 3.6s-1.2 1.4-2 1.4a2 2 0 0 1 -1.4-.6c-.4-.3-.6-1-.6-1.8a10.5 10.5 0 0 1 0-.7l.4-1.7c0-.3.2-.6.4-.9.5-1 1.2-1.6 2.2-1.6zm29.8 0c.5 0 .9.2 1.3.6.3.3.5.8.5 1.4a7 7 0 0 1 -.8 3c-.5 1-1.2 1.5-2.2 1.5a1.8 1.8 0 0 1 -1.3-.6 2.2 2.2 0 0 1 -.5-1.5c0-1 .3-2.1.9-3 .6-1 1.3-1.4 2-1.4z"/></g><path d="m103.8 46.4h-4l1.2-7.1h-5.8l-1.3 7h-4l3-17h4l-1.2 6.8h5.9l1.1-6.8h4z"/></g></svg>