<svg viewBox="0 0 126 84" xmlns="http://www.w3.org/2000/svg"><path d="m10.16 6.35a6.09 6.09 0 0 0 -4.34 1.8 6.23 6.23 0 0 0 -1.34 1.99c-.3.75-.46 1.55-.46 2.35v39.35h117.97v-39.35a6.16 6.16 0 0 0 -6.14-6.14z" fill="#d0d0d0" stroke="#898989"/><path d="m4.01 52.84v18.67a6.14 6.14 0 0 0 6.14 6.14h105.69c3.4 0 6.14-2.75 6.14-6.14v-18.67z" fill="#4e4e4e" stroke="#3a3a3a"/><path d="m44.95 22.42-2.55 10 3.07 10.95h-6.2q-.91-4.14-1.39-7.13-.61 3.74-1.37 7.13h-5.33l2.75-10.95-2.75-10h5.33q1.29 6.4 1.37 7.27.93-5.35 1.41-7.27zm15.13 16.58v4.36h-14.04v-3.64q6.24-10.2 7.41-12.63 1.17-2.42 1.17-3.78 0-1.05-.36-1.56-.34-.53-1.07-.53t-1.09.57q-.34.59-.34 2.26v2.42h-5.72v-.93q0-2.14.22-3.37.22-1.25 1.09-2.42.87-1.21 2.26-1.82 1.39-.63 3.33-.63 3.8 0 5.74 1.9 1.96 1.86 1.96 4.75 0 2.2-1.11 4.65-1.09 2.44-6.46 10.38zm17.78-14.4h-6.36q0-1.78-.06-2.22-.02-.48-.36-.81-.34-.32-.93-.32-.48 0-.81.3-.3.3-.36.77-.04.48-.04 1.92v4.08q.48-1.03 1.43-1.54.95-.53 2.34-.53 1.76 0 3.09.95t1.7 2.26q.36 1.33.36 3.6v2.02q0 2.69-.2 4-.2 1.31-1.11 2.42-.87 1.11-2.42 1.74-1.56.61-3.64.61-2.57 0-4.2-.71t-2.55-2.02q-.89-1.35-1.03-2.83-.16-1.47-.16-5.7v-3.54q0-4.57.14-6.08.14-1.56 1.09-2.93.97-1.37 2.63-2.06 1.68-.69 3.84-.69 2.71 0 4.42.87 1.72.87 2.46 2.44.73 1.58.73 3.98zm-6.36 7.98q0-1.37-.3-1.88t-.99-.51q-.65 0-.97.51-.3.46-.3 1.88v4.61q0 1.7.28 2.22.3.53.99.53.4 0 .85-.4.44-.4.44-2.18zm21.55-14.77v16.71h1.82v4.34h-1.82v4.5h-6.38v-4.52h-7.55v-4.34l5.51-16.71zm-6.38 16.71v-10.89l-2.81 10.89z" fill="#323232" stroke-width="2.02"/><path d="m15.64 60.51h3.34l2.33 5.46 2.33-5.46h3.35v10.2h-2.5v-7.46l-2.34 5.5h-1.67l-2.35-5.5v7.46h-2.5zm13.93 0h4.36q1.95 0 2.99.87 1.05.86 1.05 2.46t-1.05 2.47q-1.04.86-2.99.86h-1.73v3.54h-2.63zm2.63 1.9v2.85h1.44q.77 0 1.19-.36.41-.38.41-1.06t-.41-1.06q-.42-.37-1.19-.37zm7.63-1.9h7.1v1.99h-4.47v1.9h4.2v1.99h-4.2v2.33h4.62v2h-7.25zm18.73 9.44q-.98.48-2.04.72t-2.19.24q-2.55 0-4.04-1.42-1.49-1.43-1.49-3.87 0-2.47 1.52-3.88t4.16-1.42q1.01 0 1.94.2.94.19 1.77.56v2.11q-.86-.48-1.7-.72-.85-.24-1.7-.24-1.57 0-2.42.88-.85.88-.85 2.51 0 1.62.82 2.5.82.88 2.33.88.41 0 .76-.04.36-.06.64-.17v-1.97h-1.6v-1.76h4.1zm1.79-4.26h4.3v1.99h-4.3zm10.21-3.02-2.88 4.28h2.88zm-.44-2.16h2.93v6.44h1.45v1.9h-1.45v1.86h-2.49v-1.86h-4.53v-2.25zm8.62 0h1.52l-3.6 11.5h-1.52zm9 8.34h-4.12l-.65 1.86h-2.63l3.78-10.2h3.14l3.78 10.2h-2.65zm-3.46-1.89h2.8l-1.4-4.06zm5.93-6.45h2.65l2.7 7.53 2.7-7.53h2.65l-3.78 10.2h-3.14zm20.15 9.64q-.72.38-1.51.57-.79.2-1.64.2-2.55 0-4.04-1.43-1.5-1.43-1.5-3.87 0-2.45 1.5-3.87 1.49-1.43 4.04-1.43.85 0 1.64.2.79.19 1.51.56v2.11q-.73-.5-1.44-.73-.71-.23-1.5-.23-1.4 0-2.21.9t-.81 2.5q0 1.57.8 2.47t2.22.9q.79 0 1.5-.23.7-.23 1.44-.73z" fill="#e6e6e6"/></svg>