<svg viewBox="0 0 126 84" xmlns="http://www.w3.org/2000/svg"><path d="m10.16 6.35a6.09 6.09 0 0 0 -4.34 1.8 6.23 6.23 0 0 0 -1.34 1.99c-.3.75-.46 1.55-.46 2.35v39.35h117.97v-39.35a6.16 6.16 0 0 0 -6.14-6.14z" fill="#d0d0d0" stroke="#898989"/><path d="m4.01 52.84v18.67a6.14 6.14 0 0 0 6.14 6.14h105.69c3.4 0 6.14-2.75 6.14-6.14v-18.67z" fill="#4e4e4e" stroke="#3a3a3a"/><path d="m25.91 58.43h3.4l3.48 9.69 3.48-9.69h3.4l-4.87 13.13h-4.04zm18.49 0h3.4v13.13h-3.4zm13.09 2.57v8h1.21q2.08 0 3.17-1.03 1.1-1.03 1.1-2.99 0-1.95-1.1-2.97t-3.17-1.02zm-3.38-2.57h3.56q3 0 4.45.43 1.47.43 2.51 1.45.93.88 1.38 2.04.44 1.16.44 2.63 0 1.49-.44 2.66-.45 1.16-1.38 2.04-1.05 1.02-2.53 1.45-1.47.43-4.43.43h-3.56zm17.94 0h9.13v2.57h-5.75v2.44h5.4v2.56h-5.4v3h5.94v2.57h-9.32zm21.29 2.22q-1.55 0-2.4 1.14t-.85 3.22q0 2.06.85 3.2t2.4 1.15q1.55 0 2.4-1.14t.86-3.22q0-2.08-.85-3.22t-2.41-1.14zm0-2.45q3.16 0 4.95 1.8 1.8 1.82 1.8 5 0 3.19-1.8 5-1.79 1.81-4.95 1.81t-4.96-1.8q-1.8-1.82-1.8-5 0-3.2 1.8-5 1.8-1.81 4.96-1.81z" fill="#e6e6e6"/><g fill="#323232" stroke-width="1.13"><path d="m69.34 34.12a6.73 6.73 0 0 1 -2.98 2.93 10.62 10.62 0 0 1 -4.63.9c-2.68 0-4.59-.61-5.72-1.83a6.25 6.25 0 0 1 -1.71-4.44 7.8 7.8 0 0 1 2.95-6.15 7.49 7.49 0 0 1 2.69-1.47 10.99 10.99 0 0 1 3.1-.38c2.55 0 4.37.55 5.47 1.66a5.49 5.49 0 0 1 1.66 4.07c0 .53-.11 1.45-.35 2.75h-10.4c.15 1.82.96 2.72 2.46 2.72 1.01 0 1.81-.4 2.42-1.23zm-4.36-4.51c.06-.19.09-.45.09-.79 0-.68-.21-1.21-.62-1.56a2.29 2.29 0 0 0 -1.55-.54c-.63 0-1.23.26-1.76.73a4.37 4.37 0 0 0 -1.23 2.15z"/><path d="m43.33 17.85a6.67 6.67 0 0 0 -2.6.51 9.27 9.27 0 0 0 -2.7 1.82 3.07 3.07 0 0 0 -1.36-1.72 4.25 4.25 0 0 0 -2.27-.61c-1.88 0-3.55.78-5.05 2.34l-.06-.07.43-1.95h-4.87l-2.93 13.65h5.27l1.4-6.55a5.25 5.25 0 0 1 1.31-2.77c.59-.54 1.15-.81 1.67-.81.71 0 1.05.34 1.05 1.04 0 .15 0 .35-.03.63-.05.31-.24 1.21-.55 2.73l-1.24 5.72h5.27l1.29-6.06a7.63 7.63 0 0 1 1.21-3.08 2.35 2.35 0 0 1 1.94-.98c.68 0 .99.36.99 1.07 0 .1-.01.31-.05.59-.05.28-.2 1.15-.53 2.64l-1.25 5.82-2.37 11.04h5.25l1.51-7.03a4.89 4.89 0 0 0 4.33 2.15 5.54 5.54 0 0 0 4.66-2.58 10.12 10.12 0 0 0 1.84-6.06 6.44 6.44 0 0 0 -1.21-4.12 4.29 4.29 0 0 0 -3.54-1.53c-.82 0-1.54.11-2.14.36-.47.18-1.02.53-1.62 1.03l.47-2.21c.11-.53.18-1.07.18-1.62 0-.94-.32-1.74-.94-2.4-.61-.64-1.54-.99-2.77-.99zm33.15 5.83c-2 0-3.64.8-4.95 2.41a8.53 8.53 0 0 0 -1.42 2.49c.05.27.06.55.06.84 0 .53-.11 1.45-.35 2.75h-.21a5.63 5.63 0 0 0 1.24 3.48 4.07 4.07 0 0 0 3.31 1.48c1.55 0 2.89-.6 4.06-1.81l.03.05-.44 2.05a4.01 4.01 0 0 1 -.94 1.99c-.41.43-.93.66-1.57.66-.96 0-1.47-.45-1.53-1.39l-4.97-.7c-.02.11-.02.33-.02.62 0 .94.29 1.8.92 2.6.62.81 1.36 1.33 2.21 1.59s2.08.38 3.63.38c2.23 0 3.92-.43 5.09-1.27 1.16-.85 2.02-2.54 2.55-5.09l2.71-12.8h-4.85l-.41 1.92a4.95 4.95 0 0 0 -4.15-2.24zm-30.19 1.47-.1.09a1.84 1.84 0 0 1 .11-.09zm1.71 1.94c.5 0 .9.19 1.27.56.35.37.52.96.52 1.81a7.01 7.01 0 0 1 -.82 3.51c-.54.96-1.2 1.46-1.97 1.46-.52 0-.98-.19-1.39-.6-.41-.38-.61-.99-.61-1.8a10.51 10.51 0 0 1 .02-.69l.37-1.71c.11-.32.24-.62.38-.93.52-1.07 1.27-1.63 2.23-1.63zm29.67.06c.5 0 .93.18 1.28.55.34.35.51.82.51 1.39a6.89 6.89 0 0 1 -.72 2.94c-.5 1.05-1.22 1.58-2.18 1.58a1.81 1.81 0 0 1 -1.34-.56 2.15 2.15 0 0 1 -.51-1.5c0-1.12.29-2.12.88-3.03.6-.92 1.3-1.36 2.09-1.36z"/><path d="m101.72 45.07h-11.53l.42-2.71 6.06-5.62.82-.82c1.3-1.31 1.9-2.54 1.79-3.71-.08-.9-.55-1.36-1.4-1.39-.6-.01-1.11.23-1.53.73a3.73 3.73 0 0 0 -.77 1.97l-3.82.02a6.03 6.03 0 0 1 3.3-4.99c.98-.5 2.03-.75 3.13-.73a5.42 5.42 0 0 1 3.85 1.36c.9.86 1.31 2.03 1.19 3.5a5.71 5.71 0 0 1 -.86 2.55c-.5.82-1.23 1.7-2.18 2.6l-1.77 1.64-2.64 2.54 4.33.02 2.37-.86z"/></g></svg>