<svg viewBox="0 0 126 84" xmlns="http://www.w3.org/2000/svg"><path d="m10.2 6.3a6 6 0 0 0 -4.4 1.8 6.2 6.2 0 0 0 -1.8 4.4v39.3h118v-39.3a6.2 6.2 0 0 0 -6.1-6.1z" fill="#d0d0d0" stroke="#898989"/><path d="m4 52.8v18.7c0 3.4 2.8 6.2 6.1 6.2h105.7c3.4 0 6.2-2.8 6.2-6.2v-18.7z" fill="#4e4e4e" stroke="#3a3a3a"/><path d="m15.4 59.3h3.3l2.4 5.4 2.3-5.4h3.3v10.2h-2.4v-7.5l-2.4 5.5h-1.7l-2.2-5.5v7.5h-2.5zm13.9 0h4.4q2 0 3 .9 1 .8 1 2.4 0 1.6-1 2.5-1 .9-3 .9h-1.8v3.5h-2.6zm2.6 1.9v2.8h1.5q.8 0 1.2-.3.4-.4.4-1t-.4-1.1q-.4-.4-1.2-.4zm7.7-1.9h7v2h-4.4v1.9h4.2v2h-4.2v2.3h4.6v2h-7.2zm18.7 9.4-2 .8q-1 .2-2.2.2-2.6 0-4-1.4-1.5-1.5-1.5-3.9 0-2.5 1.5-3.9t4.1-1.4l2 .2q1 .2 1.7.6v2l-1.7-.7q-.8-.2-1.7-.2-1.5 0-2.4.9-.8.9-.8 2.5t.8 2.5q.8.9 2.3.9h.8l.6-.2v-2h-1.6v-1.8h4.1zm1.8-4.2h4.3v2h-4.3zm10.2-3-2.9 4.2h3zm-.4-2.2h2.9v6.4h1.5v2h-1.5v1.8h-2.5v-1.9h-4.5v-2.2zm8.6 0h1.5l-3.6 11.5h-1.4zm9 8.3h-4.1l-.7 1.9h-2.6l3.8-10.2h3.1l3.8 10.2h-2.8zm-3.5-1.9h2.8l-1.4-4zm15.2-6.1v2.2l-1.6-.6-1.6-.2q-1 0-1.4.3-.5.2-.5.8 0 .4.3.6l1.1.4 1.2.2q1.7.4 2.4 1 .7.8.7 2 0 1.7-1 2.6-1 .8-3 .8l-2-.2-2-.5v-2.3q1 .6 2 .8.8.3 1.7.3.9 0 1.3-.3.5-.3.5-.8t-.3-.8l-1.3-.4-1-.3q-1.5-.3-2.2-1-.7-.7-.7-2 0-1.5 1-2.3 1-.8 2.8-.8l1.7.1 1.8.4zm3-.3h4.4q2 0 3 .9 1 .8 1 2.4 0 1.6-1 2.5-1 .9-3 .9h-1.8v3.5h-2.6zm2.6 1.9v2.8h1.5q.8 0 1.2-.3.4-.4.4-1t-.4-1.1q-.4-.4-1.2-.4z" fill="#e6e6e6"/><path d="m51.2 44.44a2.15 2.15 0 0 1 -1.3-1 2.28 2.28 0 0 1 .05-1.9c.19-.38.47-.69 2.2-2.48.77-.79 1.62-1.68 1.91-1.98.28-.31.98-1 1.54-1.55l1.01-.99-.72-.73c-.4-.4-.81-.83-.91-.96a64.85 64.85 0 0 0 -1.48-1.53 53 53 0 0 1 -3.09-3.34c-.47-.63-.57-1.34-.3-1.91a2.37 2.37 0 0 1 1.61-1.21 2.5 2.5 0 0 1 1.15.25c.31.14 1.13.87 1.77 1.59.42.47 1.64 1.76 3.68 3.91l1 1.05 1.12-1.15a90.25 90.25 0 0 0 1.7-1.77c.32-.35 1.19-1.26 1.95-2.04 1.25-1.3 1.4-1.43 1.73-1.6a2 2 0 0 1 2.71.91c.13.26.15.35.14.75a1.83 1.83 0 0 1 -.39 1.21 33.27 33.27 0 0 1 -2.25 2.46 81.6 81.6 0 0 0 -1.76 1.85c-.32.35-.93 1-1.37 1.44l-.8.8 1.58 1.62 3.17 3.22c1.66 1.69 1.84 1.91 2.05 2.54a2 2 0 0 1 -.5 2.02 1.93 1.93 0 0 1 -1.99.5c-.43-.13-.69-.32-1.15-.8a209.75 209.75 0 0 0 -3.53-3.66c-.43-.43-.9-.92-1.04-1.1a14.4 14.4 0 0 0 -.8-.86l-.53-.54-.35.33c-.2.18-.75.75-1.24 1.25a2894.15 2894.15 0 0 1 -3.87 4.06c-.79.84-1.23 1.18-1.68 1.33-.31.1-.74.1-1.07.01zm-36.32-1.88a2.7 2.7 0 0 1 -.42-.21c-.66-.4-.85-1.28-.57-2.69.14-.75.57-1.85 1.06-2.73a8.1 8.1 0 0 1 .92-1.45 6.4 6.4 0 0 0 .49-.69 15.76 15.76 0 0 1 1.86-2.3 3.03 3.03 0 0 1 .96-.77c.65-.31 1.22-.49 1.69-.52.39-.03.47-.01.9.13.69.23 1.2.49 1.86.92s1 .78 1.24 1.24a2.16 2.16 0 0 1 .21 1.73c-.24.78-.37.95-1.59 2.19a22.03 22.03 0 0 1 -3.79 3.19c-.85.64-2.51 1.55-3.32 1.82-.46.15-1.2.22-1.48.13zm22.13-.05c-.35-.1-.71-.25-1.85-.8-.43-.2-1.83-1.07-2.48-1.53-.19-.14-.47-.37-.63-.51a9.2 9.2 0 0 0 -.57-.49c-.17-.13-.37-.3-.45-.39s-.38-.35-.65-.57c-.92-.76-2.12-2.09-2.37-2.63-.12-.25-.13-.33-.13-.88 0-.94.18-1.34.94-2.06.33-.31.55-.47 1.04-.73a4.38 4.38 0 0 1 1.42-.57c.76-.16 1.7-.06 2.35.26.4.2 1.23.92 1.98 1.75a26.83 26.83 0 0 1 2.17 2.87c.44.75 1.06 2.07 1.25 2.63.25.74.3 1.09.31 1.82 0 .61 0 .64-.17.99a2.38 2.38 0 0 1 -.33.51c-.39.38-1.13.5-1.84.31zm66.23-2.76c-.69-.08-1.9-.42-2.46-.69-2.19-1.05-3.66-2.9-4.13-5.22a10.23 10.23 0 0 1 -.02-2.75 11.45 11.45 0 0 1 .7-2.15c.1-.18.45-.68.8-1.11.64-.81 1.1-1.25 1.75-1.68.45-.3 1.64-.83 2.15-.96a9.4 9.4 0 0 1 2.2-.2c.35.01 1.42.01 2.36 0h1.71v-2.32c0-1.37.03-2.48.05-2.67.27-1.63 1.98-2.27 3.18-1.19a2.23 2.23 0 0 1 .62 1.06c.07.28.09 2.78.11 12l.02 5.96-.14.28c-.16.32-.36.48-.88.69a17.75 17.75 0 0 1 -3.08.79l-1.1.19-1.73.01c-.95.01-1.9-.01-2.12-.04zm4.15-3.85h.87v-7.16l-2.34.02c-2.64.02-2.6.02-3.39.41a3.22 3.22 0 0 0 -1.25 1.02 3.09 3.09 0 0 0 -.74 2.05c0 .98.34 1.87.91 2.44a3.61 3.61 0 0 0 1.98 1.12l.56.15 1.27-.03c.7-.01 1.66-.03 2.14-.03zm-28.38 3.4-.44-.56c-.23-.3-1.26-1.71-1.71-2.34a260.7 260.7 0 0 0 -1.9-2.6c-.41-.56-1-1.4-1.32-1.85a51.35 51.35 0 0 0 -1.79-2.45c-.48-.6-1.12-1.59-1.26-1.94a1.74 1.74 0 0 1 -.12-.77c0-.42.02-.51.14-.78a2.09 2.09 0 0 1 .96-.93c.63-.31 1.4-.24 1.96.19a5.95 5.95 0 0 1 1.14 1.35c.39.62.74 1.14 2.15 3.21 1.4 2.05 1.69 2.47 1.8 2.59a6.15 6.15 0 0 1 .37.46 16.8 16.8 0 0 0 .28.37 3 3 0 0 0 .57-.73l.57-.82a149.41 149.41 0 0 0 2.61-3.73 26.1 26.1 0 0 0 .81-1.24c.38-.63.99-1.37 1.27-1.55a1.95 1.95 0 0 1 1.72-.21 1.99 1.99 0 0 1 1.2 1.09 2.14 2.14 0 0 1 -.14 1.67c-.23.45-1.35 2.05-2.53 3.58-.29.38-.78 1.05-1.08 1.49s-.66.95-.8 1.13-.42.55-.61.81a356.84 356.84 0 0 1 -3.59 4.89zm12.52.3a2.09 2.09 0 0 1 -1.34-.95c-.29-.54-.29-.55-.28-5.5.03-5.96.05-6.74.19-7.11s.49-.7 1-.93c.32-.15.45-.19.79-.2.35-.03.45-.01.71.1a1.73 1.73 0 0 1 1.18 1.32c.11.39.11.45.14 5.7.02 2.91.01 5.44-.01 5.6a2.94 2.94 0 0 1 -.47 1.31 1.97 1.97 0 0 1 -1.91.66zm-71.3-11.05a5.15 5.15 0 0 1 -1.75-.95c-.37-.3-1.12-1.18-1.72-2l-.75-1.02c-.2-.28-.42-.61-.48-.73a18.77 18.77 0 0 1 -1.54-3.64c-.16-.64-.16-1.49 0-1.84.22-.45.56-.7 1.14-.82.38-.08.6-.04 1.45.23.8.26 1.34.52 1.88.9.21.14.55.36.75.48s.53.33.7.47c.18.14.42.32.53.39s.37.26.56.42c.2.17.55.43.78.6a21.3 21.3 0 0 1 1.58 1.46c1.08 1.07 1.18 1.19 1.34 1.53.25.54.35.92.35 1.37 0 .39-.01.43-.26.93-.31.61-.47.79-1.2 1.32-.82.6-1.23.79-1.95.92a5.05 5.05 0 0 1 -1.4 0zm11.3 0a5.29 5.29 0 0 1 -2.77-1.45c-.63-.64-.84-1.17-.8-2 .04-.68.15-.9.89-1.78.6-.71 1.12-1.21 1.95-1.87a48.65 48.65 0 0 0 1.18-.95 23.36 23.36 0 0 1 2.8-2.01 4.25 4.25 0 0 1 .78-.39l.9-.34a3.11 3.11 0 0 1 1.61-.24c.49.08.7.23.92.66.15.3.17.38.18.88a7.6 7.6 0 0 1 -.15 1.7c-.03.11-.18.45-.33.75s-.35.73-.44.95a8.1 8.1 0 0 1 -.43.86l-.45.77a13.25 13.25 0 0 1 -.99 1.42c-1.01 1.2-2.03 2.23-2.48 2.53a3.05 3.05 0 0 1 -1.59.52c-.26.01-.61 0-.78-.03z" fill="#323232" stroke-width=".05"/></svg>