<svg viewBox="0 0 126 84" xmlns="http://www.w3.org/2000/svg"><path d="m10.16 6.35a6.09 6.09 0 0 0 -4.34 1.8 6.23 6.23 0 0 0 -1.34 1.99c-.3.75-.46 1.55-.46 2.35v39.35h117.97v-39.35a6.16 6.16 0 0 0 -6.14-6.14z" fill="#d0d0d0" stroke="#898989"/><path d="m4.01 52.84v18.67a6.14 6.14 0 0 0 6.14 6.14h105.69c3.4 0 6.14-2.75 6.14-6.14v-18.67z" fill="#4e4e4e" stroke="#3a3a3a"/><path d="m111 58.45c-1.04 0-1.9.26-2.58.78-.69.53-1.1 1.4-1.23 2.6l2.19.22c.04-.64.2-1.1.47-1.37.27-.28.63-.41 1.1-.41.45 0 .82.13 1.08.4.26.25.4.63.4 1.12 0 .44-.16.89-.46 1.34-.22.33-.83.96-1.82 1.88a14.5 14.5 0 0 0 -2.47 2.75 5.27 5.27 0 0 0 -.75 2.19h7.7v-2.05h-4.36c.11-.2.26-.4.44-.61.2-.21.63-.63 1.33-1.27a12.9 12.9 0 0 0 1.43-1.46c.4-.51.7-1 .88-1.46.19-.47.28-.96.28-1.48a3 3 0 0 0 -.97-2.27 3.73 3.73 0 0 0 -2.66-.91zm-34.43.04v11.46h2.32v-4.33h1.5c1.05 0 1.85-.05 2.4-.16a3.16 3.16 0 0 0 2.17-1.67c.26-.48.39-1.07.39-1.77 0-.92-.22-1.66-.67-2.23a3 3 0 0 0 -1.64-1.13c-.43-.11-1.35-.17-2.75-.17zm28.09.23-2.2 1.28v1.65h-1.01v1.75h1v3.62c0 .77.03 1.29.08 1.54.05.36.16.65.3.86.15.21.39.38.7.52.32.13.68.2 1.08.2.64 0 1.22-.12 1.73-.34l-.19-1.7c-.38.14-.68.21-.88.21a.64.64 0 0 1 -.38-.1.5.5 0 0 1 -.2-.28 9.25 9.25 0 0 1 -.03-1.19v-3.34h1.5v-1.75h-1.5zm-54.98.38c-1.76 0-3.15.48-4.16 1.42a5.03 5.03 0 0 0 -1.52 3.88c0 1.63.5 2.92 1.49 3.87 1 .95 2.34 1.42 4.04 1.42a9.9 9.9 0 0 0 4.24-.96v-4.89h-4.1v1.76h1.6v1.97a3.2 3.2 0 0 1 -1.4.2c-1 0-1.78-.28-2.33-.87s-.82-1.42-.82-2.5c0-1.09.28-1.92.85-2.5a3.23 3.23 0 0 1 2.42-.89c.57 0 1.14.08 1.7.24s1.13.4 1.7.72v-2.11a9.2 9.2 0 0 0 -3.71-.76zm-38.85.19-.01 10.2h2.5v-7.46l2.35 5.5h1.68l2.35-5.5v7.46h2.49v-10.2h-3.34l-2.34 5.46-2.33-5.46zm13.94 0v10.2h2.63v-3.54h1.73c1.3 0 2.3-.29 2.99-.86.7-.58 1.05-1.4 1.05-2.47s-.35-1.89-1.04-2.46c-.7-.58-1.7-.87-3-.87zm10.26 0-.01 10.21h7.25v-2h-4.61v-2.33h4.2v-1.99h-4.2v-1.9h4.47v-2h-7.1zm30.29 0-4.08 6.1v2.24h4.52v1.86h2.49v-1.86h1.46v-1.9h-1.46v-6.44zm13.57 1.14h1.11c.84 0 1.4.03 1.67.08.37.07.68.23.93.5.24.28.36.62.36 1.04a1.52 1.52 0 0 1 -.98 1.45c-.3.12-.92.18-1.83.18h-1.25v-3.25zm-51.49.76h1.45c.51 0 .9.12 1.19.37.27.25.4.6.4 1.06 0 .45-.13.8-.4 1.06-.28.24-.68.36-1.19.36h-1.45zm38.37.26v4.28h-2.9zm24.7.01c-1.08 0-1.89.2-2.43.58a3.1 3.1 0 0 0 -1.16 1.78l2 .36c.13-.39.3-.65.52-.8.22-.16.53-.24.92-.24.57 0 .97.1 1.18.27.2.18.3.48.3.9v.22c-.39.17-1.1.35-2.12.54a7.3 7.3 0 0 0 -1.75.52 2.28 2.28 0 0 0 -1.28 2.09c0 .7.25 1.3.74 1.76.5.46 1.17.7 2.02.7a3.53 3.53 0 0 0 2.57-1.1l.08.26c.08.28.15.5.21.65h2.17c-.2-.4-.32-.77-.4-1.11a9.3 9.3 0 0 1 -.1-1.62l.02-2.56c0-.96-.1-1.61-.3-1.96a2.06 2.06 0 0 0 -1-.89 5.2 5.2 0 0 0 -2.19-.35zm9.5 0c-.36 0-.68.09-.96.27-.27.17-.59.54-.94 1.1v-1.18h-2.03v8.3h2.19v-2.57c0-1.4.06-2.34.18-2.78.13-.44.3-.75.5-.91.22-.17.48-.26.79-.26.32 0 .66.12 1.03.36l.68-1.91a2.79 2.79 0 0 0 -1.45-.42zm-44.42 3.01v2h4.3v-2zm36.26 1.5v.43c0 .52-.03.88-.09 1.07-.08.29-.26.53-.52.73-.36.26-.74.39-1.13.39a1.2 1.2 0 0 1 -.88-.34 1.08 1.08 0 0 1 -.34-.8c0-.3.14-.57.43-.77.18-.13.58-.25 1.2-.38.6-.13 1.05-.25 1.33-.34z" fill="#e6e6e6"/><path d="m59.67 24.04h-7.47c-.08-1.44.21-2.95-.3-4.32-2-1.65-2.95 1.78-2.32 3.28.41 2.18 2.9 2.83 4.46 4 2.48 1.66 5.46 3.5 5.91 6.73.46 2.83.62 5.84-.33 8.57-1.28 2.62-4.44 3.6-7.14 3.84-3.39.24-7.53-.56-9.32-3.78-1.1-2.47-.92-5.23-.93-7.88h7.45c.05 1.88-.13 3.79.16 5.66 1.48 2.35 3.59-.84 2.82-2.63.17-1.95-1.23-3.33-2.76-4.27-2.24-1.66-4.94-2.86-6.62-5.16-1.67-2.68-1.47-6.06-.95-9.05.58-3.07 3.8-4.62 6.65-4.88 3.3-.3 7.17.09 9.48 2.73 1.43 2.06 1.08 4.77 1.2 7.16zm7.12-9.24c3.75.05 7.51-.13 11.26.16 2.36.19 5 1.35 5.6 3.86.58 2.84.35 5.78.34 8.66 0 2-.74 4.27-2.81 5-2.03.88-4.25.7-6.4.72v12.42h-8v-30.82zm8 5.26v7.86c1.7.38 2.92-1.1 2.57-2.77-.08-1.43.2-2.93-.3-4.3-.42-.83-1.53-.74-2.27-.8z" fill="#323232"/></svg>