<svg viewBox="0 0 126 84" xmlns="http://www.w3.org/2000/svg"><path d="m10.16 6.35a6.09 6.09 0 0 0 -4.34 1.8 6.23 6.23 0 0 0 -1.34 1.99c-.3.75-.46 1.55-.46 2.35v39.35h117.97v-39.35a6.16 6.16 0 0 0 -6.14-6.14z" fill="#d0d0d0" stroke="#898989"/><path d="m4.01 52.84v18.67a6.14 6.14 0 0 0 6.14 6.14h105.69c3.4 0 6.14-2.75 6.14-6.14v-18.67z" fill="#4e4e4e" stroke="#3a3a3a"/><path d="m15.64 59.86h3.34l2.33 5.46 2.33-5.46h3.35v10.2h-2.5v-7.46l-2.34 5.5h-1.67l-2.35-5.5v7.46h-2.5zm13.93 0h4.36q1.95 0 2.99.87 1.05.86 1.05 2.46t-1.05 2.47q-1.04.86-2.99.86h-1.73v3.54h-2.63zm2.63 1.9v2.85h1.44q.77 0 1.19-.36.41-.38.41-1.06t-.41-1.06q-.42-.37-1.19-.37zm7.63-1.9h7.1v1.99h-4.47v1.9h4.2v1.99h-4.2v2.33h4.62v2h-7.25zm18.73 9.44q-.98.48-2.04.72t-2.19.24q-2.55 0-4.04-1.42-1.49-1.43-1.49-3.87 0-2.47 1.52-3.88t4.16-1.42q1.01 0 1.94.2.94.19 1.77.56v2.11q-.86-.48-1.7-.72-.85-.24-1.7-.24-1.57 0-2.42.88-.85.88-.85 2.51 0 1.62.82 2.5.82.88 2.33.88.41 0 .76-.04.36-.06.64-.17v-1.97h-1.6v-1.76h4.1zm1.79-4.26h4.3v1.99h-4.3zm10.21-3.02-2.88 4.28h2.88zm-.44-2.16h2.93v6.44h1.45v1.9h-1.45v1.86h-2.49v-1.86h-4.53v-2.25zm8.62 0h1.52l-3.6 11.5h-1.52zm9 8.34h-4.12l-.65 1.86h-2.63l3.78-10.2h3.14l3.78 10.2h-2.65zm-3.46-1.89h2.8l-1.4-4.06zm5.93-6.45h2.65l2.7 7.53 2.7-7.53h2.65l-3.78 10.2h-3.14zm20.15 9.64q-.72.38-1.51.57-.79.2-1.64.2-2.55 0-4.04-1.43-1.5-1.43-1.5-3.87 0-2.45 1.5-3.87 1.49-1.43 4.04-1.43.85 0 1.64.2.79.19 1.51.56v2.11q-.73-.5-1.44-.73-.71-.23-1.5-.23-1.4 0-2.21.9t-.81 2.5q0 1.57.8 2.47t2.22.9q.79 0 1.5-.23.7-.23 1.44-.73z" fill="#e6e6e6"/><path d="m22.51 41.95v1.89h-3.07q-1.11 0-1.55-.19-.46-.15-.63-.48-.15-.33-.15-1.22-1.39-.04-2.37-.72-1-.68-1.31-1.74-.31-1.05-.31-3.15v-4.83q0-1.59.19-2.42.19-.83.78-1.57.59-.74 1.52-1.11t2.04-.37q1.37 0 2.42.44 1.07.46 1.59 1.18.54.7.68 1.48.19.76.19 2.28v5.07q0 2.07-.22 2.81-.19.74-.78 1.2-.56.43-1.52.65.02.54.2.67t.91.13zm-4.07-11.58q0-1.11-.13-1.39-.11-.31-.5-.31-.31 0-.48.26-.17.24-.17 1.44v7.27q0 1.37.11 1.68.11.31.52.31.41 0 .54-.37t.11-1.74zm14.37-1.2v12.78h-3.96l.06-1.05q-.39.65-1 .96-.57.33-1.35.33-.89 0-1.46-.31t-.85-.81q-.28-.52-.33-1.07-.07-.56-.07-2.2v-8.6h3.89v8.7q0 1.5.09 1.78.09.28.5.28.44 0 .52-.28.07-.3.07-1.85v-8.62zm5.44-2.81v2.04h-4.03v-2.04zm0 2.81v12.78h-4.03v-12.77zm9.99 4.83h-3.7v-1.48q0-.76-.11-1.04-.13-.28-.46-.28t-.44.24q-.13.24-.13 1.07v6.03q0 .68.19 1.04.17.33.5.33.41 0 .54-.35.15-.37.15-1.35v-1.52h3.46q0 1.54-.11 2.29-.09.76-.65 1.57-.56.8-1.42 1.22-.87.41-2.16.41-1.65 0-2.59-.56-.98-.57-1.39-1.59-.39-1.02-.39-2.89v-3.64q0-1.63.33-2.44.31-.83 1.39-1.48 1.07-.65 2.59-.65 1.54 0 2.61.63 1.09.65 1.44 1.63.37 1 .37 2.79zm9.51-4.83-1.57 5.11 2.04 7.68h-3.74l-1.2-5.55v5.55h-3.89v-15.6h3.89v6.55l1.2-3.74zm9.36-2.81v3.13h-2.4v12.47h-4.07v-12.47h-2.4v-3.13zm4.81 0v2.04h-4.01v-2.04zm0 2.81v12.78h-4.01v-12.77zm5.24 0-.07 1.22q.46-.74 1.07-1.09.63-.37 1.44-.37 1.55 0 2.44 1.46.5-.74 1.11-1.09.63-.37 1.37-.37 1 0 1.65.5.65.48.83 1.18.19.68.19 2.26v9.08h-3.77v-8.32q0-1.65-.11-2.04-.11-.39-.52-.39-.41 0-.56.37-.09.41-.09 2.04v8.34h-3.79v-8.12q0-1.87-.09-2.26-.09-.37-.5-.37-.26 0-.44.19-.19.2-.19.5-.04.28-.04 1.2v8.88h-3.77v-12.8zm20.2 6.62h-5.05v2.78q0 .85.13 1.11.13.24.48.24.44 0 .59-.31.15-.35.15-1.3v-1.68h3.7v.93q0 1.2-.17 1.85-.15.63-.68 1.35-.56.72-1.41 1.07-.83.37-2.11.37-1.24 0-2.18-.37-.93-.35-1.48-.96-.5-.63-.7-1.37-.2-.74-.2-2.18v-3.72q0-1.68.44-2.65.46-.98 1.48-1.48 1.04-.52 2.37-.52 1.65 0 2.7.61 1.07.63 1.5 1.67.43 1.02.43 2.87zm-3.9-2.09v-.93q0-1-.11-1.3t-.44-.28q-.39 0-.5.26-.09.24-.09 1.3v.94zm20.22-17.09v5.53l-4.01 19.81h-6.29l4.5-20.79h-6.25v-4.55z" fill="#323232" stroke-width="1.85"/></svg>