<svg viewBox="0 0 126 84" xmlns="http://www.w3.org/2000/svg"><path d="m10.16 6.35a6.09 6.09 0 0 0 -4.34 1.8 6.23 6.23 0 0 0 -1.34 1.99c-.3.75-.46 1.55-.46 2.35v39.35h117.97v-39.35a6.16 6.16 0 0 0 -6.14-6.14z" fill="#d0d0d0" stroke="#898989"/><path d="m4.01 52.84v18.67a6.14 6.14 0 0 0 6.14 6.14h105.69c3.4 0 6.14-2.75 6.14-6.14v-18.67z" fill="#4e4e4e" stroke="#3a3a3a"/><g fill="#e6e6e6"><path d="m15.39 59.62h3.35l2.32 5.46 2.34-5.46h3.34v10.21h-2.49v-7.46l-2.35 5.5h-1.67l-2.35-5.5v7.46h-2.5z"/><path d="m29.32 59.62h4.37q1.95 0 2.99.87 1.05.86 1.05 2.46 0 1.61-1.05 2.47-1.04.86-2.99.86h-1.74v3.54h-2.63zm2.63 1.91v2.85h1.46q.77 0 1.18-.37.42-.38.42-1.06 0-.68-.42-1.05-.42-.37-1.18-.37z"/><path d="m39.58 59.62h7.1v1.99h-4.47v1.9h4.2v1.99h-4.2v2.34h4.62v1.99h-7.25z"/><path d="m58.31 69.07q-.98.48-2.04.72-1.06.24-2.19.24-2.55 0-4.04-1.42-1.49-1.43-1.49-3.87 0-2.47 1.52-3.88 1.52-1.42 4.16-1.42 1.02 0 1.95.19.94.19 1.76.57v2.11q-.85-.49-1.7-.72-.84-.24-1.69-.24-1.57 0-2.43.88-.85.88-.85 2.51 0 1.62.82 2.5.82.88 2.33.88.41 0 .76-.05.36-.05.64-.16v-1.98h-1.61v-1.77h4.1z"/><path d="m60.11 64.81h4.29v1.99h-4.29z"/><path d="m70.31 61.79-2.88 4.27h2.88zm-.44-2.17h2.93v6.44h1.46v1.91h-1.46v1.86h-2.49v-1.86h-4.53v-2.26z"/><path d="m78.49 59.62h1.52l-3.6 11.51h-1.51z"/><path d="m87.49 67.97h-4.12l-.65 1.86h-2.65l3.78-10.21h3.14l3.78 10.21h-2.65zm-3.46-1.89h2.8l-1.39-4.06z"/><path d="m99.23 59.95v2.16q-.84-.38-1.64-.57-.8-.19-1.51-.19-.94 0-1.39.26-.45.26-.45.81 0 .41.3.64.31.23 1.11.39l1.12.23q1.7.34 2.42 1.04.72.7.72 1.98 0 1.69-1 2.52-1 .82-3.06.82-.97 0-1.95-.18-.98-.18-1.96-.55v-2.22q.98.52 1.89.79.92.26 1.76.26.86 0 1.32-.29.46-.29.46-.82 0-.48-.31-.74-.31-.26-1.24-.46l-1.02-.23q-1.53-.33-2.24-1.05-.7-.72-.7-1.93 0-1.52.98-2.34.98-.82 2.83-.82.84 0 1.73.13.89.12 1.84.38z"/><path d="m102.22 59.62h4.37q1.95 0 2.99.87 1.05.86 1.05 2.46 0 1.61-1.05 2.47-1.04.86-2.99.86h-1.74v3.54h-2.63zm2.63 1.91v2.85h1.46q.77 0 1.18-.37.42-.38.42-1.06 0-.68-.42-1.05-.42-.37-1.18-.37z"/></g><path d="m9.64 40.12v1.02h-1.66q-.6 0-.84-.1-.25-.08-.33-.26-.09-.19-.09-.66-.74-.02-1.28-.4-.53-.36-.7-.93-.18-.57-.18-1.7v-2.62q0-.86.1-1.3.1-.46.42-.85.32-.4.82-.6t1.1-.22q.74 0 1.32.25.57.25.86.64.28.38.37.8.08.4.08 1.23v2.74q0 1.12-.1 1.52-.11.4-.43.64-.3.24-.82.36.02.28.11.36.1.07.49.07zm-2.2-6.27q0-.59-.07-.75-.06-.16-.26-.16-.17 0-.27.13-.09.13-.09.78v3.94q0 .74.06.9.06.18.28.18.23 0 .29-.2t.06-.94zm7.77-.65v6.92h-2.14l.04-.57q-.22.34-.54.52-.32.17-.74.17-.47 0-.78-.16t-.47-.45q-.14-.27-.18-.57-.04-.3-.04-1.2v-4.65h2.1v4.7q0 .8.05.96.06.15.27.15.24 0 .28-.16.05-.15.05-1v-4.66zm2.93-1.51v1.1h-2.16v-1.1zm0 1.52v6.9h-2.16v-6.9zm5.41 2.61h-1.99v-.8q0-.42-.07-.56-.06-.15-.25-.15-.18 0-.24.13t-.06.58v3.26q0 .37.09.56.1.18.28.18.21 0 .28-.2.08-.19.08-.72v-.82h1.88q0 .82-.07 1.24-.05.41-.35.85-.29.43-.76.66-.48.21-1.17.21-.9 0-1.41-.3-.53-.3-.74-.85-.22-.55-.22-1.56v-1.97q0-.88.18-1.33.18-.44.75-.8.58-.35 1.41-.35.82 0 1.4.35.59.35.78.88t.2 1.5zm5.15-2.62-.86 2.76 1.11 4.16h-2.02l-.66-3.01v3h-2.1v-8.41h2.1v3.54l.66-2.02zm2.79-.92v1.1h.57v1.09h-.57v3.7q0 .68.07.76.07.07.59.07v1.12h-.85q-.72 0-1.03-.06-.3-.06-.54-.27-.24-.22-.3-.5-.05-.28-.05-1.31v-3.51h-.45v-1.1h.45v-1.07zm3.2-.59v1.1h-2.17v-1.1zm0 1.52v6.9h-2.17v-6.9zm2.83-.01-.04.66q.24-.39.58-.58.34-.2.77-.2.85 0 1.33.78.27-.39.6-.58.33-.2.74-.2.54 0 .88.26.36.26.46.64.1.38.1 1.23v4.9h-2.04v-4.5q0-.88-.07-1.09-.05-.21-.27-.21-.23 0-.3.2-.06.21-.06 1.1v4.5h-2.04v-4.38q0-1.02-.05-1.22-.05-.2-.27-.2-.14 0-.24.1-.1.11-.11.27l-.01.65v4.79h-2.04v-6.92zm10.91 3.58h-2.72v1.5q0 .47.06.6.07.14.27.14.23 0 .31-.18.09-.18.09-.7v-.9h2v.5q0 .64-.1.99-.07.34-.37.73-.3.4-.75.6-.46.18-1.14.18-.67 0-1.18-.19-.51-.2-.8-.53-.28-.33-.39-.73-.1-.41-.1-1.18v-2.02q0-.9.24-1.42.24-.53.8-.8.56-.29 1.28-.29.89 0 1.46.34.58.33.8.9.24.54.24 1.55zm-2.1-1.12v-.5q0-.54-.07-.7t-.23-.15q-.22 0-.27.13-.05.13-.05.71v.51zm12.67-4.83h-3.16q0-.88-.02-1.1-.02-.24-.19-.4-.16-.16-.45-.16-.24 0-.4.15-.16.15-.18.38-.02.24-.02.95v2.02q.24-.51.7-.76.48-.26 1.16-.26.87 0 1.54.47.66.47.84 1.12.18.66.18 1.78v1q0 1.33-.1 1.98-.1.65-.55 1.2-.44.55-1.21.86-.77.3-1.79.3-1.27 0-2.09-.35-.8-.35-1.25-1-.44-.67-.52-1.4-.07-.73-.07-2.82v-1.75q0-2.26.06-3.01.07-.77.55-1.45.48-.68 1.3-1.02.83-.34 1.9-.34 1.33 0 2.18.43.85.43 1.22 1.21t.37 1.97zm-3.16 3.95q0-.68-.15-.93-.14-.25-.48-.25-.33 0-.48.25-.15.23-.15.93v2.28q0 .84.14 1.1.15.26.48.26.2 0 .42-.2.22-.2.22-1.08z" fill="#323232" transform="matrix(1.74 0 0 2.39 7.75 -51.86)"/></svg>