<svg viewBox="0 0 126 84" xmlns="http://www.w3.org/2000/svg"><path d="m10.16 6.35a6.09 6.09 0 0 0 -4.34 1.8 6.23 6.23 0 0 0 -1.34 1.99c-.3.75-.46 1.55-.46 2.35v39.35h117.97v-39.35a6.16 6.16 0 0 0 -6.14-6.14z" fill="#d0d0d0" stroke="#898989"/><path d="m4.01 52.84v18.67a6.14 6.14 0 0 0 6.14 6.14h105.69c3.4 0 6.14-2.75 6.14-6.14v-18.67z" fill="#4e4e4e" stroke="#3a3a3a"/><path d="m15.38 59.88h3.35l2.33 5.46 2.34-5.46h3.34v10.2h-2.49v-7.46l-2.35 5.5h-1.67l-2.35-5.5v7.47h-2.5zm13.94 0h4.36q1.95 0 3 .87 1.04.86 1.04 2.46t-1.05 2.47q-1.04.87-2.99.87h-1.73v3.54h-2.63zm2.63 1.9v2.86h1.45q.77 0 1.19-.37.41-.38.41-1.06t-.41-1.05q-.42-.37-1.19-.37zm7.63-1.9h7.1v1.99h-4.48v1.9h4.2v1.99h-4.2v2.34h4.62v1.99h-7.25zm18.73 9.45q-.98.48-2.04.72t-2.19.24q-2.55 0-4.04-1.43-1.49-1.42-1.49-3.86 0-2.47 1.52-3.89t4.16-1.41q1.01 0 1.94.19.94.19 1.77.57v2.1q-.86-.48-1.7-.72t-1.7-.24q-1.56 0-2.42.89-.85.87-.85 2.5t.82 2.5q.82.89 2.33.89.41 0 .76-.05.36-.05.64-.16v-1.99h-1.6v-1.76h4.1zm1.79-4.27h4.3v2h-4.3zm10.21-3.01-2.88 4.27h2.88zm-.44-2.17h2.93v6.44h1.46v1.9h-1.46v1.87h-2.5v-1.86h-4.5v-2.26zm8.63 0h1.5l-3.6 11.5h-1.5zm8.99 8.35h-4.12l-.64 1.86h-2.65l3.78-10.2h3.14l3.78 10.2h-2.65zm-3.46-1.9h2.8l-1.4-4.06zm15.2-6.13v2.16q-.84-.37-1.64-.56-.8-.2-1.5-.2-.95 0-1.4.26-.45.26-.45.81 0 .41.3.64.3.23 1.1.4l1.13.22q1.7.34 2.42 1.04.71.7.71 1.98 0 1.69-1 2.52-1 .82-3.06.82-.97 0-1.94-.19-.98-.18-1.96-.55v-2.22q.98.52 1.89.79.91.26 1.76.26.86 0 1.32-.29.46-.29.46-.82 0-.48-.32-.74-.3-.26-1.23-.46l-1.02-.23q-1.53-.33-2.24-1.04-.7-.72-.7-1.94 0-1.52.98-2.34.98-.82 2.83-.82.84 0 1.73.13.88.12 1.83.37zm2.98-.32h4.37q1.95 0 2.99.87 1.04.86 1.04 2.46t-1.04 2.47q-1.04.87-3 .87h-1.73v3.54h-2.63zm2.63 1.9v2.86h1.46q.76 0 1.18-.37.42-.38.42-1.06t-.42-1.05q-.42-.37-1.18-.37z" fill="#e6e6e6"/><path d="m20.84 22.01v17.56h-4l-2.39-7.97v7.96h-3.81v-17.54h3.81l2.57 7.9v-7.9zm11.6 10.62h-5.64v3.11q0 .98.15 1.26t.54.28q.5 0 .67-.37.19-.37.19-1.44v-1.91h4.13v1.07q0 1.33-.17 2.04-.17.74-.78 1.54-.61.81-1.57 1.22-.94.41-2.37.41-1.39 0-2.46-.41t-1.67-1.09q-.57-.7-.8-1.54-.24-.85-.24-2.46v-4.18q0-1.89.52-2.96.5-1.11 1.67-1.68 1.17-.59 2.66-.59 1.85 0 3.03.7 1.2.7 1.68 1.85.48 1.17.48 3.26zm-4.38-2.35v-1.04q0-1.11-.11-1.44-.13-.33-.5-.33-.44 0-.56.28t-.11 1.48v1.05zm10.21-5.11-.19 1.89q.96-2.04 2.78-2.15v5.07q-1.2 0-1.76.33-.56.31-.7.91-.13.56-.13 2.66v5.68h-4.38v-14.39zm13.47 5.05v3.52q0 1.96-.19 2.87-.2.91-.85 1.68-.63.8-1.65 1.17-1 .37-2.29.37-1.46 0-2.46-.31-1.02-.33-1.57-.96-.56-.65-.8-1.57t-.24-2.74v-3.7q0-2 .44-3.13t1.55-1.81 2.89-.68q1.48 0 2.53.44 1.05.44 1.63 1.15t.78 1.44q.22.74.22 2.28zm-4.38-1.07q0-1.11-.11-1.39-.13-.3-.52-.3-.37 0-.52.3-.13.28-.13 1.39v6.48q0 1.04.13 1.35.13.3.52.3.37 0 .5-.28t.13-1.22zm9.86-7.14h3.42q3.31 0 4.46.31 1.18.3 1.78 1t.76 1.54q.17.85.17 3.33v6.16q0 2.37-.24 3.16-.2.8-.76 1.26-.56.44-1.37.63-.81.17-2.44.17h-5.77zm4.57 3.02v11.54q.98 0 1.22-.39.22-.41.22-2.16v-6.83q0-1.18-.07-1.52-.07-.33-.35-.5-.26-.15-1.02-.15zm12.08-3.02v2.29h-4.5v-2.29zm0 3.16v14.39h-4.5v-14.39zm11.53 0v11.1q0 2.22-.11 2.89-.11.65-.74 1.39t-1.74 1.11q-1.11.39-2.83.39-2.09 0-3.35-.72-1.28-.7-1.31-2.78h4.26q0 .94.68.94.5 0 .67-.28.15-.3.15-1.24v-1.07q-.56.5-1.18.76-.61.26-1.3.26-1.18 0-1.96-.46-.74-.48-1.04-1.26-.28-.78-.28-2.22v-5.22q0-2.04.74-2.94t2.22-.91q.83 0 1.52.33.68.35 1.2 1.02l.31-1.09zm-4.4 3.83q0-1-.11-1.26-.11-.28-.5-.28-.37 0-.56.31-.15.3-.15 1.22v4.83q0 .96.13 1.26.11.28.5.28.43 0 .56-.35.13-.33.13-1.57zm10.49-6.99v2.29h-4.51v-2.29zm0 3.16v14.39h-4.51v-14.39zm6.18-1.91v2.26h1.18v2.28h-1.18v7.7q0 1.42.15 1.59.15.17 1.22.17v2.31h-1.78q-1.48 0-2.13-.11-.65-.15-1.13-.59-.5-.44-.61-1.02-.11-.59-.11-2.74v-7.29h-.94v-2.28h.93v-2.26zm6.07 7.49h-4.13v-.98q0-1.67.37-2.57.41-.91 1.57-1.59t3.02-.7q2.22 0 3.33.8 1.15.78 1.37 1.92.22 1.15.22 4.72v7.22h-4.26v-1.3q-.41.78-1.04 1.17-.63.37-1.52.37-1.15 0-2.11-.63-.96-.65-.96-2.83v-1.17q0-1.63.52-2.22t2.52-1.35q2.16-.85 2.31-1.15.15-.3.15-1.18 0-1.13-.17-1.48-.17-.33-.56-.33-.44 0-.56.3-.11.28-.11 1.48zm1.39 1.96q-1.05.78-1.24 1.3-.15.52-.15 1.48 0 1.13.13 1.46.15.31.59.31.41 0 .52-.24.13-.26.13-1.35zm10.38-10.71v17.56h-4.5v-17.56z" fill="#323232" stroke-width="1.85"/></svg>