<svg viewBox="0 0 126 84" xmlns="http://www.w3.org/2000/svg"><path d="m10.16 6.35a6.09 6.09 0 0 0 -4.34 1.8 6.23 6.23 0 0 0 -1.34 1.99c-.3.75-.46 1.55-.46 2.35v39.35h117.97v-39.35a6.16 6.16 0 0 0 -6.14-6.14z" fill="#d0d0d0" stroke="#898989"/><path d="m4.01 52.84v18.67a6.14 6.14 0 0 0 6.14 6.14h105.69c3.4 0 6.14-2.75 6.14-6.14v-18.67z" fill="#4e4e4e" stroke="#3a3a3a"/><path d="m33.56 59.29h3.35l2.33 5.46 2.34-5.46h3.34v10.2h-2.49v-7.46l-2.35 5.5h-1.68l-2.35-5.5v7.46h-2.5zm13.94 0h4.36q1.95 0 3 .87 1.04.86 1.04 2.46t-1.05 2.47q-1.04.86-2.99.86h-1.73v3.54h-2.63zm2.63 1.9v2.85h1.45q.77 0 1.19-.36.41-.38.41-1.06t-.41-1.06q-.42-.37-1.19-.37zm7.63-1.9h7.1v1.99h-4.47v1.9h4.2v1.99h-4.2v2.33h4.61v2h-7.25zm18.74 9.44q-.99.48-2.05.72-1.06.24-2.19.24-2.55 0-4.04-1.42-1.49-1.43-1.49-3.87 0-2.47 1.52-3.88t4.16-1.42q1.01 0 1.94.2.94.19 1.77.56v2.11q-.86-.48-1.7-.72t-1.7-.24q-1.56 0-2.42.88-.85.88-.85 2.51 0 1.62.82 2.5.82.88 2.33.88.41 0 .76-.04.36-.06.64-.17v-1.97h-1.6v-1.76h4.1zm1.78-4.26h4.3v1.99h-4.3zm10.22-3.02-2.9 4.28h2.9zm-.45-2.16h2.93v6.44h1.46v1.9h-1.46v1.86h-2.49v-1.86h-4.52v-2.25z" fill="#e6e6e6"/><path d="m46.2 14.71c1.53 10.28 3.06 20.55 4.59 30.83-2.36 0-4.72 0-7.07 0-.28-1.85-.56-3.69-.84-5.54-1.46 0-2.93 0-4.39 0-.28 1.85-.57 3.69-.85 5.54-2.38 0-4.76 0-7.14 0 1.36-10.28 2.72-20.55 4.07-30.83zm-3.78 20.15c-.55-4.42-1.35-8.82-1.68-13.26-.56 4.44-1.51 8.83-1.98 13.29 1.22-.01 2.44-.02 3.66-.02zm29.59-10.81c-2.49 0-4.98 0-7.47 0-.07-1.44.21-2.95-.29-4.32-2.96-1.81-3.15 3.99-1.23 5.12 2.97 2.22 6.88 3.67 8.71 7.09 1.16 3.21 1.23 6.87.32 10.16-1.54 3.35-5.73 4.23-9.09 4.07-3.54-.06-7.74-1.99-8.12-5.94-.33-1.89-.26-3.82-.27-5.74h7.45c.09 1.99-.23 4.05.29 5.99 2.62 1.9 3.19-2.48 2.54-4.24-.66-2.48-3.57-3.31-5.37-4.83-2.22-1.38-4.51-3.16-4.91-5.94-.36-3-.65-6.6 1.49-9.04 3.13-2.82 7.91-2.84 11.72-1.58 2.61.74 4.24 3.23 4.14 5.89.09 1.11.06 2.21.09 3.32zm6.08-9.34c4.04.09 8.11-.23 12.12.29 2.53.25 4.85 2.2 4.96 4.85.22 3.06.32 6.17-.06 9.22-.41 3.22-4.1 4.17-6.85 4.05-.7.21-2.35-.53-2.16.58v11.84c-2.67 0-5.34 0-8.01 0 0-10.28 0-20.55 0-30.83zm8.01 5.27v7.85c2.1.5 2.88-1.61 2.57-3.35-.14-1.42.45-3.27-.84-4.25-.54-.25-1.19-.22-1.73-.26z" fill="#323232" stroke-width="2.25"/></svg>