<svg viewBox="0 0 126 84" xmlns="http://www.w3.org/2000/svg"><path d="m10.16 6.35a6.09 6.09 0 0 0 -4.34 1.8 6.23 6.23 0 0 0 -1.34 1.99c-.3.75-.46 1.55-.46 2.35v39.35h117.97v-39.35a6.16 6.16 0 0 0 -6.14-6.14z" fill="#d0d0d0" stroke="#898989"/><path d="m4.01 52.84v18.67a6.14 6.14 0 0 0 6.14 6.14h105.69c3.4 0 6.14-2.75 6.14-6.14v-18.67z" fill="#4e4e4e" stroke="#3a3a3a"/><path d="m33.56 59.29h3.35l2.33 5.46 2.34-5.46h3.34v10.2h-2.49v-7.46l-2.35 5.5h-1.68l-2.35-5.5v7.46h-2.5zm13.94 0h4.36q1.95 0 3 .87 1.04.86 1.04 2.46t-1.05 2.47q-1.04.86-2.99.86h-1.73v3.54h-2.63zm2.63 1.9v2.85h1.45q.77 0 1.19-.36.41-.38.41-1.06t-.41-1.06q-.42-.37-1.19-.37zm7.63-1.9h7.1v1.99h-4.47v1.9h4.2v1.99h-4.2v2.33h4.61v2h-7.25zm18.74 9.44q-.99.48-2.05.72-1.06.24-2.19.24-2.55 0-4.04-1.42-1.49-1.43-1.49-3.87 0-2.47 1.52-3.88t4.16-1.42q1.01 0 1.94.2.94.19 1.77.56v2.11q-.86-.48-1.7-.72t-1.7-.24q-1.56 0-2.42.88-.85.88-.85 2.51 0 1.62.82 2.5.82.88 2.33.88.41 0 .76-.04.36-.06.64-.17v-1.97h-1.6v-1.76h4.1zm1.78-4.26h4.3v1.99h-4.3zm10.22-3.02-2.9 4.28h2.9zm-.45-2.16h2.93v6.44h1.46v1.9h-1.46v1.86h-2.49v-1.86h-4.52v-2.25z" fill="#e6e6e6"/><path d="m45.54 14.08 4.53 30.49h-8.12l-.39-5.49h-2.84l-.48 5.49h-8.19l4.02-30.49zm-4.22 19.59c-.41-3.45-.8-7.71-1.21-12.77-.8 5.81-1.3 10.07-1.49 12.77zm31.69-19.59-4.02 30.49h-12.05l-4.58-30.49h8.36c.96 8.41 1.66 15.5 2.07 21.3.53-7.62 1.13-13.93 1.86-21.3zm22.87 13.28h-7.95v-5.3c0-1.54-.07-2.51-.24-2.89s-.53-.58-1.11-.58c-.65 0-1.08.24-1.25.72-.17.46-.24 1.45-.24 2.99v14.17c0 1.47.07 2.43.24 2.89s.55.67 1.21.67c.58 0 .96-.22 1.13-.67.19-.46.29-1.52.29-3.18v-3.81h7.93v1.18c0 3.16-.24 5.37-.7 6.7-.43 1.33-1.42 2.48-2.94 3.47s-3.4 1.47-5.64 1.47c-2.31 0-4.22-.41-5.74-1.25s-2.51-2-2.99-3.49c-.48-1.47-.72-3.71-.72-6.7v-8.92c0-2.19.07-3.86.22-4.94s.58-2.14 1.33-3.18c.75-1.01 1.78-1.81 3.11-2.39 1.33-.6 2.87-.89 4.58-.89 2.34 0 4.27.46 5.78 1.37 1.52.89 2.51 2.02 2.99 3.37s.72 3.45.72 6.29z" fill="#323232" stroke-width="2.41"/></svg>