<svg viewBox="0 0 126 84" xmlns="http://www.w3.org/2000/svg"><path d="m10.16 6.35a6.09 6.09 0 0 0 -4.34 1.8 6.23 6.23 0 0 0 -1.34 1.99c-.3.75-.46 1.55-.46 2.35v39.35h117.97v-39.35a6.16 6.16 0 0 0 -6.14-6.14z" fill="#d0d0d0" stroke="#898989"/><path d="m4.01 52.84v18.67a6.14 6.14 0 0 0 6.14 6.14h105.69c3.4 0 6.14-2.75 6.14-6.14v-18.67z" fill="#4e4e4e" stroke="#3a3a3a"/><path d="m15.64 59.29h3.34l2.33 5.46 2.33-5.46h3.35v10.2h-2.5v-7.46l-2.34 5.5h-1.67l-2.35-5.5v7.46h-2.5zm13.93 0h4.36q1.95 0 2.99.87 1.05.86 1.05 2.46t-1.05 2.47q-1.04.86-2.99.86h-1.73v3.54h-2.63zm2.63 1.9v2.85h1.44q.77 0 1.19-.36.41-.38.41-1.06t-.41-1.06q-.42-.37-1.19-.37zm7.63-1.9h7.1v1.99h-4.47v1.9h4.2v1.99h-4.2v2.33h4.62v2h-7.25zm18.73 9.44q-.98.48-2.04.72t-2.19.24q-2.55 0-4.04-1.42-1.49-1.43-1.49-3.87 0-2.47 1.52-3.88t4.16-1.42q1.01 0 1.94.2.94.19 1.77.56v2.11q-.86-.48-1.7-.72-.85-.24-1.7-.24-1.57 0-2.42.88-.85.88-.85 2.51 0 1.62.82 2.5.82.88 2.33.88.41 0 .76-.04.36-.06.64-.17v-1.97h-1.6v-1.76h4.1zm1.79-4.26h4.3v1.99h-4.3zm10.21-3.02-2.88 4.28h2.88zm-.44-2.16h2.93v6.44h1.45v1.9h-1.45v1.86h-2.49v-1.86h-4.53v-2.25zm8.62 0h1.52l-3.6 11.5h-1.52zm9 8.34h-4.12l-.65 1.86h-2.63l3.78-10.2h3.14l3.78 10.2h-2.65zm-3.46-1.89h2.8l-1.4-4.06zm5.93-6.45h2.65l2.7 7.53 2.7-7.53h2.65l-3.78 10.2h-3.14zm20.15 9.64q-.72.38-1.51.57-.79.2-1.64.2-2.55 0-4.04-1.43-1.5-1.43-1.5-3.87 0-2.45 1.5-3.87 1.49-1.43 4.04-1.43.85 0 1.64.2.79.19 1.51.56v2.11q-.73-.5-1.44-.73-.71-.23-1.5-.23-1.4 0-2.21.9t-.81 2.5q0 1.57.8 2.47t2.22.9q.79 0 1.5-.23.7-.23 1.44-.73z" fill="#e6e6e6"/><path d="m22.11 21.8v16.99h-3.87l-2.29-7.71v7.71h-3.69v-16.99h3.69l2.47 7.66v-7.66zm11.24 10.27h-5.5v3.01q0 .95.14 1.22t.54.27q.47 0 .63-.36.18-.36.18-1.4v-1.84h4.01v1.04q0 1.29-.18 1.97-.14.72-.75 1.49-.59.79-1.52 1.18-.9.39-2.29.39-1.34 0-2.36-.39t-1.61-1.06q-.57-.68-.79-1.49-.21-.82-.21-2.36v-4.06q0-1.83.48-2.86.5-1.07 1.61-1.61 1.13-.59 2.6-.59 1.79 0 2.94.7 1.16.66 1.61 1.79.48 1.11.48 3.13zm-4.24-2.26v-1.02q0-1.07-.13-1.4-.11-.32-.47-.32-.45 0-.54.27-.13.27-.13 1.43v1.04zm9.88-4.94-.18 1.81q.93-1.97 2.69-2.08v4.9q-1.16 0-1.72.32-.54.3-.66.88-.13.54-.13 2.58v5.5h-4.24v-13.93zm13.01 4.89v3.4q0 1.88-.18 2.76t-.81 1.65q-.63.75-1.61 1.11-.95.36-2.22.36-1.4 0-2.38-.3-.97-.3-1.52-.93-.54-.63-.75-1.5-.23-.9-.23-2.69v-3.54q0-1.95.41-3.04t1.52-1.75 2.77-.66q1.43 0 2.45.43 1.02.43 1.58 1.11t.77 1.41q.2.72.2 2.2zm-4.22-1.06q0-1.07-.13-1.34-.11-.29-.48-.29-.39 0-.52.29-.13.27-.13 1.34v6.28q0 .98.13 1.29.13.29.5.29.38 0 .5-.27.13-.27.13-1.16zm9.54-6.91h3.29q3.22 0 4.33.3 1.13.29 1.72.97t.72 1.5q.18.81.18 3.22v5.94q0 2.29-.23 3.06-.21.77-.75 1.22-.54.43-1.32.61-.79.16-2.36.16h-5.57zm4.4 2.92v11.17q.97 0 1.18-.38.21-.39.21-2.09v-6.61q0-1.15-.07-1.47-.07-.32-.32-.48-.27-.14-1-.14zm11.71-2.92v2.22h-4.37v-2.22zm0 3.06v13.93h-4.37v-13.93zm11.13.02v10.7q0 2.18-.11 2.81-.09.64-.72 1.34-.59.72-1.68 1.07-1.07.38-2.72.38-2.02 0-3.26-.68-1.24-.7-1.25-2.7h4.1q0 .93.66.93.48 0 .64-.29.16-.29.16-1.2v-1.04q-.54.48-1.16.73-.59.27-1.25.27-1.15 0-1.88-.47-.73-.47-1.02-1.22-.27-.75-.27-2.15v-5.05q0-1.97.72-2.85t2.17-.88q.81 0 1.45.34.66.32 1.18.97l.3-1.06zm-4.24 3.69q0-.97-.13-1.22-.11-.27-.48-.27-.36 0-.52.3-.14.3-.14 1.18v4.67q0 .93.11 1.22.13.27.48.27.43 0 .54-.32.14-.36.14-1.52zm10.13-6.77v2.22h-4.35v-2.22zm0 3.06v13.93h-4.35v-13.93zm5.98-1.84v2.18h1.15v2.2h-1.15v7.45q0 1.38.14 1.54.14.16 1.18.16v2.24h-1.7q-1.45 0-2.08-.11-.61-.13-1.07-.55-.48-.45-.61-1-.11-.57-.11-2.65v-7.07h-.91v-2.2h.91v-2.18zm5.87 7.25h-3.97v-.93q0-1.61.36-2.51.38-.88 1.5-1.54t2.92-.68q2.15 0 3.24.77 1.09.75 1.31 1.88.23 1.09.23 4.55v6.98h-4.12v-1.25q-.39.77-1.02 1.15-.61.36-1.45.36-1.11 0-2.06-.61-.91-.64-.91-2.74v-1.15q0-1.58.48-2.15t2.45-1.31q2.08-.82 2.24-1.11.14-.27.14-1.15 0-1.07-.18-1.43-.14-.32-.54-.32-.41 0-.54.29-.09.27-.09 1.43zm1.34 1.9q-1.02.75-1.18 1.25-.18.5-.18 1.43 0 1.09.16 1.41.14.3.55.3.39 0 .52-.23.13-.25.13-1.31zm10.06-10.36v16.99h-4.37v-16.99z" fill="#323232" stroke-width="1.79"/></svg>