<svg viewBox="0 0 126 84" xmlns="http://www.w3.org/2000/svg"><path d="m10.16 6.35a6.09 6.09 0 0 0 -4.34 1.8 6.23 6.23 0 0 0 -1.34 1.99c-.3.75-.46 1.55-.46 2.35v39.35h117.97v-39.35a6.16 6.16 0 0 0 -6.14-6.14z" fill="#d0d0d0" stroke="#898989"/><path d="m4.01 52.84v18.67a6.14 6.14 0 0 0 6.14 6.14h105.69c3.4 0 6.14-2.75 6.14-6.14v-18.67z" fill="#4e4e4e" stroke="#3a3a3a"/><path d="m15.38 60.31h3.35l2.33 5.46 2.34-5.46h3.34v10.2h-2.49v-7.46l-2.35 5.5h-1.67l-2.35-5.5v7.47h-2.5zm13.94 0h4.36q1.95 0 3 .87 1.04.86 1.04 2.46t-1.05 2.48q-1.04.86-2.99.86h-1.73v3.54h-2.63zm2.63 1.91v2.85h1.45q.77 0 1.19-.37.41-.37.41-1.06 0-.68-.41-1.05t-1.19-.37zm7.63-1.91h7.1v2h-4.48v1.9h4.2v1.98h-4.2v2.34h4.62v1.99h-7.25zm18.73 9.45q-.98.48-2.04.72t-2.19.24q-2.55 0-4.04-1.42-1.49-1.43-1.49-3.87 0-2.47 1.52-3.89t4.16-1.41q1.01 0 1.94.19.94.2 1.77.57v2.1q-.86-.48-1.7-.72-.84-.23-1.7-.23-1.56 0-2.42.88-.85.87-.85 2.5t.82 2.5q.82.89 2.33.89.41 0 .76-.05.36-.05.64-.16v-1.98h-1.6v-1.77h4.1zm1.79-4.26h4.3v1.98h-4.3zm10.21-3.02-2.88 4.27h2.88zm-.44-2.17h2.93v6.44h1.46v1.91h-1.46v1.86h-2.5v-1.86h-4.5v-2.26zm8.63 0h1.5l-3.6 11.5h-1.5zm8.99 8.35h-4.12l-.64 1.86h-2.65l3.78-10.2h3.14l3.78 10.2h-2.65zm-3.46-1.9h2.8l-1.4-4.06zm15.2-6.13v2.16q-.84-.37-1.64-.56-.8-.2-1.5-.2-.95 0-1.4.27-.45.25-.45.8 0 .41.3.64.3.23 1.1.4l1.13.22q1.7.34 2.42 1.04.71.7.71 1.98 0 1.69-1 2.52-1 .82-3.06.82-.97 0-1.94-.19-.98-.18-1.96-.54v-2.23q.98.52 1.89.79.91.26 1.76.26.86 0 1.32-.29.46-.28.46-.82 0-.48-.32-.74-.3-.26-1.23-.46l-1.02-.23q-1.53-.32-2.24-1.04-.7-.72-.7-1.94 0-1.52.98-2.34.98-.82 2.83-.82.84 0 1.73.13.88.12 1.83.37zm2.98-.32h4.37q1.95 0 2.99.87 1.04.86 1.04 2.46t-1.04 2.48q-1.04.86-3 .86h-1.73v3.54h-2.63zm2.63 1.91v2.85h1.46q.76 0 1.18-.37.42-.37.42-1.06 0-.68-.42-1.05t-1.18-.37z" fill="#e6e6e6"/><path d="m61.03 43.22a7.3 7.3 0 0 1 -4.02-3.68c-.59-1.3-.6-1.46-.68-10.17l-.07-8.85h7.05v8.15c0 4.5.09 8.16.2 8.16.1 0 3.85-3.67 8.34-8.16l8.15-8.15h7.03l6.66 6.64 6.66-6.64h9.53l-11.42 11.42 11.42 11.42h-9.53l-6.66-6.65-6.66 6.65h-9.53l7.52-7.53h7.79l-9.4-9.4-8.23 8.19c-7.79 7.76-8.3 8.21-9.59 8.59a7.4 7.4 0 0 1 -4.56.01zm-44.9-11.28v-11.42h8.14c5 0 8.66.1 9.47.27a11.44 11.44 0 0 1 8.92 10.33 11.23 11.23 0 0 1 -8 11.77c-1.36.42-2.4.47-10.03.47h-8.5zm16.7 4.67a5.05 5.05 0 0 0 .08-9.16c-1.28-.63-1.48-.66-5.67-.66h-4.34v10.3l4.45-.01c3.8 0 4.61-.08 5.48-.47zm12.66-4.67v-11.42h7.03v22.84h-7.03z" fill="#323232"/></svg>