<svg viewBox="0 0 126 84" xmlns="http://www.w3.org/2000/svg"><path d="m4.01 52.84v18.67a6.14 6.14 0 0 0 6.14 6.14h105.69c3.4 0 6.14-2.75 6.14-6.14v-18.67z" fill="#4e4e4e" stroke="#3a3a3a"/><path d="m10.16 6.35a6.09 6.09 0 0 0 -4.34 1.8 6.23 6.23 0 0 0 -1.34 1.99c-.3.75-.46 1.55-.46 2.35v39.35h117.97v-39.35a6.16 6.16 0 0 0 -6.14-6.14z" fill="#d0d0d0" stroke="#898989"/><path d="m14.49 58.68h5.24l2.02 7.84 2.01-7.84h5.22v12.88h-3.25v-9.83l-2.52 9.83h-2.96l-2.51-9.83v9.83h-3.26zm26.63 12.88h-3.34v-1.51q-.75.93-1.51 1.33t-1.87.4q-1.47 0-2.32-.89-.83-.89-.83-2.72v-5.94h3.6v5.13q0 .88.32 1.25t.91.37q.64 0 1.05-.5.41-.49.41-1.76v-4.5h3.58zm2.29-12.88h3.59v12.88h-3.59zm10.19 0v3.55h1.97v2.6h-1.97v3.32q0 .6.11.8.18.3.62.3.4 0 1.1-.24l.27 2.47q-1.33.3-2.48.3-1.33 0-1.97-.35-.63-.34-.94-1.04-.3-.7-.3-2.27v-3.28h-1.31v-2.61h1.31v-1.73zm3.8 0h3.58v2.43h-3.58zm0 3.55h3.58v9.33h-3.58zm4.83-3.55h4.17l2.9 9.27 2.85-9.27h4.05l-4.78 12.88h-4.32zm15.46 0h3.58v2.43h-3.58zm0 3.55h3.58v9.33h-3.58zm16.22 5.55h-7.16q.1.86.47 1.28.52.61 1.35.61.53 0 1-.26.3-.17.63-.6l3.52.33q-.8 1.41-1.95 2.02-1.14.61-3.28.61-1.85 0-2.91-.52-1.07-.52-1.77-1.66t-.7-2.68q0-2.19 1.4-3.54t3.88-1.35q2 0 3.16.6 1.16.6 1.77 1.76t.6 3zm-3.63-1.71q-.1-1.04-.57-1.49-.44-.45-1.18-.45-.86 0-1.37.68-.32.42-.4 1.26zm4.22-3.84h3.47l1.5 5.88 1.9-5.88h3.22l1.97 5.88 1.5-5.88h3.44l-3.43 9.33h-3.19l-1.89-5.62-1.82 5.62h-3.2z" fill="#e6e6e6" opacity=".99"/><path d="m42.53 20.61v20.96h-4.76v-14.14l-1.9 14.14h-3.38l-2.02-13.83v13.83h-4.76v-20.96h7.06q.31 1.89.65 4.46l.75 5.33 1.25-9.78zm10.17 16.7v4.26h-3.95v-4.26zm19.2-16.7-2.77 20.96h-8.26l-3.15-20.96h5.75q.99 8.66 1.42 14.64.43-6.05.89-10.74l.37-3.91zm8.92 16.7v4.26h-3.95v-4.26zm18.97-7.55h-5.44v-3.66q0-1.59-.18-1.99-.17-.4-.77-.4-.67 0-.85.48-.18.47-.18 2.07v9.73q0 1.52.18 1.99.18.47.81.47.61 0 .8-.47.2-.47.2-2.19v-2.6h5.44v.82q0 3.24-.47 4.6-.44 1.36-2.03 2.39-1.56 1.02-3.86 1.02-2.4 0-3.95-.87-1.56-.87-2.06-2.4-.51-1.53-.51-4.62v-6.13q0-2.27.16-3.41.16-1.14.92-2.17.78-1.05 2.13-1.65 1.38-.61 3.15-.61 2.41 0 3.98.94 1.56.92 2.06 2.33.48 1.38.48 4.32z" fill="#323232" stroke-width="1.42"/></svg>