<svg height="84" viewBox="0 0 126 84" width="126" xmlns="http://www.w3.org/2000/svg"><path d="m10.16 6.35c-.81 0-1.61.16-2.35.47-.75.31-1.42.76-1.99 1.33s-1.03 1.25-1.34 1.99c-.3.75-.46 1.55-.46 2.35v39.35h117.97v-39.35c0-.8-.16-1.6-.47-2.35-.31-.74-.76-1.42-1.33-1.99s-1.25-1.02-1.99-1.33c-.75-.31-1.55-.47-2.35-.47z" fill="#d0d0d0" stroke="#898989"/><path d="m4.01 52.84v18.67c0 3.39 2.75 6.14 6.14 6.14h105.69c3.4 0 6.14-2.75 6.14-6.14v-18.67z" fill="#4e4e4e" stroke="#3a3a3a"/><g fill="#e6e6e6"><path d="m17.51 59.31h3.83l2.66 6.24 2.67-6.24h3.82v11.66h-2.84v-8.53l-2.69 6.29h-1.91l-2.69-6.29v8.53h-2.85z"/><path d="m38.17 59.31h4.99q2.23 0 3.41.99 1.2.98 1.2 2.81 0 1.84-1.2 2.83-1.19.98-3.41.98h-1.98v4.05h-3.01zm3.01 2.18v3.26h1.66q.88 0 1.35-.42.48-.43.48-1.21 0-.78-.48-1.2-.48-.42-1.35-.42z"/><path d="m54.64 59.31h8.12v2.27h-5.11v2.17h4.8v2.27h-4.8v2.67h5.28v2.27h-8.29z"/><path d="m80.79 70.1q-1.13.55-2.34.82-1.21.27-2.5.27-2.91 0-4.62-1.63-1.7-1.63-1.7-4.42 0-2.82 1.73-4.44 1.73-1.62 4.75-1.62 1.16 0 2.23.22 1.07.22 2.02.65v2.41q-.98-.55-1.95-.83-.96-.27-1.93-.27-1.8 0-2.77 1.01-.97 1-.97 2.87 0 1.85.94 2.86.94 1.01 2.66 1.01.47 0 .87-.05.41-.06.73-.19v-2.27h-1.84v-2.02h4.69z"/><path d="m87.58 65.23h4.91v2.27h-4.91z"/><path d="m103.98 61.78-3.3 4.88h3.3zm-.5-2.48h3.34v7.36h1.67v2.18h-1.66v2.13h-2.84v-2.13h-5.17v-2.58z"/></g><g fill="#323232"><path d="m55.07 18.54-2.92 25.33h-8.24q-1.13-5.83-1.98-13.28-.41 3.18-1.83 13.28h-8.19l-2.94-25.33h6.41l.67 8.84.7 8.53q.36-6.63 1.81-17.38h6.84q.14 1.11.72 8.36l.72 9.62q.55-9.18 1.83-17.98z"/><path d="m78.23 18.54v25.33h-5.76v-17.11l-2.31 17.11h-4.07l-2.43-16.73v16.73h-5.76v-25.33h8.53q.39 2.29.8 5.37l.92 6.46 1.49-11.83z"/><path d="m98.01 18.54-3.35 25.33h-10l-3.81-25.33h6.94q1.21 10.46 1.71 17.69.51-7.3 1.08-12.99l.46-4.7z"/></g></svg>