<svg viewBox="0 0 126 84" xmlns="http://www.w3.org/2000/svg"><path d="m4.01 52.84v18.67a6.14 6.14 0 0 0 6.14 6.14h105.69c3.4 0 6.14-2.75 6.14-6.14v-18.67z" fill="#4e4e4e" stroke="#3a3a3a"/><path d="m10.16 6.35a6.09 6.09 0 0 0 -4.34 1.8 6.23 6.23 0 0 0 -1.34 1.99c-.3.75-.46 1.55-.46 2.35v39.35h117.97v-39.35a6.16 6.16 0 0 0 -6.14-6.14z" fill="#d0d0d0" stroke="#898989"/><path d="m29.45 72.44v-14.3h7.37q2.05 0 3.14.35 1.08.35 1.74 1.3.67.95.67 2.32 0 1.2-.51 2.06-.5.86-1.4 1.4-.56.34-1.55.57.8.26 1.15.52.25.18.7.75.48.58.63.9l2.14 4.14h-5l-2.36-4.37q-.45-.85-.8-1.1-.48-.34-1.09-.34h-.39v5.81zm4.44-8.51h1.87q.3 0 1.17-.2.44-.09.71-.45.28-.36.28-.83 0-.7-.43-1.06-.44-.37-1.66-.37h-1.94zm13.3-5.8h4.63l3.22 10.3 3.17-10.3h4.5l-5.32 14.31h-4.8zm29.34-.25v14.56h-4.02v-9.54q-.98.75-1.9 1.2-.9.46-2.28.88v-3.26q2.03-.65 3.15-1.57t1.76-2.27zm8.33 7.35q0-4.08 1.46-5.72 1.48-1.63 4.48-1.63 1.45 0 2.38.36.92.36 1.51.93.59.57.92 1.2.34.63.54 1.47.4 1.6.4 3.34 0 3.9-1.31 5.7-1.32 1.8-4.54 1.8-1.81 0-2.92-.57t-1.83-1.69q-.52-.79-.81-2.16-.28-1.37-.28-3.03zm3.94 0q0 2.74.48 3.75.49 1 1.4 1 .61 0 1.05-.43.45-.43.66-1.34.21-.92.21-2.87 0-2.85-.49-3.82-.48-.99-1.44-.99-.99 0-1.43 1-.44 1-.44 3.7z" fill="#e6e6e6"/><path d="m34.3 16.44-1.06.01c-.95.05-2.54.27-3.56.48-5.18 1.07-8.94 3.48-9.9 6.33-.84 2.55.26 4.98 3.15 6.91a22.74 22.74 0 0 0 7.73 3.05 21.1 21.1 0 0 0 3.45.45c.48 0 .6.07.57.33-.01.1-.04.15-.41.77a97.91 97.91 0 0 0 -1.81 3.21c-.3.51-.09.97.36.79.14-.06 1.36-.8 5.01-3l2.46-1.48 1.93-1.16 1.54-.92c1.3-.77 2.07-1.28 2.72-1.76.6-.45.67-.58.23-.5-.85.15-2.25.22-3.13.15s-.83-.08-1.32.2l-1.26.65a256.29 256.29 0 0 0 -2.83 1.46l-1.57.8c-.4.2-.58.26-.72.21-.18-.06-.17-.15.04-.53.57-1 .77-1.39.77-1.53 0-.25-.02-.26-.82-.28-7.62-.18-13.2-3.17-12.41-6.67.46-2.08 3-3.86 6.75-4.74a11.66 11.66 0 0 1 1.83-.35 26.3 26.3 0 0 1 7.8.23c1.33.28 1.97.48 2.97.93.36.16.45.18.66.11a8.53 8.53 0 0 1 3.46-.15c.75.13.64-.09-.43-.83-2.02-1.38-5.3-2.5-8.6-2.93l-.42-.06c-.28-.09-1.93-.17-3.18-.18zm31.55 2.5c-.84 0-1.67 0-1.7.02-.09.05-.1.06-.39 1.16l-.45 1.68-.27 1-.13.5a4 4 0 0 0 -.12.43l-.25.94-.2.76-.25.89a103.78 103.78 0 0 0 -.42 1.57c-.04.15-.1.4-.15.54-.12.46-.12.51.03.55.13.04 3.19.03 3.3 0 .12-.05.2-.28.5-1.4.02-.13.1-.4.15-.6a285.13 285.13 0 0 0 1.33-4.91l.75-2.79c.05-.18.04-.29-.03-.32-.03-.02-.87-.03-1.7-.03zm-8.27 2.56c-.44-.01-.9-.01-1.34.01-2.24.13-3.44.69-4.02 1.88-.24.5-.34.47 1.4.48 1.75 0 1.7.01 1.83-.15.45-.5.68-.6 1.41-.6.79 0 1.18.22 1.18.66 0 .6-.57.8-2.43.86-3.22.11-4.67.8-4.83 2.34-.1 1.01.47 1.72 1.63 2.01 1.3.33 2.89.17 3.91-.4.4-.23.48-.21.45.08-.01.16-.01.17.04.23l.06.06h1.56c1.67 0 1.64 0 1.72-.12.03-.03.15-.44.27-.9a37.49 37.49 0 0 1 .58-2.14c.68-2.42.63-3.1-.3-3.65a7.6 7.6 0 0 0 -3.13-.66zm-11.62.01c-.25 0-.5 0-.75.03a7.48 7.48 0 0 0 -2.54.6c-1.73.76-2.63 2.06-2.63 3.8 0 2.18 1.76 3.32 5.03 3.25 2.22-.05 3.71-.64 4.47-1.78.19-.28.22-.36.15-.43l-.04-.06h-1.51c-1.73-.01-1.7-.02-1.94.15-.82.6-2.24.47-2.62-.25-.14-.27-.21-.61-.15-.73.06-.11-.05-.1 3.41-.12 3.72-.01 3.34.01 3.44-.21.24-.54.11-1.8-.24-2.4-.64-1.06-2.34-1.81-4.08-1.85zm-6.05.04a5.56 5.56 0 0 0 -.89.02c-.6.08-1.4.44-1.88.83-.38.32-.49.26-.38-.17.14-.55.31-.5-1.62-.5h-1.61l-.08.07c-.07.06-.09.11-.2.54l-.23.86a137.9 137.9 0 0 0 -.62 2.32l-.28 1.05-.35 1.28c-.3 1.1-.3 1.09-.13 1.13.2.05 3.32.02 3.38-.03s.1-.2.27-.8l.25-.95.24-.9c.39-1.47.85-2.04 1.86-2.31l.28-.08h.73c.69 0 .74-.01.8-.05.07-.06.05 0 .98-1.75.2-.35.2-.41.12-.46a2.1 2.1 0 0 0 -.64-.1zm5.88 1.72c.11 0 .22.02.33.05.54.14.86.45.9.85.03.4.1.38-1.64.38-1.73 0-1.7 0-1.51-.36.28-.59 1.14-.98 1.92-.92zm11.59 2.58c.22.12-.2 1.04-.63 1.35-.6.45-1.8.5-2.22.08-.24-.24-.21-.61.07-.88.27-.24.56-.33 1.32-.38.33-.02.9-.1 1.15-.17.12-.03.26-.03.3 0zm47.94.16c-1.7 1.8-4.12 3.4-7.24 4.76l-.68 3.23c.78-.17 1.66-.46 2.65-.86s1.86-.85 2.62-1.34l-2.69 12.82h3.65l3.9-18.61zm-47.52 5.12-.38 1.87h3.29l.37-1.88zm9.8 0-.6 3.02-.09-.07a4.68 4.68 0 0 0 -2.14-.42 3.6 3.6 0 0 0 -1.67.53c-.49.28-.93.7-1.32 1.24a5.09 5.09 0 0 0 -.97 3.06 3 3 0 0 0 .71 2.12c1 .8 2.34.78 2.9.77.44 0 .85-.1 1.23-.28l-.02.1h3.3l1.96-10.07zm-21.93.4 1.7 9.67h3.92l5.46-9.67h-3.52l-3.27 5.9-.96-5.9h-2.37zm29.96 2.18c-.76 0-1.45.13-2.07.4a4.74 4.74 0 0 0 -2.75 4.21c0 .96.31 1.7.93 2.22 1.26.78 2.27.78 3.57.78a9.3 9.3 0 0 0 3.4-.61l.42-1.97a9.81 9.81 0 0 1 -3.68 1c-.4 0-.8-.18-.92-.3-.28-.24-.42-.6-.42-1.06v-.11l.02-.12h5.42l.08-.37a5.86 5.86 0 0 0 .15-1.18 2.7 2.7 0 0 0 -.87-2.1c-1.14-.8-2.07-.79-3.28-.8zm9.36 0c-.72 0-1.38.13-1.98.39s-1.11.64-1.54 1.14a4.78 4.78 0 0 0 -1.16 3.02c0 .94.31 1.7.92 2.24 1.22.8 2.2.81 3.48.82.74 0 1.4-.13 2-.39a4.65 4.65 0 0 0 2.7-4.16c0-.94-.3-1.7-.92-2.24-1.23-.81-2.2-.81-3.5-.82zm-27.73.24-1.41 7.25h3.28l1.41-7.25zm18.57 1.37c.2 0 .44.16.51.29a1.64 1.64 0 0 1 .15 1.1h-2.04c.16-.47.4-.84.72-1.08.2-.16.37-.3.66-.3zm9.41.16c.18.02.34.12.48.24.21.24.32.59.32 1.04 0 .84-.2 1.54-.59 2.09-.59.9-1.1.76-1.45.46-.2-.24-.3-.6-.3-1.05 0-.84.19-1.54.58-2.08.33-.57.66-.74.96-.7zm-19.37.22c.1.02.18.05.23.1.21.22.32.53.32.93 0 .88-.19 1.6-.56 2.15-.5.9-1.09.8-1.4.48-.2-.24-.3-.57-.3-1.01 0-.85.19-1.54.57-2.08.37-.5.85-.61 1.14-.57z" fill="#323232"/></svg>