<svg viewBox="0 0 126 84" xmlns="http://www.w3.org/2000/svg"><path d="m4.01 52.8v18.7a6.14 6.14 0 0 0 6.14 6.14h106c3.4 0 6.14-2.75 6.14-6.14v-18.7z" fill="#4e4e4e" stroke="#3a3a3a"/><path d="m10.2 6.35a6.09 6.09 0 0 0 -4.34 1.8 6.23 6.23 0 0 0 -1.34 1.99c-.3.75-.46 1.55-.46 2.35v39.4h118v-39.4a6.16 6.16 0 0 0 -6.14-6.14z" fill="#d0d0d0" stroke="#898989"/><path d="m14.77 72.1v-14.3h7.37q2.05 0 3.14.35 1.08.35 1.74 1.3.67.95.67 2.32 0 1.2-.51 2.06-.5.86-1.4 1.4-.56.34-1.55.57.8.26 1.15.52.25.18.7.75.48.58.63.9l2.14 4.14h-5l-2.36-4.37q-.45-.85-.8-1.1-.48-.34-1.09-.34h-.39v5.81zm4.44-8.51h1.87q.3 0 1.17-.2.44-.09.71-.45.28-.36.28-.83 0-.7-.43-1.06-.44-.37-1.66-.37h-1.94zm13.3-5.8h4.63l3.22 10.3 3.17-10.3h4.5l-5.32 14.31h-4.8zm29.34-.25v14.56h-4.02v-9.54q-.98.75-1.9 1.2-.9.46-2.28.88v-3.26q2.03-.65 3.15-1.57t1.76-2.27zm4.33 7.35q0-4.08 1.46-5.72 1.48-1.63 4.48-1.63 1.45 0 2.38.36.92.36 1.51.93.59.57.92 1.2.34.63.54 1.47.4 1.6.4 3.34 0 3.9-1.31 5.7-1.32 1.8-4.54 1.8-1.81 0-2.92-.57t-1.83-1.69q-.52-.79-.81-2.16-.28-1.37-.28-3.03zm3.94 0q0 2.74.48 3.75.49 1 1.4 1 .61 0 1.05-.43.45-.43.66-1.34.21-.92.21-2.87 0-2.85-.49-3.82-.48-.99-1.44-.99-.99 0-1.43 1-.44 1-.44 3.7zm9.02.46h5.78v3.07h-5.78zm16.04-7.81v14.56h-4v-9.54q-.98.75-1.9 1.2-.9.46-2.28.88v-3.26q2.03-.65 3.15-1.57t1.76-2.27zm8.19 4.39-3.76-.68q.47-1.8 1.8-2.75 1.34-.96 3.78-.96 2.8 0 4.05 1.05t1.25 2.63q0 .92-.5 1.67-.52.76-1.54 1.32.83.2 1.27.48.71.44 1.1 1.16.4.72.4 1.71 0 1.25-.65 2.4-.66 1.15-1.89 1.77-1.23.62-3.23.62-1.95 0-3.09-.46-1.12-.46-1.85-1.34-.72-.89-1.11-2.23l3.97-.52q.23 1.2.72 1.67.5.46 1.26.46.8 0 1.33-.59.54-.59.54-1.56 0-1-.52-1.55-.5-.54-1.39-.54-.47 0-1.29.23l.2-2.84q.34.05.53.05.78 0 1.3-.5t.52-1.18q0-.65-.39-1.05-.39-.39-1.07-.39-.7 0-1.14.43-.44.42-.6 1.49z" fill="#e6e6e6" opacity=".99"/><path d="m23.8 17.4c-5.18 1.07-8.94 3.48-9.9 6.33-.84 2.55.26 4.98 3.15 6.91 2.37 1.48 4.99 2.52 7.73 3.05 1.14.25 2.29.4 3.45.45.48 0 .6.07.57.33-.01.1-.04.15-.41.77-.62 1.06-1.23 2.13-1.81 3.21-.3.51-.09.97.36.79 4.28-2.73 9.03-5.14 13.7-8.32.6-.45.67-.58.23-.5-.85.15-2.25.22-3.13.15s-.83-.08-1.32.2c-1.99 1.02-3.73 1.93-5.66 2.91-.99.63-.62-.29-.68-.32.57-1 .77-1.39.77-1.53 0-.25-.02-.26-.82-.28-7.62-.18-13.2-3.17-12.4-6.67.46-2.08 3-3.86 6.75-4.74 3.15-.71 6.82-.61 9.63-.12 1.33.28 1.97.48 2.97.93.36.16.45.18.66.11 1.13-.29 2.31-.34 3.46-.15.75.13.64-.09-.43-.83-2.02-1.38-5.3-2.5-8.6-2.93-2.92-.34-5.37-.33-8.22.25zm36.2 2.01c-.84 0-1.67 0-1.7.02-.69 2.64-1.8 6.9-2.6 10 .13.04 3.19.03 3.3 0 1.1-3.49 2.03-7.09 2.7-10-.03-.02-.87-.03-1.7-.03zm-8.27 2.56c-.44-.01-.9-.01-1.34.01-2.24.13-3.44.69-4.02 1.88-.24.5-.34.47 1.4.48 1.75 0 1.7.01 1.83-.15.45-.5.68-.6 1.41-.6.79 0 1.18.22 1.18.66 0 .6-.57.8-2.43.86-3.22.11-4.67.8-4.83 2.34-.1 1.01.47 1.72 1.63 2.01 1.3.33 2.89.17 3.91-.4.4-.23.48-.21.45.08-.01.16-.01.17.04.23l.06.06c1.06.03 2.35-.01 3.28-.12.32-.99.58-2.1.85-3.04.68-2.42.63-3.1-.3-3.65-.99-.44-2.05-.67-3.13-.66zm-11.6.01c-.25 0-.5 0-.75.03-.88.05-1.74.25-2.54.6-1.73.76-2.63 2.06-2.63 3.8 0 2.18 1.76 3.32 5.03 3.25 2.22-.05 3.71-.64 4.47-1.78.19-.28.22-.36.15-.43l-.04-.06h-1.51c-1.73-.01-1.7-.02-1.94.15-.82.6-2.24.47-2.62-.25-.14-.27-.21-.61-.15-.73.06-.11-.05-.1 3.41-.12 3.72-.01 3.34.01 3.44-.21.24-.54.11-1.8-.24-2.4-.64-1.06-2.34-1.81-4.08-1.85zm-6.05.04c-.3-.02-.59-.01-.89.02-.6.08-1.4.44-1.88.83-.38.32-.49.26-.38-.17.14-.55.31-.5-1.62-.5-.57 0-1.64 0-1.69.07-.07.06-.09.11-.2.54-.47 2.32-1.13 4.52-1.61 6.64.2.05 3.32.02 3.38-.03.3-.75.5-1.66.76-2.65.39-1.47.85-2.04 1.86-2.31l.28-.08h.73c.69 0 .74-.01.8-.05.07-.06.05 0 .98-1.75.2-.35.2-.41.12-.46-.21-.07-.42-.1-.64-.1zm5.88 1.72c.11 0 .22.02.33.05.54.14.86.45.9.85.03.4.1.38-1.64.38-1.73 0-1.7 0-1.51-.36.28-.59 1.14-.98 1.92-.92zm11.6 2.58c.22.12-.2 1.04-.63 1.35-.6.45-1.8.5-2.22.08-.24-.24-.21-.61.07-.88.85-.46 1.47-.39 2.47-.55.12-.03.26-.03.3 0zm44 .16c-1.7 1.8-4.12 3.4-7.24 4.76l-.68 3.23c.78-.17 1.66-.46 2.65-.86s1.86-.85 2.62-1.34l-2.69 12.8h3.65l3.9-18.6zm11.6.18c-1.68-.03-3.25.83-4.13 2.26-.44.65-.78 1.35-1 2.1-.23.77-2.04 9.37-2.04 10.2 0 1.39.37 2.5 1.08 3.3 1.43 1.2 2.57 1.2 4.07 1.21 1.69.03 3.28-.83 4.18-2.27.44-.64.78-1.34 1-2.08.22-.77 2.02-9.37 2.02-10.2 0-1.4-.36-2.5-1.09-3.3-1.44-1.2-2.58-1.2-4.1-1.22zm.29 2.61c.2.04.4.18.56.37.25.35.37.85.37 1.52 0 1.25-1.91 10.1-2.37 10.9-.69 1.35-1.3 1.12-1.7.68-.27-.47-.4-1.01-.36-1.55 0-1.24 1.92-10.1 2.37-10.9.39-.85.78-1.1 1.13-1.04zm-55.5 2.33-.37 1.87h3.29l.37-1.88zm9.8 0-.6 3.02-.09-.07c-.67-.31-1.4-.45-2.14-.42-2.43.5-3.96 2.58-3.96 4.83.08 2.2 1.55 2.8 3.61 2.89.44 0 .85-.1 1.23-.28l-.02.1h3.3l1.96-10.1zm-21.9.4 1.7 9.67h3.92l5.46-9.67h-3.52l-3.27 5.9-.96-5.9h-2.37zm30 2.18c-.76 0-1.45.13-2.07.4-1.65.76-2.71 2.4-2.75 4.21 0 .96.31 1.7.93 2.22 1.26.78 2.27.78 3.57.78 1.16.01 2.31-.2 3.4-.61l.42-1.97c-1.15.57-2.4.91-3.68 1-.4 0-.8-.18-.92-.3-.28-.24-.42-.6-.42-1.06v-.11l.02-.12h5.42l.08-.37c.09-.39.14-.78.15-1.18.03-.79-.28-1.56-.87-2.1-1.14-.8-2.07-.79-3.28-.8zm9.36 0c-1.48-.02-2.55.66-3.52 1.53-.73.84-1.14 1.91-1.16 3.02 0 .94.31 1.7.92 2.24 1.22.8 2.2.81 3.48.82 2.57-.02 4.55-1.33 4.7-4.55-.17-2.57-2.44-3.04-4.42-3.06zm-27.7.24-1.41 7.25h3.28l1.41-7.25zm18.6 1.37c.2 0 .44.16.51.29.18.34.23.73.15 1.1h-2.04c.16-.47.4-.84.72-1.08.2-.16.37-.3.66-.3zm9.89.4c.63 1.04.14 2.19-.27 3.13-1.06 1.17-1.54.44-1.75-.59.08-1.63.73-2.61 2.02-2.54zm-19.8-.02c.1.02.18.05.23.1.59 1.6.01 3.79-1.64 3.56-.74-1.47.35-3.31 1.41-3.66zm36.3 6.1-.34 2.86h2.5l.35-2.85z" fill="#323232"/></svg>