<svg viewBox="0 0 126 84" xmlns="http://www.w3.org/2000/svg"><path d="m4.01 52.84v18.67a6.14 6.14 0 0 0 6.14 6.14h105.69c3.4 0 6.14-2.75 6.14-6.14v-18.67z" fill="#4e4e4e" stroke="#3a3a3a"/><path d="m10.16 6.35a6.09 6.09 0 0 0 -4.34 1.8 6.23 6.23 0 0 0 -1.34 1.99c-.3.75-.46 1.55-.46 2.35v39.35h117.97v-39.35a6.16 6.16 0 0 0 -6.14-6.14z" fill="#d0d0d0" stroke="#898989"/><path d="m29.45 72.44v-14.3h7.37q2.05 0 3.14.35 1.08.35 1.74 1.3.67.95.67 2.32 0 1.2-.51 2.06-.5.86-1.4 1.4-.56.34-1.55.57.8.26 1.15.52.25.18.7.75.48.58.63.9l2.14 4.14h-5l-2.36-4.37q-.45-.85-.8-1.1-.48-.34-1.09-.34h-.39v5.81zm4.44-8.51h1.87q.3 0 1.17-.2.44-.09.71-.45.28-.36.28-.83 0-.7-.43-1.06-.44-.37-1.66-.37h-1.94zm13.3-5.8h4.63l3.22 10.3 3.17-10.3h4.5l-5.32 14.31h-4.8zm31.84 3.22-3.96.49q-.15-.83-.52-1.17-.36-.35-.9-.35-.97 0-1.5.98-.4.7-.58 3 .71-.71 1.46-1.06.76-.35 1.74-.35 1.92 0 3.23 1.37 1.33 1.37 1.33 3.47 0 1.41-.67 2.58-.67 1.18-1.86 1.78-1.18.6-2.97.6-2.14 0-3.44-.73t-2.08-2.34q-.77-1.61-.77-4.26 0-3.87 1.63-5.67 1.63-1.8 4.52-1.8 1.7 0 2.7.4.99.38 1.64 1.15.66.76 1 1.91zm-7.32 6.38q0 1.16.58 1.82.59.66 1.44.66.78 0 1.3-.6.53-.6.53-1.78 0-1.2-.54-1.84-.56-.65-1.36-.65-.83 0-1.4.62-.55.61-.55 1.76zm13.15-2.5q0-4.08 1.46-5.72 1.48-1.63 4.48-1.63 1.45 0 2.38.36.92.36 1.51.93.59.57.92 1.2.34.63.54 1.47.4 1.6.4 3.34 0 3.9-1.31 5.7-1.32 1.8-4.54 1.8-1.81 0-2.92-.57t-1.83-1.69q-.52-.79-.81-2.16-.28-1.37-.28-3.03zm3.94 0q0 2.74.48 3.75.49 1 1.4 1 .61 0 1.05-.43.45-.43.66-1.34.21-.92.21-2.87 0-2.85-.49-3.82-.48-.99-1.44-.99-.99 0-1.43 1-.44 1-.44 3.7z" fill="#e6e6e6"/><path d="m33.85 16.33c-.4 0-.77 0-1.02.02-.92.05-2.47.26-3.46.46-5.02 1.04-8.67 3.37-9.59 6.13-.83 2.48.24 4.83 3.05 6.71 1.77 1.19 4.47 2.28 7.01 2.84.2.04.42.1.5.12.35.09 1.43.27 2.07.34.81.08.95.1 1.27.1.46 0 .59.08.56.33-.01.1-.04.14-.4.75a95.11 95.11 0 0 0 -1.33 2.35 71.43 71.43 0 0 1 -.42.76c-.28.49-.08.94.35.76.14-.06 1.32-.77 4.87-2.9l2.38-1.44 1.87-1.12c.44-.26 1.11-.67 1.5-.9 1.25-.75 2.01-1.24 2.64-1.7.58-.44.64-.56.22-.49a14.11 14.11 0 0 1 -3.04.15c-.85-.07-.81-.07-1.28.2-.12.07-.67.35-1.22.63s-1.12.58-1.28.66-.82.42-1.46.75l-1.52.78c-.39.2-.56.25-.69.21-.18-.06-.17-.15.04-.52.55-.97.75-1.35.75-1.49 0-.24-.02-.25-.79-.27-7.39-.17-12.8-3.08-12.04-6.47.45-2.02 2.91-3.75 6.55-4.6.68-.16.8-.19.98-.21a14.23 14.23 0 0 1 .8-.13c2.19-.31 5.56-.21 7.57.22 1.29.28 1.91.47 2.88.91.35.16.43.17.64.11.89-.27 2.29-.33 3.35-.15.73.12.62-.08-.42-.8-1.95-1.34-5.14-2.43-8.34-2.85a7.32 7.32 0 0 1 -.4-.06c-.28-.08-1.88-.16-3.09-.17zm32.25 2.45c-.06-.03-3.24-.03-3.3 0-.08.05-.08.06-.37 1.12l-.44 1.63-.26.97-.13.48-.11.42c-.11.42-.17.65-.24.91-.04.15-.13.48-.2.74s-.18.65-.24.86a100.38 100.38 0 0 0 -.28 1.04l-.13.48-.14.53c-.12.45-.12.5.02.54.13.04 3.1.03 3.2-.01.12-.04.2-.27.48-1.36l.15-.57a278.39 278.39 0 0 0 .64-2.35c.04-.14.12-.45.18-.68l.47-1.74c.31-1.15.57-2.11.73-2.7.05-.18.04-.28-.03-.32zm-9.67 2.47c-.43-.02-.87-.02-1.3.01-2.17.12-3.33.66-3.89 1.83-.23.48-.33.45 1.35.46 1.7.01 1.65.01 1.78-.14.43-.49.66-.58 1.37-.59.76 0 1.14.21 1.14.64-.01.59-.55.78-2.36.84-3.13.1-4.52.78-4.68 2.27-.1.98.45 1.66 1.58 1.95 1.26.32 2.8.16 3.8-.4.38-.22.46-.2.43.08-.01.15-.01.17.04.22l.06.06h1.51c1.62 0 1.58 0 1.67-.12.02-.03.14-.43.26-.88a36.32 36.32 0 0 1 .43-1.55l.14-.5c.66-2.35.61-3-.29-3.54-.59-.35-1.75-.58-3.03-.64zm-11.27.01c-.24 0-.48 0-.72.03-1.12.11-1.72.25-2.46.58-1.68.74-2.55 2-2.55 3.69 0 2.11 1.7 3.22 4.87 3.15 2.15-.05 3.6-.62 4.34-1.72.18-.28.21-.35.15-.42l-.04-.05-1.47-.01c-1.67-.01-1.65-.01-1.88.16-.79.58-2.17.45-2.54-.25-.14-.27-.21-.59-.15-.71.06-.11-.05-.1 3.31-.12 3.6-.01 3.24.01 3.33-.2.23-.52.11-1.74-.23-2.32-.62-1.04-2.27-1.76-3.96-1.8zm-5.87.04c-.3-.01-.64-.01-.86.02-.58.08-1.36.42-1.82.81-.36.3-.47.25-.37-.17.13-.53.3-.48-1.57-.48h-1.56l-.07.07c-.07.06-.09.11-.2.53-.07.26-.17.63-.22.83l-.19.7c-.05.19-.13.48-.18.65l-.13.48a355.13 355.13 0 0 0 -.38 1.44l-.33 1.24c-.29 1.07-.29 1.05-.12 1.1.18.05 3.21.02 3.27-.03s.11-.19.26-.77a243.72 243.72 0 0 0 .48-1.8c.38-1.43.82-1.98 1.8-2.24l.28-.07.71-.01c.66 0 .71-.01.77-.05.07-.05.04 0 .95-1.7.18-.34.2-.39.12-.44-.06-.04-.33-.08-.63-.09zm5.71 1.66c.11.01.21.02.32.05.52.13.84.43.87.83.03.38.1.36-1.58.36s-1.64.01-1.47-.35c.28-.57 1.11-.95 1.87-.89zm11.24 2.5c.21.12-.2 1-.61 1.31-.58.43-1.76.48-2.16.07-.24-.23-.2-.6.07-.85.26-.24.54-.32 1.27-.37a8.47 8.47 0 0 0 1.12-.16c.11-.03.25-.03.3 0zm.4 5.12-.36 1.83h3.19l.36-1.83zm9.49 0-.57 2.94c-.03-.02-.06-.06-.09-.08-.73-.34-1.34-.4-2.08-.4-.55 0-1.13.24-1.61.52-.48.27-.91.67-1.29 1.2a4.94 4.94 0 0 0 -.7 1.39 5.27 5.27 0 0 0 -.24 1.58c0 .87.23 1.55.69 2.05.96.78 2.26.76 2.8.75.43 0 .84-.09 1.2-.27l-.02.09h3.19l1.9-9.77zm-21.26.39 1.64 9.37h3.81l5.29-9.37h-3.42l-3.17 5.72-.93-5.72h-2.3zm29.05 2.11c-.73 0-1.4.13-2 .39a4.22 4.22 0 0 0 -1.54 1.14 4.59 4.59 0 0 0 -.84 1.39 4.4 4.4 0 0 0 -.28 1.56c0 .92.3 1.64.89 2.15 1.23.76 2.2.75 3.47.76a9.64 9.64 0 0 0 3.29-.6l.41-1.91c-1.22.54-2.26.91-3.57.97-.39.01-.77-.17-.88-.3-.27-.23-.41-.57-.41-1.02 0-.02 0-.06.01-.11 0-.05.01-.09.01-.11h5.26l.08-.36c.05-.22.08-.43.1-.61.02-.19.04-.36.04-.53 0-.86-.28-1.54-.84-2.05-1.11-.76-2-.75-3.18-.76zm9.08 0a4.8 4.8 0 0 0 -1.92.38 4.12 4.12 0 0 0 -1.5 1.1c-.36.42-.63.88-.83 1.39a4.28 4.28 0 0 0 -.29 1.54c0 .92.3 1.64.89 2.17 1.18.78 2.13.79 3.37.8.72 0 1.37-.13 1.95-.38a4.15 4.15 0 0 0 1.51-1.12c.36-.41.63-.87.82-1.37a4.38 4.38 0 0 0 .28-1.55c0-.92-.3-1.64-.9-2.17-1.19-.79-2.14-.79-3.39-.8zm-26.89.23-1.37 7.03h3.18l1.38-7.03zm40.49.03c-1.21 1.29-2.93 2.41-5.15 3.38l-.48 2.3c.56-.12 1.19-.32 1.88-.61a11.29 11.29 0 0 0 1.86-.95l-1.91 9.11h2.59l2.77-13.23zm7.3 0c-1.21 1.29-2.93 2.41-5.15 3.38l-.48 2.3c.56-.12 1.18-.32 1.88-.61a11.31 11.31 0 0 0 1.86-.95l-1.91 9.11h2.59l2.77-13.23zm-29.78 1.31a.66.66 0 0 1 .5.28 1.59 1.59 0 0 1 .14 1.08h-1.98c.16-.47.4-.82.7-1.06.19-.15.36-.28.64-.29zm9.13.15c.17.02.33.12.46.24.2.23.31.56.31 1 0 .82-.19 1.5-.57 2.03-.57.88-1.07.74-1.4.44-.2-.23-.3-.57-.3-1.02 0-.82.19-1.49.56-2.02.32-.55.65-.72.94-.68zm-18.78.22c.1.01.17.05.22.09.2.22.31.52.31.91 0 .86-.18 1.55-.54 2.09-.48.88-1.05.78-1.35.46-.2-.23-.3-.55-.3-.98 0-.82.18-1.49.55-2.02.36-.48.82-.59 1.11-.55z" fill="#323232" stroke-width=".12"/></svg>