<svg height="84" viewBox="0 0 126 84" width="126" xmlns="http://www.w3.org/2000/svg"><path d="m10.16 6.35c-.81 0-1.61.16-2.35.47-.75.31-1.42.76-1.99 1.33s-1.03 1.25-1.34 1.99c-.3.75-.46 1.55-.46 2.35v39.35h117.97v-39.35c0-.8-.16-1.6-.47-2.35-.31-.74-.76-1.42-1.33-1.99s-1.25-1.02-1.99-1.33c-.75-.31-1.55-.47-2.35-.47z" fill="#d0d0d0" stroke="#898989"/><path d="m4.01 52.84v18.67c0 3.39 2.75 6.14 6.14 6.14h105.69c3.4 0 6.14-2.75 6.14-6.14v-18.67z" fill="#4e4e4e" stroke="#3a3a3a"/><g fill="#e6e6e6"><path d="m27.66 59.61v2.16q-.84-.38-1.64-.57-.8-.19-1.51-.19-.94 0-1.39.26-.45.26-.45.81 0 .41.3.64.31.23 1.11.39l1.12.23q1.7.34 2.42 1.04.72.7.72 1.98 0 1.69-1 2.52-1 .82-3.06.82-.97 0-1.95-.18-.98-.18-1.96-.55v-2.22q.98.52 1.89.79.92.26 1.76.26.86 0 1.32-.29.46-.29.46-.82 0-.48-.31-.74-.31-.26-1.24-.46l-1.02-.23q-1.53-.33-2.24-1.05-.7-.72-.7-1.93 0-1.52.98-2.34.98-.82 2.83-.82.84 0 1.73.13.89.12 1.84.38z"/><path d="m35.3 61.01q-1.2 0-1.87.89-.66.89-.66 2.5 0 1.61.66 2.5.66.89 1.87.89 1.21 0 1.87-.89.66-.89.66-2.5 0-1.61-.66-2.5-.66-.89-1.87-.89zm0-1.91q2.46 0 3.86 1.41 1.39 1.41 1.39 3.89 0 2.47-1.39 3.88-1.39 1.41-3.86 1.41-2.45 0-3.86-1.41-1.39-1.41-1.39-3.88 0-2.48 1.39-3.89 1.4-1.41 3.86-1.41z"/><path d="m46.28 63.81q.83 0 1.18-.31.36-.31.36-1.01 0-.7-.36-1-.35-.3-1.18-.3h-1.11v2.62zm-1.11 1.82v3.86h-2.63v-10.21h4.02q2.02 0 2.95.68.94.68.94 2.14 0 1.01-.49 1.66-.49.65-1.47.96.54.12.96.56.43.43.87 1.31l1.43 2.9h-2.8l-1.24-2.54q-.38-.77-.77-1.05-.38-.28-1.03-.28z"/><path d="m53.32 59.28h7.1v1.99h-4.47v1.9h4.2v1.99h-4.2v2.34h4.62v1.99h-7.25z"/><path d="m62.88 59.28h2.94l3.71 7v-7h2.5v10.21h-2.94l-3.71-7v7h-2.5z"/><path d="m81.7 59.61v2.16q-.84-.38-1.64-.57-.8-.19-1.51-.19-.94 0-1.39.26-.45.26-.45.81 0 .41.3.64.31.23 1.11.39l1.12.23q1.7.34 2.42 1.04.72.7.72 1.98 0 1.69-1 2.52-1 .82-3.06.82-.97 0-1.95-.18-.98-.18-1.96-.55v-2.22q.98.52 1.89.79.92.26 1.76.26.86 0 1.32-.29.46-.29.46-.82 0-.48-.31-.74-.31-.26-1.24-.46l-1.02-.23q-1.53-.33-2.24-1.05-.7-.72-.7-1.93 0-1.52.98-2.34.98-.82 2.83-.82.84 0 1.73.13.89.12 1.84.38z"/><path d="m89.35 61.01q-1.2 0-1.87.89-.66.89-.66 2.5 0 1.61.66 2.5.66.89 1.87.89 1.21 0 1.87-.89.66-.89.66-2.5 0-1.61-.66-2.5-.66-.89-1.87-.89zm0-1.91q2.46 0 3.86 1.41 1.39 1.41 1.39 3.89 0 2.47-1.39 3.88-1.39 1.41-3.86 1.41-2.45 0-3.86-1.41-1.39-1.41-1.39-3.88 0-2.48 1.39-3.89 1.4-1.41 3.86-1.41z"/><path d="m96.58 59.28h2.94l3.71 7v-7h2.5v10.21h-2.94l-3.71-7v7h-2.5z"/></g><g fill="#323232"><path d="m40.46 23.99h-6.87v-2.12q0-1.47-.27-1.88-.27-.41-.89-.41-.67 0-1.01.55-.34.55-.34 1.66 0 1.42.39 2.14.36.72 2.1 1.74 4.94 2.94 6.24 4.82 1.28 1.88 1.28 6.07 0 3.04-.72 4.48-.7 1.45-2.75 2.43-2.05.96-4.75.96-2.99 0-5.09-1.13-2.12-1.11-2.77-2.84-.65-1.74-.65-4.94v-1.88h6.89v3.47q0 1.61.29 2.07.29.46 1.04.46.75 0 1.08-.58.36-.58.36-1.74 0-2.53-.7-3.3-.67-.77-3.45-2.58-2.77-1.83-3.66-2.68-.89-.82-1.49-2.29-.58-1.45-.58-3.74 0-3.28.82-4.8.84-1.52 2.72-2.36 1.86-.87 4.51-.87 2.89 0 4.92.94 2.05.94 2.7 2.36.67 1.4.67 4.82z"/><path d="m62.54 15.36-3.78 28.51h-11.25l-4.27-28.51h7.83q1.35 11.78 1.93 19.93.58-8.22 1.21-14.63l.51-5.3z"/><path d="m82.28 43.87v3.45h-5.59q-2.02 0-2.84-.31-.87-.29-1.16-.92-.29-.6-.29-2.22-2.51-.07-4.31-1.33-1.83-1.25-2.41-3.16-.58-1.95-.58-5.78v-8.82q0-2.92.34-4.41.36-1.54 1.42-2.87 1.08-1.35 2.77-2.05 1.69-.7 3.76-.7 2.48 0 4.41.84 1.95.84 2.92 2.14.96 1.3 1.25 2.72.29 1.4.29 4.17v9.25q0 3.81-.36 5.16-.36 1.35-1.42 2.17-1.04.8-2.77 1.21.05.94.39 1.21.34.24 1.61.24zm-7.42-21.18q0-2-.24-2.53-.22-.55-.89-.55-.58 0-.89.46-.29.43-.29 2.65v13.28q0 2.48.19 3.06.22.58.94.58.75 0 .96-.67.22-.67.22-3.18z"/><path d="m99.68 27.72q1.61.55 2.41 1.81.8 1.23.8 5.81 0 3.4-.77 5.28-.77 1.86-2.68 2.84-1.9.96-4.87.96-3.37 0-5.33-1.13-1.93-1.16-2.53-2.77-.6-1.66-.6-5.74v-2.27h7.11v4.63q0 1.86.22 2.36.24.48.99.48.82 0 1.08-.63.27-.63.27-3.3v-1.95q0-1.64-.36-2.39-.36-.75-1.08-.99-.72-.24-2.8-.29v-4.15q2.53 0 3.13-.19.6-.19.87-.84.27-.65.27-2.05v-1.59q0-1.49-.31-1.98-.29-.48-.94-.48-.75 0-1.01.51-.27.48-.27 2.12v2.34h-7.11v-2.43q0-4.1 1.86-5.52 1.86-1.45 5.93-1.45 5.09 0 6.92 2 1.81 2 1.81 5.54 0 2.39-.65 3.47-.65 1.06-2.29 1.93z"/></g></svg>