<svg viewBox="0 0 126 84" xmlns="http://www.w3.org/2000/svg"><path d="m4.01 52.84v18.67a6.14 6.14 0 0 0 6.14 6.14h105.69c3.4 0 6.14-2.75 6.14-6.14v-18.67z" fill="#4e4e4e" stroke="#3a3a3a"/><path d="m10.16 6.35a6.09 6.09 0 0 0 -4.34 1.8 6.23 6.23 0 0 0 -1.34 1.99c-.3.75-.46 1.55-.46 2.35v39.35h117.97v-39.35a6.16 6.16 0 0 0 -6.14-6.14z" fill="#d0d0d0" stroke="#898989"/><path d="m16.29 21.79h3.44q.54 0 .89.25.36.25.48.66l3.06 11.98q.27.94.5 2.17l.25-1.16q.13-.56.3-1.03l3.63-11.97q.12-.35.48-.62.36-.28.86-.28h1.2q.55 0 .88.25.34.23.48.65l3.63 11.99q.15.45.28 1 .14.53.26 1.12l.22-1.12.25-.99 3.07-12q.1-.36.46-.62.38-.28.88-.28h3.21l-6.16 20.75h-3.72l-4.1-13.8q-.1-.26-.2-.6l-.15-.68-.17.69-.17.6-4.2 13.79h-3.7zm41.95 11.89q.53.98.92 2.05l.44-1.07q.22-.53.49-1.01l6.39-11.22q.12-.23.25-.36.14-.14.3-.19.15-.06.35-.08t.47-.01h3.1v20.75h-3.61v-12.98l.01-.91.08-1.02-6.55 11.6q-.48.9-1.42.9h-.58q-.95 0-1.43-.9l-6.63-11.66.1 1.05q.03.5.03.94v12.98h-3.63v-20.75h3.11q.27 0 .45.02.2.01.36.07.17.07.3.2.14.12.26.35zm14.89-11.89h3.3q.53 0 .86.25.34.25.51.66l3.91 12.25q.24.64.47 1.39t.44 1.56q.17-.83.37-1.58.22-.77.47-1.4l3.9-12.22q.12-.36.48-.63.36-.28.87-.28h3.31l-7.59 20.75h-3.7zm36.58 20.75h-3.16q-.54 0-.87-.25-.33-.27-.49-.66l-1.3-4.08h-7.65l-1.3 4.07q-.12.34-.48.64-.34.28-.86.28h-3.2l7.56-20.75h4.19zm-12.55-7.86h5.78l-2.1-6.56q-.2-.49-.4-1.13-.2-.65-.4-1.42-.19.77-.4 1.42t-.37 1.14z" fill="#323232"/><path d="m38.25 59.47h3.7l2.58 8.25 2.54-8.25h3.6l-4.25 11.46h-3.84zm24.66 6.78 3.1.93q-.31 1.3-.98 2.18t-1.68 1.32q-.99.45-2.53.45-1.86 0-3.05-.54-1.18-.55-2.04-1.91-.86-1.37-.86-3.5 0-2.85 1.5-4.37 1.52-1.53 4.29-1.53 2.16 0 3.4.87 1.24.88 1.84 2.7l-3.12.69q-.17-.53-.35-.77-.3-.4-.72-.62-.43-.22-.97-.22-1.2 0-1.84.97-.48.71-.48 2.25 0 1.9.57 2.62.58.7 1.63.7 1.02 0 1.53-.57.52-.57.76-1.65zm8-.73h4.62v2.46h-4.62zm16.84-6.24v11.65h-3.22v-7.64q-.78.6-1.51.97-.73.36-1.83.7v-2.61q1.63-.52 2.52-1.26.9-.73 1.41-1.81z" fill="#e6e6e6"/></svg>