<svg viewBox="0 0 126 84" xmlns="http://www.w3.org/2000/svg"><path d="m4.01 52.84v18.67a6.14 6.14 0 0 0 6.14 6.14h105.69c3.4 0 6.14-2.75 6.14-6.14v-18.67z" fill="#4e4e4e" stroke="#3a3a3a"/><path d="m10.16 6.35a6.09 6.09 0 0 0 -4.34 1.8 6.23 6.23 0 0 0 -1.34 1.99c-.3.75-.46 1.55-.46 2.35v39.35h117.97v-39.35a6.16 6.16 0 0 0 -6.14-6.14z" fill="#d0d0d0" stroke="#898989"/><path d="m38.25 59.47h3.7l2.58 8.25 2.54-8.25h3.6l-4.25 11.46h-3.84zm24.66 6.78 3.1.93q-.31 1.3-.98 2.18t-1.68 1.32q-.99.45-2.53.45-1.86 0-3.05-.54-1.18-.55-2.04-1.91-.86-1.37-.86-3.5 0-2.85 1.5-4.37 1.52-1.53 4.29-1.53 2.16 0 3.4.87 1.24.88 1.84 2.7l-3.12.69q-.17-.53-.35-.77-.3-.4-.72-.62-.43-.22-.97-.22-1.2 0-1.84.97-.48.71-.48 2.25 0 1.9.57 2.62.58.7 1.63.7 1.02 0 1.53-.57.52-.57.76-1.65zm8-.73h4.62v2.46h-4.62zm16.84-6.24v11.65h-3.22v-7.64q-.78.6-1.51.97-.73.36-1.83.7v-2.61q1.63-.52 2.52-1.26.9-.73 1.41-1.81z" fill="#e6e6e6"/><path d="m23.4 21.79h3.43q.55 0 .89.25.36.25.48.66l3.07 11.98q.26.94.5 2.17l.25-1.16q.12-.56.3-1.03l3.62-11.97q.12-.35.48-.62.36-.28.86-.28h1.2q.55 0 .88.25.34.23.48.65l3.63 11.99q.16.45.28 1 .14.53.27 1.12.1-.59.21-1.12l.25-.99 3.07-12q.1-.36.47-.62.37-.28.87-.28h3.22l-6.16 20.75h-3.72l-4.1-13.8q-.1-.26-.2-.6l-.15-.68-.17.69-.17.6-4.19 13.79h-3.7zm28.87 0h3.3q.52 0 .85.25.35.25.52.66l3.9 12.25q.24.64.47 1.39t.44 1.56q.17-.83.38-1.58.21-.77.46-1.4l3.9-12.22q.12-.36.48-.63.36-.28.87-.28h3.32l-7.6 20.75h-3.7zm32.79 15.71q.33 0 .56.26l1.65 1.76q-1.13 1.58-2.83 2.41-1.7.83-4.02.83-2.1 0-3.8-.78-1.68-.8-2.87-2.2-1.17-1.43-1.81-3.37-.63-1.95-.63-4.26 0-2.33.67-4.27.7-1.95 1.93-3.36t2.95-2.18 3.78-.79q2.1 0 3.7.75 1.61.74 2.7 1.96l-1.38 1.92q-.14.17-.33.31-.17.14-.5.14t-.64-.25q-.3-.25-.75-.54-.44-.3-1.11-.55t-1.72-.25q-1.14 0-2.08.48-.94.47-1.6 1.4-.68.9-1.06 2.23-.36 1.31-.36 3 0 1.7.41 3.03t1.1 2.25q.7.9 1.64 1.39.93.47 2.01.47.64 0 1.16-.06.51-.08.95-.25.45-.2.84-.47t.79-.7q.15-.13.3-.2.18-.1.35-.1zm6.22 2.23h4.02v-11.63q0-.72.04-1.5l-2.7 2.33q-.27.22-.53.27-.27.04-.5 0t-.42-.16q-.17-.13-.27-.25l-1.19-1.63 6.24-5.4h3.1v17.97h3.54v2.81h-11.33z" fill="#323232"/></svg>