<svg viewBox="0 0 126 84" xmlns="http://www.w3.org/2000/svg"><path d="m4.01 52.84v18.67a6.14 6.14 0 0 0 6.14 6.14h105.69c3.4 0 6.14-2.75 6.14-6.14v-18.67z" fill="#4e4e4e" stroke="#3a3a3a"/><path d="m10.16 6.35a6.09 6.09 0 0 0 -4.34 1.8 6.23 6.23 0 0 0 -1.34 1.99c-.3.75-.46 1.55-.46 2.35v39.35h117.97v-39.35a6.16 6.16 0 0 0 -6.14-6.14z" fill="#d0d0d0" stroke="#898989"/><path d="m11.46 67.03 2.73-.17q.09.67.36 1.02.45.56 1.27.56.62 0 .95-.28.33-.3.33-.68 0-.36-.31-.64-.32-.29-1.48-.54-1.89-.43-2.7-1.13-.8-.7-.8-1.8 0-.72.4-1.35.43-.64 1.26-1 .83-.37 2.29-.37 1.78 0 2.72.66.93.66 1.11 2.11l-2.7.16q-.12-.63-.46-.91-.35-.29-.96-.29-.5 0-.75.22-.26.2-.26.51 0 .22.21.4.2.19.97.34 1.88.41 2.7.83.81.41 1.18 1.03.38.61.38 1.37 0 .9-.5 1.66t-1.38 1.14q-.89.4-2.24.4-2.38 0-3.29-.92-.91-.92-1.04-2.33zm10.89-6.22h3.79l1.46 5.66 1.45-5.66h3.77v9.3h-2.35v-7.1l-1.82 7.1h-2.13l-1.81-7.1v7.1h-2.37zm13.33 0h4.78q1.56 0 2.34.74.78.74.78 2.11 0 1.41-.85 2.2-.85.8-2.59.8h-1.57v3.45h-2.89zm2.89 3.96h.7q.84 0 1.17-.28.34-.3.34-.74t-.3-.75q-.28-.3-1.1-.3h-.81zm6.9-3.96h8.74v2.3h-2.93v7h-2.88v-7h-2.93zm11.07 0h7.71v1.98h-4.82v1.48h4.47v1.9h-4.46v1.84h4.96v2.1h-7.86zm19.84 7.56h-4.71v-2.12l4.7-5.6h2.26v5.72h1.17v2h-1.17v1.74h-2.25zm0-2v-2.93l-2.49 2.93zm12.83 3.74h-7.75q.13-1.15.8-2.16.68-1.01 2.54-2.39 1.14-.84 1.46-1.28.31-.44.31-.83 0-.43-.31-.73-.32-.3-.8-.3-.49 0-.8.31-.32.31-.42 1.1l-2.6-.21q.16-1.1.57-1.7.4-.62 1.14-.94.74-.33 2.05-.33 1.36 0 2.12.3.76.32 1.2.97.43.64.43 1.44 0 .85-.5 1.62-.5.78-1.81 1.7-.78.54-1.05.76-.26.22-.61.56h4.03zm8.01-9.46v9.46h-2.62v-6.2q-.63.48-1.23.78-.6.3-1.49.57v-2.12q1.32-.42 2.05-1.02.73-.6 1.15-1.47zm4.24.16h3.78l1.46 5.66 1.46-5.66h3.77v9.3h-2.35v-7.1l-1.82 7.1h-2.13l-1.82-7.1v7.1h-2.35z" fill="#e6e6e6"/><g fill="#323232"><path d="m26.52 18.57h4.12q.66 0 1.07.31.43.32.65.82l4.88 15.32q.3.8.58 1.73.3.94.55 1.96.22-1.04.47-1.98.27-.95.59-1.75l4.86-15.28q.16-.45.6-.78.45-.35 1.1-.35h4.14l-9.5 25.94h-4.62zm40.99 19.65q.41 0 .7.31l2.06 2.2q-1.41 1.98-3.54 3.02-2.1 1.03-5.02 1.03-2.64 0-4.74-.97-2.11-1-3.6-2.76-1.46-1.78-2.26-4.2-.79-2.44-.79-5.33 0-2.9.84-5.33.86-2.44 2.4-4.2 1.55-1.76 3.7-2.73 2.15-.98 4.72-.98 2.62 0 4.63.94 2.02.91 3.36 2.44l-1.72 2.4q-.17.21-.4.4-.22.17-.63.17-.41 0-.8-.32-.37-.3-.94-.68-.55-.37-1.39-.68-.84-.31-2.14-.32-1.43 0-2.6.61-1.17.59-2.01 1.74-.84 1.13-1.31 2.8-.45 1.63-.45 3.74 0 2.13.5 3.79.51 1.66 1.37 2.81.88 1.14 2.05 1.74 1.18.59 2.52.59.8 0 1.45-.08.64-.1 1.19-.31.57-.24 1.06-.59.48-.35.97-.88.2-.16.4-.25.2-.12.42-.12z"/><path d="m69.66 31.03h9.86v4.14h-9.86zm15.66 9.97h5.02v-14.55q0-.9.06-1.87l-3.38 2.9q-.33.28-.66.34-.33.06-.63 0-.3-.06-.52-.2-.22-.15-.34-.3l-1.48-2.04 7.8-6.76h3.86v22.48h4.43v3.52h-14.16z"/></g></svg>