<svg viewBox="0 0 126 84" xmlns="http://www.w3.org/2000/svg"><path d="m4.01 52.84v18.67a6.14 6.14 0 0 0 6.14 6.14h105.69c3.4 0 6.14-2.75 6.14-6.14v-18.67z" fill="#4e4e4e" stroke="#3a3a3a"/><path d="m10.16 6.35a6.09 6.09 0 0 0 -4.34 1.8 6.23 6.23 0 0 0 -1.34 1.99c-.3.75-.46 1.55-.46 2.35v39.35h117.97v-39.35a6.16 6.16 0 0 0 -6.14-6.14z" fill="#d0d0d0" stroke="#898989"/><path d="m38.25 59.47h3.7l2.58 8.25 2.54-8.25h3.6l-4.25 11.46h-3.84zm24.66 6.78 3.1.93q-.31 1.3-.98 2.18t-1.68 1.32q-.99.45-2.53.45-1.86 0-3.05-.54-1.18-.55-2.04-1.91-.86-1.37-.86-3.5 0-2.85 1.5-4.37 1.52-1.53 4.29-1.53 2.16 0 3.4.87 1.24.88 1.84 2.7l-3.12.69q-.17-.53-.35-.77-.3-.4-.72-.62-.43-.22-.97-.22-1.2 0-1.84.97-.48.71-.48 2.25 0 1.9.57 2.62.58.7 1.63.7 1.02 0 1.53-.57.52-.57.76-1.65zm8-.73h4.62v2.46h-4.62zm16.84-6.24v11.65h-3.22v-7.64q-.78.6-1.51.97-.73.36-1.83.7v-2.61q1.63-.52 2.52-1.26.9-.73 1.41-1.81z" fill="#e6e6e6"/><path d="m17.46 21.79h3.44q.55 0 .89.25.36.25.48.66l3.07 11.98q.26.94.5 2.17l.25-1.16q.12-.56.3-1.03l3.61-11.96q.12-.35.48-.62.36-.28.86-.28h1.2q.55 0 .88.25.34.23.48.65l3.63 11.99q.16.45.28 1 .14.53.27 1.12.1-.59.21-1.12l.25-.99 3.07-12q.1-.36.47-.62.37-.28.87-.28h3.22l-6.16 20.75h-3.71l-4.1-13.8q-.1-.26-.2-.6l-.15-.68-.17.69-.17.6-4.19 13.79h-3.7zm41.95 11.89q.54.98.93 2.05.21-.55.43-1.07.22-.53.49-1.01l6.39-11.22q.12-.23.25-.36.14-.14.3-.19.15-.06.35-.08t.47-.01h3.1v20.75h-3.62v-12.98l.01-.91.08-1.02-6.55 11.6q-.48.9-1.42.9h-.58q-.95 0-1.43-.9l-6.63-11.66.1 1.05q.03.5.03.94v12.98h-3.63v-20.75h3.11q.27 0 .45.02.2.01.36.07.18.07.3.2.14.12.27.35l6.43 11.25zm14.89-11.89h3.3q.53 0 .86.25.35.25.52.66l3.9 12.25q.24.64.47 1.39t.44 1.56q.17-.83.37-1.58.22-.77.47-1.4l3.9-12.22q.12-.36.48-.63.36-.28.87-.28h3.32l-7.6 20.75h-3.7zm27.68-.23q1.43 0 2.57.42 1.16.42 1.96 1.15.8.72 1.22 1.7.43.97.43 2.08 0 .99-.22 1.74-.2.75-.6 1.31t-1 .95-1.35.64q3.55 1.2 3.55 4.8 0 1.58-.58 2.78-.56 1.2-1.53 2-.95.82-2.24 1.22-1.26.4-2.67.4-1.48 0-2.62-.34-1.13-.34-1.99-1.03-.84-.7-1.47-1.73-.6-1.03-1.04-2.4l1.65-.7q.66-.26 1.22-.12.58.13.82.6.28.54.59 1 .31.46.7.82.4.35.92.55.52.2 1.2.2.82 0 1.43-.26.62-.28 1.03-.72.4-.46.61-1.02.2-.56.2-1.12 0-.72-.14-1.32-.12-.59-.6-1.01-.44-.42-1.34-.66-.89-.23-2.42-.23v-2.67q1.28-.02 2.1-.24.82-.22 1.3-.6.46-.41.63-.96.18-.55.18-1.22 0-1.42-.72-2.14-.7-.72-1.99-.72-1.14 0-1.9.64-.77.64-1.07 1.58-.25.72-.67.94-.4.22-1.17.1l-1.98-.35q.21-1.52.82-2.64.61-1.14 1.54-1.9.92-.76 2.09-1.13 1.19-.4 2.55-.4z" fill="#323232"/></svg>