<svg viewBox="0 0 126 84" xmlns="http://www.w3.org/2000/svg"><path d="m4.01 52.84v18.67a6.14 6.14 0 0 0 6.14 6.14h105.69c3.4 0 6.14-2.75 6.14-6.14v-18.67z" fill="#4e4e4e" stroke="#3a3a3a"/><path d="m10.16 6.35a6.09 6.09 0 0 0 -4.34 1.8 6.23 6.23 0 0 0 -1.34 1.99c-.3.75-.46 1.55-.46 2.35v39.35h117.97v-39.35a6.16 6.16 0 0 0 -6.14-6.14z" fill="#d0d0d0" stroke="#898989"/><g fill="#e6e6e6" stroke-width=".25"><path d="m37.9 64.99c0-1.77.37-3.15 1.1-4.14a3.55 3.55 0 0 1 3-1.48c2.72 0 4.08 1.88 4.08 5.62 0 1.82-.37 3.23-1.1 4.21a3.52 3.52 0 0 1 -2.98 1.48c-2.74 0-4.1-1.9-4.1-5.7m-1.9-6.4c-1.53 1.63-2.29 3.77-2.29 6.39 0 2.72.73 4.9 2.18 6.53s3.48 2.45 6.1 2.45c2.56 0 4.58-.81 6.05-2.43s2.21-3.8 2.21-6.54c0-2.76-.72-4.93-2.17-6.51-1.45-1.59-3.48-2.38-6.1-2.38-2.48 0-4.48.82-6 2.47m23.25-.53.01-1.6h-3.65v17.2h4.02v-12.44c.38-.5.9-.9 1.57-1.24a4.3 4.3 0 0 1 1.89-.5c1.27 0 2.19.34 2.75 1.01.56.68.85 1.75.85 3.22v9.95h4.02v-10.56c0-2.2-.6-3.9-1.78-5.13s-2.8-1.84-4.85-1.84c-2.13 0-3.74.64-4.84 1.93"/><path d="m78.6 57.59c-1.48.92-2.22 2.03-2.22 3.3 0 .74.23 1.36.7 1.87a2.4 2.4 0 0 0 1.86.77c.83 0 1.5-.22 2.04-.66.53-.44.8-1.03.8-1.77 0-.62-.08-1.18-.22-1.68-.15-.5-.3-.99-.46-1.46a4.5 4.5 0 0 1 1.83-.33c1.04 0 1.88.3 2.5.91.63.6.95 1.57.95 2.9a5 5 0 0 1 -.24 1.61c-.17.48-.44.93-.81 1.33-.38.44-.9.86-1.56 1.27-.66.4-1.48.86-2.45 1.37-.91.48-1.81 1.03-2.7 1.65s-1.7 1.3-2.44 2.06v2.83h16.07v-3.36h-12.17v-1.1c.6-.4 1.28-.75 2.05-1.04.76-.3 1.67-.57 2.7-.83a69 69 0 0 0 2.74-.76c.85-.26 1.62-.6 2.33-1a5.23 5.23 0 0 0 1.78-1.57c.4-.6.6-1.38.6-2.35 0-1.88-.76-3.25-2.28-4.1-1.52-.84-3.51-1.26-5.98-1.26a10 10 0 0 0 -5.42 1.4"/></g><path d="m10.84 22.8c-.24.07-.41.34-.41.6 0 .12.22.77 2.71 7.68 1.47 4.15 2.71 7.6 2.76 7.66.2.33.48.52.89.64h3.58c.38-.11.67-.3.86-.64.05-.05 1.3-3.5 2.76-7.66 2.5-6.91 2.71-7.56 2.71-7.68a.6.6 0 0 0 -.43-.6c-.07-.05-.6-.05-1.15-.05s-1.1 0-1.23.05a1.4 1.4 0 0 0 -.84.63c-.07.12-.96 2.64-1.92 5.3-1.48 4.27-2.35 6.91-2.37 7.27 0 0-.17-.89-2.38-7.18-.98-2.76-1.87-5.25-1.94-5.37-.17-.31-.5-.58-.84-.65-.1-.05-.75-.05-1.4-.05s-1.27 0-1.36.05zm18.74.6v15.34c.12.33.31.55.65.64l1.22.03c1.08 0 1.25 0 1.37-.05a.79.79 0 0 0 .58-.55c.05-.14.05-.26.05-2.8v-2.67h2.01c2.07-.03 2.23-.03 2.86-.12 2.78-.43 4.44-2 4.44-5.1 0-3.11-1.63-4.74-4.3-5.22-.81-.12-.72-.12-4.58-.15-2.88 0-3.6 0-3.67.03a.95.95 0 0 0 -.63.62zm8.38 2.16c.91.48 1.1 1.18 1.1 2.64 0 1.54-.4 2.35-1.58 2.69-.55.17-.94.2-2.69.2h-1.42v-5.91h2.48c.93 0 1.46.04 2.1.38zm13.92.91c0 1.42-.65 2.55-1.59 2.76-.07.03-1.39.12-1.44.17-.07 0-.14.07-.19.14v1.76l.15.14 1 .02c.6.03 1.06.03 1.13.05 1.32.3 1.49 1.32 1.49 3.05 0 1.9-.43 2.76-2.23 2.76a6.7 6.7 0 0 1 -3.8-1.32c-.14-.1-.3-.24-.45-.24-.1 0-.14.05-.22.17-.04.12-.38 2.11-.38 2.2.02.1.12.17.55.46a7.7 7.7 0 0 0 4.61 1.35c3.67 0 5.8-1.85 5.8-5.52a3.84 3.84 0 0 0 -2.78-3.92l-.28-.12c1.22-.76 2.35-1.99 2.35-3.84 0-2.92-1.87-4.32-5.07-4.32a6.09 6.09 0 0 0 -4.82 2.21c0 .22.24.48.62 1.03.6.84.68.92.8.92s.19-.05.4-.32a3.89 3.89 0 0 1 2.24-1.3c.14-.02.3-.02.64-.02 1.2 0 1.47.48 1.47 1.73zm5.85 7.42c0 .55.2.89.63 1 .12.06.43.06 2.9.06 3 0 2.88 0 3.1-.12.31-.22.4-.44.4-.94 0-.48-.09-.7-.4-.91-.22-.12-.1-.12-3.12-.12-2.4 0-2.79 0-2.88.05-.43.12-.63.43-.63.98zm9.58-11.09c-.24.07-.4.34-.4.6 0 .12.2.77 2.7 7.68 1.47 4.15 2.72 7.6 2.76 7.66.2.33.48.52.9.64h3.57c.38-.11.67-.3.86-.64.05-.05 1.3-3.5 2.76-7.66 2.5-6.91 2.71-7.56 2.71-7.68a.6.6 0 0 0 -.43-.6c-.07-.05-.6-.05-1.15-.05s-1.1 0-1.22.05c-.34.07-.68.34-.84.63-.08.12-.96 2.64-1.92 5.3-1.5 4.27-2.36 6.91-2.38 7.27 0 0-.17-.89-2.38-7.18-.98-2.76-1.87-5.25-1.94-5.37-.17-.31-.5-.58-.84-.65-.1-.05-.74-.05-1.4-.05s-1.26 0-1.36.05zm18.74.6v15.34c.12.33.32.55.65.64l1.23.03c1.08 0 1.24 0 1.36-.05a.79.79 0 0 0 .58-.55c.05-.14.05-.26.05-2.8v-2.67h2.01c2.07-.03 2.24-.03 2.86-.12 2.78-.43 4.44-2 4.44-5.1 0-3.11-1.63-4.74-4.3-5.22-.81-.12-.72-.12-4.58-.15-2.88 0-3.6 0-3.67.03a.95.95 0 0 0 -.63.62zm8.38 2.16c.91.48 1.1 1.18 1.1 2.64 0 1.54-.4 2.35-1.58 2.69-.55.17-.94.2-2.69.2h-1.41v-5.91h2.47c.93 0 1.46.04 2.11.38zm7.75 1.42c0 1.8.94 2.95 2.38 3.4.14.15-2.74.39-2.74 4.13 0 2.19.72 3.7 2 4.54.86.6 1.96.89 3.5.89 3.6 0 5.47-1.8 5.47-5.43 0-1.2-.27-2.1-.87-2.88a4.22 4.22 0 0 0 -1.65-1.12c-.2-.08-.24-.1-.2-.12.17-.05.58-.24.75-.34.98-.58 1.6-1.58 1.6-3.05 0-2.88-1.38-4.4-4.05-4.73-.26-.02-.86-.02-1.34-.02-3.17 0-4.85 1.66-4.85 4.73zm6.8-.48v.55c0 1 0 1.22-.15 1.56-.17.53-.75.77-1.51.77-1.59 0-1.7-.72-1.7-2.4 0-1.5.18-1.95.8-2.14.27-.1.46-.12 1-.12 1.24.07 1.55.48 1.55 1.78zm-1.69 10.8c-1.68 0-1.73-.84-1.77-2.62 0-1.18.02-1.8.16-2.23.15-.6.77-.99 1.61-.99s1.49.36 1.63.99c.15.43.17 1.05.17 2.23-.05 1.78-.12 2.62-1.8 2.62z" fill="#323232"/></svg>