<svg viewBox="0 0 126 84" xmlns="http://www.w3.org/2000/svg"><path d="m4.01 52.84v18.67a6.14 6.14 0 0 0 6.14 6.14h105.69c3.4 0 6.14-2.75 6.14-6.14v-18.67z" fill="#4e4e4e" stroke="#3a3a3a"/><path d="m10.16 6.35a6.09 6.09 0 0 0 -4.34 1.8 6.23 6.23 0 0 0 -1.34 1.99c-.3.75-.46 1.55-.46 2.35v39.35h117.97v-39.35a6.16 6.16 0 0 0 -6.14-6.14z" fill="#d0d0d0" stroke="#898989"/><g fill="#e6e6e6" stroke-width=".25"><path d="m37.9 64.99c0-1.77.37-3.15 1.1-4.14a3.55 3.55 0 0 1 3-1.48c2.72 0 4.08 1.88 4.08 5.62 0 1.82-.37 3.23-1.1 4.21a3.52 3.52 0 0 1 -2.98 1.48c-2.74 0-4.1-1.9-4.1-5.7m-1.9-6.4c-1.53 1.63-2.29 3.77-2.29 6.39 0 2.72.73 4.9 2.18 6.53s3.48 2.45 6.1 2.45c2.56 0 4.58-.81 6.05-2.43s2.21-3.8 2.21-6.54c0-2.76-.72-4.93-2.17-6.51-1.45-1.59-3.48-2.38-6.1-2.38-2.48 0-4.48.82-6 2.47m23.25-.53.01-1.6h-3.65v17.2h4.02v-12.44c.38-.5.9-.9 1.57-1.24a4.3 4.3 0 0 1 1.89-.5c1.27 0 2.19.34 2.75 1.01.56.68.85 1.75.85 3.22v9.95h4.02v-10.56c0-2.2-.6-3.9-1.78-5.13s-2.8-1.84-4.85-1.84c-2.13 0-3.74.64-4.84 1.93"/><path d="m78.6 57.59c-1.48.92-2.22 2.03-2.22 3.3 0 .74.23 1.36.7 1.87a2.4 2.4 0 0 0 1.86.77c.83 0 1.5-.22 2.04-.66.53-.44.8-1.03.8-1.77 0-.62-.08-1.18-.22-1.68-.15-.5-.3-.99-.46-1.46a4.5 4.5 0 0 1 1.83-.33c1.04 0 1.88.3 2.5.91.63.6.95 1.57.95 2.9a5 5 0 0 1 -.24 1.61c-.17.48-.44.93-.81 1.33-.38.44-.9.86-1.56 1.27-.66.4-1.48.86-2.45 1.37-.91.48-1.81 1.03-2.7 1.65s-1.7 1.3-2.44 2.06v2.83h16.07v-3.36h-12.17v-1.1c.6-.4 1.28-.75 2.05-1.04.76-.3 1.67-.57 2.7-.83a69 69 0 0 0 2.74-.76c.85-.26 1.62-.6 2.33-1a5.23 5.23 0 0 0 1.78-1.57c.4-.6.6-1.38.6-2.35 0-1.88-.76-3.25-2.28-4.1-1.52-.84-3.51-1.26-5.98-1.26a10 10 0 0 0 -5.42 1.4"/></g><path d="m30.83 18.1c-.34.1-.58.47-.58.85 0 .17.3 1.1 3.87 10.96a441.3 441.3 0 0 0 3.94 10.93c.27.48.69.75 1.27.92h5.1a2 2 0 0 0 1.24-.92c.06-.07 1.85-5 3.94-10.93 3.56-9.87 3.87-10.8 3.87-10.96a.85.85 0 0 0 -.62-.86c-.1-.07-.86-.07-1.64-.07s-1.58 0-1.75.07c-.48.1-.96.48-1.2.9-.1.16-1.37 3.76-2.74 7.56-2.13 6.1-3.36 9.87-3.4 10.38 0 0-.23-1.26-3.38-10.24-1.4-3.94-2.68-7.5-2.78-7.67a1.9 1.9 0 0 0 -1.2-.93c-.14-.07-1.06-.07-1.99-.07s-1.81 0-1.95.07zm26.76.85v21.89c.17.48.44.79.92.92l1.75.04c1.54 0 1.78 0 1.95-.07.41-.1.69-.38.82-.79.07-.2.07-.38.07-4v-3.81h2.88c2.95-.03 3.19-.03 4.08-.17 3.97-.62 6.33-2.84 6.33-7.26 0-4.46-2.32-6.79-6.13-7.47-1.16-.17-1.03-.17-6.54-.2-4.11 0-5.14 0-5.24.03-.45.17-.76.44-.9.89zm11.95 3.08c1.3.69 1.58 1.68 1.58 3.77 0 2.2-.58 3.36-2.26 3.84-.79.24-1.34.27-3.84.27h-2.02v-8.43h3.53c1.33 0 2.09.07 3.01.55zm19.87 1.3c0 2.02-.92 3.63-2.26 3.94-.1.04-1.99.17-2.05.24-.1 0-.2.1-.28.2v2.5l.2.21 1.45.04c.85.03 1.5.03 1.6.07 1.9.4 2.13 1.88 2.13 4.35 0 2.7-.62 3.94-3.19 3.94a9.57 9.57 0 0 1 -5.4-1.89c-.21-.13-.45-.34-.66-.34-.14 0-.2.07-.3.24-.08.17-.56 3.01-.56 3.15.04.14.18.24.8.65a11 11 0 0 0 6.57 1.92c5.24 0 8.3-2.64 8.3-7.88a5.48 5.48 0 0 0 -3.98-5.58l-.41-.17c1.74-1.1 3.35-2.85 3.35-5.49 0-4.17-2.67-6.16-7.23-6.16-2.74 0-4.8.96-6.47 2.64-.34.3-.38.37-.41.51 0 .3.34.69.89 1.47.86 1.2.96 1.3 1.13 1.3s.27-.06.58-.44a5.55 5.55 0 0 1 3.19-1.85c.2-.03.44-.03.92-.03 1.72 0 2.1.68 2.1 2.46z" fill="#323232"/></svg>