<svg viewBox="0 0 126 84" xmlns="http://www.w3.org/2000/svg"><path d="m10.16 6.35a6.09 6.09 0 0 0 -4.34 1.8 6.23 6.23 0 0 0 -1.34 1.99c-.3.75-.46 1.55-.46 2.35v39.35h117.97v-39.35a6.16 6.16 0 0 0 -6.14-6.14z" fill="#d0d0d0" stroke="#898989"/><path d="m4.01 52.84v18.67a6.14 6.14 0 0 0 6.14 6.14h105.69c3.4 0 6.14-2.75 6.14-6.14v-18.67z" fill="#4e4e4e" stroke="#3a3a3a"/><path d="m25.91 58.43h3.4l3.48 9.69 3.48-9.69h3.4l-4.87 13.13h-4.04zm18.49 0h3.4v13.13h-3.4zm13.09 2.57v8h1.21q2.08 0 3.17-1.03 1.1-1.03 1.1-2.99 0-1.95-1.1-2.97t-3.17-1.02zm-3.38-2.57h3.56q3 0 4.45.43 1.47.43 2.51 1.45.93.88 1.38 2.04.44 1.16.44 2.63 0 1.49-.44 2.66-.45 1.16-1.38 2.04-1.05 1.02-2.53 1.45-1.47.43-4.43.43h-3.56zm17.94 0h9.13v2.57h-5.75v2.44h5.4v2.56h-5.4v3h5.94v2.57h-9.32zm21.29 2.22q-1.55 0-2.4 1.14t-.85 3.22q0 2.06.85 3.2t2.4 1.15q1.55 0 2.4-1.14t.86-3.22q0-2.08-.85-3.22t-2.41-1.14zm0-2.45q3.16 0 4.95 1.8 1.8 1.82 1.8 5 0 3.19-1.8 5-1.79 1.81-4.95 1.81t-4.96-1.8q-1.8-1.82-1.8-5 0-3.2 1.8-5 1.8-1.81 4.96-1.81z" fill="#e6e6e6"/><g fill="#323232"><path d="m43.68 32.7.61 3.99h.16l.68-4.03 4.49-13.73h4.83l-8.72 23.63h-3.28l-8.8-23.64h5.34zm12.56-13.55c.94-.19 1.96-.32 3.08-.4 1.13-.11 2.27-.17 3.38-.17 1.17 0 2.33.11 3.49.31 1.2.17 2.26.56 3.19 1.14a6.32 6.32 0 0 1 2.28 2.38 7.63 7.63 0 0 1 .9 3.96c0 1.47-.26 2.73-.76 3.76a7.18 7.18 0 0 1 -2.05 2.47 8.23 8.23 0 0 1 -2.92 1.42 12.77 12.77 0 0 1 -3.89.44h-.76a14734.09 14734.09 0 0 1 -1.35-.14v8.08h-4.59zm6.83 3.38c-.44 0-.87.02-1.28.08a8.72 8.72 0 0 0 -.97.1v7.61l.4.07.57.07a4177.12 4177.12 0 0 0 1.01 0c.6 0 1.2-.05 1.78-.16.6-.11 1.13-.32 1.6-.6.48-.33.84-.74 1.11-1.28.29-.55.44-1.24.44-2.11 0-.74-.13-1.34-.4-1.81a3.19 3.19 0 0 0 -1.07-1.18 3.96 3.96 0 0 0 -1.48-.6 8.7 8.7 0 0 0 -1.71-.17" stroke-width="1.09"/><path d="m74.32 26.39c0-1.14.17-2.19.5-3.16.36-.96.86-1.78 1.51-2.45a6.95 6.95 0 0 1 2.42-1.61c.96-.4 2.06-.6 3.29-.6 2.53 0 4.51.76 5.94 2.28 1.45 1.5 2.18 3.69 2.18 6.58 0 2.6-.34 4.85-1.01 6.75-.65 1.88-1.53 3.46-2.65 4.73a11.39 11.39 0 0 1 -3.83 2.89 13.58 13.58 0 0 1 -4.6 1.21l-.94-3.42a11.08 11.08 0 0 0 3.29-.91 9.41 9.41 0 0 0 2.48-1.64 8.56 8.56 0 0 0 1.68-2.25 9.56 9.56 0 0 0 .94-2.72c-.54.58-1.12.99-1.75 1.21-.6.22-1.42.33-2.45.33-.85 0-1.7-.14-2.55-.44a6.9 6.9 0 0 1 -2.25-1.31 7.37 7.37 0 0 1 -1.61-2.25c-.4-.92-.6-1.99-.6-3.22m4.23-.24c0 1.28.36 2.24 1.07 2.89.72.65 1.61.97 2.69.97.92 0 1.67-.15 2.25-.44a3.66 3.66 0 0 0 1.34-1.07c.07-.47.1-.92.1-1.34 0-.63-.08-1.24-.24-1.85a4.83 4.83 0 0 0 -.74-1.61 3.3 3.3 0 0 0 -1.24-1.11c-.49-.29-1.09-.44-1.78-.44-1.1 0-1.95.36-2.55 1.07-.6.69-.91 1.67-.91 2.92" stroke-width=".19"/></g></svg>