<svg height="84" viewBox="0 0 126 84" width="126" xmlns="http://www.w3.org/2000/svg"><path d="m10.16 6.35c-.81 0-1.61.16-2.35.47-.75.31-1.42.76-1.99 1.33s-1.03 1.25-1.34 1.99c-.3.75-.46 1.55-.46 2.35v39.35h117.97v-39.35c0-.8-.16-1.6-.47-2.35-.31-.74-.76-1.42-1.33-1.99s-1.25-1.02-1.99-1.33c-.75-.31-1.55-.47-2.35-.47z" fill="#d0d0d0" stroke="#898989"/><path d="m4.01 52.84v18.67c0 3.39 2.75 6.14 6.14 6.14h105.69c3.4 0 6.14-2.75 6.14-6.14v-18.67z" fill="#4e4e4e" stroke="#3a3a3a"/><g fill="#e6e6e6"><path d="m25.99 70.1q-1.13.55-2.34.82-1.21.27-2.5.27-2.91 0-4.62-1.63-1.7-1.63-1.7-4.42 0-2.82 1.73-4.44 1.73-1.62 4.75-1.62 1.16 0 2.23.22 1.07.22 2.02.65v2.41q-.98-.55-1.95-.83-.96-.27-1.93-.27-1.8 0-2.77 1.01-.97 1-.97 2.87 0 1.85.94 2.86.94 1.01 2.66 1.01.47 0 .87-.05.41-.06.73-.19v-2.27h-1.84v-2.02h4.69z"/><path d="m38.71 61.27q-1.38 0-2.13 1.02-.76 1.02-.76 2.86 0 1.84.76 2.85.76 1.02 2.13 1.02 1.38 0 2.14-1.02.76-1.02.76-2.85 0-1.84-.76-2.86-.76-1.02-2.14-1.02zm0-2.18q2.81 0 4.41 1.61 1.59 1.61 1.59 4.45 0 2.83-1.59 4.44-1.59 1.61-4.41 1.61-2.8 0-4.41-1.61-1.59-1.61-1.59-4.44 0-2.84 1.59-4.45 1.6-1.61 4.41-1.61z"/><path d="m57.05 61.27q-1.38 0-2.13 1.02-.76 1.02-.76 2.86 0 1.84.76 2.85.76 1.02 2.13 1.02 1.38 0 2.14-1.02.76-1.02.76-2.85 0-1.84-.76-2.86-.76-1.02-2.14-1.02zm0-2.18q2.81 0 4.41 1.61 1.59 1.61 1.59 4.45 0 2.83-1.59 4.44-1.59 1.61-4.41 1.61-2.8 0-4.41-1.61-1.59-1.61-1.59-4.44 0-2.84 1.59-4.45 1.6-1.61 4.41-1.61z"/><path d="m80.55 70.1q-1.13.55-2.34.82-1.21.27-2.5.27-2.91 0-4.62-1.63-1.7-1.63-1.7-4.42 0-2.82 1.73-4.44 1.73-1.62 4.75-1.62 1.16 0 2.23.22 1.07.22 2.02.65v2.41q-.98-.55-1.95-.83-.96-.27-1.93-.27-1.8 0-2.77 1.01-.97 1-.97 2.87 0 1.85.94 2.86.94 1.01 2.66 1.01.47 0 .87-.05.41-.06.73-.19v-2.27h-1.84v-2.02h4.69z"/><path d="m87.94 59.31h3.01v9.39h5.28v2.27h-8.29z"/><path d="m102.87 59.31h8.12v2.27h-5.11v2.17h4.8v2.27h-4.8v2.67h5.28v2.27h-8.29z"/></g><path d="m34.12 19.3c1.29 3.93 2.98 7.74 3.99 11.74.16 1.35.69 2.88.83.64.69-4.19 1.98-8.25 2.94-12.38h4.83c-2.08 6.83-4.16 13.66-6.25 20.48-1.3 0-2.6 0-3.89 0-1.39-4.12-3.13-8.15-4.3-12.33-.11-1.77-.74-1.84-.82-.02-.96 3.86-2.54 7.56-3.75 11.36-.04 1.64-1.86.78-2.92.99-1.6.54-1.76-.89-2.1-2.08-1.96-6.13-3.91-12.27-5.87-18.4h5.72c.99 3.73 2.34 7.38 3.09 11.17.14.56.25 3.64.67 2.04.7-4.56 2.63-8.8 3.95-13.21h3.89zm30.49 18.53c-3.87 2.68-9.56 3.28-13.63.71-3.98-3.24-4.13-9.2-2.93-13.8 1.56-5.84 9.33-7.57 14.11-4.71 3.52 2.32 3.42 7.06 2.7 10.74-4.06 0-8.11 0-12.17 0-.39 3.75 3.42 5.99 6.76 5.03 2.29-.87 3.9-2.08 4.58.88.19.38.39.76.58 1.14zm-7.54-14.88c-2.39-.86-5.79 4.23-3.27 4.54h6.55c.3-2.12-.73-4.74-3.29-4.54zm12.03-11.77h5.27v9.73c3.2-3.28 9.87-2.78 11.72 1.81 1.64 4.36 1.69 9.78-.99 13.75-3.38 4.53-9.8 3.99-14.65 2.71-2.21-.05-1.09-2.46-1.36-3.87 0-8.04 0-16.08 0-24.12zm9.05 12.09c-2.79-.18-4.19 2.71-3.77 5.11v6.66c2.94 1.58 7.22.06 7.22-3.66.3-2.83.58-7.98-3.45-8.1zm12.77-3.97h3.85c.32 1.54.59 3.53 1.92 1.1 3.55-3.11 10.42-1.88 11.74 2.98 1.29 4.88 1.32 11.08-2.65 14.77-2.59 2.18-6.52 2.62-9.58 1.23v8.32c-1.76 0-3.52 0-5.27 0 0-9.46 0-18.93 0-28.39zm9.05 3.89c-2.89-.23-4.15 2.85-3.77 5.27v6.25c2.75 2.38 7.53.34 7.38-3.44.28-2.73.62-7.02-2.69-7.98l-.45-.07-.48-.02z" fill="#323232"/></svg>