<svg height="84" viewBox="0 0 126 84" width="126" xmlns="http://www.w3.org/2000/svg"><path d="m10.16 6.35c-.81 0-1.61.16-2.35.47-.75.31-1.42.76-1.99 1.33s-1.03 1.25-1.34 1.99c-.3.75-.46 1.55-.46 2.35v39.35h117.97v-39.35c0-.8-.16-1.6-.47-2.35-.31-.74-.76-1.42-1.33-1.99s-1.25-1.02-1.99-1.33c-.75-.31-1.55-.47-2.35-.47z" fill="#d0d0d0" stroke="#898989"/><path d="m4.01 52.84v18.67c0 3.39 2.75 6.14 6.14 6.14h105.69c3.4 0 6.14-2.75 6.14-6.14v-18.67z" fill="#4e4e4e" stroke="#3a3a3a"/><g fill="#e6e6e6"><path d="m15.63 59.31h3.83l2.66 6.24 2.67-6.24h3.82v11.66h-2.84v-8.53l-2.69 6.29h-1.91l-2.69-6.29v8.53h-2.85z"/><path d="m32.89 62.22h2.8v8.75h-2.8zm0-3.41h2.8v2.28h-2.8z"/><path d="m46.9 62.49v2.28q-.57-.39-1.15-.57-.57-.19-1.19-.19-1.17 0-1.83.69-.65.68-.65 1.91 0 1.23.65 1.91.66.68 1.83.68.66 0 1.24-.2.59-.2 1.09-.58v2.29q-.66.24-1.34.36-.67.13-1.35.13-2.37 0-3.7-1.21-1.34-1.22-1.34-3.38 0-2.16 1.34-3.38 1.34-1.22 3.7-1.22.69 0 1.35.13.67.12 1.34.36z"/><path d="m57.27 64.6q-.37-.17-.73-.25-.36-.09-.73-.09-1.08 0-1.66.7-.58.69-.58 1.98v4.03h-2.8v-8.75h2.8v1.44q.54-.86 1.23-1.25.7-.4 1.68-.4.14 0 .3.02.16.01.48.05z"/><path d="m64.29 64.01q-.93 0-1.42.67-.48.66-.48 1.92 0 1.26.48 1.93.49.66 1.42.66.91 0 1.4-.66.48-.67.48-1.93 0-1.26-.48-1.92-.48-.67-1.4-.67zm0-2q2.26 0 3.52 1.22 1.27 1.22 1.27 3.38 0 2.16-1.27 3.38-1.27 1.22-3.52 1.22-2.27 0-3.55-1.22-1.27-1.22-1.27-3.38 0-2.16 1.27-3.38 1.28-1.22 3.55-1.22z"/><path d="m79.41 62.49v2.13q-.9-.38-1.73-.56-.84-.19-1.58-.19-.8 0-1.19.2-.38.2-.38.61 0 .34.29.52.3.18 1.05.27l.49.07q2.15.27 2.89.9.74.63.74 1.96 0 1.4-1.03 2.1-1.03.7-3.08.7-.87 0-1.8-.14-.92-.13-1.9-.41v-2.13q.84.41 1.71.61.88.2 1.79.2.82 0 1.23-.23.41-.23.41-.67 0-.38-.29-.55-.28-.19-1.13-.29l-.49-.06q-1.87-.23-2.62-.87-.75-.63-.75-1.92 0-1.39.95-2.06.95-.67 2.92-.67.77 0 1.63.12.85.12 1.85.37z"/><path d="m87.72 64.01q-.93 0-1.42.67-.48.66-.48 1.92 0 1.26.48 1.93.49.66 1.42.66.91 0 1.4-.66.48-.67.48-1.93 0-1.26-.48-1.92-.48-.67-1.4-.67zm0-2q2.26 0 3.52 1.22 1.27 1.22 1.27 3.38 0 2.16-1.27 3.38-1.27 1.22-3.52 1.22-2.27 0-3.55-1.22-1.27-1.22-1.27-3.38 0-2.16 1.27-3.38 1.28-1.22 3.55-1.22z"/><path d="m101.77 58.81v1.84h-1.55q-.59 0-.83.22-.23.21-.23.74v.61h2.39v2h-2.39v6.75h-2.8v-6.75h-1.39v-2h1.39v-.61q0-1.43.8-2.11.8-.69 2.47-.69z"/><path d="m107.49 59.74v2.48h2.88v2h-2.88v3.71q0 .61.24.83.24.21.96.21h1.44v2h-2.4q-1.66 0-2.35-.69-.69-.7-.69-2.35v-3.71h-1.39v-2h1.39v-2.48z"/></g><g fill="#323232"><path d="m46.75 18.54-2.92 25.33h-8.24q-1.13-5.83-1.98-13.28-.41 3.18-1.83 13.28h-8.19l-2.94-25.33h6.41l.67 8.84.7 8.53q.36-6.63 1.81-17.38h6.84q.14 1.11.72 8.36l.72 9.62q.55-9.18 1.83-17.98z"/><path d="m69.91 18.54v25.33h-5.76v-17.11l-2.31 17.11h-4.07l-2.43-16.73v16.73h-5.76v-25.33h8.53q.39 2.29.8 5.37l.92 6.46 1.49-11.83z"/><path d="m89.7 18.54-3.35 25.33h-10l-3.81-25.33h6.94q1.21 10.46 1.71 17.69.51-7.3 1.08-12.99l.46-4.7z"/><path d="m105.77 39.55v4.31h-13.91v-3.62q6.19-10.12 7.35-12.51 1.18-2.41 1.18-3.76 0-1.04-.36-1.54-.34-.51-1.06-.51-.72 0-1.08.55-.34.55-.34 2.24v2.41h-5.69v-.92q0-2.12.22-3.35.22-1.23 1.08-2.43.87-1.18 2.24-1.81 1.37-.6 3.3-.6 3.78 0 5.69 1.88 1.95 1.86 1.95 4.72 0 2.17-1.08 4.6-1.08 2.43-6.41 10.29z"/></g></svg>