<svg xmlns="http://www.w3.org/2000/svg" viewBox="0 0 64 64">
    <path d="M47.64 10.43h3.1v4.15H47.6zm6.3 8.3h3.15v4.14h-3.15zm0 8.33h3.15v4.14h-3.15zm-3.2-12.48h3.2v4.14h-3.2zm3.2-4.15h3.15v4.15h-3.15z"/>
    <path d="M9.22 6.42A6.26 6.26 0 003 12.64V45.8c0 3.4 2.98 6.21 5.1 6.21h12.73c1 0-3.61 5.56-2.57 5.56H44.7c.74 0-3.24-5.56-2.45-5.56h12.52c3.4 0 6.22-2.81 6.22-6.21V12.64c0-3.4-2.82-6.22-6.22-6.22zm0 4.15h45.6c1.16 0 2.08.9 2.08 2.07V45.8a2.07 2.07 0 01-2.08 2.07c-15.92-.13-25.87.33-45.15 0-1.57-.17-2.52-1.29-2.65-2.9l.13-32.34c0-1.16.9-2.07 2.07-2.07z"/>
</svg>