<svg xmlns="http://www.w3.org/2000/svg" viewBox="0 0 64 64">
    <path d="M6.89 62.51h50.22A3.9 3.9 0 0061 58.63V5.37a3.9 3.9 0 00-3.89-3.88H6.89A3.9 3.9 0 003 5.37v53.26a3.9 3.9 0 003.89 3.88M51.51 6.24a1.17 1.17 0 011.17-1.17h3.65c.64 0 1.16.53 1.16 1.17V10c0 .64-.52 1.17-1.17 1.17h-3.64A1.17 1.17 0 0151.51 10V6.24m0 9.55a1.17 1.17 0 011.17-1.17h3.65a1.17 1.17 0 011.16 1.17v3.76a1.17 1.17 0 01-1.17 1.17h-3.64a1.17 1.17 0 01-1.17-1.17v-3.76m0 9.56a1.17 1.17 0 011.17-1.17h3.65a1.17 1.17 0 011.16 1.17v3.76a1.17 1.17 0 01-1.17 1.16h-3.64a1.17 1.17 0 01-1.17-1.17v-3.75m0 9.55a1.17 1.17 0 011.17-1.17h3.65a1.17 1.17 0 011.16 1.17v3.76c0 .64-.52 1.17-1.17 1.17h-3.64a1.17 1.17 0 01-1.17-1.17V34.9m0 9.54a1.17 1.17 0 011.17-1.16h3.65c.64 0 1.16.52 1.16 1.17v3.75a1.16 1.16 0 01-1.17 1.17h-3.64a1.17 1.17 0 01-1.17-1.17v-3.75m0 9.56a1.17 1.17 0 011.17-1.17h3.65A1.17 1.17 0 0157.49 54v3.76a1.17 1.17 0 01-1.17 1.16h-3.64a1.17 1.17 0 01-1.17-1.16v-3.76M16.48 9.06a1.17 1.17 0 011.17-1.16h28.7a1.17 1.17 0 011.17 1.17v18.59a1.17 1.17 0 01-1.17 1.16h-28.7a1.17 1.17 0 01-1.16-1.16V9.06m0 28.67a1.17 1.17 0 011.17-1.16h28.7a1.17 1.17 0 011.16 1.16v17.19a1.17 1.17 0 01-1.17 1.16h-28.7a1.17 1.17 0 01-1.16-1.17V37.73M6.5 6.24a1.17 1.17 0 011.17-1.17h3.64a1.17 1.17 0 011.16 1.17V10a1.17 1.17 0 01-1.16 1.17H7.67A1.17 1.17 0 016.51 10V6.24m0 9.55a1.17 1.17 0 011.17-1.17h3.64a1.17 1.17 0 011.16 1.17v3.76a1.17 1.17 0 01-1.16 1.16H7.67a1.17 1.17 0 01-1.16-1.16v-3.76m0 9.56a1.17 1.17 0 011.17-1.17h3.64a1.17 1.17 0 011.16 1.17v3.75a1.17 1.17 0 01-1.16 1.17H7.67a1.17 1.17 0 01-1.16-1.17v-3.75m0 9.55a1.17 1.17 0 011.17-1.17h3.64a1.17 1.17 0 011.16 1.17v3.76a1.17 1.17 0 01-1.16 1.16H7.67a1.17 1.17 0 01-1.16-1.17V34.9m0 9.55a1.17 1.17 0 011.17-1.17h3.64c.64 0 1.16.52 1.16 1.17v3.76a1.17 1.17 0 01-1.16 1.16H7.67a1.17 1.17 0 01-1.16-1.16v-3.76m0 9.55a1.17 1.17 0 011.17-1.16h3.64A1.17 1.17 0 0112.48 54v3.76a1.17 1.17 0 01-1.16 1.16H7.67a1.17 1.17 0 01-1.16-1.16V54"/>
</svg>