<svg xmlns="http://www.w3.org/2000/svg" viewBox="0 0 64 64">
    <path d="M9.3 6.4A6.3 6.3 0 003 12.7v33.1C3 49.2 6 52 8.1 52h12.7c1 0-3.6 5.6-2.6 5.6h26.5c.7 0-3.2-5.6-2.4-5.6h12.5c3.4 0 6.2-2.8 6.2-6.2V12.7c0-3.4-2.8-6.3-6.2-6.3zm0 4.2h45.5a2 2 0 012 2v33.2a2 2 0 01-2 2c-14.8.5-15.3.2-45.2.8-1.7-.2-2.3-1.2-2.4-2.8V12.7c0-1.2.9-2.1 2-2.1zm10 26.5c-.2.2-.2.8-.2 1.4v6.2h2.1v-2h4.3v2h2.1V38a1 1 0 00-.3-.8L24 34.4c-.2-.2-1.9 0-2.1 0zm2 1l1.6-1.9 2.6 2.2v2h-4.2zm15.2-4.5V36H32v2.3h6.5c-.2.4-.4 1-.8 1.4l-.5.6c-.9-.8-1.4-1.5-1.4-1.5L34 40.2l1.4 1.5a6.1 6.1 0 01-3.4 1V45c2.1 0 3.9-.8 5.2-1.8 1.3 1 3 1.8 4.8 1.8v-2.3a6.2 6.2 0 01-3-1.1l.5-.7c.8-1 1.3-2 1.6-2.7h2.3v-2.3H39v-2.3z"/>
</svg>