<svg xmlns="http://www.w3.org/2000/svg" viewBox="0 0 64 64">
    <path d="M39 25c7 7 7.9 16.4 1 23.2v.1l-8.3 8.1c-7 6.8-15.7 5.8-22.6-1.2-7-6.9-7-15-.1-22l3.8-4.2c1-1.1 3-.2 3 1.3 0 2.1-.2 2.5.5 4.5a1.9 1.9 0 01-.4 2l-1.5 1.5a8.5 8.5 0 00-.2 12 8.4 8.4 0 0012 0l8-8a8.4 8.4 0 00-1.4-12.8A1.9 1.9 0 0132 28a4.7 4.7 0 011.4-3.5l1-1c.6-.6 1.7-1 2.5-.3a14.9 14.9 0 012.2 1.8z"/>
    <path d="M25.7 39.7c-7.3-6.7-8.4-16-1.9-23.2l8-8.4C38.5.9 47 1.6 54.4 8.3c7.2 6.6 7.7 14.8 1 22l-3.6 4.3c-1 1.3-3 .4-3.1-1.2-.2-2 0-2.4-.6-4.4a1.9 1.9 0 01.3-2l1.4-1.5a8.5 8.5 0 00-.3-12 8.4 8.4 0 00-12 .5L30 22.1A8.4 8.4 0 0031.8 35a1.9 1.9 0 01.8 1.5 4.7 4.7 0 01-1.3 3.5l-.8 1c-.6.7-1.7 1-2.6.5a14.9 14.9 0 01-2.2-1.8z"/>
</svg>