<svg xmlns="http://www.w3.org/2000/svg" viewBox="0 0 64 64">
    <path d="M9.21 3.5A6.26 6.26 0 003 9.73v33.14c0 3.4 5.01 6.8 5.01 6.8-.66 5.26-3.1 6.88-.74 10.69C8.47 62 30.55 49.08 30.55 49.08h24.24c3.4 0 6.21-2.82 6.21-6.22V9.72c0-3.4-2.82-6.21-6.21-6.21zm0 4.15H54.8c1.16 0 2.07.91 2.07 2.07v33.14a2.07 2.07 0 01-2.07 2.08H29.3L9.63 55.58l2.77-7.87c-1.86-1.32-4.26-3.85-5.26-4.85V9.72c0-1.16.91-2.07 2.07-2.07zm2.49 9.94c-.41.58-.41 1.66-.41 2.82v12.1h4.14v-4.15h8.28v4.15h4.15V19.2a2.07 2.07 0 00-.7-1.58l-6.22-5.34c-.42-.33-3.44-.08-3.94-.08zm3.73 1.9l3.35-3.55 4.93 4.22v4.06h-8.28zm24.86.59v4.14H32v4.14h11.93c-.41.8-.95 1.62-1.57 2.49-.3.41-.67.75-1 1.12-1.49-1.37-2.6-2.57-2.6-2.57l-3.16 2.65s1.12 1.24 2.7 2.7a11.1 11.1 0 01-6.3 1.9v4.14c3.85 0 7.04-1.4 9.53-3.31 2.4 1.74 5.3 3.31 8.57 3.31v-4.14c-1.65 0-3.68-.91-5.5-2.07l1.07-1.24a28.95 28.95 0 002.9-4.98h4.14v-4.14h-8.28v-4.14z"/>
</svg>