<svg enable-background="new 0 0 24 24" height="64" viewBox="0 0 32 32" width="64" xmlns="http://www.w3.org/2000/svg"><path d="m0 8h24v24h-24z" fill="none"/><g transform="matrix(1.54 0 0 1.4 -2.51 -.73)"><path d="m19.5 3.5-1.5-1.5-1.5 1.5-1.5-1.5-1.5 1.5-1.5-1.5-1.5 1.5-1.5-1.5-1.5 1.5-1.5-1.5v14h-3v3c0 1.66 1.34 3 3 3h12c1.66 0 3-1.34 3-3v-17zm-4.5 16.5h-9c-.55 0-1-.45-1-1v-1h10zm4-1c0 .55-.45 1-1 1s-1-.45-1-1v-3h-9v-11h11z"/><path d="m9 7h6v2h-6z"/><path d="m16 7h2v2h-2z"/><path d="m9 10h6v2h-6z"/><path d="m16 10h2v2h-2z"/></g></svg>