<svg height="150" viewBox="0 0 225 150" width="225" xmlns="http://www.w3.org/2000/svg" xmlns:xlink="http://www.w3.org/1999/xlink"><linearGradient id="a" gradientUnits="userSpaceOnUse" x1="18.25" x2="18.25" y1="22.26" y2="1.26"><stop offset="0" stop-color="#969696"/><stop offset=".367511" stop-color="#969696"/><stop offset=".372962" stop-color="#d9d9d9"/><stop offset="1" stop-color="#d9d9d9"/></linearGradient><path d="m2.38 1.06h28.57c.59 0 1.06.47 1.06 1.06v17.99c0 .59-.47 1.06-1.06 1.06h-28.57c-.59 0-1.06-.47-1.06-1.06v-17.99c0-.59.47-1.06 1.06-1.06zm0 0" fill="url(#a)" stroke="#777" stroke-width=".2" transform="matrix(6.75 0 0 6.75 .02 0)"/><g fill="#d3d3d3"><path d="m74.71 108.84h15.39v6.34h-15.39zm0 0"/><path d="m135.78 124.16h22.74v6.34h-22.74zm0 0"/><path d="m95.16 108.84h47.37v6.34h-47.37zm0 0"/><path d="m58.72 124.16h69.98v6.34h-69.98zm0 0"/><path d="m173.16 104.25-7.62 31.71h4.32l7.69-31.71zm6.48 2.9v7.42l14.44 5.54-14.44 5.6v7.35l23.82-9.92v-6.2zm-134.28-.06-23.82 9.85v6.2l23.82 9.92v-7.42l-14.44-5.6 14.44-5.53zm0 0"/></g><g fill="#505050" stroke="#505050" stroke-width="1.08"><path d="m60.77 74.25h-20.11c-.47 0-1.08-.07-1.69-.2-.61-.07-1.15-.27-1.76-.54-.54-.27-1.08-.61-1.62-1.01s-1.01-.88-1.42-1.49-.74-1.22-.95-1.96c-.27-.81-.41-1.69-.41-2.63v-15.05c0-.47.07-1.01.2-1.62s.34-1.15.61-1.76.61-1.15 1.01-1.69.88-1.01 1.42-1.42c.61-.41 1.28-.74 2.03-1.01.74-.2 1.62-.34 2.57-.34h20.11v5.54h-20.11c-.74 0-1.28.2-1.69.61s-.61.95-.61 1.69v15.05c0 .74.2 1.28.61 1.69s.95.61 1.69.61h20.11zm0 0"/><path d="m94.45 61.7h-17.62v-5.6h17.62zm2.5-12.62h-22.34v25.18h-5.54v-27.95c0-.41.07-.74.2-1.08s.34-.68.61-.88c.27-.27.54-.47.88-.61s.74-.2 1.15-.2h25.11zm0 0"/><path d="m129.89 61.7h-17.62v-5.6h17.62zm2.5-12.62h-22.34v25.18h-5.54v-27.95c0-.41.07-.74.2-1.08s.34-.68.61-.88c.27-.27.54-.47.88-.61s.74-.2 1.15-.2h25.11zm0 0"/><path d="m158.98 61.43h-20.05v-5.06h20.11zm0 0"/><path d="m194.22 49.07h-12.29v25.18h-5.54v-25.18h-12.35v-5.54h30.17zm0 0"/></g></svg>