<svg height="150" viewBox="0 0 225 150" width="225" xmlns="http://www.w3.org/2000/svg" xmlns:xlink="http://www.w3.org/1999/xlink"><linearGradient id="a" gradientUnits="userSpaceOnUse" x1="18.25" x2="18.25" y1="22.26" y2="1.26"><stop offset="0" stop-color="#969696"/><stop offset=".367511" stop-color="#969696"/><stop offset=".372962" stop-color="#d9d9d9"/><stop offset="1" stop-color="#d9d9d9"/></linearGradient><path d="m2.38 1.06h28.57c.59 0 1.06.47 1.06 1.06v17.99c0 .59-.47 1.06-1.06 1.06h-28.57c-.59 0-1.06-.47-1.06-1.06v-17.99c0-.59.47-1.06 1.06-1.06zm0 0" fill="url(#a)" stroke="#777" stroke-width=".2" transform="matrix(6.75 0 0 6.75 .02 0)"/><g fill="#d3d3d3"><path d="m74.71 108.84h15.39v6.34h-15.39zm0 0"/><path d="m135.78 124.16h22.74v6.34h-22.74zm0 0"/><path d="m95.16 108.84h47.37v6.34h-47.37zm0 0"/><path d="m58.72 124.16h69.98v6.34h-69.98zm0 0"/><path d="m173.16 104.25-7.62 31.71h4.32l7.69-31.71zm6.48 2.9v7.42l14.44 5.54-14.44 5.6v7.35l23.82-9.92v-6.2zm-134.28-.06-23.82 9.85v6.2l23.82 9.92v-7.42l-14.44-5.6 14.44-5.53zm0 0"/></g><g fill="#505050" stroke="#505050" stroke-width="1.08"><path d="m85 60.62c0 1.96-.34 3.78-1.01 5.47s-1.62 3.11-2.84 4.32-2.63 2.16-4.32 2.84-3.51 1.01-5.47 1.01h-15.93c-.41 0-.81-.07-1.15-.2s-.68-.34-.95-.61-.47-.61-.61-.95c-.2-.41-.27-.81-.27-1.22v-26.6c0-.41.07-.81.2-1.15s.34-.68.61-.95.61-.47.95-.61.74-.2 1.15-.2h15.93c1.96 0 3.71.34 5.4 1.01s3.11 1.62 4.32 2.84 2.16 2.63 2.84 4.32 1.01 3.51 1.01 5.47zm-5.94-5.27c0-1.15-.2-2.23-.54-3.17s-.88-1.76-1.55-2.43c-.74-.68-1.55-1.22-2.5-1.55s-1.96-.54-3.11-.54h-13.03v20.72h12.96c1.15 0 2.23-.2 3.11-.54.95-.34 1.76-.88 2.43-1.55s1.22-1.49 1.55-2.43.54-2.03.54-3.17zm0 0"/><path d="m99.11 44.69h-5.87v-5.33h5.87zm0 29.57h-5.87v-24.5h5.87zm0 0"/><path d="m137.04 49.75c-.68 2.09-1.49 4.12-2.36 6.14s-1.96 3.92-3.11 5.74-2.43 3.51-3.85 5.06-3.04 2.84-4.72 3.98-3.58 2.03-5.67 2.63c-2.03.61-4.25.95-6.62.95-.41 0-.81-.07-1.15-.2s-.68-.34-.95-.61-.47-.61-.61-.95-.2-.74-.2-1.15v-21.6h5.87v18.43c1.42 0 2.84-.34 4.12-.95 1.35-.61 2.63-1.42 3.78-2.43s2.23-2.23 3.24-3.51 1.96-2.63 2.7-3.98c.74-1.42 1.42-2.77 2.03-4.05.54-1.28.95-2.5 1.22-3.51zm0 0"/><path d="m157.7 53.33 9.92-11.61h8.03l-13.97 16.34 13.91 16.2h-7.97l-9.92-11.54-9.86 11.54h-8.03l13.91-16.2-13.91-16.34h7.97zm0 0"/></g></svg>