<svg height="150" viewBox="0 0 225 150" width="225" xmlns="http://www.w3.org/2000/svg" xmlns:xlink="http://www.w3.org/1999/xlink"><linearGradient id="a" gradientUnits="userSpaceOnUse" x1="18.25" x2="18.25" y1="22.26" y2="1.26"><stop offset="0" stop-color="#969696"/><stop offset=".367511" stop-color="#969696"/><stop offset=".372962" stop-color="#d9d9d9"/><stop offset="1" stop-color="#d9d9d9"/></linearGradient><path d="m2.38 1.06h28.57c.59 0 1.06.47 1.06 1.06v17.99c0 .59-.47 1.06-1.06 1.06h-28.57c-.59 0-1.06-.47-1.06-1.06v-17.99c0-.59.47-1.06 1.06-1.06zm0 0" fill="url(#a)" stroke="#777" stroke-width=".2" transform="matrix(6.75 0 0 6.75 .02 0)"/><g fill="#d3d3d3"><path d="m74.71 108.84h15.39v6.34h-15.39zm0 0"/><path d="m135.78 124.16h22.74v6.34h-22.74zm0 0"/><path d="m95.16 108.84h47.37v6.34h-47.37zm0 0"/><path d="m58.72 124.16h69.98v6.34h-69.98zm0 0"/><path d="m173.16 104.25-7.62 31.71h4.32l7.69-31.71zm6.48 2.9v7.42l14.44 5.54-14.44 5.6v7.35l23.82-9.92v-6.2zm-134.28-.06-23.82 9.85v6.2l23.82 9.92v-7.42l-14.44-5.6 14.44-5.53zm0 0"/></g><g fill="#505050" stroke="#505050" stroke-width="1.08"><path d="m95.26 37.4c0 1.42-.27 2.77-.74 3.98-.47 1.15-1.22 2.23-2.09 3.11s-1.89 1.55-3.11 2.03-2.5.74-3.92.74h-11.54c-.34 0-.61-.07-.88-.14s-.47-.27-.68-.47-.34-.41-.47-.68c-.07-.27-.14-.54-.14-.88v-19.31c0-.34.07-.61.14-.81.07-.27.27-.47.47-.68s.41-.34.68-.47c.27-.07.54-.14.88-.14h11.54c1.42 0 2.7.27 3.92.74s2.23 1.22 3.11 2.09 1.62 1.89 2.09 3.11.74 2.57.74 3.98zm-4.25-3.85c0-.88-.14-1.62-.41-2.3-.27-.74-.68-1.35-1.15-1.82s-1.08-.88-1.82-1.15c-.68-.27-1.42-.41-2.23-.41h-9.45v15.05h9.45c.88 0 1.62-.14 2.3-.41s1.28-.68 1.76-1.15.88-1.08 1.15-1.76.41-1.42.41-2.3zm0 0"/><path d="m125.64 23.63-11.21 22.82c-.2.34-.47.61-.81.81s-.74.34-1.15.34-.81-.14-1.15-.34-.61-.47-.81-.81l-11.14-22.82h4.79l8.3 17.01 8.37-17.01zm0 0"/><path d="m154.66 42.05c0 .54-.07 1.08-.27 1.69s-.47 1.15-.88 1.69c-.41.47-.95.95-1.62 1.28s-1.49.54-2.43.54h-16.27c-.34 0-.61-.07-.88-.14s-.47-.27-.68-.47-.34-.41-.47-.68c-.07-.27-.14-.54-.14-.88v-19.31c0-.34.07-.61.14-.81.07-.27.27-.47.47-.68s.41-.34.68-.47c.27-.07.54-.14.88-.14h14.31c.54 0 1.08.07 1.69.27s1.15.47 1.69.88.95.95 1.28 1.62.54 1.49.54 2.43v.81c0 .74-.14 1.55-.41 2.43s-.68 1.69-1.22 2.5c.47.34.95.68 1.35 1.08.47.41.81.88 1.15 1.42s.54 1.15.74 1.89c.2.68.27 1.42.27 2.3zm-4.32-.81c0-.54-.07-1.01-.27-1.49s-.41-.81-.74-1.15-.68-.54-1.15-.74-.95-.27-1.49-.27h-9.65v-4.32h7.76c.54 0 1.01-.07 1.49-.27s.81-.41 1.15-.74.54-.68.74-1.15.27-.95.27-1.49v-.81c0-.61-.27-.95-.88-.95h-12.22v15.05h14.11.27c.07 0 .2 0 .27-.07s.14-.14.2-.27.07-.34.07-.54zm0 0"/><path d="m93.17 65h-9.45v19.37h-4.25v-19.37h-9.45v-4.25h23.22zm0 0"/><path d="m116.19 72.43c0 .61-.14 1.22-.34 1.96-.2.68-.54 1.28-1.01 1.89s-1.08 1.08-1.82 1.49-1.69.61-2.77.61h-7.76v-4.05h7.76c.61 0 1.01-.2 1.35-.54s.47-.81.47-1.35-.2-1.01-.54-1.35-.81-.47-1.28-.47h-7.76c-.61 0-1.01.2-1.35.54s-.47.81-.47 1.35v6.01c0 .61.2 1.01.54 1.35s.81.47 1.35.47h7.7v4.05h-7.76c-.61 0-1.22-.14-1.96-.34-.68-.2-1.28-.54-1.89-1.01s-1.08-1.08-1.49-1.82-.61-1.69-.61-2.77v-6.01c0-.61.14-1.22.34-1.89s.54-1.28 1.01-1.89 1.08-1.08 1.82-1.49 1.69-.61 2.77-.61h7.76c.61 0 1.22.14 1.89.34s1.28.54 1.89 1.01 1.08 1.08 1.49 1.82.61 1.69.61 2.77zm0 0"/><path d="m129.89 84.38h-1.89c-.61 0-1.28-.14-1.96-.34s-1.35-.54-1.96-1.01-1.08-1.15-1.49-1.89-.61-1.69-.61-2.84v-19.24h4.25v19.31c0 .54.14.95.47 1.28s.74.47 1.22.47h1.89zm0 0"/><path d="m154.87 72.43c0 .61-.14 1.22-.34 1.96-.2.68-.54 1.28-1.01 1.89s-1.08 1.08-1.82 1.49-1.69.61-2.77.61h-7.76v-4.05h7.76c.61 0 1.01-.2 1.35-.54s.47-.81.47-1.35-.2-1.01-.54-1.35-.81-.47-1.28-.47h-7.76c-.61 0-1.01.2-1.35.54s-.47.81-.47 1.35v6.01c0 .61.2 1.01.54 1.35s.81.47 1.35.47h7.7v4.05h-7.76c-.61 0-1.22-.14-1.96-.34-.68-.2-1.28-.54-1.89-1.01s-1.08-1.08-1.49-1.82-.61-1.69-.61-2.77v-6.01c0-.61.14-1.22.34-1.89s.54-1.28 1.01-1.89 1.08-1.08 1.82-1.49 1.69-.61 2.77-.61h7.76c.61 0 1.22.14 1.89.34s1.28.54 1.89 1.01 1.08 1.08 1.49 1.82.61 1.69.61 2.77zm0 0"/></g></svg>