<svg height="150" viewBox="0 0 225 150" width="225" xmlns="http://www.w3.org/2000/svg" xmlns:xlink="http://www.w3.org/1999/xlink"><linearGradient id="a" gradientUnits="userSpaceOnUse" x1="18.25" x2="18.25" y1="22.26" y2="1.26"><stop offset="0" stop-color="#969696"/><stop offset=".367511" stop-color="#969696"/><stop offset=".372962" stop-color="#d9d9d9"/><stop offset="1" stop-color="#d9d9d9"/></linearGradient><path d="m2.38 1.06h28.57c.59 0 1.06.47 1.06 1.06v17.99c0 .59-.47 1.06-1.06 1.06h-28.57c-.59 0-1.06-.47-1.06-1.06v-17.99c0-.59.47-1.06 1.06-1.06zm0 0" fill="url(#a)" stroke="#777" stroke-width=".2" transform="matrix(6.75 0 0 6.75 .02 0)"/><g fill="#d3d3d3"><path d="m74.71 108.84h15.39v6.34h-15.39zm0 0"/><path d="m135.78 124.16h22.74v6.34h-22.74zm0 0"/><path d="m95.16 108.84h47.37v6.34h-47.37zm0 0"/><path d="m58.72 124.16h69.98v6.34h-69.98zm0 0"/><path d="m173.16 104.25-7.62 31.71h4.32l7.69-31.71zm6.48 2.9v7.42l14.44 5.54-14.44 5.6v7.35l23.82-9.92v-6.2zm-134.28-.06-23.82 9.85v6.2l23.82 9.92v-7.42l-14.44-5.6 14.44-5.53zm0 0"/></g><g fill="#505050" stroke="#505050" stroke-width="1.08"><path d="m38.77 59.4h-11.34v-3.65h11.34zm1.62 8.1h-12.96c-.47 0-1.01-.07-1.62-.27s-1.15-.47-1.69-.88c-.47-.41-.88-.95-1.22-1.55s-.54-1.42-.54-2.36v-12.96c0-.27.07-.47.14-.68s.2-.41.41-.61.41-.34.61-.41.47-.14.74-.14h16.13v3.58h-14.38v11.21c0 .47.14.81.41 1.08s.61.41 1.08.41h12.96zm0 0"/><path d="m66.71 63.11c0 .47-.07.95-.2 1.42-.14.54-.41 1.01-.74 1.42-.34.47-.81.81-1.35 1.15-.54.27-1.22.41-2.03.41h-13.7c-.2 0-.47-.07-.68-.14s-.41-.2-.61-.41c-.14-.14-.27-.34-.34-.54s-.14-.47-.14-.74v-16.2c0-.27.07-.47.14-.68s.2-.41.41-.61.41-.34.61-.41.47-.14.74-.14h12.02c.47 0 .95.07 1.42.2s.95.41 1.42.74.81.81 1.08 1.35c.34.54.47 1.22.47 2.03v.68c0 .61-.14 1.35-.34 2.09s-.54 1.42-1.01 2.09c.41.27.81.54 1.15.88s.68.74.95 1.22.47.95.61 1.55.2 1.22.2 1.96zm-3.58-.68c0-.47-.07-.88-.2-1.28-.2-.34-.41-.68-.61-.95-.27-.27-.61-.47-1.01-.61-.34-.14-.81-.2-1.28-.2h-8.1v-3.65h6.48c.47 0 .88-.07 1.28-.2.34-.14.68-.34.95-.61s.47-.61.61-.95.2-.81.2-1.28v-.68c0-.47-.27-.74-.74-.74h-10.19v12.62h11.88.2c.07 0 .2 0 .27-.07s.14-.14.2-.2.07-.27.07-.47zm0 0"/><path d="m92.23 65.68c0 .27-.07.54-.14.74s-.2.41-.41.61c-.2.14-.41.27-.61.41-.2.07-.41.07-.68.07h-8.1c-.74 0-1.55-.07-2.3-.27-.81-.14-1.55-.41-2.3-.74s-1.42-.81-2.09-1.35c-.61-.54-1.22-1.15-1.69-1.89s-.88-1.55-1.15-2.5-.41-2.03-.41-3.17v-9.92h3.58v9.92c0 1.01.14 1.89.41 2.57.27.74.61 1.28 1.08 1.76s.95.81 1.42 1.08 1.01.47 1.49.61.88.2 1.22.27.61.07.68.07h6.35v-16.27h3.58zm0 0"/><path d="m111.94 59.2h-12.96v-3.24h12.96zm0 0"/><path d="m135.76 51.23h-7.9v16.27h-3.65v-16.27h-7.9v-3.58h19.51zm0 0"/><path d="m159.39 51.23h-7.9v16.27h-3.65v-16.27h-7.9v-3.58h19.51zm0 0"/><path d="m176.74 59.2h-13.03v-3.24h12.96zm0 0"/><path d="m203.26 59.2c0 1.22-.2 2.3-.61 3.31-.47 1.01-1.01 1.89-1.76 2.63s-1.62 1.35-2.63 1.76-2.16.61-3.31.61h-9.72c-.27 0-.54-.07-.74-.14s-.41-.2-.61-.41c-.14-.2-.27-.41-.41-.61-.07-.2-.14-.47-.14-.74v-16.13c0-.27.07-.47.14-.68s.2-.41.41-.61.41-.34.61-.41.47-.14.74-.14h9.72c1.15 0 2.3.2 3.31.61s1.89 1.01 2.63 1.76 1.28 1.62 1.76 2.63c.41 1.01.61 2.16.61 3.31zm-3.58-3.24c0-.74-.14-1.35-.34-1.96s-.54-1.08-.95-1.49-.88-.74-1.49-.95-1.22-.34-1.89-.34h-7.97v12.62h7.97c.74 0 1.35-.14 1.89-.34.61-.2 1.08-.54 1.49-.95s.74-.88.95-1.49.34-1.22.34-1.96zm0 0"/></g></svg>