<svg height="150" viewBox="0 0 225 150" width="225" xmlns="http://www.w3.org/2000/svg" xmlns:xlink="http://www.w3.org/1999/xlink"><linearGradient id="a" gradientUnits="userSpaceOnUse" x1="18.25" x2="18.25" y1="22.26" y2="1.26"><stop offset="0" stop-color="#969696"/><stop offset=".367511" stop-color="#969696"/><stop offset=".372962" stop-color="#d9d9d9"/><stop offset="1" stop-color="#d9d9d9"/></linearGradient><path d="m2.38 1.06h28.57c.59 0 1.06.47 1.06 1.06v17.99c0 .59-.47 1.06-1.06 1.06h-28.57c-.59 0-1.06-.47-1.06-1.06v-17.99c0-.59.47-1.06 1.06-1.06zm0 0" fill="url(#a)" stroke="#777" stroke-width=".2" transform="matrix(6.75 0 0 6.75 .02 0)"/><g fill="#d3d3d3"><path d="m74.71 108.84h15.39v6.34h-15.39zm0 0"/><path d="m135.78 124.16h22.74v6.34h-22.74zm0 0"/><path d="m95.16 108.84h47.37v6.34h-47.37zm0 0"/><path d="m58.72 124.16h69.98v6.34h-69.98zm0 0"/><path d="m173.16 104.25-7.62 31.71h4.32l7.69-31.71zm6.48 2.9v7.42l14.44 5.54-14.44 5.6v7.35l23.82-9.92v-6.2zm-134.28-.06-23.82 9.85v6.2l23.82 9.92v-7.42l-14.44-5.6 14.44-5.53zm0 0"/></g><g fill="#505050" stroke="#505050" stroke-width="1.08"><path d="m45.52 61.9h-15.39v-4.93h15.39zm2.23 11h-17.62c-.68 0-1.42-.14-2.23-.34-.81-.27-1.55-.68-2.23-1.22s-1.22-1.22-1.69-2.09-.68-1.96-.68-3.24v-17.62c0-.34.07-.68.2-.95.14-.34.34-.61.54-.81s.47-.41.81-.54.61-.2.95-.2h21.94v4.93h-19.58v15.19c0 .61.2 1.15.54 1.49s.88.54 1.49.54h17.62zm0 0"/><path d="m82.37 66.96c0 .61-.14 1.22-.34 1.96-.2.68-.54 1.28-1.01 1.89s-1.08 1.08-1.82 1.49-1.62.61-2.77.61h-18.5c-.34 0-.68-.07-.95-.2-.34-.14-.61-.34-.81-.54s-.41-.47-.54-.81-.2-.61-.2-.95v-22.01c0-.34.07-.68.2-.95.14-.34.34-.61.54-.81s.47-.41.81-.54.61-.2.95-.2h16.34c.61 0 1.22.14 1.96.34.68.2 1.28.54 1.89 1.01s1.08 1.08 1.49 1.82.61 1.69.61 2.77v.95c0 .88-.14 1.76-.41 2.77s-.74 1.96-1.42 2.84c.54.34 1.08.74 1.55 1.22s.95 1.01 1.28 1.62.68 1.35.88 2.09c.2.81.34 1.69.34 2.63zm-4.86-.95c0-.61-.07-1.22-.27-1.69s-.54-.95-.88-1.28-.81-.68-1.35-.88c-.47-.2-1.08-.27-1.69-.27h-11.07v-4.93h8.84c.61 0 1.22-.07 1.76-.27.47-.2.95-.47 1.28-.88.34-.34.61-.81.81-1.28s.27-1.08.27-1.76v-.88c0-.74-.34-1.08-1.01-1.08h-13.84v17.15h16.13.34c.14 0 .27-.07.34-.14s.2-.14.27-.34c.07-.14.14-.34.14-.61zm0 0"/><path d="m115.92 70.47c0 .34-.07.68-.2.95-.14.34-.34.61-.54.81s-.47.41-.81.54c-.27.07-.61.14-.95.14h-11c-1.01 0-2.09-.14-3.17-.34s-2.09-.54-3.11-1.01c-.95-.47-1.89-1.08-2.77-1.82s-1.62-1.55-2.3-2.57-1.22-2.16-1.55-3.44-.54-2.7-.54-4.32v-13.43h4.86v13.5c0 1.42.2 2.57.54 3.51.41.95.88 1.76 1.49 2.36s1.22 1.15 1.96 1.49 1.42.61 2.03.81 1.22.27 1.69.34.81.07.95.07h8.57v-22.07h4.86zm0 0"/><path d="m141.57 61.63h-17.62v-4.39h17.62zm0 0"/><path d="m172.82 50.83h-10.8v22.07h-4.86v-22.07h-10.8v-4.86h26.46zm0 0"/><path d="m203.8 50.83h-10.8v22.07h-4.86v-22.07h-10.8v-4.86h26.46zm0 0"/></g></svg>