<svg height="150" viewBox="0 0 225 150" width="225" xmlns="http://www.w3.org/2000/svg" xmlns:xlink="http://www.w3.org/1999/xlink"><linearGradient id="a" gradientUnits="userSpaceOnUse" x1="18.25" x2="18.25" y1="22.26" y2="1.26"><stop offset="0" stop-color="#969696"/><stop offset=".367511" stop-color="#969696"/><stop offset=".372962" stop-color="#d9d9d9"/><stop offset="1" stop-color="#d9d9d9"/></linearGradient><path d="m2.38 1.06h28.57c.59 0 1.06.47 1.06 1.06v17.99c0 .59-.47 1.06-1.06 1.06h-28.57c-.59 0-1.06-.47-1.06-1.06v-17.99c0-.59.47-1.06 1.06-1.06zm0 0" fill="url(#a)" stroke="#777" stroke-width=".2" transform="matrix(6.75 0 0 6.75 .02 0)"/><g fill="#d3d3d3"><path d="m74.71 108.84h15.39v6.34h-15.39zm0 0"/><path d="m135.78 124.16h22.74v6.34h-22.74zm0 0"/><path d="m95.16 108.84h47.37v6.34h-47.37zm0 0"/><path d="m58.72 124.16h69.98v6.34h-69.98zm0 0"/><path d="m173.16 104.25-7.62 31.71h4.32l7.69-31.71zm6.48 2.9v7.42l14.44 5.54-14.44 5.6v7.35l23.82-9.92v-6.2zm-134.28-.06-23.82 9.85v6.2l23.82 9.92v-7.42l-14.44-5.6 14.44-5.53zm0 0"/></g><g fill="#505050" stroke="#505050" stroke-width="1.08"><path d="m36.34 61.02h-13.84v-4.39h13.84zm1.96 9.86h-15.8c-.61 0-1.22-.14-1.96-.34s-1.42-.54-2.03-1.01-1.08-1.15-1.55-1.89c-.41-.81-.61-1.76-.61-2.9v-15.73c0-.34.07-.61.14-.88s.27-.47.47-.68.41-.34.68-.47c.27-.07.54-.14.88-.14h19.78v4.32h-17.55v13.57c0 .61.14 1.01.47 1.28.34.34.74.47 1.35.47h15.73zm0 0"/><path d="m69.61 65.61c0 .54-.07 1.15-.27 1.76s-.47 1.22-.88 1.69c-.41.54-.95 1.01-1.62 1.35-.74.34-1.55.47-2.57.47h-16.61c-.34 0-.61-.07-.88-.14s-.47-.27-.68-.47-.34-.41-.47-.68c-.07-.27-.14-.54-.14-.88v-19.71c0-.34.07-.61.14-.88s.27-.47.47-.68.41-.34.68-.47c.27-.07.54-.14.88-.14h14.65c.54 0 1.15.07 1.76.27s1.22.47 1.69.95c.54.41 1.01.95 1.35 1.62s.54 1.49.54 2.5v.81c0 .74-.14 1.62-.41 2.5s-.68 1.76-1.22 2.5c.47.34.95.68 1.35 1.08.47.41.81.88 1.15 1.49.34.54.54 1.15.74 1.89s.27 1.49.27 2.36zm-4.39-.88c0-.61-.07-1.08-.27-1.55s-.41-.81-.74-1.15-.74-.54-1.22-.74-.95-.27-1.55-.27h-9.86v-4.39h7.9c.61 0 1.08-.07 1.55-.27s.81-.41 1.15-.74.61-.68.74-1.15c.2-.47.27-1.01.27-1.55v-.81c0-.61-.27-.95-.88-.95h-12.49v15.39h14.45.27c.07 0 .2 0 .27-.07s.14-.14.2-.27.07-.34.07-.54zm0 0"/><path d="m99.92 68.65c0 .34-.07.61-.14.88s-.27.47-.47.68-.41.34-.68.47c-.34.14-.61.2-.95.2h-9.86c-.95 0-1.89-.07-2.84-.27s-1.89-.47-2.77-.95-1.69-1.01-2.5-1.62c-.74-.68-1.49-1.42-2.09-2.3-.54-.88-1.01-1.96-1.35-3.11s-.47-2.43-.47-3.85v-12.02h4.39v12.08c0 1.22.14 2.23.47 3.11s.81 1.55 1.28 2.16c.54.61 1.15 1.01 1.76 1.35s1.22.54 1.76.74c.61.14 1.08.2 1.49.27.47.07.74.07.88.07h7.7v-19.78h4.39zm0 0"/><path d="m123.21 60.82h-15.8v-3.98h15.8zm0 0"/><path d="m153.85 63.79c0 .88-.14 1.62-.34 2.36-.2.68-.54 1.28-.88 1.82s-.81 1.01-1.28 1.35-1.01.68-1.49.88-1.01.41-1.55.54c-.47.07-1.01.14-1.49.14h-16.81v-4.39h16.88c.88 0 1.49-.27 1.96-.74s.68-1.15.68-1.96c0-.41-.07-.74-.2-1.08s-.34-.61-.54-.88c-.2-.2-.47-.41-.81-.54s-.68-.2-1.08-.2h-10.06c-.74 0-1.49-.14-2.3-.34-.81-.27-1.55-.68-2.3-1.22-.68-.54-1.28-1.28-1.76-2.23-.47-.88-.68-2.03-.68-3.31s.2-2.43.68-3.31 1.01-1.62 1.76-2.23 1.49-1.01 2.3-1.22c.81-.27 1.55-.41 2.3-.41h14.85v4.39h-14.85c-.81 0-1.49.27-1.96.74s-.68 1.15-.68 2.03.2 1.55.68 2.03 1.08.74 1.96.74h10.13c.47 0 .95.07 1.49.2.54.07 1.08.27 1.55.54.54.2 1.01.54 1.49.95.47.34.88.81 1.22 1.35s.68 1.15.88 1.82.34 1.42.34 2.3zm0 0"/><path d="m182.07 51.17h-9.65v19.71h-4.32v-19.71h-9.65v-4.39h23.63zm0 0"/><path d="m210.49 70.88h-19.91c-.34 0-.61-.07-.88-.14s-.47-.27-.68-.47-.34-.41-.47-.68c-.07-.27-.14-.54-.14-.88v-21.94h4.39v19.71h17.75zm0 0"/></g></svg>