<svg height="150" viewBox="0 0 225 150" width="225" xmlns="http://www.w3.org/2000/svg" xmlns:xlink="http://www.w3.org/1999/xlink"><linearGradient id="a" gradientUnits="userSpaceOnUse" x1="18.25" x2="18.25" y1="22.26" y2="1.26"><stop offset="0" stop-color="#969696"/><stop offset=".367511" stop-color="#969696"/><stop offset=".372962" stop-color="#d9d9d9"/><stop offset="1" stop-color="#d9d9d9"/></linearGradient><path d="m2.38 1.06h28.57c.59 0 1.06.47 1.06 1.06v17.99c0 .59-.47 1.06-1.06 1.06h-28.57c-.59 0-1.06-.47-1.06-1.06v-17.99c0-.59.47-1.06 1.06-1.06zm0 0" fill="url(#a)" stroke="#777" stroke-width=".2" transform="matrix(6.75 0 0 6.75 .02 0)"/><g fill="#d3d3d3"><path d="m74.71 108.84h15.39v6.34h-15.39zm0 0"/><path d="m135.78 124.16h22.74v6.34h-22.74zm0 0"/><path d="m95.16 108.84h47.37v6.34h-47.37zm0 0"/><path d="m58.72 124.16h69.98v6.34h-69.98zm0 0"/><path d="m173.16 104.25-7.62 31.71h4.32l7.69-31.71zm6.48 2.9v7.42l14.44 5.54-14.44 5.6v7.35l23.82-9.92v-6.2zm-134.28-.06-23.82 9.85v6.2l23.82 9.92v-7.42l-14.44-5.6 14.44-5.53zm0 0"/></g><g fill="#505050" stroke="#505050" stroke-width="1.08"><path d="m42.28 61.02h-13.84v-4.39h13.84zm1.96 9.86h-15.8c-.61 0-1.22-.14-1.96-.34s-1.42-.54-2.03-1.01-1.08-1.15-1.49-1.89c-.41-.81-.61-1.76-.61-2.9v-15.73c0-.34.07-.61.14-.88s.27-.47.47-.68.41-.34.68-.47c.27-.07.54-.14.88-.14h19.71v4.32h-17.55v13.57c0 .61.14 1.01.47 1.28.34.34.74.47 1.35.47h15.73zm0 0"/><path d="m55.91 70.88h-4.39v-24.1h4.39zm0 0"/><path d="m87.7 70.88h-4.39v-5.94h-15.39v5.94h-4.32v-12.08c0-1.76.27-3.38.88-4.86.61-1.42 1.42-2.7 2.5-3.78s2.36-1.89 3.85-2.5c1.42-.61 3.04-.88 4.79-.88h9.86c.34 0 .61.07.88.14s.47.27.68.47.34.41.47.68c.07.27.14.54.14.88zm-19.78-10.26h15.39v-9.45h-7.7c-.14 0-.41 0-.88.07-.41.07-.88.14-1.49.27-.54.14-1.15.41-1.76.74s-1.22.74-1.76 1.35-.95 1.28-1.28 2.16-.47 1.89-.47 3.11zm0 0"/><path d="m110.99 60.82h-15.8v-3.98h15.8zm0 0"/><path d="m122.4 56.63h11.61c.61 0 1.28.14 1.96.34.74.2 1.42.61 2.03 1.08s1.15 1.15 1.55 1.89.61 1.76.61 2.9v1.96c0 .41-.07.81-.14 1.28s-.27.88-.47 1.35-.47.88-.81 1.28-.68.74-1.15 1.08-.95.54-1.55.74-1.28.34-2.03.34h-7.9c-.54 0-1.15-.07-1.76-.2s-1.22-.34-1.82-.61-1.15-.61-1.76-1.01c-.54-.41-1.01-.95-1.42-1.55s-.74-1.28-1.01-2.03c-.2-.81-.34-1.69-.34-2.7v-7.9c0-1.01.14-1.89.34-2.63.27-.74.61-1.49 1.01-2.09s.88-1.08 1.42-1.55c.54-.41 1.15-.74 1.76-1.01s1.22-.47 1.82-.61 1.22-.2 1.76-.2h10.94v4.39h-10.94c-.54.07-1.08.14-1.55.34s-.81.41-1.15.74-.54.68-.74 1.15-.27.95-.27 1.49zm0 4.39v1.76c0 .61.07 1.08.27 1.55s.47.81.81 1.15.68.54 1.15.74.95.27 1.49.27h7.9c.54 0 .95-.14 1.28-.47s.47-.74.47-1.28v-1.96c0-.61-.14-1.01-.41-1.28-.27-.34-.74-.47-1.35-.47zm0 0"/><path d="m174.58 60.82c0 1.01-.14 1.96-.41 2.84-.2.88-.61 1.69-1.08 2.43s-1.01 1.42-1.62 2.03-1.35 1.08-2.09 1.55c-.74.41-1.49.74-2.36.95-.81.2-1.62.27-2.5.27h-7.9c-.88 0-1.76-.14-2.57-.34-.88-.2-1.62-.54-2.36-.95s-1.42-.95-2.03-1.55c-.68-.61-1.22-1.28-1.69-2.03s-.81-1.55-1.08-2.43c-.2-.88-.34-1.76-.34-2.77v-3.98c0-1.49.27-2.84.81-4.05s1.28-2.3 2.23-3.17 2.03-1.62 3.24-2.09 2.5-.74 3.85-.74h7.9c.88 0 1.69.14 2.57.34s1.62.54 2.36.95 1.49.88 2.09 1.49 1.15 1.28 1.62 2.03.81 1.55 1.08 2.43.41 1.76.41 2.77zm-4.39-3.98c0-.88-.14-1.62-.47-2.36-.34-.68-.74-1.28-1.28-1.76-.47-.54-1.08-.95-1.76-1.22-.74-.27-1.42-.41-2.16-.34h-7.9c-.74 0-1.42.14-2.16.41-.68.27-1.28.68-1.82 1.15s-.95 1.08-1.28 1.82-.47 1.49-.47 2.36v3.92c0 .88.14 1.62.47 2.36s.74 1.35 1.28 1.82 1.15.88 1.82 1.15 1.42.41 2.16.41h7.9c.88 0 1.62-.14 2.36-.41s1.35-.68 1.82-1.22c.47-.47.88-1.08 1.15-1.82s.41-1.49.41-2.3zm-1.89-3.17c.2.2.27.47.34.81.07.27.07.54 0 .81s-.14.54-.34.74c-.14.2-.34.41-.61.61l-11.81 7.9c-.2.14-.41.2-.61.27s-.41.07-.61.07c-.34 0-.68-.07-1.01-.27s-.61-.41-.81-.74c-.2-.2-.27-.47-.34-.81-.07-.27-.07-.54 0-.81s.14-.54.34-.74c.14-.2.34-.41.61-.61l11.81-7.9c.2-.2.47-.27.81-.34.27-.07.54-.07.81 0s.54.14.74.34c.2.14.41.34.61.61zm0 0"/><path d="m203.4 64.73c0 .41-.07.81-.14 1.28s-.27.88-.47 1.35-.47.88-.81 1.28-.68.74-1.15 1.08-.95.54-1.55.74c-.61.27-1.28.41-2.03.41h-9.86c-.61 0-1.22-.14-1.96-.34s-1.42-.54-2.03-1.01-1.08-1.15-1.55-1.89c-.41-.74-.61-1.76-.61-2.9v-1.96c0-.41.07-.88.14-1.35s.27-.95.47-1.42.47-.88.81-1.28.68-.74 1.15-1.08c-.2-.47-.34-.95-.47-1.42-.07-.47-.14-.95-.14-1.35v-1.96c0-1.15.2-2.09.61-2.84s.95-1.42 1.55-1.89 1.28-.81 2.03-1.01 1.35-.34 1.96-.34h5.94c.74 0 1.42.07 2.03.27s1.08.41 1.55.74.81.68 1.15 1.08.61.81.81 1.28.34.88.41 1.35.14.88.14 1.28v1.96c0 1.08-.2 2.03-.61 2.84.34.2.68.47 1.01.81s.61.68.81 1.08.41.88.54 1.42c.14.47.2 1.08.2 1.69zm-6.35-11.81c0-.61-.14-1.01-.47-1.35s-.74-.47-1.28-.47h-5.87c-.61 0-1.01.14-1.35.47-.27.34-.41.74-.41 1.28v1.96c0 .61.14 1.01.41 1.28.34.27.74.41 1.28.41h5.94c.61 0 1.01-.14 1.35-.41.27-.34.41-.74.41-1.28zm1.96 9.86c0-.54-.14-.95-.47-1.28s-.74-.47-1.22-.47h-9.86c-.54 0-.95.14-1.28.47s-.47.74-.47 1.28v1.96c0 .54.14.95.47 1.28s.74.47 1.28.47h9.86c.54 0 .95-.14 1.28-.47.27-.34.41-.74.41-1.28zm0 0"/></g></svg>