<svg height="150" viewBox="0 0 225 150" width="225" xmlns="http://www.w3.org/2000/svg" xmlns:xlink="http://www.w3.org/1999/xlink"><linearGradient id="a" gradientUnits="userSpaceOnUse" x1="18.25" x2="18.25" y1="22.26" y2="1.26"><stop offset="0" stop-color="#969696"/><stop offset=".367511" stop-color="#969696"/><stop offset=".372962" stop-color="#d9d9d9"/><stop offset="1" stop-color="#d9d9d9"/></linearGradient><path d="m2.38 1.06h28.57c.59 0 1.06.47 1.06 1.06v17.99c0 .59-.47 1.06-1.06 1.06h-28.57c-.59 0-1.06-.47-1.06-1.06v-17.99c0-.59.47-1.06 1.06-1.06zm0 0" fill="url(#a)" stroke="#777" stroke-width=".2" transform="matrix(6.75 0 0 6.75 .02 0)"/><g fill="#d3d3d3"><path d="m74.71 108.84h15.39v6.34h-15.39zm0 0"/><path d="m135.78 124.16h22.74v6.34h-22.74zm0 0"/><path d="m95.16 108.84h47.37v6.34h-47.37zm0 0"/><path d="m58.72 124.16h69.98v6.34h-69.98zm0 0"/><path d="m173.16 104.25-7.62 31.71h4.32l7.69-31.71zm6.48 2.9v7.42l14.44 5.54-14.44 5.6v7.35l23.82-9.92v-6.2zm-134.28-.06-23.82 9.85v6.2l23.82 9.92v-7.42l-14.44-5.6 14.44-5.53zm0 0"/></g><g fill="#505050" stroke="#505050" stroke-width="1.08"><path d="m57.33 33.28h14.99v-9.65h4.25v23.63h-4.25v-9.65h-14.99v9.65h-4.32v-23.63h4.25zm0 0"/><path d="m108.22 37.4c0 1.42-.27 2.77-.74 3.98-.47 1.15-1.15 2.23-2.03 3.11s-1.96 1.55-3.17 2.03-2.5.74-3.92.74h-11.54c-.34 0-.61-.07-.88-.14s-.47-.27-.68-.47-.34-.41-.47-.68c-.07-.27-.14-.54-.14-.88v-19.31c0-.34.07-.61.14-.81.07-.27.27-.47.47-.68s.41-.34.68-.47c.27-.07.54-.14.88-.14h11.54c1.42 0 2.7.27 3.92.74s2.23 1.22 3.11 2.09 1.62 1.89 2.09 3.11.74 2.57.74 3.98zm-4.25-3.85c0-.88-.14-1.62-.41-2.3-.27-.74-.68-1.35-1.15-1.82s-1.08-.88-1.76-1.15-1.42-.41-2.3-.41h-9.45v15.12h9.45c.88 0 1.62-.14 2.3-.41s1.28-.68 1.76-1.15.88-1.08 1.15-1.76.41-1.42.41-2.3zm0 0"/><path d="m142.99 47.25h-4.32v-14.04l-7.63 13.37c-.2.34-.47.61-.81.74-.34.2-.68.27-1.08.27-.34 0-.74-.07-1.08-.27s-.54-.41-.74-.74l-7.56-13.37v14.04h-4.25v-21.8c0-.47.14-.95.41-1.35.34-.41.68-.68 1.15-.74.2-.07.47-.07.68-.07s.47.07.68.14.41.2.61.34.34.34.47.54l9.79 16.94 9.79-16.94c.27-.41.61-.68 1.01-.88.47-.2.95-.2 1.42-.07s.81.41 1.15.74c.34.41.47.88.47 1.35zm0 0"/><path d="m174.64 23.63-11.14 22.82c-.2.34-.47.61-.81.81s-.74.34-1.15.34-.81-.14-1.15-.34-.61-.47-.81-.81l-11.14-22.82h4.79l8.3 17.01 8.37-17.01zm0 0"/><path d="m94.93 70.61c0 1.01-.14 1.89-.34 2.63s-.54 1.42-1.01 2.03c-.41.61-.88 1.08-1.42 1.49s-1.08.74-1.69 1.01-1.15.47-1.76.61-1.15.2-1.69.2h-9.72v-4.25h9.72c.54-.07 1.01-.14 1.49-.34s.81-.41 1.15-.74.54-.68.74-1.08c.2-.47.27-.95.27-1.49v-1.96c-.07-.54-.2-1.01-.41-1.49s-.41-.81-.74-1.15c-.27-.34-.61-.61-1.08-.74-.41-.2-.88-.34-1.49-.34h-9.65c-.61 0-1.01.14-1.28.47-.34.34-.47.74-.47 1.28v17.62h-4.25v-17.62c0-1.08.2-2.03.61-2.84.41-.74.88-1.42 1.49-1.89s1.22-.81 1.96-1.01 1.35-.34 1.96-.34h9.72c.95 0 1.82.14 2.63.41.74.2 1.42.54 2.03 1.01.61.41 1.08.88 1.49 1.42s.74 1.08 1.01 1.69.47 1.15.61 1.76.2 1.15.2 1.69zm0 0"/><path d="m124.29 77.42c0 .88-.14 1.62-.34 2.3s-.47 1.28-.81 1.76-.74.95-1.22 1.35c-.47.34-.95.68-1.49.88-.47.2-1.01.41-1.55.54-.47.07-1.01.14-1.49.14h-16.54v-4.25h16.54c.81 0 1.42-.27 1.89-.74s.68-1.15.68-1.96c0-.41-.07-.74-.2-1.08s-.34-.61-.54-.88c-.2-.2-.47-.41-.81-.54s-.68-.2-1.08-.2h-9.86c-.68 0-1.42-.14-2.23-.34-.81-.27-1.55-.68-2.23-1.22s-1.22-1.28-1.69-2.16-.68-1.96-.68-3.24.2-2.36.68-3.24 1.01-1.62 1.69-2.16 1.42-.95 2.23-1.22 1.55-.41 2.23-.41h14.58v4.25h-14.58c-.81 0-1.42.27-1.89.74s-.68 1.15-.68 1.96.2 1.49.68 1.96 1.08.68 1.89.68h9.86c.47 0 .95.07 1.49.2.47.07 1.01.27 1.55.54.47.2 1.01.54 1.49.95.47.34.88.81 1.22 1.35.34.47.68 1.08.88 1.76s.34 1.42.34 2.3zm0 0"/><path d="m154.26 82.22c0 .34-.07.61-.14.88s-.27.47-.47.68-.41.34-.68.47c-.34.07-.61.14-.88.14h-15.46c-.41 0-.81-.07-1.28-.14s-.88-.27-1.35-.47-.88-.41-1.28-.74-.74-.68-1.08-1.15-.54-.95-.74-1.55-.27-1.28-.27-2.03v-11.54c0-.41.07-.81.14-1.28s.27-.88.47-1.35.41-.88.74-1.28.68-.74 1.15-1.08.95-.54 1.55-.74 1.22-.27 1.96-.27h17.42v4.25h-17.42c-.54 0-.95.14-1.28.47s-.47.74-.47 1.35v11.54c0 .54.14.95.47 1.28s.74.47 1.28.47h13.37v-5.4h-11.41v-4.32h13.5c.34 0 .61.07.88.2.27.07.47.27.68.47s.34.41.47.68c.07.27.14.54.14.81zm0 0"/></g></svg>