<svg height="150" viewBox="0 0 225 150" width="225" xmlns="http://www.w3.org/2000/svg" xmlns:xlink="http://www.w3.org/1999/xlink"><linearGradient id="a" gradientUnits="userSpaceOnUse" x1="18.25" x2="18.25" y1="22.26" y2="1.26"><stop offset="0" stop-color="#969696"/><stop offset=".367511" stop-color="#969696"/><stop offset=".372962" stop-color="#d9d9d9"/><stop offset="1" stop-color="#d9d9d9"/></linearGradient><path d="m2.38 1.06h28.57c.59 0 1.06.47 1.06 1.06v17.99c0 .59-.47 1.06-1.06 1.06h-28.57c-.59 0-1.06-.47-1.06-1.06v-17.99c0-.59.47-1.06 1.06-1.06zm0 0" fill="url(#a)" stroke="#777" stroke-width=".2" transform="matrix(6.75 0 0 6.75 .02 0)"/><g fill="#d3d3d3"><path d="m74.71 108.84h15.39v6.34h-15.39zm0 0"/><path d="m135.78 124.16h22.74v6.34h-22.74zm0 0"/><path d="m95.16 108.84h47.37v6.34h-47.37zm0 0"/><path d="m58.72 124.16h69.98v6.34h-69.98zm0 0"/><path d="m173.16 104.25-7.62 31.71h4.32l7.69-31.71zm6.48 2.9v7.42l14.44 5.54-14.44 5.6v7.35l23.82-9.92v-6.2zm-134.28-.06-23.82 9.85v6.2l23.82 9.92v-7.42l-14.44-5.6 14.44-5.53zm0 0"/></g><g fill="#505050" stroke="#505050" stroke-width="1.08"><path d="m53.14 74.25h-5.87v-32.53h5.87zm0 0"/><path d="m100.93 74.25h-5.94v-19.37l-10.46 18.43c-.27.47-.61.81-1.08 1.08-.47.2-.95.34-1.49.34-.47 0-1.01-.14-1.49-.34s-.81-.61-1.01-1.08l-10.46-18.43v19.37h-5.94v-29.97c0-.68.2-1.28.61-1.82s.95-.88 1.62-1.08c.34-.07.61-.14.95-.07.34 0 .61.07.88.2.34.07.61.27.81.47s.41.41.61.74l13.43 23.36 13.43-23.36c.34-.61.81-1.01 1.42-1.22s1.28-.27 1.96-.14c.61.2 1.15.54 1.55 1.08s.61 1.15.61 1.82zm0 0"/><path d="m142.11 64.67c0 1.15-.14 2.23-.47 3.17-.27.88-.68 1.69-1.15 2.43s-1.08 1.35-1.69 1.82-1.28.88-2.03 1.22c-.68.34-1.42.54-2.16.68-.74.2-1.42.27-2.03.27h-22.75v-5.87h22.75c1.15 0 2.03-.34 2.63-1.01s.95-1.55.95-2.7c0-.54-.07-1.01-.27-1.49s-.41-.81-.74-1.15-.68-.54-1.15-.74-.95-.27-1.49-.27h-13.57c-.95 0-1.96-.14-3.11-.47-1.01-.41-2.03-1.01-2.97-1.76s-1.76-1.76-2.36-2.97-.95-2.7-.95-4.46.34-3.24.95-4.46 1.42-2.23 2.36-2.97 1.96-1.35 3.11-1.69 2.16-.54 3.11-.54h20.05v5.87h-20.05c-1.15 0-2.03.34-2.63 1.01s-.95 1.55-.95 2.7.34 2.03.95 2.7c.61.61 1.49.95 2.63.95h13.64c.61 0 1.28.07 2.03.27.74.14 1.42.41 2.09.74.74.34 1.42.74 2.03 1.28.61.47 1.22 1.08 1.69 1.82s.88 1.55 1.15 2.43.41 1.96.41 3.11zm0 0"/><path d="m179.1 74.25h-21.26c-.54 0-1.15-.07-1.76-.2s-1.28-.34-1.89-.61-1.15-.61-1.76-1.01c-.54-.47-1.01-.95-1.49-1.55-.41-.61-.74-1.35-1.01-2.16s-.41-1.76-.41-2.77v-16c0-.54.07-1.15.2-1.76s.34-1.28.61-1.89.61-1.22 1.08-1.76.95-1.01 1.55-1.49 1.35-.81 2.16-1.01c.81-.27 1.69-.41 2.7-.41h21.26v5.87h-21.26c-.74 0-1.35.2-1.76.61s-.61 1.01-.61 1.82v15.93c0 .74.2 1.35.61 1.76s1.01.61 1.76.61h21.26zm0 0"/></g></svg>