<svg height="150" viewBox="0 0 225 150" width="225" xmlns="http://www.w3.org/2000/svg" xmlns:xlink="http://www.w3.org/1999/xlink"><linearGradient id="a" gradientUnits="userSpaceOnUse" x1="18.25" x2="18.25" y1="22.26" y2="1.26"><stop offset="0" stop-color="#969696"/><stop offset=".367511" stop-color="#969696"/><stop offset=".372962" stop-color="#d9d9d9"/><stop offset="1" stop-color="#d9d9d9"/></linearGradient><path d="m2.38 1.06h28.57c.59 0 1.06.47 1.06 1.06v17.99c0 .59-.47 1.06-1.06 1.06h-28.57c-.59 0-1.06-.47-1.06-1.06v-17.99c0-.59.47-1.06 1.06-1.06zm0 0" fill="url(#a)" stroke="#777" stroke-width=".2" transform="matrix(6.75 0 0 6.75 .02 0)"/><g fill="#d3d3d3"><path d="m74.71 108.84h15.39v6.34h-15.39zm0 0"/><path d="m135.78 124.16h22.74v6.34h-22.74zm0 0"/><path d="m95.16 108.84h47.37v6.34h-47.37zm0 0"/><path d="m58.72 124.16h69.98v6.34h-69.98zm0 0"/><path d="m173.16 104.25-7.62 31.71h4.32l7.69-31.71zm6.48 2.9v7.42l14.44 5.54-14.44 5.6v7.35l23.82-9.92v-6.2zm-134.28-.06-23.82 9.85v6.2l23.82 9.92v-7.42l-14.44-5.6 14.44-5.53zm0 0"/></g><g fill="#505050" stroke="#505050" stroke-width="1.08"><path d="m65.22 65.95c0 1.15-.2 2.3-.61 3.31s-1.01 1.89-1.76 2.63-1.62 1.28-2.63 1.76c-.95.41-2.03.61-3.24.61h-21.6v-5.87h21.6c.74 0 1.28-.2 1.69-.61s.61-1.01.61-1.76v-24.3h5.94zm0 0"/><path d="m106.94 74.25h-5.87v-7.97h-20.72v7.97h-5.94v-16.27c0-2.36.41-4.59 1.22-6.55s1.96-3.71 3.38-5.13 3.17-2.57 5.13-3.38 4.12-1.22 6.48-1.22h13.3c.41 0 .81.07 1.15.2s.68.34.95.61.47.61.61.95.2.74.2 1.15zm-26.6-13.91h20.72v-12.69h-10.4c-.2 0-.54 0-1.15.07s-1.28.2-2.03.41-1.55.54-2.43.95c-.88.47-1.62 1.08-2.36 1.82s-1.28 1.76-1.76 2.9-.68 2.57-.68 4.18zm0 0"/><path d="m145.96 74.25h-21.26c-.54 0-1.15-.07-1.76-.2s-1.28-.34-1.89-.61-1.15-.61-1.76-1.01c-.54-.47-1.01-.95-1.49-1.55-.41-.61-.74-1.35-1.01-2.16s-.41-1.76-.41-2.77v-16c0-.54.07-1.15.2-1.76s.34-1.28.61-1.89.61-1.22 1.08-1.76.95-1.01 1.55-1.49 1.35-.81 2.16-1.01c.81-.27 1.69-.41 2.7-.41h21.26v5.87h-21.26c-.74 0-1.35.2-1.76.61s-.61 1.01-.61 1.82v15.93c0 .74.2 1.35.61 1.76s1.01.61 1.76.61h21.26zm0 0"/><path d="m188.21 61.09c0 1.96-.34 3.78-1.01 5.47s-1.62 3.11-2.84 4.32-2.63 2.16-4.32 2.84-3.44 1.01-5.4 1.01h-7.97c-1.96 0-3.71-.34-5.4-1.01s-3.11-1.62-4.32-2.84-2.16-2.63-2.84-4.32c-.74-1.69-1.08-3.51-1.08-5.47v-6.21c0-1.96.34-3.78 1.01-5.47s1.62-3.11 2.84-4.32 2.63-2.16 4.32-2.84 3.44-1.01 5.4-1.01h7.97c1.96 0 3.71.34 5.4 1.01s3.11 1.62 4.32 2.84 2.16 2.63 2.84 4.32c.74 1.69 1.08 3.51 1.08 5.47zm-5.87-6.21c0-1.15-.2-2.23-.54-3.17-.41-.95-.95-1.76-1.62-2.43s-1.49-1.22-2.43-1.55-1.96-.54-3.11-.54h-7.97c-1.15 0-2.23.2-3.17.54s-1.76.88-2.43 1.55-1.22 1.49-1.62 2.43c-.34.95-.54 2.03-.54 3.17v6.21c0 1.15.2 2.23.54 3.17s.88 1.76 1.62 2.43c.68.68 1.49 1.22 2.43 1.55s2.03.54 3.17.54h7.97c1.15 0 2.23-.2 3.11-.54.95-.34 1.76-.88 2.43-1.55s1.22-1.49 1.55-2.43.54-2.03.54-3.17zm0 0"/></g></svg>