<svg height="150" viewBox="0 0 225 150" width="225" xmlns="http://www.w3.org/2000/svg" xmlns:xlink="http://www.w3.org/1999/xlink"><linearGradient id="a" gradientUnits="userSpaceOnUse" x1="18.25" x2="18.25" y1="22.26" y2="1.26"><stop offset="0" stop-color="#969696"/><stop offset=".367511" stop-color="#969696"/><stop offset=".372962" stop-color="#d9d9d9"/><stop offset="1" stop-color="#d9d9d9"/></linearGradient><path d="m2.38 1.06h28.57c.59 0 1.06.47 1.06 1.06v17.99c0 .59-.47 1.06-1.06 1.06h-28.57c-.59 0-1.06-.47-1.06-1.06v-17.99c0-.59.47-1.06 1.06-1.06zm0 0" fill="url(#a)" stroke="#777" stroke-width=".2" transform="matrix(6.75 0 0 6.75 .02 0)"/><g fill="#d3d3d3"><path d="m74.71 108.84h15.39v6.34h-15.39zm0 0"/><path d="m135.78 124.16h22.74v6.34h-22.74zm0 0"/><path d="m95.16 108.84h47.37v6.34h-47.37zm0 0"/><path d="m58.72 124.16h69.98v6.34h-69.98zm0 0"/><path d="m173.16 104.25-7.62 31.71h4.32l7.69-31.71zm6.48 2.9v7.42l14.44 5.54-14.44 5.6v7.35l23.82-9.92v-6.2zm-134.28-.06-23.82 9.85v6.2l23.82 9.92v-7.42l-14.44-5.6 14.44-5.53zm0 0"/></g><g fill="#505050" stroke="#505050" stroke-width="1.08"><path d="m72.85 74.25h-8.37l-13.3-13.3h-4.12v-5.94h4.12l13.3-13.3h8.37l-16.74 16.27zm-28.15 0h-5.94v-32.53h5.87zm0 0"/><path d="m111.46 74.25h-5.87v-7.97h-20.72v7.97h-5.94v-16.27c0-2.36.41-4.59 1.22-6.55s1.96-3.71 3.38-5.13 3.17-2.57 5.13-3.38 4.12-1.22 6.48-1.22h13.3c.41 0 .81.07 1.15.2s.68.34.95.61.47.61.61.95.2.74.2 1.15zm-26.6-13.91h20.72v-12.69h-10.4c-.2 0-.54 0-1.15.07s-1.28.2-2.03.41-1.55.54-2.43.95c-.88.47-1.62 1.08-2.36 1.82s-1.28 1.76-1.76 2.9-.68 2.57-.68 4.18zm0 0"/><path d="m150.75 47.66h-13.03v26.6h-5.87v-26.6h-13.03v-5.94h31.93zm0 0"/><path d="m184.84 60.95h-18.63v-5.94h18.63zm2.63 13.3h-21.26c-.81 0-1.69-.14-2.7-.41s-1.89-.74-2.7-1.42-1.49-1.55-2.09-2.57c-.54-1.08-.81-2.36-.81-3.85v-21.33c0-.41.07-.81.2-1.15s.34-.68.61-.95.61-.47.95-.61.74-.2 1.15-.2h26.53v5.87h-23.63v18.36c0 .74.2 1.35.61 1.76s1.01.61 1.82.61h21.2zm0 0"/></g></svg>