<svg height="150" viewBox="0 0 225 150" width="225" xmlns="http://www.w3.org/2000/svg" xmlns:xlink="http://www.w3.org/1999/xlink"><linearGradient id="a" gradientUnits="userSpaceOnUse" x1="18.25" x2="18.25" y1="22.26" y2="1.26"><stop offset="0" stop-color="#969696"/><stop offset=".367511" stop-color="#969696"/><stop offset=".372962" stop-color="#d9d9d9"/><stop offset="1" stop-color="#d9d9d9"/></linearGradient><path d="m2.38 1.06h28.57c.59 0 1.06.47 1.06 1.06v17.99c0 .59-.47 1.06-1.06 1.06h-28.57c-.59 0-1.06-.47-1.06-1.06v-17.99c0-.59.47-1.06 1.06-1.06zm0 0" fill="url(#a)" stroke="#777" stroke-width=".2" transform="matrix(6.75 0 0 6.75 .02 0)"/><g fill="#d3d3d3"><path d="m74.71 108.84h15.39v6.34h-15.39zm0 0"/><path d="m135.78 124.16h22.74v6.34h-22.74zm0 0"/><path d="m95.16 108.84h47.37v6.34h-47.37zm0 0"/><path d="m58.72 124.16h69.98v6.34h-69.98zm0 0"/><path d="m173.16 104.25-7.62 31.71h4.32l7.69-31.71zm6.48 2.9v7.42l14.44 5.54-14.44 5.6v7.35l23.82-9.92v-6.2zm-134.28-.06-23.82 9.85v6.2l23.82 9.92v-7.42l-14.44-5.6 14.44-5.53zm0 0"/></g><g fill="#505050" stroke="#505050" stroke-width="1.08"><path d="m49.77 67.5h-3.65v-11.81l-6.41 11.21c-.14.27-.34.47-.68.68-.27.14-.54.2-.88.2s-.61-.07-.88-.2-.47-.34-.61-.68l-6.41-11.21v11.81h-3.65v-18.29c0-.41.14-.74.34-1.08.27-.34.61-.54.95-.68.2-.07.41-.07.61-.07s.34.07.54.14.34.14.47.27.27.27.41.47l8.24 14.24 8.24-14.24c.2-.34.54-.61.88-.74s.74-.14 1.15-.07.74.34.95.68c.27.34.41.68.41 1.08zm0 0"/><path d="m60.23 49.48h-3.65v-3.24h3.58zm0 18.02h-3.65v-14.99h3.58zm0 0"/><path d="m81.22 67.5h-9.79c-.47 0-1.01-.07-1.62-.27s-1.15-.47-1.69-.88c-.47-.41-.88-.95-1.22-1.55s-.54-1.42-.54-2.36v-4.86c0-.34.07-.74.14-1.08s.2-.74.41-1.15c.2-.34.41-.74.61-1.08.27-.34.61-.68.95-.88.34-.27.81-.47 1.28-.61s1.08-.2 1.69-.2h9.79v3.58h-9.79c-.47 0-.81.14-1.08.34-.2.2-.34.61-.34 1.08v4.86c0 .47.14.81.41 1.08s.61.41 1.08.41h9.72zm0 0"/><path d="m100.33 56.16h-8.1c-.47 0-.88.14-1.08.41-.27.2-.41.61-.41 1.08v9.86h-3.65v-9.92c0-.61.07-1.22.2-1.69s.34-.95.61-1.28.61-.68.95-.95.74-.47 1.08-.68.74-.27 1.15-.34.74-.14 1.08-.14h8.1zm0 0"/><path d="m121.93 62.44c0 .61-.07 1.22-.2 1.69s-.34.95-.61 1.28-.54.68-.88.95-.74.47-1.08.61c-.34.2-.74.34-1.15.41s-.81.14-1.15.14h-6.48c-.47 0-1.01-.07-1.62-.27s-1.15-.47-1.69-.88c-.47-.41-.88-.95-1.22-1.55s-.54-1.42-.54-2.36v-4.86c0-.95.14-1.76.47-2.36s.81-1.15 1.28-1.55 1.01-.68 1.62-.88 1.15-.27 1.62-.27h6.48c.95 0 1.76.14 2.36.47s1.15.74 1.55 1.28c.41.47.68 1.01.88 1.62s.27 1.15.27 1.62zm-3.58-4.86c0-.47-.14-.88-.41-1.08s-.61-.34-1.08-.34h-6.48c-.47 0-.88.14-1.08.41-.27.2-.41.61-.41 1.08v4.86c0 .47.14.81.41 1.08s.61.41 1.08.41h6.48c.47 0 .88-.14 1.08-.41s.34-.61.34-1.08zm0 0"/><path d="m148.25 59.2c0 1.22-.2 2.3-.61 3.31-.47 1.01-1.01 1.89-1.76 2.63s-1.62 1.35-2.63 1.76-2.16.61-3.31.61h-9.72c-.27 0-.54-.07-.74-.14s-.41-.2-.61-.41c-.14-.2-.27-.41-.41-.61-.07-.2-.14-.47-.14-.74v-16.13c0-.27.07-.47.14-.68s.2-.41.41-.61.41-.34.61-.41.47-.14.74-.14h9.72c1.15 0 2.3.2 3.31.61s1.89 1.01 2.63 1.76 1.28 1.62 1.76 2.63c.41 1.01.61 2.16.61 3.31zm-3.58-3.24c0-.74-.14-1.35-.34-1.96s-.54-1.08-.95-1.49-.88-.74-1.49-.95-1.22-.34-1.89-.34h-7.97v12.62h7.97c.74 0 1.35-.14 1.89-.34.61-.2 1.08-.54 1.49-.95s.74-.88.95-1.49.34-1.22.34-1.96zm0 0"/><path d="m174.24 47.66-9.45 19.17c-.14.27-.34.47-.61.68s-.61.27-.95.27-.68-.07-.95-.27-.47-.41-.68-.68l-9.45-19.17h4.05l6.95 14.31 7.02-14.31zm0 0"/><path d="m199.08 59.2c0 1.22-.2 2.3-.61 3.31s-1.01 1.89-1.76 2.63-1.62 1.35-2.63 1.76-2.09.61-3.31.61h-9.72c-.27 0-.54-.07-.74-.14s-.41-.2-.61-.41c-.14-.2-.27-.41-.41-.61-.07-.2-.14-.47-.14-.74v-16.13c0-.27.07-.47.14-.68s.2-.41.41-.61.41-.34.61-.41.47-.14.74-.14h9.72c1.15 0 2.3.2 3.31.61s1.89 1.01 2.63 1.76 1.28 1.62 1.76 2.63c.41 1.01.61 2.16.61 3.31zm-3.58-3.24c0-.74-.14-1.35-.34-1.96s-.54-1.08-.95-1.49-.88-.74-1.49-.95-1.22-.34-1.89-.34h-7.97v12.62h7.97c.74 0 1.35-.14 1.89-.34.61-.2 1.08-.54 1.49-.95s.74-.88.95-1.49.34-1.22.34-1.96zm0 0"/></g></svg>