<svg height="150" viewBox="0 0 225 150" width="225" xmlns="http://www.w3.org/2000/svg" xmlns:xlink="http://www.w3.org/1999/xlink"><linearGradient id="a" gradientUnits="userSpaceOnUse" x1="18.25" x2="18.25" y1="22.26" y2="1.26"><stop offset="0" stop-color="#969696"/><stop offset=".367511" stop-color="#969696"/><stop offset=".372962" stop-color="#d9d9d9"/><stop offset="1" stop-color="#d9d9d9"/></linearGradient><path d="m2.38 1.06h28.57c.59 0 1.06.47 1.06 1.06v17.99c0 .59-.47 1.06-1.06 1.06h-28.57c-.59 0-1.06-.47-1.06-1.06v-17.99c0-.59.47-1.06 1.06-1.06zm0 0" fill="url(#a)" stroke="#777" stroke-width=".2" transform="matrix(6.75 0 0 6.75 .02 0)"/><g fill="#d3d3d3"><path d="m74.71 108.84h15.39v6.34h-15.39zm0 0"/><path d="m135.78 124.16h22.74v6.34h-22.74zm0 0"/><path d="m95.16 108.84h47.37v6.34h-47.37zm0 0"/><path d="m58.72 124.16h69.98v6.34h-69.98zm0 0"/><path d="m173.16 104.25-7.62 31.71h4.32l7.69-31.71zm6.48 2.9v7.42l14.44 5.54-14.44 5.6v7.35l23.82-9.92v-6.2zm-134.28-.06-23.82 9.85v6.2l23.82 9.92v-7.42l-14.44-5.6 14.44-5.53zm0 0"/></g><g fill="#505050" stroke="#505050" stroke-width="1.08"><path d="m57.87 74.25h-5.67v-18.29l-9.86 17.35c-.2.47-.54.81-1.01 1.01s-.95.34-1.42.34-.95-.14-1.35-.34-.74-.54-1.01-1.01l-9.92-17.35v18.29h-5.54v-28.35c0-.61.2-1.22.54-1.69.41-.47.88-.81 1.49-1.01.34-.07.61-.14.88-.07.34 0 .61.07.88.2.27.07.54.27.74.47s.41.41.61.68l12.69 22.01 12.69-22.01c.34-.54.74-.95 1.35-1.15s1.22-.27 1.82-.14c.61.2 1.08.54 1.49 1.01s.61 1.08.61 1.69zm0 0"/><path d="m97.96 56.36c0 1.28-.14 2.36-.47 3.38s-.74 1.89-1.28 2.63-1.15 1.42-1.82 1.96c-.74.54-1.49 1.01-2.23 1.35s-1.55.61-2.3.74-1.49.2-2.16.2h-12.62v-5.47h12.62c.74-.07 1.35-.2 1.96-.41s1.08-.54 1.49-.95.74-.88.95-1.42c.2-.61.34-1.22.34-1.96v-2.57c-.07-.74-.27-1.35-.47-1.96s-.54-1.08-.95-1.49-.88-.74-1.42-.95c-.61-.27-1.22-.41-1.96-.41h-12.56c-.74 0-1.35.2-1.69.61-.41.41-.61.95-.61 1.69v22.88h-5.54v-22.88c0-1.42.27-2.63.74-3.65.54-1.01 1.22-1.82 1.96-2.43s1.62-1.08 2.57-1.35c.88-.27 1.76-.41 2.5-.41h12.62c1.28 0 2.36.14 3.38.47s1.89.74 2.63 1.28 1.42 1.15 1.96 1.82c.54.74 1.01 1.49 1.35 2.23s.61 1.55.74 2.3.2 1.49.2 2.16zm0 0"/><path d="m133.06 74.25h-5.6v-12.56h-19.78c-.41 0-.81-.07-1.15-.2s-.68-.34-.88-.61-.41-.54-.61-.88c-.14-.34-.2-.74-.2-1.08v-15.39h5.6v12.56h17.01v-12.56h5.6zm0 0"/><path d="m170.46 49.07h-12.22v25.18h-5.6v-25.18h-12.29v-5.54h30.17zm0 0"/><path d="m205.36 49.07h-12.22v25.18h-5.6v-25.18h-12.29v-5.54h30.17zm0 0"/></g></svg>