<svg height="150" viewBox="0 0 225 150" width="225" xmlns="http://www.w3.org/2000/svg" xmlns:xlink="http://www.w3.org/1999/xlink"><linearGradient id="a" gradientUnits="userSpaceOnUse" x1="18.25" x2="18.25" y1="22.26" y2="1.26"><stop offset="0" stop-color="#969696"/><stop offset=".367511" stop-color="#969696"/><stop offset=".372962" stop-color="#d9d9d9"/><stop offset="1" stop-color="#d9d9d9"/></linearGradient><path d="m2.38 1.06h28.57c.59 0 1.06.47 1.06 1.06v17.99c0 .59-.47 1.06-1.06 1.06h-28.57c-.59 0-1.06-.47-1.06-1.06v-17.99c0-.59.47-1.06 1.06-1.06zm0 0" fill="url(#a)" stroke="#777" stroke-width=".2" transform="matrix(6.75 0 0 6.75 .02 0)"/><g fill="#d3d3d3"><path d="m74.71 108.84h15.39v6.34h-15.39zm0 0"/><path d="m135.78 124.16h22.74v6.34h-22.74zm0 0"/><path d="m95.16 108.84h47.37v6.34h-47.37zm0 0"/><path d="m58.72 124.16h69.98v6.34h-69.98zm0 0"/><path d="m173.16 104.25-7.62 31.71h4.32l7.69-31.71zm6.48 2.9v7.42l14.44 5.54-14.44 5.6v7.35l23.82-9.92v-6.2zm-134.28-.06-23.82 9.85v6.2l23.82 9.92v-7.42l-14.44-5.6 14.44-5.53zm0 0"/></g><g fill="#505050" stroke="#505050" stroke-width="1.08"><path d="m73.6 74.25h-5.94v-19.37l-10.4 18.43c-.27.47-.61.81-1.08 1.08-.47.2-.95.34-1.49.34-.47 0-1.01-.14-1.49-.34s-.81-.61-1.01-1.08l-10.53-18.43v19.37h-5.87v-29.97c0-.68.2-1.28.61-1.82s.95-.88 1.62-1.08c.34-.07.61-.14.95-.07.34 0 .61.07.88.2.34.07.61.27.81.47s.41.41.61.74l13.43 23.29 13.37-23.29c.34-.61.81-1.01 1.42-1.22s1.28-.27 1.96-.14c.61.2 1.15.54 1.55 1.08s.61 1.15.61 1.82zm0 0"/><path d="m115.92 55.35c0 1.35-.14 2.57-.47 3.58-.34 1.08-.74 2.03-1.35 2.84s-1.28 1.49-2.03 2.03c-.74.61-1.49 1.08-2.3 1.42s-1.62.61-2.43.81c-.88.2-1.62.27-2.36.27h-13.3v-5.94h13.37c.74-.07 1.42-.2 2.03-.47s1.15-.61 1.62-1.01.81-.95 1.01-1.55.34-1.28.34-2.03v-2.63c-.07-.74-.27-1.42-.47-2.03s-.54-1.15-1.01-1.62c-.41-.47-.88-.81-1.49-1.01-.61-.27-1.28-.41-2.03-.41h-13.3c-.74 0-1.35.2-1.82.61-.41.41-.61 1.01-.61 1.76v24.3h-5.94v-24.23c0-1.55.27-2.84.81-3.85.54-1.08 1.22-1.96 2.09-2.57.81-.61 1.69-1.08 2.7-1.42s1.89-.47 2.7-.47h13.37c1.35 0 2.57.2 3.58.54 1.08.34 2.03.74 2.77 1.35.81.54 1.49 1.22 2.09 1.96s1.08 1.49 1.42 2.36c.34.81.61 1.62.81 2.43s.27 1.55.27 2.3zm0 0"/><path d="m153.85 74.25h-26.87c-.41 0-.81-.07-1.15-.2s-.68-.34-.95-.61-.47-.61-.61-.95-.2-.74-.2-1.15v-29.63h5.87v26.6h23.96zm0 0"/><path d="m190.03 74.25h-29.84v-10.94c0-.54.07-1.15.2-1.76s.34-1.28.61-1.89.61-1.22 1.01-1.76c.47-.54.95-1.01 1.55-1.49s1.35-.81 2.16-1.01c.81-.27 1.69-.41 2.7-.41h13.3c.81 0 1.42-.2 1.76-.61.41-.41.61-1.01.61-1.76v-2.57c0-.81-.2-1.42-.61-1.82s-1.01-.61-1.76-.61h-18.9v-5.94h18.97c1.01 0 1.89.14 2.7.41s1.49.61 2.09 1.01 1.15.88 1.62 1.49c.47.54.81 1.15 1.08 1.76s.47 1.22.61 1.89c.14.61.2 1.22.2 1.76v2.63c0 1.55-.27 2.84-.81 3.85s-1.22 1.89-2.09 2.57c-.81.61-1.69 1.08-2.7 1.42-.95.27-1.82.41-2.7.41h-13.37c-.47 0-.88.07-1.15.2s-.47.34-.68.54c-.14.2-.27.47-.34.74s-.14.54-.2.88v5h23.96zm0 0"/></g></svg>