<svg height="150" viewBox="0 0 225 150" width="225" xmlns="http://www.w3.org/2000/svg" xmlns:xlink="http://www.w3.org/1999/xlink"><linearGradient id="a" gradientUnits="userSpaceOnUse" x1="18.25" x2="18.25" y1="22.26" y2="1.26"><stop offset="0" stop-color="#969696"/><stop offset=".367511" stop-color="#969696"/><stop offset=".372962" stop-color="#d9d9d9"/><stop offset="1" stop-color="#d9d9d9"/></linearGradient><path d="m2.38 1.06h28.57c.59 0 1.06.47 1.06 1.06v17.99c0 .59-.47 1.06-1.06 1.06h-28.57c-.59 0-1.06-.47-1.06-1.06v-17.99c0-.59.47-1.06 1.06-1.06zm0 0" fill="url(#a)" stroke="#777" stroke-width=".2" transform="matrix(6.75 0 0 6.75 .02 0)"/><g fill="#d3d3d3"><path d="m74.71 108.84h15.39v6.34h-15.39zm0 0"/><path d="m135.78 124.16h22.74v6.34h-22.74zm0 0"/><path d="m95.16 108.84h47.37v6.34h-47.37zm0 0"/><path d="m58.72 124.16h69.98v6.34h-69.98zm0 0"/><path d="m173.16 104.25-7.62 31.71h4.32l7.69-31.71zm6.48 2.9v7.42l14.44 5.54-14.44 5.6v7.35l23.82-9.92v-6.2zm-134.28-.06-23.82 9.85v6.2l23.82 9.92v-7.42l-14.44-5.6 14.44-5.53zm0 0"/></g><g fill="#505050" stroke="#505050" stroke-width="1.08"><path d="m52.94 54.34c0 .81-.14 1.55-.34 2.23-.2.61-.41 1.22-.74 1.69s-.74.88-1.22 1.22-.95.68-1.42.88-1.01.41-1.49.54c-.47.07-.95.14-1.42.14l7.49 6.48h-5.54l-7.56-6.48h-2.57v-3.65h8.17c.47-.07.88-.14 1.22-.27s.68-.34.95-.61.47-.61.61-.95.2-.81.2-1.28v-2.23c0-.2 0-.41-.07-.47s-.14-.14-.2-.2-.2-.07-.27-.07-.14 0-.2 0h-11.81v16.2h-3.65v-18.02c0-.27.07-.47.14-.68s.2-.41.41-.61.41-.34.61-.41.47-.14.74-.14h13.64c.81 0 1.49.14 2.03.47.54.27 1.01.61 1.35 1.08s.61.95.74 1.42.2.95.2 1.42zm0 0"/><path d="m75.15 57.51c0 .47-.07 1.01-.27 1.62s-.47 1.15-.88 1.62-.95.88-1.55 1.22-1.42.47-2.3.47h-6.41v-3.44h6.48c.47 0 .88-.14 1.15-.47s.41-.68.41-1.15-.14-.81-.47-1.08-.68-.41-1.08-.41h-6.48c-.47 0-.88.14-1.15.47s-.41.68-.41 1.08v5c0 .47.14.88.47 1.15s.68.41 1.15.41h6.41v3.51h-6.48c-.54 0-1.08-.07-1.62-.27-.61-.2-1.15-.47-1.62-.81-.47-.41-.88-.95-1.22-1.55s-.54-1.42-.54-2.3v-5.06c0-.47.07-1.01.27-1.62s.47-1.15.88-1.62c.34-.47.88-.88 1.49-1.22s1.42-.54 2.36-.54h6.48c.47 0 1.01.07 1.62.27s1.15.47 1.62.88.88.95 1.22 1.55.47 1.42.47 2.3zm0 0"/><path d="m95.94 62.57c0 .47-.07 1.01-.27 1.62s-.47 1.15-.88 1.62-.95.88-1.55 1.22-1.35.47-2.23.47h-6.48c-.47 0-1.01-.07-1.62-.27s-1.15-.47-1.62-.88-.88-.95-1.22-1.55-.47-1.42-.47-2.3c0-.47.07-1.01.27-1.62s.47-1.15.88-1.62.95-.88 1.55-1.22 1.42-.47 2.3-.47h6.48v3.44h-6.48c-.47 0-.88.14-1.15.47s-.41.68-.41 1.08c0 .47.14.81.47 1.08s.68.41 1.08.41h6.48c.47 0 .88-.14 1.15-.47s.41-.68.41-1.08v-5c0-.47-.14-.81-.47-1.15-.27-.27-.61-.41-1.08-.41h-7.97v-3.44h7.9c.47 0 1.01.07 1.62.27s1.15.47 1.62.88.88.95 1.22 1.55.47 1.42.47 2.3zm0 0"/><path d="m108.63 67.5h-1.62c-.47 0-1.01-.07-1.62-.27s-1.15-.47-1.62-.88c-.54-.41-.95-.95-1.28-1.55s-.47-1.42-.47-2.36v-16.2h3.58v16.27c0 .47.14.81.41 1.08s.61.41 1.01.41h1.62zm0 0"/><path d="m132.32 51.23h-7.9v16.27h-3.65v-16.27h-7.9v-3.58h19.51zm0 0"/><path d="m152.17 57.51c0 .47-.07 1.01-.27 1.62s-.47 1.15-.88 1.62-.95.88-1.55 1.22-1.42.47-2.3.47h-6.48v-3.44h6.48c.47 0 .88-.14 1.15-.47s.41-.68.41-1.15-.14-.81-.47-1.08-.68-.41-1.08-.41h-6.48c-.47 0-.88.14-1.15.47s-.41.68-.41 1.08v5c0 .47.14.88.47 1.15s.68.41 1.15.41h6.48v3.51h-6.55c-.47 0-1.01-.07-1.62-.27s-1.15-.47-1.62-.81c-.47-.41-.88-.95-1.22-1.55s-.47-1.42-.47-2.3v-5.06c0-.47.07-1.01.27-1.62s.47-1.15.88-1.62.95-.88 1.55-1.22 1.42-.47 2.3-.47h6.48c.47 0 1.01.07 1.62.27s1.15.47 1.62.88.88.95 1.22 1.55.47 1.42.47 2.3zm0 0"/><path d="m174.1 52.52-6.48 7.09 7.29 7.9h-4.93l-4.79-5.2-4.79 5.2h-5l7.29-7.97-6.41-7.02h4.93l3.98 4.32 3.98-4.32zm0 0"/><path d="m193.34 56.16h-6.28v11.34h-3.65v-11.34h-4.66v-3.65h4.66v-4.86h3.65v4.86h6.28zm0 0"/></g></svg>