<svg height="150" viewBox="0 0 225 150" width="225" xmlns="http://www.w3.org/2000/svg" xmlns:xlink="http://www.w3.org/1999/xlink"><linearGradient id="a" gradientUnits="userSpaceOnUse" x1="18.25" x2="18.25" y1="22.26" y2="1.26"><stop offset="0" stop-color="#969696"/><stop offset=".367511" stop-color="#969696"/><stop offset=".372962" stop-color="#d9d9d9"/><stop offset="1" stop-color="#d9d9d9"/></linearGradient><path d="m2.38 1.06h28.57c.59 0 1.06.47 1.06 1.06v17.99c0 .59-.47 1.06-1.06 1.06h-28.57c-.59 0-1.06-.47-1.06-1.06v-17.99c0-.59.47-1.06 1.06-1.06zm0 0" fill="url(#a)" stroke="#777" stroke-width=".2" transform="matrix(6.75 0 0 6.75 .02 0)"/><g fill="#d3d3d3"><path d="m74.71 108.84h15.39v6.34h-15.39zm0 0"/><path d="m135.78 124.16h22.74v6.34h-22.74zm0 0"/><path d="m95.16 108.84h47.37v6.34h-47.37zm0 0"/><path d="m58.72 124.16h69.98v6.34h-69.98zm0 0"/><path d="m173.16 104.25-7.62 31.71h4.32l7.69-31.71zm6.48 2.9v7.42l14.44 5.54-14.44 5.6v7.35l23.82-9.92v-6.2zm-134.28-.06-23.82 9.85v6.2l23.82 9.92v-7.42l-14.44-5.6 14.44-5.53zm0 0"/></g><g fill="#505050" stroke="#505050" stroke-width="1.08"><path d="m45.38 65c0 .95-.14 1.82-.41 2.63-.2.74-.54 1.42-.95 2.03s-.88 1.08-1.42 1.49-1.08.74-1.69 1.01c-.61.2-1.15.41-1.76.54s-1.15.2-1.69.2h-18.83v-4.86h18.83c.95 0 1.69-.27 2.16-.81.54-.54.81-1.28.81-2.23 0-.47-.07-.88-.2-1.22-.14-.41-.34-.74-.61-1.01-.2-.27-.54-.47-.95-.68-.34-.14-.74-.2-1.22-.2h-11.21c-.81 0-1.69-.14-2.57-.41-.88-.34-1.76-.81-2.57-1.42-.74-.61-1.42-1.42-1.96-2.43-.47-1.01-.74-2.3-.74-3.71 0-1.49.27-2.7.74-3.71.54-1.01 1.22-1.82 1.96-2.43.81-.68 1.69-1.15 2.57-1.42s1.76-.41 2.57-.41h16.61v4.86h-16.61c-.95 0-1.69.27-2.16.88s-.74 1.35-.74 2.23c0 .95.27 1.69.74 2.23.54.54 1.28.81 2.16.81h11.27c.54 0 1.08.07 1.69.2s1.15.34 1.76.61 1.15.61 1.69 1.08c.54.41 1.01.88 1.42 1.49s.74 1.28.95 2.03.34 1.62.34 2.57zm0 0"/><path d="m79.33 61.63c0 1.62-.27 3.11-.88 4.52s-1.35 2.57-2.36 3.58-2.16 1.76-3.58 2.36c-1.35.54-2.84.81-4.46.81h-13.16c-.34 0-.68-.07-.95-.2-.34-.14-.61-.34-.81-.54s-.41-.47-.54-.81-.2-.61-.2-.95v-22.01c0-.34.07-.68.2-.95.14-.34.34-.61.54-.81s.47-.41.81-.54.61-.2.95-.2h13.16c1.62 0 3.11.27 4.52.88s2.57 1.35 3.58 2.36 1.76 2.16 2.36 3.58.88 2.9.88 4.52zm-4.86-4.39c0-.95-.14-1.82-.47-2.63s-.74-1.49-1.28-2.03c-.61-.61-1.28-1.01-2.03-1.28-.74-.34-1.62-.47-2.57-.47h-10.8v17.15h10.73c.95 0 1.82-.14 2.57-.47.81-.34 1.49-.74 2.03-1.28.61-.61 1.01-1.28 1.28-2.03.34-.81.47-1.69.47-2.63zm0 0"/><path d="m114.03 57.24c0 1.15-.14 2.09-.41 2.97s-.68 1.62-1.15 2.36c-.47.68-1.01 1.22-1.62 1.69s-1.28.88-1.96 1.15c-.68.34-1.35.54-2.03.68s-1.28.2-1.89.2h-11.07v-4.86h11.07c.61-.07 1.22-.2 1.69-.41s.95-.54 1.28-.88.68-.81.88-1.28.27-1.08.27-1.69v-2.16c-.07-.61-.14-1.22-.34-1.69s-.54-.95-.88-1.28c-.34-.41-.74-.68-1.22-.88s-1.08-.34-1.69-.34h-11c-.61 0-1.15.2-1.49.54s-.54.88-.54 1.49v20.05h-4.86v-20.11c0-1.28.2-2.3.68-3.17s1.01-1.55 1.69-2.09 1.42-.95 2.23-1.15c.81-.27 1.55-.41 2.23-.41h11.07c1.08 0 2.09.14 2.97.41s1.62.68 2.3 1.15 1.22 1.01 1.69 1.62.88 1.28 1.15 1.96c.34.68.54 1.35.68 2.03s.2 1.28.2 1.89zm0 0"/><path d="m138.19 61.63h-17.62v-4.39h17.62zm0 0"/><path d="m172.62 70.47c0 .34-.07.68-.2.95-.14.34-.34.61-.54.81s-.47.41-.81.54c-.27.07-.54.14-.88.14h-11c-1.01 0-2.09-.14-3.17-.34s-2.09-.54-3.11-1.01-1.89-1.08-2.77-1.82-1.62-1.55-2.3-2.57c-.61-1.01-1.15-2.16-1.55-3.44-.34-1.28-.54-2.77-.54-4.32v-13.43h4.86v13.5c0 1.42.2 2.57.54 3.51.41.95.88 1.76 1.49 2.36s1.22 1.15 1.96 1.49 1.42.61 2.03.81 1.22.27 1.69.34.81.07.95.07h8.57v-22.07h4.86zm0 0"/><path d="m207.25 65c0 .95-.14 1.82-.41 2.63-.2.74-.54 1.42-.95 2.03s-.88 1.08-1.42 1.49-1.08.74-1.69 1.01-1.15.47-1.76.61c-.61.07-1.15.14-1.69.14h-18.83v-4.86h18.83c.95 0 1.69-.27 2.16-.81.54-.54.81-1.28.81-2.23 0-.47-.07-.88-.2-1.22s-.34-.68-.61-.95-.61-.47-.95-.61-.74-.2-1.22-.2h-11.21c-.81 0-1.69-.14-2.57-.41-.88-.41-1.76-.95-2.57-1.55-.74-.61-1.42-1.42-1.96-2.43-.47-1.01-.74-2.3-.74-3.71 0-1.49.27-2.7.74-3.71.54-1.01 1.22-1.82 1.96-2.43.81-.61 1.69-1.08 2.57-1.35s1.76-.41 2.57-.41h16.61v4.86h-16.61c-.95 0-1.69.27-2.16.88s-.74 1.35-.74 2.23c0 .95.27 1.69.74 2.23.54.54 1.28.81 2.16.81h11.27c.54 0 1.08.07 1.69.2s1.15.34 1.76.61 1.15.61 1.69 1.08c.54.41 1.01.88 1.42 1.49s.74 1.28.95 2.03.34 1.62.34 2.57zm0 0"/></g></svg>