<svg height="150" viewBox="0 0 225 150" width="225" xmlns="http://www.w3.org/2000/svg" xmlns:xlink="http://www.w3.org/1999/xlink"><linearGradient id="a" gradientUnits="userSpaceOnUse" x1="18.25" x2="18.25" y1="22.26" y2="1.26"><stop offset="0" stop-color="#969696"/><stop offset=".367511" stop-color="#969696"/><stop offset=".372962" stop-color="#d9d9d9"/><stop offset="1" stop-color="#d9d9d9"/></linearGradient><path d="m2.38 1.06h28.57c.59 0 1.06.47 1.06 1.06v17.99c0 .59-.47 1.06-1.06 1.06h-28.57c-.59 0-1.06-.47-1.06-1.06v-17.99c0-.59.47-1.06 1.06-1.06zm0 0" fill="url(#a)" stroke="#777" stroke-width=".2" transform="matrix(6.75 0 0 6.75 .02 0)"/><g fill="#d3d3d3"><path d="m74.71 108.84h15.39v6.34h-15.39zm0 0"/><path d="m135.78 124.16h22.74v6.34h-22.74zm0 0"/><path d="m95.16 108.84h47.37v6.34h-47.37zm0 0"/><path d="m58.72 124.16h69.98v6.34h-69.98zm0 0"/><path d="m173.16 104.25-7.62 31.71h4.32l7.69-31.71zm6.48 2.9v7.42l14.44 5.54-14.44 5.6v7.35l23.82-9.92v-6.2zm-134.28-.06-23.82 9.85v6.2l23.82 9.92v-7.42l-14.44-5.6 14.44-5.53zm0 0"/></g><g fill="#505050" stroke="#505050" stroke-width="1.08"><path d="m37.82 61.63c0 .74-.07 1.35-.27 1.96-.2.54-.41 1.01-.68 1.49-.34.47-.68.81-1.08 1.15-.34.27-.74.54-1.22.74-.41.2-.81.34-1.28.41s-.88.14-1.22.14h-13.91v-3.58h13.91c.68 0 1.22-.2 1.62-.61s.61-.95.61-1.62c0-.34-.07-.61-.14-.95-.2-.27-.34-.54-.54-.74s-.41-.34-.68-.47c-.27-.07-.54-.14-.88-.14h-8.3c-.61 0-1.22-.14-1.89-.34s-1.28-.54-1.89-1.01-1.08-1.08-1.42-1.82c-.41-.74-.61-1.62-.61-2.7s.2-1.96.54-2.7c.41-.74.88-1.35 1.49-1.82s1.22-.81 1.89-1.01 1.28-.34 1.89-.34h12.22v3.58h-12.22c-.68 0-1.22.2-1.62.61-.34.41-.54.95-.54 1.62s.2 1.22.54 1.62c.41.41.95.61 1.62.61h8.3c.41 0 .81.07 1.22.14.47.07.88.27 1.28.47.47.2.88.47 1.22.74.41.34.74.68 1.01 1.08.34.47.54.95.74 1.49.2.61.27 1.22.27 1.89zm0 0"/><path d="m66.98 67.5h-3.65v-11.81l-6.35 11.21c-.14.27-.34.47-.68.68-.27.14-.54.2-.88.2s-.61-.07-.88-.2-.47-.34-.61-.68l-6.48-11.21v11.81h-3.58v-18.29c0-.41.14-.74.34-1.08.27-.34.61-.54.95-.68.2-.07.41-.07.61-.07s.34.07.54.14.34.14.47.27.27.27.41.47l8.17 14.24 8.24-14.24c.2-.34.54-.61.88-.74s.74-.14 1.15-.07.74.34.95.68c.27.34.41.68.41 1.08zm0 0"/><path d="m93.98 55.96c0 .81-.14 1.55-.34 2.23-.2.61-.47 1.22-.81 1.69s-.74.95-1.22 1.28-.95.68-1.42.88-1.01.41-1.49.47-.95.14-1.42.14h-8.1v-3.65h8.17c.47-.07.88-.14 1.22-.27s.68-.34.95-.61.47-.61.61-.95.2-.74.2-1.22v-1.62c-.07-.47-.14-.88-.27-1.22s-.34-.68-.61-.95-.61-.47-.95-.61-.74-.2-1.22-.2h-8.1c-.47 0-.88.14-1.08.41-.27.27-.41.61-.41 1.08v14.65h-3.58v-14.78c0-.95.14-1.76.47-2.36s.81-1.15 1.28-1.55 1.01-.68 1.62-.88 1.15-.27 1.62-.27h8.17c.81 0 1.55.14 2.16.34s1.22.47 1.69.81.95.74 1.28 1.22.68.95.88 1.42.41 1.01.47 1.49.14.95.14 1.42zm0 0"/><path d="m118.01 51.23h-7.9v16.27h-3.65v-16.27h-7.9v-3.58h19.51zm0 0"/><path d="m140.01 59.4h-11.34v-3.65h11.34zm1.62 8.1h-12.96c-.47 0-1.01-.07-1.62-.27s-1.22-.47-1.69-.88-.95-.95-1.28-1.55-.47-1.42-.47-2.36v-12.96c0-.27.07-.47.14-.68s.2-.41.41-.61.41-.34.61-.41.47-.14.74-.14h16.2v3.58h-14.45v11.21c0 .47.14.81.41 1.08s.61.41 1.08.41h12.96zm0 0"/><path d="m160.4 59.2h-12.96v-3.24h12.96zm0 0"/><path d="m184.23 51.23h-7.9v16.27h-3.65v-16.27h-7.9v-3.58h19.51zm0 0"/><path d="m207.85 51.23h-7.9v16.27h-3.65v-16.27h-7.9v-3.58h19.51zm0 0"/></g></svg>