<svg height="150" viewBox="0 0 225 150" width="225" xmlns="http://www.w3.org/2000/svg" xmlns:xlink="http://www.w3.org/1999/xlink"><linearGradient id="a" gradientUnits="userSpaceOnUse" x1="18.25" x2="18.25" y1="22.26" y2="1.26"><stop offset="0" stop-color="#969696"/><stop offset=".367511" stop-color="#969696"/><stop offset=".372962" stop-color="#d9d9d9"/><stop offset="1" stop-color="#d9d9d9"/></linearGradient><path d="m2.38 1.06h28.57c.59 0 1.06.47 1.06 1.06v17.99c0 .59-.47 1.06-1.06 1.06h-28.57c-.59 0-1.06-.47-1.06-1.06v-17.99c0-.59.47-1.06 1.06-1.06zm0 0" fill="url(#a)" stroke="#777" stroke-width=".2" transform="matrix(6.75 0 0 6.75 .02 0)"/><g fill="#d3d3d3"><path d="m74.71 108.84h15.39v6.34h-15.39zm0 0"/><path d="m135.78 124.16h22.74v6.34h-22.74zm0 0"/><path d="m95.16 108.84h47.37v6.34h-47.37zm0 0"/><path d="m58.72 124.16h69.98v6.34h-69.98zm0 0"/><path d="m173.16 104.25-7.62 31.71h4.32l7.69-31.71zm6.48 2.9v7.42l14.44 5.54-14.44 5.6v7.35l23.82-9.92v-6.2zm-134.28-.06-23.82 9.85v6.2l23.82 9.92v-7.42l-14.44-5.6 14.44-5.53zm0 0"/></g><g fill="#505050" stroke="#505050" stroke-width="1.08"><path d="m90.13 64.67c0 1.15-.14 2.23-.47 3.17-.27.88-.68 1.69-1.15 2.43s-1.08 1.35-1.69 1.82-1.28.88-2.03 1.22c-.68.34-1.42.54-2.16.68-.68.2-1.35.27-1.96.27h-22.75v-5.87h22.75c1.15 0 2.03-.34 2.63-1.01s.95-1.55.95-2.7c0-.54-.07-1.01-.27-1.49s-.41-.81-.74-1.15-.68-.54-1.15-.74-.95-.27-1.49-.27h-13.5c-.95 0-1.96-.14-3.11-.47-1.08-.41-2.09-1.01-3.04-1.76s-1.76-1.76-2.36-2.97-.95-2.7-.95-4.46.34-3.24.95-4.46c.61-1.28 1.42-2.23 2.36-2.97.95-.81 1.96-1.35 3.04-1.69 1.15-.34 2.16-.54 3.11-.54h20.05v5.94h-20.05c-1.15 0-2.03.34-2.63 1.01s-.95 1.55-.95 2.7.34 2.03.95 2.7c.61.61 1.49.95 2.63.95h13.64c.61 0 1.28.07 2.03.27.74.14 1.42.41 2.09.74.74.34 1.42.74 2.03 1.28.61.47 1.22 1.08 1.69 1.82s.88 1.55 1.15 2.43.41 1.96.41 3.11zm0 0"/><path d="m130.57 52.65c0 1.35-.14 2.57-.47 3.58-.34 1.08-.74 2.03-1.35 2.84-.54.81-1.22 1.49-1.96 2.09s-1.49 1.08-2.36 1.42c-.81.34-1.62.61-2.43.81s-1.55.27-2.3.27l12.29 10.6h-9.11l-12.29-10.67h-4.25v-5.87h13.37c.74-.07 1.42-.2 2.03-.47s1.15-.61 1.62-1.01.81-.95 1.01-1.55.34-1.28.34-2.09v-3.65c0-.34-.07-.54-.14-.74s-.2-.34-.34-.41-.27-.14-.41-.14-.27 0-.41 0h-19.44v26.6h-5.87v-29.57c0-.41.07-.81.2-1.15s.34-.68.61-.95.61-.47.95-.61.74-.2 1.15-.2h22.41c1.28 0 2.43.27 3.31.74s1.62 1.08 2.23 1.82 1.01 1.49 1.22 2.3c.27.81.41 1.62.41 2.36zm0 0"/><path d="m168.7 47.66h-13.03v26.6h-5.87v-26.6h-13.03v-5.94h31.93zm0 0"/></g></svg>