<svg height="150" viewBox="0 0 225 150" width="225" xmlns="http://www.w3.org/2000/svg" xmlns:xlink="http://www.w3.org/1999/xlink"><linearGradient id="a" gradientUnits="userSpaceOnUse" x1="18.25" x2="18.25" y1="22.26" y2="1.26"><stop offset="0" stop-color="#969696"/><stop offset=".367511" stop-color="#969696"/><stop offset=".372962" stop-color="#d9d9d9"/><stop offset="1" stop-color="#d9d9d9"/></linearGradient><path d="m2.38 1.06h28.57c.59 0 1.06.47 1.06 1.06v17.99c0 .59-.47 1.06-1.06 1.06h-28.57c-.59 0-1.06-.47-1.06-1.06v-17.99c0-.59.47-1.06 1.06-1.06zm0 0" fill="url(#a)" stroke="#777" stroke-width=".2" transform="matrix(6.75 0 0 6.75 .02 0)"/><g fill="#d3d3d3"><path d="m74.71 108.84h15.39v6.34h-15.39zm0 0"/><path d="m135.78 124.16h22.74v6.34h-22.74zm0 0"/><path d="m95.16 108.84h47.37v6.34h-47.37zm0 0"/><path d="m58.72 124.16h69.98v6.34h-69.98zm0 0"/><path d="m173.16 104.25-7.62 31.71h4.32l7.69-31.71zm6.48 2.9v7.42l14.44 5.54-14.44 5.6v7.35l23.82-9.92v-6.2zm-134.28-.06-23.82 9.85v6.2l23.82 9.92v-7.42l-14.44-5.6 14.44-5.53zm0 0"/></g><g fill="#505050" stroke="#505050" stroke-width="1.08"><path d="m40.18 58.59c0 .68-.07 1.28-.27 1.82s-.41 1.01-.68 1.42-.61.74-1.01 1.01c-.34.34-.74.54-1.15.74s-.81.34-1.22.41-.81.14-1.22.14h-13.23v-3.44h13.23c.68 0 1.22-.2 1.55-.61s.54-.95.54-1.55c0-.34-.07-.61-.14-.88-.07-.2-.2-.41-.41-.61s-.41-.41-.68-.47-.54-.14-.88-.14h-7.83c-.54 0-1.15-.07-1.82-.27-.61-.2-1.22-.54-1.82-1.01-.54-.47-1.01-1.01-1.35-1.76-.34-.68-.54-1.55-.54-2.57s.2-1.89.54-2.57c.34-.74.81-1.28 1.35-1.76s1.15-.74 1.82-.95c.61-.2 1.22-.27 1.82-.27h11.61v3.38h-11.61c-.61 0-1.15.2-1.55.61-.34.41-.54.95-.54 1.55 0 .68.2 1.22.54 1.55s.88.54 1.55.54h7.9c.34 0 .74.07 1.15.14s.81.2 1.22.41.81.41 1.15.74c.34.27.68.61.95 1.08.27.41.47.88.68 1.42s.27 1.15.27 1.82zm0 0"/><path d="m61.24 62.37c0 .2-.07.47-.14.68s-.2.41-.34.54-.34.27-.54.34c-.2.14-.47.2-.68.2h-7.76c-.41 0-.88-.07-1.35-.14s-.95-.27-1.42-.47-.88-.47-1.35-.81c-.41-.34-.81-.74-1.15-1.22s-.54-1.01-.74-1.62-.34-1.35-.34-2.09v-7.9h3.44v7.9c0 .47.07.88.2 1.22.2.34.41.68.61.88.27.27.61.47.95.61s.74.2 1.15.2h6.08v-10.8h3.44zm0 0"/><path d="m83.25 59.33c0 .34-.07.68-.14 1.01s-.2.74-.34 1.08c-.2.34-.41.68-.61 1.01s-.54.61-.88.88c-.34.2-.74.41-1.22.61-.47.14-1.01.2-1.62.2h-6.21c-.34 0-.68-.07-1.01-.14s-.74-.2-1.08-.34c-.34-.2-.68-.41-1.01-.61-.34-.27-.61-.54-.88-.88-.2-.34-.41-.74-.61-1.22-.14-.47-.2-1.01-.2-1.62v-15.46h3.44v15.46c0 .41.14.74.41 1.01.27.2.61.34 1.01.34h6.21c.47 0 .81-.14 1.01-.41s.34-.61.34-1.01v-4.66c0-.47-.14-.81-.41-1.01s-.61-.34-1.01-.34h-6.21v-3.38h6.21c.34 0 .68.07 1.01.14s.74.2 1.08.34l1.01.61c.34.2.61.54.88.88.2.34.41.74.61 1.22.14.47.2.95.2 1.55zm0 0"/><path d="m108.49 45.23-8.98 18.23c-.14.27-.34.47-.61.68s-.54.27-.88.27-.61-.07-.88-.27-.47-.41-.61-.68l-9.05-18.23h3.85l6.62 13.64 6.68-13.64zm0 0"/><path d="m116.59 46.98h-3.44v-3.11h3.44zm0 17.15h-3.44v-14.24h3.44zm0 0"/><path d="m138.26 54.61c0 .47-.07 1.01-.27 1.55s-.47 1.08-.81 1.55-.88.81-1.49 1.15-1.28.47-2.16.47h-6.21v-3.31h6.21c.47 0 .81-.14 1.08-.41s.41-.61.41-1.08-.14-.81-.41-1.08-.61-.41-1.01-.41h-6.21c-.47 0-.81.14-1.08.41s-.41.61-.41 1.08v4.79c0 .47.14.81.41 1.08s.61.41 1.08.41h6.14v3.31h-6.21c-.47 0-1.01-.07-1.55-.27-.54-.14-1.01-.41-1.49-.81-.47-.34-.88-.81-1.22-1.42s-.47-1.35-.47-2.23v-4.79c0-.47.07-1.01.27-1.55s.47-1.08.81-1.55.88-.88 1.49-1.22 1.35-.47 2.23-.47h6.21c.47 0 1.01.07 1.55.27s1.08.47 1.55.81.88.88 1.22 1.49.47 1.28.47 2.16zm0 0"/><path d="m167.02 49.88c-.54 1.22-1.15 2.43-1.76 3.65-.61 1.15-1.28 2.3-1.96 3.38-.68 1.01-1.35 2.03-2.09 2.9s-1.42 1.69-2.16 2.3-1.42 1.15-2.09 1.49-1.28.54-1.89.54c-.2 0-.47-.07-.68-.14s-.41-.2-.54-.34c-.2-.2-.27-.34-.34-.54s-.14-.47-.14-.68v-6.41l-6.82 7.63c-.2.2-.41.34-.61.41s-.47.07-.68.07-.47-.07-.68-.14-.34-.2-.54-.34c-.2-.2-.34-.34-.41-.54s-.14-.47-.14-.68v-12.56h3.44v8.1l6.82-7.63c.2-.2.54-.41.88-.47s.68-.07 1.01.14c.34.14.54.34.74.61s.27.61.27.95v8.17c.74-.74 1.49-1.49 2.09-2.3.61-.74 1.15-1.55 1.62-2.43.54-.88 1.01-1.69 1.49-2.57s.88-1.69 1.35-2.57zm0 0"/><path d="m186.59 54.61c0 .47-.07 1.01-.27 1.55s-.47 1.08-.81 1.55-.88.81-1.49 1.15-1.28.47-2.16.47h-6.14v-3.31h6.21c.47 0 .81-.14 1.08-.41s.41-.61.41-1.08-.14-.81-.41-1.08-.61-.41-1.01-.41h-6.21c-.47 0-.81.14-1.08.41s-.41.61-.41 1.08v4.79c0 .47.14.81.41 1.08s.61.41 1.08.41h6.14v3.31h-6.21c-.47 0-1.01-.07-1.55-.27-.54-.14-1.08-.41-1.55-.81-.47-.34-.81-.81-1.15-1.42s-.47-1.35-.47-2.23v-4.79c0-.47.07-1.01.27-1.55s.47-1.08.81-1.55.88-.88 1.49-1.22 1.35-.47 2.23-.47h6.21c.47 0 1.01.07 1.55.27s1.08.47 1.55.81.88.88 1.22 1.49.47 1.28.47 2.16zm0 0"/><path d="m204.41 53.33h-7.7c-.47 0-.81.14-1.08.34-.2.2-.34.54-.34 1.01v9.45h-3.44v-9.45c0-.61.07-1.08.2-1.55s.34-.88.61-1.22.54-.68.88-.88c.34-.27.68-.47 1.01-.61.34-.2.74-.27 1.08-.34s.68-.14 1.01-.14h7.76zm0 0"/></g></svg>