<svg height="150" viewBox="0 0 225 150" width="225" xmlns="http://www.w3.org/2000/svg" xmlns:xlink="http://www.w3.org/1999/xlink"><linearGradient id="a" gradientUnits="userSpaceOnUse" x1="18.25" x2="18.25" y1="22.26" y2="1.26"><stop offset="0" stop-color="#969696"/><stop offset=".367511" stop-color="#969696"/><stop offset=".372962" stop-color="#d9d9d9"/><stop offset="1" stop-color="#d9d9d9"/></linearGradient><path d="m2.38 1.06h28.57c.59 0 1.06.47 1.06 1.06v17.99c0 .59-.47 1.06-1.06 1.06h-28.57c-.59 0-1.06-.47-1.06-1.06v-17.99c0-.59.47-1.06 1.06-1.06zm0 0" fill="url(#a)" stroke="#777" stroke-width=".2" transform="matrix(6.75 0 0 6.75 .02 0)"/><g fill="#d3d3d3"><path d="m74.71 108.84h15.39v6.34h-15.39zm0 0"/><path d="m135.78 124.16h22.74v6.34h-22.74zm0 0"/><path d="m95.16 108.84h47.37v6.34h-47.37zm0 0"/><path d="m58.72 124.16h69.98v6.34h-69.98zm0 0"/><path d="m173.16 104.25-7.62 31.71h4.32l7.69-31.71zm6.48 2.9v7.42l14.44 5.54-14.44 5.6v7.35l23.82-9.92v-6.2zm-134.28-.06-23.82 9.85v6.2l23.82 9.92v-7.42l-14.44-5.6 14.44-5.53zm0 0"/></g><g fill="#505050" stroke="#505050" stroke-width="1.08"><path d="m87.64 47.66h-13.03v26.6h-5.87v-26.6h-13.03v-5.94h31.93zm0 0"/><path d="m118.08 57.85c0 .81-.14 1.69-.41 2.63s-.74 1.82-1.42 2.63c-.61.81-1.49 1.49-2.5 2.03s-2.3.81-3.78.81h-10.6v-5.6h10.67c.81 0 1.42-.27 1.89-.74s.68-1.08.68-1.82-.27-1.35-.74-1.82-1.08-.68-1.76-.68h-10.67c-.81 0-1.42.27-1.89.74s-.68 1.08-.68 1.82v8.24c0 .74.27 1.35.74 1.82s1.08.68 1.82.68h10.6v5.67h-10.67c-.81 0-1.69-.14-2.7-.41-.88-.34-1.76-.81-2.63-1.42-.74-.61-1.42-1.49-2.03-2.5-.54-1.01-.81-2.3-.81-3.78v-8.3c0-.81.14-1.69.41-2.63s.74-1.82 1.35-2.63 1.49-1.49 2.5-2.03 2.3-.81 3.78-.81h10.67c.81 0 1.69.14 2.63.41s1.82.74 2.63 1.42c.81.61 1.49 1.49 2.03 2.5s.81 2.3.81 3.78zm0 0"/><path d="m135.9 74.25h-2.63c-.88 0-1.76-.14-2.7-.41s-1.82-.74-2.7-1.42c-.81-.68-1.49-1.55-2.09-2.57-.54-1.08-.81-2.36-.81-3.85v-26.66h5.87v26.6c0 .74.2 1.28.68 1.76.47.41 1.01.61 1.69.61h2.63zm0 0"/><path d="m169.11 57.85c0 .81-.14 1.69-.41 2.63-.34.95-.81 1.82-1.49 2.63-.61.81-1.49 1.49-2.5 2.03s-2.3.81-3.78.81h-10.6v-5.6h10.67c.81 0 1.42-.27 1.89-.74s.68-1.08.68-1.82-.27-1.35-.74-1.82-1.08-.68-1.76-.68h-10.67c-.81 0-1.42.27-1.89.74s-.68 1.08-.68 1.82v8.24c0 .74.27 1.35.74 1.82s1.08.68 1.82.68h10.6v5.67h-10.67c-.81 0-1.69-.14-2.63-.41-.95-.34-1.82-.81-2.63-1.42s-1.49-1.49-2.03-2.5-.81-2.3-.81-3.78v-8.3c0-.81.14-1.69.41-2.63s.74-1.82 1.35-2.63 1.49-1.49 2.5-2.03 2.3-.81 3.78-.81h10.67c.81 0 1.69.14 2.63.41s1.82.74 2.63 1.42c.81.61 1.49 1.49 2.03 2.5s.81 2.3.81 3.78zm0 0"/></g></svg>