<svg height="150" viewBox="0 0 225 150" width="225" xmlns="http://www.w3.org/2000/svg" xmlns:xlink="http://www.w3.org/1999/xlink"><linearGradient id="a" gradientUnits="userSpaceOnUse" x1="18.25" x2="18.25" y1="22.26" y2="1.26"><stop offset="0" stop-color="#969696"/><stop offset=".367511" stop-color="#969696"/><stop offset=".372962" stop-color="#d9d9d9"/><stop offset="1" stop-color="#d9d9d9"/></linearGradient><path d="m2.38 1.06h28.57c.59 0 1.06.47 1.06 1.06v17.99c0 .59-.47 1.06-1.06 1.06h-28.57c-.59 0-1.06-.47-1.06-1.06v-17.99c0-.59.47-1.06 1.06-1.06zm0 0" fill="url(#a)" stroke="#777" stroke-width=".2" transform="matrix(6.75 0 0 6.75 .02 0)"/><g fill="#d3d3d3"><path d="m74.71 108.84h15.39v6.34h-15.39zm0 0"/><path d="m135.78 124.16h22.74v6.34h-22.74zm0 0"/><path d="m95.16 108.84h47.37v6.34h-47.37zm0 0"/><path d="m58.72 124.16h69.98v6.34h-69.98zm0 0"/><path d="m173.16 104.25-7.62 31.71h4.32l7.69-31.71zm6.48 2.9v7.42l14.44 5.54-14.44 5.6v7.35l23.82-9.92v-6.2zm-134.28-.06-23.82 9.85v6.2l23.82 9.92v-7.42l-14.44-5.6 14.44-5.53zm0 0"/></g><g fill="#505050" stroke="#505050" stroke-width="1.08"><path d="m67.66 47.66h-13.03v26.6h-5.87v-26.6h-13.03v-5.94h31.93zm0 0"/><path d="m104.38 47.66h-12.96v26.6h-5.94v-26.6h-12.96v-5.94h31.93zm0 0"/><path d="m149.6 74.25h-5.94v-19.37l-10.46 18.36c-.27.47-.61.81-1.08 1.08-.47.2-.95.34-1.49.34-.47 0-1.01-.14-1.49-.34s-.81-.61-1.01-1.08l-10.46-18.36v19.37h-5.94v-29.97c0-.68.2-1.28.61-1.82s.95-.88 1.62-1.08c.34-.07.61-.14.95-.07.34 0 .61.07.88.2.34.07.61.27.81.47s.41.41.61.74l13.43 23.36 13.43-23.36c.34-.61.81-1.01 1.42-1.22s1.28-.27 1.96-.14c.61.2 1.15.54 1.55 1.08s.61 1.15.61 1.82zm0 0"/><path d="m189.36 74.25h-26.87c-.41 0-.81-.07-1.15-.2s-.68-.34-.95-.61-.47-.61-.61-.95-.2-.74-.2-1.15v-29.63h5.87v26.6h23.96zm0 0"/></g></svg>