<svg height="150" viewBox="0 0 225 150" width="225" xmlns="http://www.w3.org/2000/svg" xmlns:xlink="http://www.w3.org/1999/xlink"><linearGradient id="a" gradientUnits="userSpaceOnUse" x1="18.25" x2="18.25" y1="22.26" y2="1.26"><stop offset="0" stop-color="#969696"/><stop offset=".367511" stop-color="#969696"/><stop offset=".372962" stop-color="#d9d9d9"/><stop offset="1" stop-color="#d9d9d9"/></linearGradient><path d="m2.38 1.06h28.57c.59 0 1.06.47 1.06 1.06v17.99c0 .59-.47 1.06-1.06 1.06h-28.57c-.59 0-1.06-.47-1.06-1.06v-17.99c0-.59.47-1.06 1.06-1.06zm0 0" fill="url(#a)" stroke="#777" stroke-width=".2" transform="matrix(6.75 0 0 6.75 .02 0)"/><g fill="#d3d3d3"><path d="m74.71 108.84h15.39v6.34h-15.39zm0 0"/><path d="m135.78 124.16h22.74v6.34h-22.74zm0 0"/><path d="m95.16 108.84h47.37v6.34h-47.37zm0 0"/><path d="m58.72 124.16h69.98v6.34h-69.98zm0 0"/><path d="m173.16 104.25-7.62 31.71h4.32l7.69-31.71zm6.48 2.9v7.42l14.44 5.54-14.44 5.6v7.35l23.82-9.92v-6.2zm-134.28-.06-23.82 9.85v6.2l23.82 9.92v-7.42l-14.44-5.6 14.44-5.53zm0 0"/></g><g fill="#505050" stroke="#505050" stroke-width="1.08"><path d="m52.47 45.97-12.76 25.99c-.2.41-.47.74-.88.95-.41.27-.81.41-1.28.41s-.88-.14-1.28-.41c-.41-.2-.68-.54-.88-.95l-12.76-25.99h5.47l9.45 19.37 9.52-19.37zm0 0"/><path d="m78.52 66.02c0 .88-.14 1.62-.34 2.3s-.54 1.28-.88 1.76-.74.95-1.22 1.28-.95.68-1.49.88c-.47.2-1.01.41-1.55.54-.47.07-.95.14-1.42.14h-8.78c-.68 0-1.42-.14-2.23-.34-.81-.27-1.55-.68-2.23-1.22s-1.28-1.22-1.76-2.09-.68-1.96-.68-3.24v-6.62c0-1.28.2-2.3.68-3.17s1.01-1.55 1.69-2.09 1.42-.95 2.23-1.22c.81-.2 1.55-.34 2.23-.34h8.84c1.28 0 2.3.2 3.17.68s1.55 1.01 2.09 1.69.95 1.42 1.15 2.23c.27.81.41 1.55.41 2.23zm-4.93-6.55c0-.68-.2-1.15-.54-1.49s-.88-.47-1.49-.47h-8.71c-.61 0-1.15.2-1.49.54s-.54.81-.54 1.42v6.62c0 .61.2 1.15.54 1.49s.88.54 1.49.54h8.78c.68 0 1.15-.2 1.49-.54s.47-.88.47-1.49zm0 0"/><path d="m108.09 66.02c0 .47-.07.95-.2 1.49-.07.47-.27 1.01-.47 1.55-.2.47-.54.95-.88 1.42s-.81.88-1.28 1.22-1.08.68-1.76.88-1.42.34-2.23.34h-8.84c-.47 0-.95-.07-1.49-.14-.47-.14-1.01-.34-1.55-.54-.47-.2-.95-.54-1.42-.88s-.88-.81-1.22-1.28-.68-1.08-.88-1.76-.34-1.42-.34-2.3v-22.01h4.86v22.01c0 .61.2 1.08.54 1.42s.81.54 1.42.54h8.84c.61 0 1.08-.2 1.42-.54s.54-.81.54-1.42v-6.62c0-.61-.2-1.08-.54-1.42s-.81-.54-1.42-.54h-8.78v-4.86h8.84c.47 0 .95.07 1.49.2.47.07 1.01.27 1.55.47.47.2 1.01.54 1.49.88s.88.81 1.22 1.28.68 1.08.88 1.76.34 1.42.34 2.23zm0 0"/><path d="m141.7 65c0 .95-.14 1.82-.41 2.63-.2.74-.54 1.42-.95 2.03s-.88 1.08-1.42 1.49-1.08.74-1.69 1.01-1.15.47-1.76.61c-.54.07-1.08.14-1.62.14h-18.83v-4.86h18.83c.95 0 1.69-.27 2.16-.81.54-.54.81-1.28.81-2.23 0-.47-.07-.88-.2-1.22s-.34-.68-.61-.95-.61-.47-.95-.61-.74-.2-1.22-.2h-11.21c-.81 0-1.69-.14-2.57-.41-.88-.41-1.76-.95-2.57-1.55-.74-.61-1.42-1.42-1.96-2.43-.47-1.01-.74-2.3-.74-3.71 0-1.49.27-2.7.74-3.71.54-1.01 1.22-1.82 1.96-2.43.81-.61 1.69-1.08 2.57-1.35s1.76-.41 2.57-.41h16.61v4.86h-16.61c-.95 0-1.69.27-2.16.88s-.74 1.35-.74 2.23c0 .95.27 1.69.74 2.23.54.54 1.28.81 2.16.81h11.27c.54 0 1.08.07 1.69.2s1.15.34 1.76.61 1.15.61 1.69 1.08c.54.41 1.01.88 1.42 1.49s.74 1.28.95 2.03.34 1.62.34 2.57zm0 0"/><path d="m170.46 70.47c0 .34-.07.68-.2.95-.14.34-.34.61-.54.81s-.47.41-.74.54c-.27.07-.54.14-.88.14h-11.07c-.61 0-1.22-.07-1.96-.2-.68-.14-1.35-.34-2.03-.68s-1.35-.68-1.96-1.15-1.08-1.08-1.55-1.69c-.47-.68-.81-1.49-1.15-2.36-.27-.88-.41-1.82-.41-2.97v-11.27h4.86v11.27c0 .61.14 1.22.34 1.76.2.47.54.95.88 1.28s.81.68 1.28.88 1.01.27 1.62.27h8.57v-15.46h4.86zm0 0"/><path d="m200.5 66.02c0 .47-.07.95-.2 1.49-.07.47-.27 1.01-.47 1.55-.2.47-.54.95-.88 1.42s-.81.88-1.28 1.22-1.08.68-1.76.88-1.42.34-2.23.34h-8.84c-.47 0-.95-.07-1.49-.14-.47-.14-1.01-.34-1.55-.54-.47-.2-.95-.54-1.42-.88s-.88-.81-1.22-1.28-.68-1.08-.88-1.76-.34-1.42-.34-2.3v-22.01h4.86v22.01c0 .61.2 1.08.54 1.42s.81.54 1.42.54h8.84c.61 0 1.08-.2 1.42-.54s.54-.81.54-1.42v-6.62c0-.61-.2-1.08-.54-1.42s-.81-.54-1.42-.54h-8.78v-4.86h8.84c.47 0 .95.07 1.49.2.47.07 1.01.27 1.55.47.47.2 1.01.54 1.49.88s.88.81 1.22 1.28.68 1.08.88 1.76.34 1.42.34 2.23zm0 0"/></g></svg>