<svg height="150" viewBox="0 0 225 150" width="225" xmlns="http://www.w3.org/2000/svg" xmlns:xlink="http://www.w3.org/1999/xlink"><linearGradient id="a" gradientUnits="userSpaceOnUse" x1="18.25" x2="18.25" y1="22.26" y2="1.26"><stop offset="0" stop-color="#969696"/><stop offset=".367511" stop-color="#969696"/><stop offset=".372962" stop-color="#d9d9d9"/><stop offset="1" stop-color="#d9d9d9"/></linearGradient><path d="m2.38 1.06h28.57c.59 0 1.06.47 1.06 1.06v17.99c0 .59-.47 1.06-1.06 1.06h-28.57c-.59 0-1.06-.47-1.06-1.06v-17.99c0-.59.47-1.06 1.06-1.06zm0 0" fill="url(#a)" stroke="#777" stroke-width=".2" transform="matrix(6.75 0 0 6.75 .02 0)"/><g fill="#d3d3d3"><path d="m74.71 108.84h15.39v6.34h-15.39zm0 0"/><path d="m135.78 124.16h22.74v6.34h-22.74zm0 0"/><path d="m95.16 108.84h47.37v6.34h-47.37zm0 0"/><path d="m58.72 124.16h69.98v6.34h-69.98zm0 0"/><path d="m173.16 104.25-7.62 31.71h4.32l7.69-31.71zm6.48 2.9v7.42l14.44 5.54-14.44 5.6v7.35l23.82-9.92v-6.2zm-134.28-.06-23.82 9.85v6.2l23.82 9.92v-7.42l-14.44-5.6 14.44-5.53zm0 0"/></g><g fill="#505050" stroke="#505050" stroke-width="1.08"><path d="m53.68 46.78-11.41 23.22c-.2.34-.47.68-.81.88s-.74.34-1.15.34-.81-.14-1.15-.34-.61-.54-.81-.88l-11.41-23.22h4.93l8.44 17.35 8.51-17.35zm0 0"/><path d="m82.91 56.84c0 1.01-.14 1.89-.34 2.7-.2.74-.54 1.49-1.01 2.09-.41.61-.88 1.08-1.42 1.55-.54.41-1.15.74-1.76 1.01s-1.22.47-1.82.61-1.15.2-1.69.2h-9.92v-4.39h9.86c.54-.07 1.01-.14 1.49-.34s.81-.41 1.15-.74.54-.68.74-1.15.27-.95.27-1.49v-2.03c0-.54-.07-1.01-.27-1.49s-.41-.88-.74-1.22-.68-.54-1.08-.74c-.47-.2-.95-.27-1.55-.27h-9.86c-.61 0-1.01.14-1.35.47s-.47.74-.47 1.28v17.95h-4.32v-17.95c0-1.15.2-2.09.61-2.84.41-.81.95-1.49 1.55-1.96s1.22-.81 1.96-1.01 1.42-.34 2.03-.34h9.86c1.01 0 1.89.14 2.63.41.74.2 1.49.54 2.09 1.01.61.41 1.08.88 1.55 1.42.41.54.74 1.15 1.01 1.76s.47 1.22.61 1.82.2 1.15.2 1.69zm0 0"/><path d="m97.15 70.88h-1.96c-.61 0-1.28-.14-2.03-.34s-1.35-.54-1.96-1.01-1.15-1.15-1.55-1.89c-.34-.81-.54-1.76-.54-2.9v-19.71h4.39v19.71c0 .54.14.95.47 1.28s.74.47 1.28.47h1.96zm0 0"/><path d="m121.79 64.87c0 .61-.14 1.22-.34 1.96-.2.68-.54 1.35-1.01 1.96s-1.08 1.08-1.89 1.49c-.74.41-1.69.61-2.77.61h-7.9c-.61 0-1.22-.14-1.96-.34-.68-.2-1.35-.54-1.96-1.01s-1.08-1.15-1.49-1.89-.61-1.69-.61-2.84c0-.61.14-1.22.34-1.96s.54-1.35 1.01-1.96 1.15-1.08 1.89-1.49 1.69-.61 2.84-.61h7.9v4.18h-7.97c-.61 0-1.01.2-1.35.54s-.47.81-.47 1.35c0 .61.2 1.01.54 1.35s.81.47 1.35.47h7.83c.61 0 1.01-.2 1.35-.54s.47-.81.47-1.35v-6.08c0-.61-.2-1.01-.54-1.35s-.81-.47-1.35-.47h-9.59v-4.18h9.59c.61 0 1.22.14 1.96.34s1.35.54 1.96 1.01 1.08 1.08 1.49 1.89c.41.74.61 1.69.61 2.77zm0 0"/><path d="m148.59 72.63c0 .74-.07 1.42-.27 2.03s-.41 1.08-.74 1.55-.68.81-1.08 1.15-.81.61-1.28.81-.88.34-1.35.41-.88.14-1.28.14h-7.9v-4.39h7.9c.61 0 1.01-.14 1.28-.47s.41-.74.41-1.28v-19.85h4.39zm-6.14-1.76h-7.9c-.61 0-1.28-.14-2.03-.34s-1.35-.54-1.96-1.01-1.15-1.15-1.55-1.89-.61-1.76-.61-2.9v-12.02h4.39v12.02c0 .61.14 1.01.47 1.28.34.34.74.47 1.35.47h7.83zm0 0"/><path d="m175.32 58.73c0 .61-.14 1.22-.34 1.96-.2.68-.54 1.35-1.01 1.96s-1.08 1.08-1.89 1.49c-.74.41-1.69.61-2.77.61h-7.9v-4.12h7.9c.61 0 1.01-.2 1.35-.54s.47-.81.47-1.35c0-.61-.2-1.01-.54-1.35s-.81-.47-1.28-.47h-7.9c-.61 0-1.01.2-1.35.54s-.47.81-.47 1.35v6.08c0 .61.2 1.01.54 1.35s.81.47 1.35.47h7.83v4.18h-7.9c-.61 0-1.22-.14-1.96-.34-.68-.2-1.35-.54-1.96-1.01s-1.08-1.15-1.49-1.89-.61-1.69-.61-2.84v-6.08c0-.61.14-1.22.34-1.96s.54-1.35 1.01-1.96 1.15-1.08 1.89-1.49 1.69-.61 2.84-.61h7.9c.61 0 1.22.14 1.96.34s1.35.54 1.96 1.01 1.08 1.08 1.49 1.89c.41.74.61 1.69.61 2.77zm0 0"/><path d="m197.19 57.11h-9.79c-.61 0-1.01.14-1.35.47-.34.27-.47.68-.47 1.28v12.02h-4.39v-12.08c0-.74.07-1.42.27-2.03s.41-1.08.74-1.55.68-.81 1.08-1.15.81-.61 1.28-.81.88-.34 1.35-.41.88-.14 1.28-.14h9.86zm0 0"/></g></svg>