<svg height="150" viewBox="0 0 225 150" width="225" xmlns="http://www.w3.org/2000/svg" xmlns:xlink="http://www.w3.org/1999/xlink"><linearGradient id="a" gradientUnits="userSpaceOnUse" x1="18.25" x2="18.25" y1="22.26" y2="1.26"><stop offset="0" stop-color="#969696"/><stop offset=".367511" stop-color="#969696"/><stop offset=".372962" stop-color="#d9d9d9"/><stop offset="1" stop-color="#d9d9d9"/></linearGradient><path d="m2.38 1.06h28.57c.59 0 1.06.47 1.06 1.06v17.99c0 .59-.47 1.06-1.06 1.06h-28.57c-.59 0-1.06-.47-1.06-1.06v-17.99c0-.59.47-1.06 1.06-1.06zm0 0" fill="url(#a)" stroke="#777" stroke-width=".2" transform="matrix(6.75 0 0 6.75 .02 0)"/><g fill="#d3d3d3"><path d="m74.71 108.84h15.39v6.34h-15.39zm0 0"/><path d="m135.78 124.16h22.74v6.34h-22.74zm0 0"/><path d="m95.16 108.84h47.37v6.34h-47.37zm0 0"/><path d="m58.72 124.16h69.98v6.34h-69.98zm0 0"/><path d="m173.16 104.25-7.62 31.71h4.32l7.69-31.71zm6.48 2.9v7.42l14.44 5.54-14.44 5.6v7.35l23.82-9.92v-6.2zm-134.28-.06-23.82 9.85v6.2l23.82 9.92v-7.42l-14.44-5.6 14.44-5.53zm0 0"/></g><g fill="#505050" stroke="#505050" stroke-width="1.08"><path d="m54.43 45.97-4.52 25.25c-.07.47-.34.95-.68 1.28s-.81.61-1.28.68-1.01 0-1.49-.2-.81-.47-1.01-.88l-8.98-14.72-8.98 14.72c-.2.34-.54.68-.88.88s-.74.27-1.22.27c-.61 0-1.08-.2-1.55-.54s-.74-.88-.81-1.49l-4.52-25.25h4.93l3.24 17.75 7.7-12.29c.2-.34.54-.68.88-.88s.74-.27 1.22-.27c.41 0 .81.07 1.22.27.34.2.68.47.88.88l7.63 12.29 3.24-17.75zm0 0"/><path d="m82.37 59.33c0 .68-.14 1.42-.34 2.23-.2.74-.61 1.49-1.15 2.16s-1.22 1.22-2.09 1.69-1.89.68-3.11.68h-8.84v-4.66h8.84c.68 0 1.22-.2 1.55-.61s.54-.95.54-1.55-.2-1.15-.61-1.49-.88-.54-1.49-.54h-8.84c-.68 0-1.22.2-1.55.61s-.54.88-.54 1.49v6.82c0 .61.2 1.15.61 1.55.41.34.95.54 1.55.54h8.78v4.66h-8.84c-.68 0-1.42-.14-2.23-.34-.74-.27-1.49-.68-2.16-1.15-.61-.54-1.15-1.22-1.62-2.09s-.68-1.89-.68-3.17v-6.82c0-.68.14-1.42.34-2.16.2-.81.61-1.55 1.15-2.23s1.22-1.22 2.09-1.69 1.89-.68 3.11-.68h8.84c.68 0 1.42.14 2.16.34.81.2 1.55.61 2.16 1.15.68.54 1.22 1.22 1.69 2.09s.68 1.89.68 3.11zm0 0"/><path d="m111.13 66.02c0 .47-.07.95-.2 1.49-.07.47-.27 1.01-.47 1.55-.2.47-.54.95-.88 1.42s-.81.88-1.28 1.22-1.08.68-1.76.88-1.42.34-2.23.34h-8.84c-.47 0-.95-.07-1.49-.14-.47-.14-1.01-.34-1.55-.54-.47-.2-.95-.54-1.42-.88s-.88-.81-1.22-1.28-.68-1.08-.88-1.76-.34-1.42-.34-2.3v-22.01h4.86v22.01c0 .61.2 1.08.54 1.42s.81.54 1.42.54h8.84c.61 0 1.08-.2 1.42-.54s.54-.81.54-1.42v-6.62c0-.61-.2-1.08-.54-1.42s-.81-.54-1.42-.54h-8.78v-4.86h8.84c.47 0 .95.07 1.49.2.47.07 1.01.27 1.55.47.47.2 1.01.54 1.49.88s.88.81 1.22 1.28.68 1.08.88 1.76.34 1.42.34 2.23zm0 0"/><path d="m145.82 45.97-12.76 25.99c-.2.41-.47.74-.88.95-.41.27-.81.41-1.28.41s-.88-.14-1.28-.41c-.41-.2-.68-.54-.88-.95l-12.83-25.99h5.47l9.45 19.44 9.52-19.44zm0 0"/><path d="m176.2 50.83h-10.8v22.07h-4.86v-22.07h-10.8v-4.86h26.46zm0 0"/><path d="m207.18 50.83h-10.8v22.07h-4.86v-22.07h-10.8v-4.86h26.46zm0 0"/></g></svg>