<svg height="150" viewBox="0 0 225 150" width="225" xmlns="http://www.w3.org/2000/svg" xmlns:xlink="http://www.w3.org/1999/xlink"><linearGradient id="a" gradientUnits="userSpaceOnUse" x1="18.25" x2="18.25" y1="22.26" y2="1.26"><stop offset="0" stop-color="#969696"/><stop offset=".367511" stop-color="#969696"/><stop offset=".372962" stop-color="#d9d9d9"/><stop offset="1" stop-color="#d9d9d9"/></linearGradient><path d="m2.38 1.06h28.57c.59 0 1.06.47 1.06 1.06v17.99c0 .59-.47 1.06-1.06 1.06h-28.57c-.59 0-1.06-.47-1.06-1.06v-17.99c0-.59.47-1.06 1.06-1.06zm0 0" fill="url(#a)" stroke="#777" stroke-width=".2" transform="matrix(6.75 0 0 6.75 .02 0)"/><g fill="#d3d3d3"><path d="m74.71 108.84h15.39v6.34h-15.39zm0 0"/><path d="m135.78 124.16h22.74v6.34h-22.74zm0 0"/><path d="m95.16 108.84h47.37v6.34h-47.37zm0 0"/><path d="m58.72 124.16h69.98v6.34h-69.98zm0 0"/><path d="m173.16 104.25-7.62 31.71h4.32l7.69-31.71zm6.48 2.9v7.42l14.44 5.54-14.44 5.6v7.35l23.82-9.92v-6.2zm-134.28-.06-23.82 9.85v6.2l23.82 9.92v-7.42l-14.44-5.6 14.44-5.53zm0 0"/></g><g fill="#505050" stroke="#505050" stroke-width="1.08"><path d="m51.79 53.33 9.92-11.61h8.03l-13.97 16.34 13.91 16.2h-8.03l-9.86-11.54-9.86 11.54h-8.03l13.91-16.2-13.97-16.34h7.97zm0 0"/><path d="m107.75 64.67c0 1.15-.14 2.23-.47 3.17-.27.88-.68 1.69-1.15 2.43s-1.08 1.35-1.69 1.82-1.28.88-2.03 1.22c-.68.34-1.42.54-2.16.68-.68.2-1.35.27-1.96.27h-22.75v-5.87h22.75c1.15 0 2.03-.34 2.63-1.01s.95-1.55.95-2.7c0-.54-.07-1.01-.27-1.49s-.41-.81-.74-1.15-.68-.54-1.15-.74-.95-.27-1.49-.27h-13.57c-.95 0-1.96-.14-3.11-.47-1.01-.41-2.03-1.01-3.04-1.76-.88-.74-1.69-1.76-2.3-2.97s-.95-2.7-.95-4.46.34-3.24.95-4.46 1.42-2.23 2.36-2.97 1.96-1.35 3.11-1.69 2.16-.54 3.11-.54h20.05v5.87h-20.05c-1.15 0-2.03.34-2.63 1.01s-.95 1.55-.95 2.7.34 2.03.95 2.7c.61.61 1.49.95 2.63.95h13.64c.61 0 1.28.07 2.03.27.74.14 1.42.41 2.09.74.74.34 1.42.74 2.03 1.28.61.47 1.22 1.08 1.69 1.82s.88 1.55 1.15 2.43.41 1.96.41 3.11zm0 0"/><path d="m147.57 71.28c0 .41-.07.81-.2 1.15s-.34.68-.61.95-.61.47-.95.61c-.41.2-.81.27-1.22.27h-13.3c-1.28 0-2.5-.14-3.78-.41s-2.57-.68-3.71-1.22c-1.22-.61-2.36-1.28-3.38-2.16-1.15-.88-2.09-1.96-2.84-3.17-.81-1.22-1.42-2.57-1.89-4.12s-.68-3.31-.68-5.2v-16.27h5.87v16.27c0 1.69.2 3.04.68 4.18s1.01 2.16 1.76 2.9 1.49 1.35 2.36 1.82 1.69.74 2.43.95 1.42.34 2.03.41.95.07 1.15.07h10.33v-26.6h5.87zm0 0"/><path d="m189.9 67.1c0 .74-.14 1.49-.41 2.36-.2.81-.61 1.55-1.22 2.3-.54.74-1.28 1.35-2.23 1.82-.88.47-2.03.68-3.31.68h-22.41c-.41 0-.81-.07-1.15-.2s-.68-.34-.95-.61-.47-.61-.61-.95-.2-.74-.2-1.15v-26.66c0-.41.07-.81.2-1.15s.34-.68.61-.95.61-.47.95-.61.74-.2 1.15-.2h19.71c.74 0 1.49.14 2.36.41.81.27 1.55.68 2.3 1.22s1.35 1.28 1.82 2.23c.47.88.74 2.03.74 3.31v1.08c0 1.01-.2 2.16-.54 3.38s-.95 2.36-1.69 3.38c.68.41 1.28.88 1.89 1.49s1.08 1.28 1.55 2.03.81 1.62 1.01 2.57c.27.95.41 2.03.41 3.17zm-5.87-1.15c0-.74-.14-1.49-.34-2.09s-.54-1.15-1.01-1.62-1.01-.81-1.62-1.01-1.35-.34-2.09-.34h-13.3v-5.87h10.67c.74 0 1.49-.14 2.09-.34s1.15-.54 1.62-1.01.81-.95 1.01-1.55.34-1.35.34-2.09v-1.15c0-.88-.41-1.28-1.22-1.28h-16.81v20.72h19.44.41c.14 0 .27-.07.41-.14s.27-.2.34-.41.14-.41.14-.74zm0 0"/></g></svg>