<svg height="224" viewBox="0 0 224 224" width="224" xmlns="http://www.w3.org/2000/svg"><path d="m28.04 17.36h168.21c5.9 0 10.68 4.78 10.68 10.68v168.21c0 5.9-4.78 10.68-10.68 10.68h-168.21c-5.9 0-10.68-4.78-10.68-10.68v-168.21c0-5.9 4.78-10.68 10.68-10.68zm0 0" fill="#d0d0d0" stroke="#898989" stroke-width="4.01"/><path d="m63.33 117.33h42.72v-11.41h-13.33v-59.73h-10.45c-4.51 2.88-9.42 4.69-16.51 6.05v8.75h12.85v44.93h-15.25zm0 0" fill="#323232"/><path d="m140.21 118.67c14.4 0 23.9-8.27 23.9-19.02 0-9.7-5.39-15.46-11.9-19.01v-.48c4.7-3.36 9.12-9.23 9.12-16.21 0-11.34-8.05-18.91-20.64-18.91-12.29 0-21.41 7.31-21.41 18.72 0 7.57 3.95 12.96 9.41 16.91v.48c-6.61 3.46-12.18 9.41-12.18 18.53 0 11.15 10.18 19.01 23.7 19.01zm4.51-41.95c-7.49-2.99-12.96-6.24-12.96-12.96 0-5.65 3.84-8.83 8.64-8.83 5.95 0 9.41 4.14 9.41 9.9 0 4.21-1.62 8.26-5.09 11.89zm-4.11 31.97c-6.61 0-11.89-4.13-11.89-10.56 0-5.28 2.69-10.08 6.53-13.14 9.23 3.73 15.74 6.82 15.74 14.21 0 6.13-4.32 9.49-10.38 9.49zm0 0" fill="#323232"/><g fill="#4e4e4e"><path d="m37.52 184h8.08v-18.8c0-4.27-.72-10.51-1.15-14.77h.24l3.6 10.58 6.99 18.91h5.17l6.94-18.91 3.65-10.58h.29c-.48 4.26-1.14 10.5-1.14 14.77v18.8h8.21v-45.04h-9.97l-7.47 21.09c-.96 2.8-1.76 5.79-2.75 8.64h-.29c-.91-2.85-1.76-5.84-2.75-8.64l-7.65-21.09h-9.97zm0 0"/><path d="m105.79 184.85c7.46 0 14.48-6.74 14.48-18.47 0-10.41-5.04-17.29-13.44-17.29-3.34 0-6.75 1.66-9.42 4.08l.24-5.46v-12.22h-8.93v48.51h6.99l.8-3.6h.24c2.74 2.85 6.02 4.43 9.06 4.43zm-2-7.36c-1.82 0-4-.66-6.14-2.56v-14.96c2.32-2.37 4.38-3.52 6.7-3.52 4.69 0 6.74 3.6 6.74 10.09 0 7.41-3.17 10.92-7.3 10.92zm0 0"/><path d="m127.87 197.07h8.93v-10.35l-.29-5.6c2.61 2.37 5.46 3.71 8.45 3.71 7.47 0 14.48-6.75 14.48-18.43 0-10.45-4.99-17.33-13.39-17.33-3.65 0-7.17 1.94-10.02 4.37h-.19l-.67-3.52h-7.3zm15.06-19.58c-1.81 0-4-.66-6.13-2.56v-14.96c2.32-2.37 4.37-3.52 6.69-3.52 4.7 0 6.75 3.6 6.75 10.09 0 7.41-3.17 10.92-7.31 10.92zm0 0"/><path d="m176.45 184.85c8.88 0 13.55-4.8 13.55-10.77 0-6.32-4.99-8.56-9.49-10.27-3.6-1.33-6.75-2.24-6.75-4.74 0-1.95 1.47-3.28 4.56-3.28 2.48 0 4.85 1.14 7.31 2.9l4-5.41c-2.8-2.13-6.64-4.19-11.55-4.19-7.79 0-12.72 4.32-12.72 10.4 0 5.71 4.8 8.32 9.12 9.97 3.6 1.39 7.12 2.57 7.12 5.13 0 2.13-1.52 3.6-4.93 3.6-3.18 0-6.08-1.34-9.12-3.71l-4.09 5.6c3.42 2.8 8.41 4.8 12.97 4.8zm0 0"/></g></svg>