<svg height="224" viewBox="0 0 224 224" width="224" xmlns="http://www.w3.org/2000/svg"><path d="m28.04 17.36h168.21c5.9 0 10.68 4.78 10.68 10.68v168.21c0 5.9-4.78 10.68-10.68 10.68h-168.21c-5.9 0-10.68-4.78-10.68-10.68v-168.21c0-5.9 4.78-10.68 10.68-10.68zm0 0" fill="#d0d0d0" stroke="#898989" stroke-width="4.01"/><g fill="#323232"><path d="m71.25 118.54c12.03 0 22.19-6.75 22.19-18.35 0-8.27-5.47-13.58-12.53-15.52v-.43c6.66-2.64 10.5-7.6 10.5-14.43 0-10.74-8.26-16.8-20.48-16.8-7.41 0-13.49 2.99-18.93 7.76l6.4 7.68c3.76-3.49 7.41-5.54 11.95-5.54 5.38 0 8.45 2.9 8.45 7.84 0 5.63-3.76 9.65-15.36 9.65v8.96c13.73 0 17.41 3.92 17.41 10.08 0 5.71-4.34 8.88-10.74 8.88-5.71 0-10.32-2.83-14.08-6.48l-5.9 7.95c4.43 5.04 11.18 8.8 21.18 8.8zm0 0"/><path d="m111.95 118.54c4.53 0 7.84-3.58 7.84-8.19 0-4.7-3.34-8.19-7.84-8.19-4.43 0-7.76 3.49-7.76 8.19 0 4.61 3.33 8.19 7.76 8.19zm0 0"/><path d="m149.41 118.54c11.68 0 22.11-8.11 22.11-22.19 0-13.74-8.88-20.06-19.47-20.06-2.9 0-5.04.59-7.6 1.79l1.2-13.39h22.96v-10.58h-33.78l-1.71 30.72 5.71 3.76c3.68-2.4 5.71-3.34 9.46-3.34 6.4 0 10.67 4.11 10.67 11.44 0 7.42-4.61 11.6-11.17 11.6-5.9 0-10.33-2.9-13.92-6.4l-5.82 8.03c4.7 4.69 11.36 8.62 21.34 8.62zm0 0"/></g><g fill="#4e4e4e"><path d="m37.52 184h8.08v-18.8c0-4.27-.72-10.51-1.15-14.77h.24l3.6 10.58 6.99 18.91h5.17l6.94-18.91 3.65-10.58h.29c-.48 4.26-1.14 10.5-1.14 14.77v18.8h8.21v-45.04h-9.97l-7.47 21.09c-.96 2.8-1.76 5.79-2.75 8.64h-.29c-.91-2.85-1.76-5.84-2.75-8.64l-7.65-21.09h-9.97zm0 0"/><path d="m105.79 184.85c7.46 0 14.48-6.74 14.48-18.47 0-10.41-5.04-17.29-13.44-17.29-3.34 0-6.75 1.66-9.42 4.08l.24-5.46v-12.22h-8.93v48.51h6.99l.8-3.6h.24c2.74 2.85 6.02 4.43 9.06 4.43zm-2-7.36c-1.82 0-4-.66-6.14-2.56v-14.96c2.32-2.37 4.38-3.52 6.7-3.52 4.69 0 6.74 3.6 6.74 10.09 0 7.41-3.17 10.92-7.3 10.92zm0 0"/><path d="m127.87 197.07h8.93v-10.35l-.29-5.6c2.61 2.37 5.46 3.71 8.45 3.71 7.47 0 14.48-6.75 14.48-18.43 0-10.45-4.99-17.33-13.39-17.33-3.65 0-7.17 1.94-10.02 4.37h-.19l-.67-3.52h-7.3zm15.06-19.58c-1.81 0-4-.66-6.13-2.56v-14.96c2.32-2.37 4.37-3.52 6.69-3.52 4.7 0 6.75 3.6 6.75 10.09 0 7.41-3.17 10.92-7.31 10.92zm0 0"/><path d="m176.45 184.85c8.88 0 13.55-4.8 13.55-10.77 0-6.32-4.99-8.56-9.49-10.27-3.6-1.33-6.75-2.24-6.75-4.74 0-1.95 1.47-3.28 4.56-3.28 2.48 0 4.85 1.14 7.31 2.9l4-5.41c-2.8-2.13-6.64-4.19-11.55-4.19-7.79 0-12.72 4.32-12.72 10.4 0 5.71 4.8 8.32 9.12 9.97 3.6 1.39 7.12 2.57 7.12 5.13 0 2.13-1.52 3.6-4.93 3.6-3.18 0-6.08-1.34-9.12-3.71l-4.09 5.6c3.42 2.8 8.41 4.8 12.97 4.8zm0 0"/></g></svg>