<svg height="224" viewBox="0 0 224 224" width="224" xmlns="http://www.w3.org/2000/svg"><path d="m28.04 17.36h168.21c5.9 0 10.68 4.78 10.68 10.68v168.21c0 5.9-4.78 10.68-10.68 10.68h-168.21c-5.9 0-10.68-4.78-10.68-10.68v-168.21c0-5.9 4.78-10.68 10.68-10.68zm0 0" fill="#d0d0d0" stroke="#898989" stroke-width="4.01"/><path d="m71.2 88.16 11.04-17.65c2.03-3.84 3.95-7.79 5.65-11.63h.38c-.19 4.21-.48 10.67-.48 14.77v14.51zm16.61 29.17h13.15v-18.42h8.35v-10.75h-8.35v-41.97h-16.99l-26.51 43.09v9.6h30.35zm0 0" fill="#323232"/><path d="m138.51 118.67c13.14 0 24.85-9.12 24.85-24.96 0-15.47-9.97-22.56-21.9-22.56-3.25 0-5.65.66-8.53 2.02l1.34-15.06h25.81v-11.92h-38l-1.92 34.56 6.43 4.21c4.13-2.69 6.42-3.73 10.66-3.73 7.2 0 12 4.61 12 12.85 0 8.35-5.17 13.07-12.58 13.07-6.62 0-11.63-3.26-15.66-7.2l-6.53 9.01c5.28 5.28 12.77 9.71 24 9.71zm0 0" fill="#323232"/><g fill="#4e4e4e"><path d="m37.52 184h8.08v-18.8c0-4.27-.72-10.51-1.15-14.77h.24l3.6 10.58 6.99 18.91h5.17l6.94-18.91 3.65-10.58h.29c-.48 4.26-1.14 10.5-1.14 14.77v18.8h8.21v-45.04h-9.97l-7.47 21.09c-.96 2.8-1.76 5.79-2.75 8.64h-.29c-.91-2.85-1.76-5.84-2.75-8.64l-7.65-21.09h-9.97zm0 0"/><path d="m105.79 184.85c7.46 0 14.48-6.74 14.48-18.47 0-10.41-5.04-17.29-13.44-17.29-3.34 0-6.75 1.66-9.42 4.08l.24-5.46v-12.22h-8.93v48.51h6.99l.8-3.6h.24c2.74 2.85 6.02 4.43 9.06 4.43zm-2-7.36c-1.82 0-4-.66-6.14-2.56v-14.96c2.32-2.37 4.38-3.52 6.7-3.52 4.69 0 6.74 3.6 6.74 10.09 0 7.41-3.17 10.92-7.3 10.92zm0 0"/><path d="m127.87 197.07h8.93v-10.35l-.29-5.6c2.61 2.37 5.46 3.71 8.45 3.71 7.47 0 14.48-6.75 14.48-18.43 0-10.45-4.99-17.33-13.39-17.33-3.65 0-7.17 1.94-10.02 4.37h-.19l-.67-3.52h-7.3zm15.06-19.58c-1.81 0-4-.66-6.13-2.56v-14.96c2.32-2.37 4.37-3.52 6.69-3.52 4.7 0 6.75 3.6 6.75 10.09 0 7.41-3.17 10.92-7.31 10.92zm0 0"/><path d="m176.45 184.85c8.88 0 13.55-4.8 13.55-10.77 0-6.32-4.99-8.56-9.49-10.27-3.6-1.33-6.75-2.24-6.75-4.74 0-1.95 1.47-3.28 4.56-3.28 2.48 0 4.85 1.14 7.31 2.9l4-5.41c-2.8-2.13-6.64-4.19-11.55-4.19-7.79 0-12.72 4.32-12.72 10.4 0 5.71 4.8 8.32 9.12 9.97 3.6 1.39 7.12 2.57 7.12 5.13 0 2.13-1.52 3.6-4.93 3.6-3.18 0-6.08-1.34-9.12-3.71l-4.09 5.6c3.42 2.8 8.41 4.8 12.97 4.8zm0 0"/></g></svg>