<svg height="224" viewBox="0 0 224 224" width="224" xmlns="http://www.w3.org/2000/svg"><path d="m28.04 17.36h168.21c5.9 0 10.68 4.78 10.68 10.68v168.21c0 5.9-4.78 10.68-10.68 10.68h-168.21c-5.9 0-10.68-4.78-10.68-10.68v-168.21c0-5.9 4.78-10.68 10.68-10.68zm0 0" fill="#d0d0d0" stroke="#898989" stroke-width="4.01"/><path d="m72.27 68.67c0-8.75 4.32-13.07 9.6-13.07 6.05 0 10.93 4.8 12.18 17.65-3.25 5.47-7.78 7.68-11.7 7.68-6.14 0-10.08-3.94-10.08-12.29zm7.68 50.02c14.1 0 27.25-11.62 27.25-38.5 0-24.67-12.11-35.23-25.55-35.23-12.19 0-22.37 9.12-22.37 23.71 0 15.06 8.53 22.37 20.35 22.37 4.8 0 10.85-2.88 14.58-7.68-.66 17.76-7.2 23.81-15.17 23.81-4.21 0-8.53-2.21-11.15-5.09l-7.49 8.53c4.21 4.32 10.67 8.06 19.49 8.06zm0 0" fill="#323232"/><path d="m140.32 118.67c14.51 0 24-12.67 24-37.15s-9.49-36.59-24-36.59-24.11 12-24.11 36.59c0 24.48 9.6 37.15 24.11 37.15zm0-11.04c-6.13 0-10.75-6.14-10.75-26.11 0-19.87 4.62-25.63 10.75-25.63s10.67 5.76 10.67 25.63c0 19.97-4.51 26.11-10.67 26.11zm0 0" fill="#323232"/><g fill="#4e4e4e"><path d="m37.52 184h8.08v-18.8c0-4.27-.72-10.51-1.15-14.77h.24l3.6 10.58 6.99 18.91h5.17l6.94-18.91 3.65-10.58h.29c-.48 4.26-1.14 10.5-1.14 14.77v18.8h8.21v-45.04h-9.97l-7.47 21.09c-.96 2.8-1.76 5.79-2.75 8.64h-.29c-.91-2.85-1.76-5.84-2.75-8.64l-7.65-21.09h-9.97zm0 0"/><path d="m105.79 184.85c7.46 0 14.48-6.74 14.48-18.47 0-10.41-5.04-17.29-13.44-17.29-3.34 0-6.75 1.66-9.42 4.08l.24-5.46v-12.22h-8.93v48.51h6.99l.8-3.6h.24c2.74 2.85 6.02 4.43 9.06 4.43zm-2-7.36c-1.82 0-4-.66-6.14-2.56v-14.96c2.32-2.37 4.38-3.52 6.7-3.52 4.69 0 6.74 3.6 6.74 10.09 0 7.41-3.17 10.92-7.3 10.92zm0 0"/><path d="m127.87 197.07h8.93v-10.35l-.29-5.6c2.61 2.37 5.46 3.71 8.45 3.71 7.47 0 14.48-6.75 14.48-18.43 0-10.45-4.99-17.33-13.39-17.33-3.65 0-7.17 1.94-10.02 4.37h-.19l-.67-3.52h-7.3zm15.06-19.58c-1.81 0-4-.66-6.13-2.56v-14.96c2.32-2.37 4.37-3.52 6.69-3.52 4.7 0 6.75 3.6 6.75 10.09 0 7.41-3.17 10.92-7.31 10.92zm0 0"/><path d="m176.45 184.85c8.88 0 13.55-4.8 13.55-10.77 0-6.32-4.99-8.56-9.49-10.27-3.6-1.33-6.75-2.24-6.75-4.74 0-1.95 1.47-3.28 4.56-3.28 2.48 0 4.85 1.14 7.31 2.9l4-5.41c-2.8-2.13-6.64-4.19-11.55-4.19-7.79 0-12.72 4.32-12.72 10.4 0 5.71 4.8 8.32 9.12 9.97 3.6 1.39 7.12 2.57 7.12 5.13 0 2.13-1.52 3.6-4.93 3.6-3.18 0-6.08-1.34-9.12-3.71l-4.09 5.6c3.42 2.8 8.41 4.8 12.97 4.8zm0 0"/></g></svg>