<svg height="150" viewBox="0 0 225 150" width="225" xmlns="http://www.w3.org/2000/svg"><path d="m20.55 12.01h185.19c7.18 0 13.01 5.82 13.01 13v100.38c0 7.18-5.84 13-13.01 13h-185.19c-7.18 0-13.01-5.82-13.01-13v-100.38c0-7.18 5.84-13 13.01-13zm0 0" fill="#d0d0d0" stroke="#898989" stroke-width="2.69"/><path d="m23.39 45v59.82h74.11v-59.82zm4.43 4.02h65.18v30.71h-20.18v-22.5h-24.46v13.57h-20.54zm0 0" fill="#4e4e4e"/><path d="m118.04 51.07-9.08 47.68h9.08l1.92-12.21h9.13l1.93 12.21h9.19l-9.07-47.68zm26.42 0v47.68h11.52c8.68 0 14.98-4.43 14.98-14.02 0-6.62-3.08-10.09-8.35-11.32v-.25c4.75-1.55 6.87-5.99 6.87-10.36 0-8.93-6.03-11.82-14.34-11.82zm31.25 0v47.68h9.52v-18.04h2.57l6.36 18.04h10.04l-7.84-20c3.98-2.25 6.62-6.62 6.62-13.37 0-10.93-6.5-14.47-14.71-14.47zm-51.42 7.27h.25c.84 5.21 1.55 10.68 2.45 15.62l.84 5.22h-6.75l.84-5.22c.83-4.94 1.73-10.41 2.37-15.62zm29.64 0h1.28c3.15 0 4.83 1.48 4.83 5.91 0 4.38-1.61 6.36-5.02 6.36h-1.09zm31.25.32h2.12c3.93 0 6.31 1.74 6.31 6.88s-2.38 7.78-6.31 7.78h-2.12zm-31.25 18.75h1.61c4.05 0 6.1 2.13 6.1 6.82 0 4.9-2.12 7.27-6.3 7.27h-1.42zm0 0" fill="#323232"/></svg>