<svg height="150" viewBox="0 0 225 150" width="225" xmlns="http://www.w3.org/2000/svg"><path d="m20.55 12.01h185.19c7.18 0 13.01 5.82 13.01 13v100.38c0 7.18-5.84 13-13.01 13h-185.19c-7.18 0-13.01-5.82-13.01-13v-100.38c0-7.18 5.84-13 13.01-13zm0 0" fill="#d0d0d0" stroke="#898989" stroke-width="2.69"/><path d="m23.39 45v59.82h74.11v-59.82zm4.43 4.02h65.18v26.96h-65.18zm0 0" fill="#4e4e4e"/><path d="m128.39 50.36c-9.19 0-17.28 7.46-17.28 25 0 17.55 8.1 24.28 17.23 24.28 4.37 0 8.48-1.87 11.64-5.73l-5.39-5.71c-1.48 2.05-3.21 3.21-5.34 3.21-4.5 0-8.36-4.3-8.36-16.52 0-11.96 4.06-16.39 7.91-16.39 2.25 0 3.66 1.16 5.27 3.02l5.41-5.91c-2.57-2.82-6.23-5.27-11.05-5.27zm16.07.77v47.68h11.52c8.68 0 14.98-4.43 14.98-14.02 0-6.62-3.08-10.09-8.35-11.32v-.26c4.75-1.54 6.87-5.98 6.87-10.35 0-8.93-6.03-11.82-14.34-11.82zm31.25 0v47.68h9.52v-18.04h2.57l6.36 18.04h10.04l-7.84-20c3.98-2.25 6.62-6.62 6.62-13.37 0-10.93-6.5-14.47-14.71-14.47zm-21.78 7.27h1.28c3.15 0 4.83 1.48 4.83 5.91 0 4.38-1.61 6.36-5.02 6.36h-1.09zm31.25.32h2.12c3.93 0 6.31 1.74 6.31 6.88s-2.38 7.78-6.31 7.78h-2.12zm-31.25 18.75h1.61c4.05 0 6.1 2.13 6.1 6.82 0 4.9-2.12 7.27-6.3 7.27h-1.42zm0 0" fill="#323232"/></svg>