<svg height="150" viewBox="0 0 225 150" width="225" xmlns="http://www.w3.org/2000/svg"><path d="m18.13 12.14c-6.06 0-10.97 4.91-10.97 10.96v70.27h210.66v-70.27c0-6.05-4.91-10.96-10.97-10.96zm0 0" fill="#1a1a1a"/><path d="m6.58 93.51v33.33c0 6.06 4.91 10.97 10.97 10.97h189.01c6.06 0 10.97-4.91 10.97-10.97v-33.33zm0 0" fill="#b0b0b0"/><path d="m80.55 68.71h20.65v8.85h-34.09v-8.85l17.08-15.12c1.53-1.34 2.66-2.7 3.38-4.05.72-1.34 1.1-2.72 1.14-4.11 0-2.21-.74-3.98-2.22-5.34-1.49-1.34-3.45-2.02-5.88-2.02-1.89 0-3.96.43-6.21 1.28-2.25.77-4.63 1.96-7.15 3.58v-10.39c2.7-.91 5.4-1.58 8.1-2.03 2.61-.45 5.2-.67 7.76-.67 5.63 0 9.99 1.21 13.1 3.64 3.1 2.47 4.65 5.92 4.65 10.33 0 2.56-.67 4.95-2.02 7.15-1.3 2.21-4.05 5.15-8.23 8.84zm32.13-38h12.08v17.08l17.42-17.08h14.03l-22.54 22.21 24.91 24.64h-15.19l-18.63-18.43v18.43h-12.08zm0 0" fill="#c4c4c4"/><path d="m41.05 100.18c3.86 0 6.9 1.29 9.11 3.87 2.22 2.56 3.32 6.18 3.32 10.84 0 3.25-.59 6-1.77 8.25-1.17 2.27-2.82 3.92-4.94 4.97v.07c1.99.49 3.84 1.35 5.57 2.59 1.74 1.26 3.13 2.71 4.18 4.36h-3.75c-1.38-2.08-2.93-3.52-4.64-4.33-1.7-.78-4.05-1.17-7.06-1.17-3.88 0-6.93-1.29-9.16-3.84-2.2-2.6-3.3-6.23-3.3-10.9 0-4.66 1.1-8.28 3.3-10.84 2.23-2.59 5.28-3.89 9.16-3.89zm0 26.78c2.98 0 5.27-1.02 6.86-3.07 1.6-2.05 2.39-5.06 2.39-9.03 0-3.98-.79-6.99-2.39-9.04-1.59-2.05-3.88-3.06-6.86-3.05-2.97 0-5.26 1.02-6.87 3.05-1.6 2.05-2.39 5.06-2.39 9.04 0 3.97.79 6.98 2.39 9.03 1.59 2.05 3.89 3.07 6.87 3.07zm21.08-26.78v19.28c0 2.58.56 4.48 1.69 5.72 1.12 1.19 2.84 1.78 5.14 1.78 2.31 0 4.02-.59 5.11-1.78 1.12-1.24 1.68-3.14 1.68-5.72v-19.28h3.11v19.11c0 3.42-.85 6.01-2.56 7.76-1.69 1.73-4.16 2.59-7.41 2.59-3.22 0-5.69-.86-7.39-2.59-1.7-1.78-2.55-4.37-2.55-7.76v-19.11zm19.46 29.11 10.09-29.11h3.53l10.08 29.11h-3.34l-2.75-8.5h-11.61l-2.73 8.5zm6.84-11.06h9.95l-5-15.16h-.08zm39.46-3.69c0-4-.9-6.95-2.69-8.84-1.79-1.91-4.55-2.86-8.29-2.86-1.37 0-2.64.12-3.8.36v23.57c1.16.24 2.43.36 3.8.36 3.8 0 6.57-.99 8.32-2.95 1.79-1.97 2.68-5.15 2.68-9.55zm3 0c0 10.08-4.66 15.12-13.98 15.12-2.53 0-4.86-.21-6.96-.62v-28.22c2.13-.41 4.45-.62 6.96-.62 9.32 0 13.98 4.78 13.98 14.34zm5.25-13.91h7.4v10.92h10.89v-10.92h7.39v28.57h-7.39v-12.15h-10.89v12.15h-7.4zm40.36 5.58v17.49h2.64c3.03 0 5.33-.75 6.91-2.25 1.61-1.5 2.41-3.68 2.41-6.52s-.79-5-2.39-6.48c-1.59-1.49-3.9-2.24-6.93-2.24zm-7.37-5.58h7.78c4.35 0 7.58.31 9.7.94 2.14.62 3.97 1.67 5.5 3.14 1.33 1.3 2.32 2.79 2.98 4.47.65 1.69.98 3.61.98 5.75 0 2.15-.33 4.08-.98 5.78-.66 1.7-1.65 3.18-2.98 4.47-1.55 1.49-3.4 2.55-5.54 3.18-2.14.6-5.36.91-9.66.91h-7.78zm0 0"/></svg>