<svg height="150" viewBox="0 0 225 150" width="225" xmlns="http://www.w3.org/2000/svg" xmlns:xlink="http://www.w3.org/1999/xlink"><filter id="a" height="100%" width="100%" x="0%" y="0%"><feColorMatrix in="SourceGraphic" type="matrix" values="0 0 0 0 1 0 0 0 0 1 0 0 0 0 1 0 0 0 1 0"/></filter><mask id="b"><g filter="url(#a)"><path d="m0 0h225v150h-225z" fill-opacity=".99"/></g></mask><clipPath id="c"><path d="m0 0h225v150h-225z"/></clipPath><g clip-path="url(#c)" mask="url(#b)"><path d="m18.14 12.14c-6.13 0-10.96 4.9-10.96 10.96v70.27h210.66v-70.27c0-6.06-4.91-10.96-10.97-10.96zm0 0" fill="#1a1a1a"/><path d="m6.6 93.51v33.33c0 6.06 4.9 10.97 10.97 10.97h189.01c6.06 0 10.97-4.91 10.97-10.97v-33.33zm0 0" fill="#b0b0b0"/><path d="m68.39 30.24h30.04v8.84h-20.45v7.29c.9-.27 1.82-.47 2.77-.6.95-.14 1.93-.21 2.97-.21 5.71 0 10.15 1.44 13.3 4.32 3.19 2.83 4.79 6.82 4.79 11.95 0 5.04-1.73 9-5.2 11.88s-8.28 4.32-14.44 4.32c-2.66 0-5.29-.27-7.9-.81-2.61-.5-5.2-1.26-7.76-2.29v-9.52c2.56 1.44 4.99 2.54 7.29 3.3 2.25.72 4.41 1.08 6.48 1.08 2.92 0 5.22-.72 6.88-2.16 1.71-1.43 2.57-3.37 2.57-5.8 0-2.47-.86-4.43-2.57-5.87-1.66-1.4-3.96-2.1-6.88-2.1-1.76 0-3.6.23-5.54.68-1.98.45-4.1 1.12-6.35 2.02zm43.81 0h12.09v17.08l17.41-17.08h14.04l-22.54 22.21 24.84 24.64h-15.12l-18.63-18.43v18.43h-12.15zm0 0" fill="#c4c4c4"/><path d="m25.89 101.43v19.28c0 2.58.56 4.47 1.68 5.68 1.12 1.22 2.84 1.82 5.14 1.82 2.31 0 4.02-.6 5.13-1.82 1.11-1.21 1.67-3.1 1.68-5.66v-19.28h3.11v19.1c0 3.42-.86 6-2.56 7.75-1.66 1.77-4.14 2.65-7.43 2.65-3.2 0-5.68-.88-7.43-2.65-1.66-1.79-2.5-4.38-2.5-7.76v-19.11zm26.43 0v26.25h13.91v2.77h-17.14v-29.11zm12.89 0h20.18v2.68h-8.44v26.43h-3.18v-26.43h-8.48zm26.08 29.11v-28.58c2.25-.4 4.7-.6 7.35-.6 3.65 0 6.41.67 8.31 2.02 1.89 1.34 2.83 3.28 2.82 5.8 0 1.98-.54 3.62-1.61 4.93-1.08 1.34-2.61 2.27-4.59 2.77v.07c1.17.63 2.34 2.34 3.5 5.12l3.45 8.38h-3.23l-3.4-8.31c-.81-1.89-1.55-3.06-2.21-3.51-.67-.46-2.02-.68-4.05-.67h-3.18v12.49zm3.16-15h3.1c3.16 0 5.46-.5 6.9-1.49 1.48-1.02 2.23-2.53 2.23-4.51 0-3.7-2.77-5.54-8.32-5.54-1.4 0-2.7.12-3.91.36zm19.64 15 10.12-29.11h3.5l10.15 29.11h-3.4l-2.76-8.5h-11.61l-2.7 8.5zm6.8-11.08h10l-5-15.12zm21.79-17.62h7.43v10.95h10.85v-10.88h7.43v28.57h-7.43v-12.14h-10.85v12.14h-7.43zm40.36 5.61v17.55h2.62c3.02 0 5.32-.77 6.89-2.3 1.62-1.48 2.43-3.66 2.43-6.54 0-2.83-.78-4.99-2.35-6.48-1.62-1.49-3.95-2.23-6.97-2.23zm-7.43-5.54h7.82c4.32 0 7.54.32 9.66.95 2.17.59 4.01 1.63 5.54 3.1 1.35 1.31 2.34 2.8 2.96 4.47.68 1.7 1.02 3.61 1.02 5.71 0 2.17-.34 4.11-1.02 5.82-.62 1.71-1.61 3.2-2.96 4.47-1.53 1.48-3.37 2.53-5.54 3.16s-5.38.95-9.64.95h-7.86zm0 0"/></g></svg>