<svg height="150" viewBox="0 0 225 150" width="225" xmlns="http://www.w3.org/2000/svg"><path d="m18.91 12.13c-6.14 0-10.98 4.91-10.98 10.98v70.34h211.11v-70.34c0-6.07-4.91-10.98-10.98-10.98zm0 0" fill="#1a1a1a"/><path d="m7.93 93.45v33.37c0 6.07 4.91 10.98 10.98 10.98h189.15c6.07 0 10.98-4.91 10.98-10.98v-33.37zm0 0" fill="#b0b0b0"/><path d="m85.54 54.15c-2.11 0-3.71.7-4.79 2.1-1.04 1.34-1.55 3.39-1.55 6.14 0 2.74.51 4.81 1.55 6.21 1.08 1.35 2.65 2.02 4.72 2.02 2.16 0 3.76-.67 4.8-2.02 1.08-1.35 1.62-3.42 1.62-6.21 0-2.7-.54-4.73-1.62-6.08-1.04-1.44-2.61-2.16-4.73-2.16zm14.92-22.47v8.64c-1.98-.91-3.85-1.58-5.6-2.03-1.81-.45-3.54-.68-5.2-.68-3.6 0-6.39 1-8.37 2.98-2.02 1.98-3.2 4.95-3.51 8.91 1.35-1.04 2.83-1.8 4.45-2.3 1.63-.54 3.38-.81 5.27-.81 4.81 0 8.68 1.4 11.61 4.18 2.97 2.84 4.45 6.53 4.45 11.07 0 5-1.64 9.03-4.92 12.09-3.29 3.01-7.7 4.52-13.23 4.52-6.12 0-10.85-2.07-14.18-6.21-3.33-4.09-4.99-9.92-4.99-17.48 0-7.74 1.96-13.82 5.87-18.23 3.91-4.45 9.27-6.68 16.07-6.68 2.15 0 4.25.18 6.27.54 2.03.36 4.03.85 6.01 1.49zm12.49-1.22h12.01v17.08l17.42-17.08h14.04l-22.55 22.21 24.91 24.63h-15.19l-18.63-18.42v18.42h-12.01zm0 0" fill="#c4c4c4"/><path d="m25.87 101.4v19.31c0 2.56.56 4.45 1.69 5.67 1.12 1.21 2.83 1.82 5.13 1.82 2.29 0 4.01-.61 5.13-1.82 1.13-1.22 1.69-3.11 1.69-5.67v-19.31h3.1v19.1c0 3.43-.85 6.01-2.56 7.77-1.67 1.75-4.14 2.63-7.43 2.63-3.19 0-5.67-.88-7.42-2.63-1.67-1.8-2.5-4.39-2.5-7.77v-19.1zm26.4 0v26.33h13.9v2.77h-17.15v-29.03zm12.89 0h20.11v2.7h-8.44v26.4h-3.17v-26.33h-8.5zm25.98 29.1v-28.49c2.25-.4 4.71-.61 7.36-.61 3.64 0 6.41.68 8.3 2.03 1.9 1.35 2.84 3.28 2.84 5.8 0 1.98-.54 3.63-1.62 4.93-1.08 1.35-2.61 2.27-4.59 2.77v.07c1.17.63 2.34 2.34 3.51 5.13l3.44 8.37h-3.24l-3.37-8.31c-.81-1.89-1.56-3.06-2.23-3.51-.68-.45-2.02-.67-4.05-.67h-3.17v12.49zm3.18-14.99h3.1c3.15 0 5.45-.49 6.88-1.49 1.49-1.03 2.24-2.54 2.24-4.52 0-3.69-2.77-5.53-8.31-5.53-1.39 0-2.7.11-3.91.33zm19.57 14.99 10.13-29.03h3.51l10.12 29.03h-3.37l-2.77-8.51h-11.61l-2.7 8.51zm6.82-11.07h9.99l-5-15.13zm21.74-17.62h7.42v10.93h10.87v-10.86h7.42v28.62h-7.42v-12.16h-10.87v12.16h-7.42zm40.29 5.6v17.55h2.64c3.01 0 5.3-.76 6.88-2.3 1.62-1.48 2.43-3.66 2.43-6.54 0-2.84-.79-5-2.36-6.48-1.62-1.49-3.94-2.23-6.95-2.23zm-7.42-5.53h7.82c4.32 0 7.54.31 9.66.94 2.16.59 4 1.62 5.53 3.11 1.35 1.3 2.35 2.78 2.97 4.45.68 1.71 1.02 3.62 1.02 5.74 0 2.16-.34 4.09-1.02 5.8-.62 1.71-1.62 3.2-2.97 4.46-1.53 1.48-3.37 2.54-5.53 3.17s-5.38.95-9.66.95h-7.82zm0 0"/></svg>