<svg height="150" viewBox="0 0 225 150" width="225" xmlns="http://www.w3.org/2000/svg"><path d="m18.99 11.97c-6.14 0-10.98 4.91-10.98 10.98v70.34h210.9v-70.34c0-6.07-4.92-10.98-10.98-10.98zm0 0" fill="#1a1a1a"/><path d="m7.43 93.44v33.36c0 6.07 4.91 10.98 10.98 10.98h189.23c6.06 0 10.98-4.91 10.98-10.98v-33.36zm0 0" fill="#b0b0b0"/><path d="m84.6 56.56c-2.25 0-3.99.64-5.2 1.89-1.22 1.22-1.82 3-1.82 5.34s.6 4.09 1.82 5.26c1.21 1.22 2.95 1.83 5.2 1.83s3.95-.61 5.13-1.83c1.21-1.21 1.82-2.97 1.82-5.26 0-2.34-.61-4.14-1.82-5.4-1.18-1.22-2.88-1.83-5.13-1.83zm-8.78-3.98c-2.88-.85-5.04-2.16-6.48-3.91-1.44-1.8-2.16-4.03-2.16-6.69 0-3.96 1.46-6.97 4.39-9.04 2.92-2.07 7.27-3.1 13.03-3.1 5.67 0 9.99 1.03 12.95 3.1 2.93 2.07 4.4 5.08 4.4 9.04 0 2.7-.73 4.93-2.16 6.69-1.45 1.79-3.61 3.1-6.49 3.91 3.2.9 5.61 2.34 7.23 4.32 1.61 1.98 2.43 4.46 2.43 7.43 0 4.68-1.56 8.21-4.66 10.6-3.06 2.38-7.63 3.57-13.7 3.57-6.08 0-10.69-1.19-13.84-3.57-3.06-2.39-4.59-5.9-4.59-10.54 0-3.01.79-5.49 2.36-7.42 1.67-2.02 4.08-3.49 7.22-4.39zm2.77-9.38c0 1.89.52 3.33 1.55 4.32 1.04.99 2.52 1.48 4.46 1.48 1.89 0 3.35-.49 4.38-1.48 1.04-.99 1.54-2.43 1.49-4.32 0-1.84-.5-3.26-1.49-4.25-1.03-.99-2.49-1.49-4.38-1.49-1.94 0-3.42.5-4.46 1.49-1.03.99-1.55 2.41-1.55 4.25zm34.29-12.49h12.08v17.08l17.42-17.08h14.04l-22.62 22.21 24.98 24.64h-15.19l-18.63-18.43v18.43h-12.15zm0 0" fill="#c4c4c4"/><path d="m25.87 101.11v19.31c0 2.56.56 4.46 1.69 5.67 1.12 1.21 2.83 1.82 5.13 1.82 2.29 0 4.01-.61 5.13-1.82 1.13-1.21 1.69-3.11 1.69-5.67v-19.31h3.1v19.1c0 3.43-.85 6.01-2.56 7.77-1.67 1.75-4.14 2.63-7.43 2.63-3.19 0-5.67-.88-7.42-2.63-1.67-1.8-2.5-4.39-2.5-7.77v-19.1zm26.4 0v26.33h13.9v2.77h-17.15v-29.03zm12.89 0h20.11v2.7h-8.44v26.4h-3.17v-26.33h-8.5zm25.98 29.1v-28.49c2.25-.4 4.71-.61 7.36-.61 3.64 0 6.41.68 8.3 2.03 1.9 1.35 2.84 3.29 2.84 5.81 0 1.98-.54 3.62-1.62 4.92-1.08 1.35-2.61 2.27-4.59 2.77v.07c1.17.63 2.34 2.34 3.51 5.13l3.44 8.37h-3.24l-3.37-8.31c-.81-1.88-1.56-3.06-2.23-3.51-.68-.44-2.02-.67-4.05-.67h-3.17v12.49zm3.18-14.99h3.1c3.15 0 5.45-.49 6.88-1.48 1.49-1.04 2.24-2.54 2.24-4.53 0-3.69-2.77-5.53-8.31-5.53-1.39 0-2.7.11-3.91.34zm19.57 14.99 10.13-29.03h3.51l10.12 29.03h-3.37l-2.77-8.51h-11.61l-2.7 8.51zm6.82-11.07h9.99l-5-15.12zm21.74-17.62h7.42v10.93h10.87v-10.86h7.42v28.62h-7.42v-12.15h-10.87v12.15h-7.42zm40.29 5.6v17.55h2.64c3.01 0 5.3-.76 6.88-2.29 1.62-1.49 2.43-3.67 2.43-6.55 0-2.83-.79-4.99-2.36-6.48-1.62-1.49-3.94-2.23-6.95-2.23zm-7.42-5.53h7.82c4.32 0 7.54.31 9.66.94 2.16.59 4 1.62 5.53 3.11 1.35 1.3 2.35 2.79 2.97 4.45.68 1.71 1.02 3.62 1.02 5.74 0 2.16-.34 4.1-1.02 5.8-.62 1.71-1.62 3.2-2.97 4.46-1.53 1.48-3.37 2.54-5.53 3.17s-5.38.95-9.66.95h-7.82zm0 0"/></svg>