<svg height="150" viewBox="0 0 225 150" width="225" xmlns="http://www.w3.org/2000/svg"><path d="m18.91 12.13c-6.14 0-10.98 4.91-10.98 10.98v70.34h211.11v-70.34c0-6.07-4.91-10.98-10.98-10.98zm0 0" fill="#1a1a1a"/><path d="m7.93 93.45v33.37c0 6.07 4.91 10.98 10.98 10.98h189.15c6.07 0 10.98-4.91 10.98-10.98v-33.37zm0 0" fill="#b0b0b0"/><path d="m50.38 69.54h7.42v-41.31h-12.62v7.02h5.2zm46.91-28.21c0-8.37-5.4-13.84-13.77-13.84-8.51 0-13.91 5.53-13.91 14.17v14.11c0 3.98.81 6.75 2.63 9.25 2.57 3.37 6.55 5.27 11.62 5.27 4.72 0 8.43-1.69 10.79-5 1.89-2.7 2.71-5.4 2.71-9.52zm-20.25.33c0-4.52 2.5-7.35 6.48-7.35s6.34 2.7 6.34 7.35v14.04c0 5.2-2.02 7.77-6.28 7.77-4.25 0-6.54-2.77-6.54-7.97zm29.83 4.93c-3.79 1.88-6.1 5.84-5.87 10.06 0 7.69 6.01 13.64 13.84 13.64s13.7-5.88 13.7-13.71c0-2.97-.95-5.6-2.57-7.42-.93-1.06-2.05-1.93-3.3-2.57 2.43-1.89 3.51-4.39 3.51-7.83 0-6.41-4.86-11.27-11.34-11.27-6.28 0-11.34 5.06-11.34 11.41 0 3.03.88 4.92 3.37 7.69zm8.1-12.28c2.23 0 4.05 2.02 4.05 4.52s-1.82 4.52-4.18 4.52c-2.37 0-4.26-2.02-4.26-4.45 0-2.63 1.89-4.59 4.32-4.59zm-.13 16.2c3.37 0 6.21 2.9 6.21 6.48 0 3.71-2.7 6.48-6.21 6.48-1.73 0-3.38-.7-4.59-1.93-1.2-1.23-1.86-2.9-1.82-4.62 0-3.65 2.83-6.41 6.41-6.41zm45.09-9.18c0-8.37-5.4-13.84-13.77-13.84-8.51 0-13.91 5.53-13.91 14.17v14.11c0 3.98.81 6.75 2.7 9.25 2.5 3.37 6.48 5.27 11.48 5.27 4.79 0 8.5-1.69 10.86-5 1.89-2.7 2.7-5.4 2.7-9.52zm-20.25.33c0-4.52 2.5-7.35 6.48-7.35s6.34 2.7 6.34 7.35v14.04c0 5.2-2.02 7.77-6.28 7.77-4.25 0-6.54-2.77-6.54-7.97zm40.9 3.58c-3.46 0-6.39 1.26-8.78 3.78-.44.45-.83.9-1.14 1.35v-3.91c0-.77-.41-1.15-1.21-1.15-.82 0-1.22.38-1.22 1.15v35.97c0 .82.4 1.22 1.22 1.22.8 0 1.21-.4 1.21-1.22v-16.67l1.14 1.35c2.39 2.52 5.32 3.78 8.78 3.78 3.42 0 6.32-1.23 8.71-3.71 2.39-2.52 3.58-5.56 3.58-9.11 0-3.51-1.19-6.53-3.58-9.05s-5.31-3.78-8.77-3.78zm0 2.43c2.7 0 5.02 1.01 6.96 3.04 1.93 2.02 2.9 4.5 2.9 7.42 0 2.84-.97 5.27-2.9 7.3-1.94 2.02-4.26 3.03-6.96 3.03s-5.04-1.01-7.02-3.03c-1.93-2.03-2.9-4.48-2.9-7.36v-.41c.09-2.7 1.05-5.02 2.9-6.95 1.94-2.03 4.25-3.04 6.96-3.04zm0 0" fill="#c4c4c4"/><path d="m46.12 103.09h-14.58v10.73h13.64v2.77h-13.57v15.25h-3.38v-31.72h17.82zm9.79-2.97v21.06c0 2.79.61 4.86 1.82 6.21 1.26 1.31 3.13 1.96 5.6 1.96 2.53 0 4.39-.68 5.61-2.03 1.21-1.35 1.82-3.39 1.82-6.14v-21.06h3.37v20.86c0 3.73-.9 6.57-2.7 8.5-1.89 1.89-4.59 2.84-8.1 2.84-3.55 0-6.25-.95-8.1-2.84-1.89-1.93-2.83-4.77-2.83-8.5v-20.86zm28.82 0v28.76h15.12v2.96h-18.63v-31.72zm25.04 0v28.76h15.19v2.96h-18.76v-31.72zm21.74.47h8.1v11.95h11.81v-11.95h8.1v31.25h-8.1v-13.16h-11.88v13.23h-8.1zm43.94 6.14v19.04h2.91c3.28 0 5.78-.81 7.49-2.43 1.75-1.62 2.63-4 2.63-7.16 0-3.05-.85-5.39-2.57-7.02-1.75-1.62-4.27-2.43-7.55-2.43zm-8.1-6.07h8.51c4.77 0 8.3.34 10.59 1.01 2.34.63 4.35 1.76 6.01 3.38 1.44 1.44 2.52 3.08 3.24 4.93.72 1.79 1.08 3.86 1.08 6.2 0 2.39-.36 4.5-1.08 6.35-.72 1.8-1.8 3.42-3.24 4.86-1.66 1.62-3.69 2.77-6.07 3.44-2.34.68-5.85 1.01-10.53 1.01h-8.51zm0 0"/></svg>