<svg height="150" viewBox="0 0 225 150" width="225" xmlns="http://www.w3.org/2000/svg"><path d="m18.99 11.97c-6.14 0-10.98 4.91-10.98 10.98v70.34h210.9v-70.34c0-6.07-4.92-10.98-10.98-10.98zm0 0" fill="#1a1a1a"/><path d="m7.43 93.44v33.36c0 6.07 4.91 10.98 10.98 10.98h189.23c6.06 0 10.98-4.91 10.98-10.98v-33.36zm0 0" fill="#b0b0b0"/><path d="m59.89 70.06h8.37l15.12-34.35v-6.96h-24.3v6.96h16.47zm29.03 0h26.72v-7.02h-16.19l8.43-7.62c6.08-5.4 8.04-8.91 8.04-13.97 0-7.7-5.81-13.5-13.5-13.5-4.62-.07-8.94 2.22-11.48 6.07-1.62 2.5-2.23 5-2.23 8.98h7.29c0-4.93 2.64-8.17 6.48-8.17 3.38 0 5.95 2.77 5.95 6.48 0 2.7-1.36 5.13-4.73 8.3l-14.72 13.91zm58.45-28.21c0-8.44-5.4-13.84-13.77-13.84-8.5 0-13.83 5.47-13.83 14.18v14.04c0 4.05.74 6.75 2.62 9.31 2.57 3.38 6.56 5.27 11.55 5.27 4.72 0 8.44-1.76 10.8-5.06 1.89-2.64 2.7-5.41 2.7-9.46zm-20.25.34c0-4.59 2.5-7.36 6.55-7.36s6.35 2.63 6.35 7.36v14.04c0 5.2-2.1 7.76-6.28 7.76-4.26 0-6.55-2.84-6.55-7.97zm40.91 3.58c-3.42 0-6.35 1.25-8.78 3.77-.45.46-.83.91-1.14 1.35v-3.98c0-.76-.41-1.14-1.22-1.14-.76 0-1.15.38-1.15 1.14v35.98c0 .81.39 1.22 1.15 1.22.81 0 1.22-.41 1.22-1.22v-16.6l1.21 1.34c2.38 2.52 5.29 3.78 8.71 3.78s6.34-1.26 8.77-3.78c2.34-2.52 3.51-5.53 3.51-9.04 0-3.55-1.19-6.57-3.58-9.05-2.38-2.52-5.3-3.77-8.77-3.77zm0 2.36c2.7 0 5.01 1.03 6.95 3.1 1.93 2.03 2.9 4.48 2.9 7.36s-.97 5.33-2.9 7.36c-1.94 2.02-4.25 3.03-6.95 3.03s-5.04-1.01-7.02-3.03c-1.94-2.03-2.9-4.48-2.9-7.36v-.47c.09-2.7 1.05-5 2.9-6.89 1.98-2.07 4.32-3.1 7.02-3.1zm0 0" fill="#c4c4c4"/><path d="m79.87 101.11h8.1v11.89h11.82v-11.89h8.09v31.26h-8.09v-13.37h-11.82v13.3h-8.1zm43.88 6.08v19.03h2.9c3.33 0 5.85-.81 7.56-2.43 1.75-1.61 2.63-3.98 2.63-7.08 0-3.15-.88-5.51-2.63-7.09-1.71-1.62-4.23-2.43-7.56-2.43zm-8.04-6.08h8.51c4.77 0 8.3.34 10.6 1.02 2.34.67 4.34 1.8 6 3.37 1.45 1.44 2.52 3.09 3.24 4.93.73 1.8 1.08 3.89 1.08 6.28 0 2.34-.35 4.43-1.08 6.27-.72 1.85-1.79 3.47-3.24 4.86-1.71 1.62-3.73 2.79-6.07 3.52-2.34.62-5.85.94-10.53.94h-8.51zm0 0"/></svg>