<svg height="150" viewBox="0 0 225 150" width="225" xmlns="http://www.w3.org/2000/svg"><path d="m20.71 12.18c-6.07 0-10.98 4.91-10.98 10.98v70.34h211.19v-70.34c0-2.93-1.17-5.73-3.24-7.79-2.08-2.06-4.89-3.21-7.81-3.19zm0 0" fill="#1a1a1a"/><path d="m9.73 93.5v33.3c0 6.07 4.91 10.98 10.98 10.98h189.16c6.06 0 10.97-4.92 10.97-10.98v-33.3zm0 0" fill="#b0b0b0"/><path d="m67.43 50.09h1.22c4.99 0 8.1 2.76 8.1 6.95 0 3.98-2.77 6.88-6.48 6.88-3.65 0-6.21-2.49-6.68-6.41h-7.5c.48 7.76 6.35 13.23 14.25 13.23 8.03 0 13.9-5.87 13.9-13.9 0-5.2-2.16-8.71-6.41-10.67 2.43-1.76 3.44-3.92 3.44-7.09 0-6.41-4.72-11.13-11.14-11.13-3.24 0-6.21 1.28-8.3 3.5-1.76 1.89-2.43 3.72-2.7 7.02h7.56c.34-2.63 1.42-3.77 3.44-3.77 2.16 0 3.65 1.61 3.65 3.91 0 1.82-.81 3.1-2.43 3.71-.95.41-1.96.47-3.99.54zm35.17-21.4-10.8 16.2c-3.04 4.45-4.05 7.56-4.05 11.61 0 8.16 6.14 14.24 14.51 14.24 8.31 0 14.18-6.14 14.18-14.85 0-7.63-4.8-13.1-11.41-13.1-1.35 0-2.09.14-3.37.55l9.92-14.72zm-.54 20.65c3.92 0 6.82 3.11 6.82 7.36 0 4.32-2.77 7.29-6.68 7.29-4.12 0-7.09-3.04-7.09-7.29 0-4.39 2.77-7.36 6.95-7.36zm45.16-7.56c0-8.37-5.4-13.83-13.84-13.83-8.5 0-13.9 5.46-13.9 14.17v14.11c0 3.98.81 6.75 2.63 9.31 2.56 3.44 6.55 5.27 11.61 5.27 4.72 0 8.44-1.76 10.87-5.06 1.82-2.64 2.63-5.41 2.63-9.52zm-20.25.34c0-4.52 2.49-7.36 6.48-7.36 3.98 0 6.34 2.63 6.34 7.36v14.04c0 5.2-2.09 7.76-6.27 7.76-4.26 0-6.55-2.77-6.55-7.96zm40.83 3.58c-3.41 0-6.32 1.26-8.7 3.78-.45.45-.83.92-1.15 1.41v-3.98c0-.76-.4-1.14-1.22-1.14-.8 0-1.21.38-1.21 1.14v35.98c0 .81.41 1.22 1.21 1.22.82 0 1.22-.41 1.22-1.22v-16.68c.36.46.74.91 1.15 1.36 2.38 2.52 5.29 3.78 8.7 3.78 3.43 0 6.33-1.26 8.71-3.78 2.39-2.52 3.58-5.54 3.58-9.05 0-3.56-1.19-6.57-3.58-9.04-2.38-2.52-5.28-3.78-8.71-3.78zm0 2.43c2.7 0 5.02 1.01 6.96 3.03 1.93 2.03 2.9 4.48 2.9 7.36s-.97 5.34-2.9 7.36c-1.94 2.02-4.26 3.04-6.96 3.04-2.69 0-5.01-1.02-6.95-3.04-1.93-2.02-2.9-4.48-2.9-7.36v-.47c.09-2.7 1.06-5.02 2.9-6.95 1.94-2.03 4.26-3.04 6.95-3.04zm0 0" fill="#c4c4c4"/><path d="m85.93 100.78h8.03v25.17h14.18v6.08h-22.21zm35.37 6.07v19.1h2.9c3.28 0 5.8-.81 7.56-2.43s2.63-3.98 2.63-7.08c0-3.11-.87-5.47-2.63-7.09-1.71-1.62-4.23-2.43-7.56-2.43zm-8.03-6.07h8.5c4.73 0 8.26.33 10.6 1.01 2.34.67 4.34 1.82 6.01 3.44 1.48 1.4 2.56 3.02 3.23 4.86.73 1.85 1.09 3.94 1.09 6.28s-.36 4.45-1.09 6.34c-.72 1.85-1.79 3.47-3.23 4.86-1.67 1.63-3.67 2.77-6.01 3.45-2.34.67-5.85 1.01-10.53 1.01h-8.51zm0 0"/></svg>