<svg height="150" viewBox="0 0 225 150" width="225" xmlns="http://www.w3.org/2000/svg"><path d="m18.91 12.13c-6.14 0-10.98 4.91-10.98 10.98v70.34h211.11v-70.34c0-6.07-4.91-10.98-10.98-10.98zm0 0" fill="#1a1a1a"/><path d="m7.93 93.45v33.37c0 6.07 4.91 10.98 10.98 10.98h189.15c6.07 0 10.98-4.91 10.98-10.98v-33.37zm0 0" fill="#b0b0b0"/><path d="m53.41 57.8v6.07h17.82v6.15h7.43v-6.22h4.38v-6.68h-4.32v-28.42h-6.27zm17.82-.68h-10.26l10.26-15.93zm21.2-10.05c-1.89 1.01-2.7 1.68-3.58 2.83-1.55 1.82-2.36 4.52-2.36 7.22 0 7.7 6 13.64 13.83 13.64s13.71-5.88 13.71-13.71c0-2.96-.95-5.6-2.57-7.49-.94-1.03-2.06-1.88-3.31-2.49 2.43-1.96 3.51-4.39 3.51-7.84 0-6.48-4.86-11.27-11.34-11.27-6.27 0-11.34 5.06-11.34 11.34 0 3.11.88 5 3.38 7.77zm7.96-12.29c2.3 0 4.19 1.96 4.19 4.45 0 2.5-1.89 4.53-4.26 4.53-2.36 0-4.25-1.96-4.25-4.46 0-2.56 1.89-4.52 4.32-4.52zm0 16.2c3.38 0 6.15 2.9 6.15 6.48 0 3.65-2.71 6.48-6.22 6.48-1.72 0-3.37-.69-4.58-1.92-1.2-1.24-1.86-2.9-1.83-4.63 0-3.64 2.84-6.41 6.41-6.41zm45.02-9.25c0-8.37-5.39-13.77-13.77-13.77-8.5 0-13.9 5.47-13.9 14.18v14.04c0 4.05.81 6.75 2.63 9.31 2.57 3.38 6.55 5.27 11.61 5.27 4.73 0 8.44-1.76 10.8-5.06 1.89-2.64 2.7-5.41 2.7-9.45zm-20.25.41c0-4.59 2.5-7.36 6.48-7.36 3.99 0 6.35 2.63 6.35 7.36v14.04c0 5.2-2.03 7.76-6.28 7.76s-6.55-2.83-6.55-7.96zm40.84 3.57c-3.42 0-6.32 1.27-8.71 3.79-.45.45-.83.89-1.15 1.34v-3.98c0-.76-.4-1.15-1.21-1.15s-1.22.39-1.22 1.15v35.98c0 .81.41 1.21 1.22 1.21s1.21-.4 1.21-1.21v-16.61l1.15 1.36c2.39 2.52 5.32 3.77 8.78 3.77 3.38 0 6.28-1.25 8.71-3.77 2.38-2.52 3.58-5.54 3.58-9.05 0-3.56-1.2-6.57-3.58-9.04-2.43-2.52-5.36-3.79-8.78-3.79zm0 2.37c2.7 0 5.04 1.03 7.02 3.1 1.94 2.03 2.91 4.48 2.91 7.36s-.97 5.33-2.91 7.36c-1.93 2.02-4.27 3.03-7.02 3.03-2.7 0-5.02-1.01-6.95-3.03-1.94-2.03-2.91-4.48-2.91-7.36v-.47c.1-2.7 1.06-5 2.91-6.89 1.93-2.07 4.25-3.1 6.95-3.1zm0 0" fill="#c4c4c4"/><path d="m104.51 101.81v6.68c-1.71-.76-3.38-1.35-4.99-1.76-1.63-.4-3.18-.6-4.66-.6-1.9 0-3.31.27-4.25.81-.91.54-1.36 1.37-1.36 2.49 0 .82.3 1.47.88 1.96.63.45 1.76.86 3.38 1.22l3.44.67c3.51.68 5.98 1.74 7.43 3.17 1.48 1.44 2.22 3.47 2.22 6.08 0 3.47-1.03 6.03-3.1 7.7-2.03 1.66-5.13 2.49-9.32 2.49-1.98 0-3.98-.18-6-.54-2.03-.36-4.01-.92-5.95-1.68v-6.75c1.98 1.03 3.9 1.82 5.74 2.36 1.89.54 3.69.81 5.4.81 1.8 0 3.15-.29 4.05-.88s1.35-1.42 1.35-2.5c0-.99-.31-1.75-.94-2.29-.59-.54-1.85-1.02-3.78-1.42l-3.11-.67c-3.15-.68-5.44-1.76-6.89-3.25-1.39-1.43-2.09-3.39-2.09-5.87 0-3.15.99-5.56 2.97-7.22 2.03-1.66 4.93-2.5 8.71-2.5 1.71 0 3.47.14 5.27.41 1.8.22 3.66.61 5.6 1.15zm17.21 5.19v19.04h2.91c3.28 0 5.78-.81 7.49-2.43 1.8-1.62 2.7-4 2.7-7.16 0-3.06-.9-5.4-2.7-7.02-1.71-1.61-4.21-2.43-7.49-2.43zm-8.1-6.07h8.51c4.76 0 8.3.34 10.59 1.01 2.34.63 4.35 1.76 6.01 3.38 1.48 1.44 2.57 3.08 3.24 4.93.72 1.79 1.08 3.86 1.08 6.2 0 2.39-.36 4.5-1.08 6.35-.67 1.8-1.76 3.42-3.24 4.86-1.66 1.62-3.69 2.77-6.07 3.44-2.3.68-5.81 1.01-10.53 1.01h-8.44zm0 0"/></svg>